<?xml version="1.0" encoding="utf-8"?>
<!-- Generator: Adobe Illustrator 27.5.0, SVG Export Plug-In . SVG Version: 6.00 Build 0)  -->
<svg version="1.1" xmlns="http://www.w3.org/2000/svg" xmlns:xlink="http://www.w3.org/1999/xlink" x="0px" y="0px"
	 viewBox="0 0 500 500" style="enable-background:new 0 0 500 500;" xml:space="preserve">
<g id="BACKGROUND">
</g>
<g id="OBJECTS">
	<g>
		<g>
			<g>
				<path style="fill:#419D4A;" d="M333.859,141.631l12.401,6.721c14.297-13.965,24.043-32.843,27.307-52.561
					C355.159,105.288,340.633,122.059,333.859,141.631z"/>
				<path style="fill:none;stroke:#36241A;stroke-linecap:round;stroke-linejoin:round;stroke-miterlimit:10;" d="M365.337,107.711
					c-6.976,9.706-13.953,19.413-20.929,29.119"/>
			</g>
			<g>
				<path style="fill:#419D4A;" d="M341.606,150.853l7.99,10.323c10.71-5.592,19.449-15.018,24.766-25.999
					c2.791-5.764-3.708-11.61-9.134-8.209C355.654,132.967,347.464,141.187,341.606,150.853z"/>
				<path style="fill:none;stroke:#36241A;stroke-linecap:round;stroke-linejoin:round;stroke-miterlimit:10;" d="M368.701,132.465
					c-5.62,5.518-11.24,11.036-16.86,16.553"/>
			</g>
			<g>
				<path style="fill:#74CF80;" d="M336.809,66.29c-13.857,19.857-21.073,44.425-19.269,68.605l20.668,6.93
					c13.972-19.132,22.49-42.265,24.587-65.894C364.087,61.366,345.177,54.299,336.809,66.29z"/>
				<path style="fill:none;stroke:#36241A;stroke-linecap:round;stroke-linejoin:round;stroke-miterlimit:10;" d="M347.942,76.451
					c-6.02,18.072-12.04,36.144-18.059,54.215"/>
				<path style="fill:none;stroke:#36241A;stroke-linecap:round;stroke-linejoin:round;stroke-miterlimit:10;" d="M337.454,79.749
					c1.649,4.421,3.297,8.842,4.946,13.264c3.668-2.146,7.336-4.291,11.004-6.437"/>
				<path style="fill:none;stroke:#36241A;stroke-linecap:round;stroke-linejoin:round;stroke-miterlimit:10;" d="M332.297,97.618
					c1.65,3.646,3.3,7.291,4.95,10.937c3.337-1.932,6.673-3.865,10.01-5.797"/>
			</g>
		</g>
		<g>
			<path style="fill:#74CF80;" d="M375.168,295.041l-9.491,13.974c12.612,9.965,27.769,16.313,43.598,19.136
				c6.244,1.114,10.126-6.543,5.497-10.88C403.616,306.82,389.919,299.07,375.168,295.041z"/>
			<path style="fill:none;stroke:#36241A;stroke-linecap:round;stroke-linejoin:round;stroke-miterlimit:10;" d="M377.359,305.063
				c10.336,4.51,20.672,9.019,31.008,13.529"/>
		</g>
		<g>
			<g>
				<path style="fill:#88BAFF;" d="M428.447,293.254l6.059-4.639l5.969,1.016l1.678-9.851l-5.969-1.016l-4.182-6.383
					c-1.53-2.336-3.963-3.929-6.716-4.398l-51.426-8.758c-3.622-0.617-6.638,2.776-5.6,6.301l2.088,7.095l-4.319,6.004
					c-2.146,2.983-0.423,7.182,3.199,7.799l51.426,8.758C423.406,295.649,426.23,294.951,428.447,293.254z"/>
				<path style="fill:#36241A;" d="M438.936,290.25l1.97-11.565l3.764,0.641c1.233,0.21,2.062,1.38,1.852,2.613l-1.209,7.099
					c-0.21,1.233-1.38,2.062-2.613,1.852L438.936,290.25z"/>
			</g>
			<polygon style="fill:#FA6C3A;" points="411.786,265.683 405.405,292.583 381.589,288.528 386.589,261.392 			"/>
			<path style="fill:none;stroke:#36241A;stroke-linecap:round;stroke-linejoin:round;stroke-miterlimit:10;" d="M420.889,292.155
				c2.306,0.781,5.012,0.237,6.837-1.376"/>
			<path style="fill:none;stroke:#FFFFFF;stroke-linecap:round;stroke-linejoin:round;stroke-miterlimit:10;" d="M405.665,267.151
				c5.716,0.703,11.432,1.407,17.148,2.11"/>
		</g>
		<g>
			<path style="fill:#74CF80;" d="M381.026,256.253l-6.084-50.448l59.114-7.129c3.381-0.408,6.453,2.003,6.861,5.384l5.345,44.325
				L381.026,256.253z"/>
			<path style="fill:#FFFFFF;" d="M431.035,207.038l4.772,39.573l7.41-0.894l-4.772-39.573c-0.202-1.677-1.726-2.873-3.403-2.671
				l-1.337,0.161C432.029,203.837,430.833,205.361,431.035,207.038z"/>
			<path style="fill:none;stroke:#36241A;stroke-linecap:round;stroke-linejoin:round;stroke-miterlimit:10;" d="M430.339,249.864
				c1.023-0.757,1.94-2.235,1.799-3.5c-1.552-13.884-3.104-27.768-4.657-41.652c-0.233-2.087,1.048-4.71,3.032-5.398"/>
		</g>
		<g>
			<path style="fill:#36241A;" d="M401.578,212.441l37.183-39.39c1.012-1.072,1.203-2.546,0.452-3.503l-38.392-48.916
				c-0.736-0.937-2.328-0.833-3.32,0.219l-39.351,41.688c-1.012,1.072-1.203,2.546-0.452,3.503l24.461,31.167l15.344,19.55
				l7.991,10.182c1.011,1.288,3.105,1.333,4.676,0.1l1.773-1.391L401.578,212.441z"/>
			<polygon style="fill:#85412E;" points="401.243,208.466 365.516,162.945 400.264,126.133 435.991,171.654 			"/>
			<path style="fill:none;stroke:#36241A;stroke-linecap:round;stroke-miterlimit:10;" d="M369.391,180.939
				c1.011,1.288,3.105,1.333,4.676,0.1l1.773-1.391"/>
			<polyline style="fill:none;stroke:#FFFFFF;stroke-linecap:round;stroke-miterlimit:10;" points="401.578,212.441 
				362.196,162.263 399.777,122.492 			"/>
		</g>
		<g>
			<path style="fill:#FFCA5E;" d="M395.167,249.306c0,37.537-14.076,71.785-37.242,97.749l-52.527-2.329L298.3,295.4
				c11.18-12.128,17.995-28.316,17.995-46.093c0-30.449-20.009-56.239-47.606-64.904l32.55-29.219l-22.589-49.631
				C345.199,119.552,395.167,178.6,395.167,249.306z"/>
			<path id="SVGID_x5F_1_x5F_" style="fill:none;" d="M330.354,286.993c5.235-11.446,8.153-24.173,8.153-37.582
				c0-23.083-8.647-44.147-22.878-60.129"/>
			<text>			<textPath  xlink:href="#SVGID_x5F_1_x5F_" startOffset="0%">
<tspan  style="fill:#FFFFFF; font-family:'MiriamLibre-Bold'; font-size:34.8364px;"></tspan>			</textPath>
</text>
		</g>
	</g>
	<g>
		<g>
			<g>
				<polygon style="fill:#FFCA5E;" points="180.197,140.811 157.173,158.7 111.967,108.05 127.898,73.5 				"/>
				
					<rect x="144.114" y="112.276" transform="matrix(0.7897 -0.6135 0.6135 0.7897 -46.6789 120.1553)" style="fill:#36241A;" width="15.581" height="31.763"/>
				<path style="fill:#36241A;" d="M137.415,103.977c-1.15-1.48-3.282-1.748-4.762-0.598c-1.48,1.15-1.748,3.282-0.598,4.762
					c1.15,1.48,3.282,1.748,4.762,0.598C138.297,107.59,138.565,105.457,137.415,103.977z"/>
				<path style="fill:none;stroke:#36241A;stroke-linecap:round;stroke-linejoin:round;stroke-miterlimit:10;" d="M116.291,110.506
					c5.259-10,10.519-19.999,15.779-29.999"/>
				<path style="fill:none;stroke:#FFFFFF;stroke-linecap:round;stroke-miterlimit:10;" d="M143.223,115.574
					c4.24,6.713,8.481,13.426,12.721,20.139"/>
			</g>
			<g>
				<polygon style="fill:#FFCA5E;" points="202.069,129.576 176.983,144.436 137.706,89.767 158.628,56.235 				"/>
				
					<rect x="167.797" y="97.592" transform="matrix(0.8604 -0.5096 0.5096 0.8604 -33.3162 105.3255)" style="fill:#36241A;" width="15.581" height="31.763"/>
				<path style="fill:#36241A;" d="M164.246,87.666c-0.955-1.613-3.037-2.146-4.65-1.19c-1.613,0.955-2.146,3.037-1.19,4.65
					c0.955,1.613,3.037,2.146,4.65,1.19C164.668,91.36,165.201,89.279,164.246,87.666z"/>
				<path style="fill:none;stroke:#36241A;stroke-linecap:round;stroke-linejoin:round;stroke-miterlimit:10;" d="M142.189,91.106
					c6.354-9.568,12.709-19.135,19.063-28.703"/>
				<path style="fill:none;stroke:#FFFFFF;stroke-linecap:round;stroke-miterlimit:10;" d="M167.963,100.378
					c3.607,6.899,7.213,13.798,10.82,20.697"/>
			</g>
			<g>
				<polygon style="fill:#F89D44;" points="54.353,113.763 62.606,104.804 141.69,173.877 131.986,184.411 				"/>
				<path style="fill:none;stroke:#36241A;stroke-linecap:round;stroke-linejoin:round;stroke-miterlimit:10;" d="M59.721,117.596
					c3.005-2.559,6.011-5.118,9.016-7.677"/>
				<path style="fill:none;stroke:#36241A;stroke-linecap:round;stroke-linejoin:round;stroke-miterlimit:10;" d="M61.886,120.71
					c2.879-2.769,5.758-5.538,8.637-8.307"/>
			</g>
			<g>
				<polygon style="fill:#FFCA5E;" points="162.135,155.995 141.518,176.612 90.337,132.045 101.86,95.72 				"/>
				
					<rect x="124.696" y="131.082" transform="matrix(0.7071 -0.7071 0.7071 0.7071 -65.1145 136.7265)" style="fill:#36241A;" width="15.581" height="31.763"/>
				<path style="fill:#36241A;" d="M115.098,124.775c-1.325-1.325-3.474-1.325-4.8,0c-1.326,1.326-1.326,3.474,0,4.8
					c1.325,1.326,3.474,1.326,4.8,0C116.424,128.25,116.424,126.101,115.098,124.775z"/>
				<path style="fill:none;stroke:#36241A;stroke-linecap:round;stroke-linejoin:round;stroke-miterlimit:10;" d="M105.701,100.726
					c-4.125,11.306-8.25,22.611-12.375,33.917"/>
				<path style="fill:none;stroke:#FFFFFF;stroke-linecap:round;stroke-miterlimit:10;" d="M121.99,136.606
					c5.719,5.414,11.439,10.828,17.158,16.241"/>
			</g>
		</g>
		<g>
			<g>
				<path style="fill:#419D4A;" d="M226.328,92.583c-4.972,7.353-7.876,16.12-8.039,25.002l11.75,2.964
					c4.815-6.817,7.463-15.249,8.084-23.803C238.6,90.18,230.015,87.13,226.328,92.583z"/>
				<path style="fill:none;stroke:#36241A;stroke-linecap:round;stroke-linejoin:round;stroke-miterlimit:10;" d="M230.829,96.237
					c-0.941,3.294-1.881,6.589-2.822,9.883"/>
			</g>
			<g>
				<path style="fill:#419D4A;" d="M219.722,75.593c-11.727,10.393-17.653,26.95-15.184,42.424l17.246-1.955
					C225.889,102.949,225.158,88.212,219.722,75.593z"/>
				<path style="fill:none;stroke:#36241A;stroke-linecap:round;stroke-linejoin:round;stroke-miterlimit:10;" d="M217.405,87.764
					c-0.942,6.274-1.884,12.549-2.826,18.823"/>
				<path style="fill:none;stroke:#36241A;stroke-linecap:round;stroke-linejoin:round;stroke-miterlimit:10;" d="M211.148,92.173
					c1.598,2.307,3.197,4.614,4.795,6.922c1.238-1.763,2.476-3.525,3.714-5.288"/>
			</g>
			<g>
				<path style="fill:#74CF80;" d="M189.338,65.262c-9.099,17.139-10.615,38.134-4.072,56.403l15.426-0.221
					C204.664,102.073,199.855,82.007,189.338,65.262z"/>
				<path style="fill:none;stroke:#36241A;stroke-linecap:round;stroke-linejoin:round;stroke-miterlimit:10;" d="M190.3,84.944
					c-0.14,9.725-0.279,19.449-0.419,29.174"/>
				<path style="fill:none;stroke:#36241A;stroke-linecap:round;stroke-linejoin:round;stroke-miterlimit:10;" d="M185.298,91.917
					c1.637,2.378,3.273,4.757,4.91,7.135c2.18-2.732,4.36-5.463,6.54-8.195"/>
			</g>
		</g>
		<g>
			<g>
				<path style="fill:#419D4A;" d="M106.45,171.125c2.704,8.301,9.71,15.068,18.1,17.482l3.379-10.632
					C122.119,172.593,114.336,170.392,106.45,171.125z"/>
				<path style="fill:none;stroke:#36241A;stroke-linecap:round;stroke-linejoin:round;stroke-miterlimit:10;" d="M112.743,175.212
					c2.747,1.251,5.494,2.501,8.241,3.752"/>
			</g>
			<g>
				<path style="fill:#74CF80;" d="M63.565,191.844c-8.288-0.15-11.513,10.728-4.549,15.225c6.961,4.495,14.68,7.818,22.747,9.715
					c15.252,3.586,31.662,2.053,45.986-4.297l-1.314-10.762C105.978,195.597,84.836,192.227,63.565,191.844z"/>
				<path style="fill:none;stroke:#36241A;stroke-linecap:round;stroke-linejoin:round;stroke-miterlimit:10;" d="M62.088,199.898
					c16.326,3.63,32.653,7.259,48.979,10.888"/>
				<path style="fill:none;stroke:#36241A;stroke-linecap:round;stroke-linejoin:round;stroke-miterlimit:10;" d="M68.318,205.224
					c2.64-0.784,5.279-1.567,7.919-2.351c-1.883-2.134-3.766-4.268-5.649-6.402"/>
			</g>
			<g>
				<path style="fill:#419D4A;" d="M75.469,183.858c13.502,15.005,34.051,23.381,54.196,22.092l2.077-10.021
					C115.676,184.468,94.947,180.683,75.469,183.858z"/>
				<path style="fill:none;stroke:#36241A;stroke-linecap:round;stroke-linejoin:round;stroke-miterlimit:10;" d="M85.676,187.422
					c9.247,2.463,18.493,4.925,27.74,7.388"/>
				<path style="fill:none;stroke:#36241A;stroke-linecap:round;stroke-linejoin:round;stroke-miterlimit:10;" d="M96.542,186.475
					c1.248,1.653,2.496,3.306,3.744,4.959c-1.741,0.584-3.482,1.167-5.224,1.751"/>
			</g>
		</g>
		<g>
			<path style="fill:#FA6C3A;" d="M301.239,155.183l-32.55,29.219c-6.456-2.036-13.314-3.125-20.434-3.125
				c-37.569,0-68.04,30.46-68.04,68.029c0,6.216,0.838,12.237,2.395,17.952l-40.791-13.205l-34.096,38.135
				c-4.148-13.564-6.368-27.967-6.368-42.882c0-81.125,65.776-146.901,146.901-146.901c10.418,0,20.586,1.089,30.395,3.146
				L301.239,155.183z"/>
			<path id="SVGID_x5F_00000159457022450670537000000008165827464494186657_x5F_" style="fill:none;" d="M248.054,158.958
				c-37.116,0-69.012,22.356-82.954,54.337"/>
			<text>			<textPath  xlink:href="#SVGID_x5F_00000159457022450670537000000008165827464494186657_x5F_" startOffset="0%">
<tspan  style="fill:#FFFFFF; font-family:'MiriamLibre-Bold'; font-size:34.8364px;"></tspan>			</textPath>
</text>
		</g>
	</g>
	<g>
		<path style="fill:#FFCA5E;" d="M302.023,70.882c2.251,1.333,4.919,1.323,7.09,0.22c-0.076-2.434-1.35-4.779-3.6-6.112
			c-2.251-1.333-4.919-1.324-7.09-0.22C298.499,67.204,299.773,69.549,302.023,70.882z"/>
		<path style="fill:#FFCA5E;" d="M78.205,156.087c2.337-1.175,3.769-3.427,4.012-5.85c-2.09-1.25-4.752-1.443-7.089-0.268
			c-2.337,1.175-3.769,3.427-4.012,5.85C73.206,157.069,75.868,157.262,78.205,156.087z"/>
		<path style="fill:#FFCA5E;" d="M390.859,360.586c1.333,2.251,3.677,3.525,6.111,3.602c1.104-2.171,1.114-4.839-0.219-7.09
			c-1.332-2.251-3.677-3.526-6.111-3.602C389.536,355.666,389.526,358.335,390.859,360.586z"/>
		<polygon style="fill:#FBA778;" points="252.83,78.818 259.075,73.671 251.495,70.837 		"/>
		<polygon style="fill:#88BAFF;" points="76.651,266.53 74.556,258.713 68.834,264.435 		"/>
		<polygon style="fill:#FFCA5E;" points="301.844,433.138 305.89,426.129 297.798,426.129 		"/>
		<circle style="fill:#36241A;" cx="291.044" cy="94.538" r="2.177"/>
		<path style="fill:#36241A;" d="M86.324,232.87c0-1.202-0.975-2.177-2.177-2.177s-2.177,0.975-2.177,2.177
			c0,1.202,0.975,2.177,2.177,2.177S86.324,234.073,86.324,232.87z"/>
		<path style="fill:#FFCA5E;" d="M86.839,318.026c0-1.203-0.975-2.177-2.177-2.177c-1.202,0-2.177,0.975-2.177,2.177
			c0,1.202,0.975,2.177,2.177,2.177C85.864,320.203,86.839,319.228,86.839,318.026z"/>
		<circle style="fill:#88BAFF;" cx="100.327" cy="318.026" r="2.177"/>
		<path style="fill:#88BAFF;" d="M370.725,369.103c0-1.202-0.975-2.177-2.177-2.177c-1.202,0-2.177,0.975-2.177,2.177
			c0,1.202,0.975,2.177,2.177,2.177C369.75,371.28,370.725,370.305,370.725,369.103z"/>
		<path style="fill:#36241A;" d="M353.317,391.153c0-1.202-0.975-2.177-2.177-2.177c-1.203,0-2.177,0.975-2.177,2.177
			c0,1.202,0.975,2.177,2.177,2.177C352.342,393.331,353.317,392.356,353.317,391.153z"/>
		<path style="fill:#FBA778;" d="M340.684,384.238c0-1.202-0.975-2.177-2.177-2.177c-1.202,0-2.177,0.975-2.177,2.177
			c0,1.203,0.975,2.177,2.177,2.177C339.709,386.415,340.684,385.44,340.684,384.238z"/>
		<path style="fill:#FFCA5E;" d="M429.006,310.525c0-1.202-0.975-2.177-2.177-2.177c-1.202,0-2.177,0.975-2.177,2.177
			c0,1.203,0.975,2.177,2.177,2.177C428.031,312.702,429.006,311.727,429.006,310.525z"/>
		<path style="fill:#FFCA5E;" d="M103.532,163.034c0-1.202-0.975-2.177-2.177-2.177c-1.202,0-2.177,0.975-2.177,2.177
			c0,1.202,0.975,2.177,2.177,2.177C102.557,165.212,103.532,164.237,103.532,163.034z"/>
	</g>
	<g>
		<g>
			<g>
				<path style="fill:#FA6C3A;" d="M157.632,360.428l-28.554,46.093c0,0,5.879,23.107,33.262,18.214l23.081-48.594L157.632,360.428z
					"/>
				<polygon style="fill:#36241A;" points="147.01,393.282 141.823,402.258 157.25,411.206 162.341,402.258 				"/>
				<path style="fill:none;stroke:#36241A;stroke-linecap:round;stroke-linejoin:round;stroke-miterlimit:10;" d="M132.267,404.698
					c1.465,6.035,5.505,11.4,10.901,14.476c5.395,3.076,12.07,3.82,18.01,2.006"/>
				<path style="fill:none;stroke:#36241A;stroke-linecap:round;stroke-linejoin:round;stroke-miterlimit:10;" d="M139.779,403.736
					c5.945,3.012,11.89,6.023,17.835,9.035"/>
			</g>
			<g>
				<path style="fill:#FFCA5E;" d="M183.63,375.157l-21.799,49.645c0,0,9.065,22.052,35.49,13.364l16.029-51.354L183.63,375.157z"/>
				<circle style="fill:#36241A;" cx="183.8" cy="419.956" r="5.667"/>
				<path style="fill:none;stroke:#36241A;stroke-linecap:round;stroke-linejoin:round;stroke-miterlimit:10;" d="M163.896,421.445
					c2.021,6.405,7.076,11.78,13.346,14.189c6.27,2.409,13.623,1.802,19.413-1.601"/>
				<path style="fill:none;stroke:#36241A;stroke-linecap:round;stroke-linejoin:round;stroke-miterlimit:10;" d="M176.933,424.476
					c1.492,2.218,4.131,3.617,6.804,3.605c2.673-0.011,5.301-1.432,6.774-3.662"/>
			</g>
			<g>
				<path style="fill:#74CF80;" d="M210.82,385.546l-13.832,52.427c0,0,12.377,20.378,37.133,7.695l7.867-53.219L210.82,385.546z"/>
				
					<rect x="216.209" y="420.024" transform="matrix(0.1925 -0.9813 0.9813 0.1925 -245.3795 560.4501)" style="fill:#36241A;" width="3.266" height="18.59"/>
				<path style="fill:none;stroke:#36241A;stroke-linecap:round;stroke-linejoin:round;stroke-miterlimit:10;" d="M198.531,434.868
					c4.009,5.207,9.938,8.9,16.379,10.201c6.441,1.302,13.339,0.201,19.055-3.041"/>
				<path style="fill:none;stroke:#36241A;stroke-linecap:round;stroke-linejoin:round;stroke-miterlimit:10;" d="M208.906,431.938
					c6.198,1.247,12.395,2.495,18.593,3.742"/>
			</g>
		</g>
		<g>
			<g>
				<path style="fill:#74CF80;" d="M286.095,360.016l-9.427,6.042c-0.61,22.909,13.2,45.58,33.837,55.548
					C309.1,399.049,300.787,377.191,286.095,360.016z"/>
				<path style="fill:none;stroke:#36241A;stroke-linecap:round;stroke-linejoin:round;stroke-miterlimit:10;" d="M291.503,386.244
					c3.507,6.757,7.014,13.514,10.521,20.27"/>
			</g>
			<g>
				<path style="fill:#419D4A;" d="M300.258,353.409l-13.504,13.395c6.526,21.076,20.38,39.719,38.385,52.431
					c6.864,4.846,15.932-2.1,13.095-10.01C330.547,387.789,317.38,367.989,300.258,353.409z"/>
				<path style="fill:none;stroke:#36241A;stroke-linecap:round;stroke-linejoin:round;stroke-miterlimit:10;" d="M308.04,379.562
					c5.877,8.004,11.754,16.008,17.631,24.012"/>
				<path style="fill:none;stroke:#36241A;stroke-linecap:round;stroke-linejoin:round;stroke-miterlimit:10;" d="M317.391,402.587
					c0.236-2.943,0.472-5.887,0.708-8.83c2.67,0.376,5.34,0.753,8.01,1.129"/>
			</g>
		</g>
		<g>
			<g>
				<path style="fill:#74CF80;" d="M146.133,328.733c-17.367,11.044-30.89,28.013-37.779,47.407
					c20.194-5.387,37.657-20.209,46.253-39.259L146.133,328.733z"/>
				<path style="fill:none;stroke:#36241A;stroke-linecap:round;stroke-linejoin:round;stroke-miterlimit:10;" d="M118.876,365.698
					c6.326-6.457,12.653-12.914,18.98-19.372"/>
			</g>
			<g>
				<path style="fill:#419D4A;" d="M139.113,321.439c-20.922,2.551-40.83,12.42-55.736,27.293c-3.908,3.9-0.809,10.573,4.694,10.125
					c21.586-1.757,42.552-11.643,57.563-27.289L139.113,321.439z"/>
				<path style="fill:none;stroke:#36241A;stroke-linecap:round;stroke-linejoin:round;stroke-miterlimit:10;" d="M95.482,347.189
					c10.723-4.816,21.446-9.631,32.169-14.447"/>
				<path style="fill:none;stroke:#36241A;stroke-linecap:round;stroke-linejoin:round;stroke-miterlimit:10;" d="M98.354,340.933
					c2.588,0.471,5.176,0.941,7.765,1.412c-1.456,2.801-2.961,5.584-4.417,8.385"/>
				<path style="fill:none;stroke:#36241A;stroke-linecap:round;stroke-linejoin:round;stroke-miterlimit:10;" d="M115.76,334.593
					c1.099,1.109,2.681,1.72,4.24,1.639"/>
			</g>
		</g>
		<g>
			<path style="fill:#88BAFF;" d="M305.398,344.726L298.3,295.4c-12.421,13.488-30.242,21.947-50.045,21.947
				c-31.353,0-57.763-21.217-65.645-50.088l-40.791-13.205l-34.096,38.135c18.333,60.223,74.321,104.03,140.532,104.03
				c43.6,0,82.769-18.997,109.669-49.163L305.398,344.726z"/>
			<path id="SVGID_x5F_00000128474713776110494440000008087356573727237767_x5F_" style="fill:none;" d="M171.094,283.386
				c12.583,31.026,43.014,52.907,78.555,52.907c8.205,0,16.138-1.166,23.641-3.342"/>
			<text>			<textPath  xlink:href="#SVGID_x5F_00000128474713776110494440000008087356573727237767_x5F_" startOffset="0%">
<tspan  style="fill:#FFFFFF; font-family:'MiriamLibre-Bold'; font-size:34.8364px;"></tspan>			</textPath>
</text>
		</g>
		<g>
			<polygon style="fill:#36241A;" points="262.848,401.502 256.689,407.514 262.541,412.464 266.279,408.756 			"/>
			<polygon style="fill:#36241A;" points="280.557,428.97 278.615,420.584 271.347,423.018 272.576,428.136 			"/>
			<polygon style="fill:#36241A;" points="246.838,430.62 254.908,433.614 256.877,426.207 251.926,424.416 			"/>
			<polygon style="fill:#88BAFF;" points="268.771,414.026 267.329,415.049 274.237,418.027 277.659,410.651 275.664,410.952 
				270.577,398.582 262.848,401.502 			"/>
			<polygon style="fill:#88BAFF;" points="266.492,427.531 266.366,425.768 260.236,430.127 264.764,436.88 265.542,435.02 
				278.756,437.091 280.271,428.97 			"/>
			<polygon style="fill:#88BAFF;" points="255.624,419.908 257.164,420.773 256.9,413.255 248.769,413.319 249.894,414.993 
				240.891,424.884 246.838,430.62 			"/>
		</g>
	</g>
</g>
</svg>
