<?xml version="1.0" encoding="utf-8"?>
<!-- Generator: Adobe Illustrator 28.0.0, SVG Export Plug-In . SVG Version: 6.00 Build 0)  -->
<svg version="1.1" id="Layer_1" xmlns="http://www.w3.org/2000/svg" xmlns:xlink="http://www.w3.org/1999/xlink" x="0px" y="0px"
	 viewBox="0 0 4047.3 1872.8" style="enable-background:new 0 0 4047.3 1872.8;" xml:space="preserve">
<style type="text/css">
	.st0{fill:#F4BD31;}
	.st1{fill:#F4BD31;stroke:#F4BD31;stroke-width:5;stroke-miterlimit:10;}
	.st2{fill:#423C52;}
	.st3{fill:#4158B7;}
	.st4{fill:#4158B7;stroke:#4158B7;stroke-width:5;stroke-miterlimit:10;}
	.st5{fill:#CE4532;}
	.st6{fill:#CE4532;stroke:#CE4532;stroke-width:6;stroke-miterlimit:10;}
	.st7{fill:#87A858;}
	.st8{fill:#87A858;stroke:#87A858;stroke-width:5;stroke-miterlimit:10;}
	.st9{fill:#FFFFFF;}
	.st10{fill:#666538;}
	.st11{fill:#BAB653;}
	.st12{fill:#FFDB00;}
	.st13{fill:#EB7500;}
	.st14{fill:none;stroke:#FFDB00;stroke-width:5;stroke-miterlimit:10;}
	.st15{fill:#423C52;stroke:#FFFFFF;stroke-miterlimit:10;}
	.st16{fill:#DEB8FC;}
	.st17{fill:#FFAA9F;}
	.st18{fill:none;stroke:#AD4D4D;stroke-width:5;stroke-linecap:round;stroke-linejoin:round;}
	.st19{fill:none;stroke:#FFAA9F;stroke-width:5;stroke-linejoin:round;}
	.st20{fill:#F98638;stroke:#E2762D;stroke-width:6;stroke-linejoin:round;}
	.st21{fill:#F98638;stroke:#E2762D;stroke-width:5.9994;stroke-linejoin:round;stroke-miterlimit:3.9996;}
	.st22{fill:none;stroke:#E2762D;stroke-width:6;stroke-linecap:round;stroke-linejoin:round;}
	.st23{opacity:0.5;fill:#BAB653;stroke:#BAB653;stroke-miterlimit:10;enable-background:new    ;}
	.st24{fill:#666600;stroke:#666600;stroke-width:5;stroke-miterlimit:10;}
	.st25{fill:none;stroke:#423C52;stroke-width:5;stroke-linecap:round;stroke-miterlimit:10;}
	.st26{fill:#323F2A;}
	.st27{fill:#666600;stroke:#423C52;stroke-width:5;stroke-miterlimit:10;}
	.st28{fill:#F98638;stroke:#F98638;stroke-width:6;stroke-linejoin:round;}
	.st29{fill:none;stroke:#F98638;stroke-width:6;stroke-linecap:round;stroke-linejoin:round;}
	.st30{fill:none;stroke:#FFFFFF;stroke-width:5;stroke-linecap:round;stroke-linejoin:round;}
	.st31{fill:#FFAA9F;stroke:#FFAA9F;stroke-miterlimit:10;}
	.st32{fill:#E9CF81;stroke:#E9CF81;stroke-width:6;stroke-linejoin:round;}
	.st33{fill:#FFEDB5;}
	.st34{fill:#59595B;}
	.st35{fill:#272525;}
</style>
<g>
	<g id="Layer_2_00000088846263029561054860000015206774924289205170_">
		<g id="Слой_1">
			<g id="TRASH_CANS">
				<polygon class="st0" points="2991,1868.3 3630.8,1868.3 3706.6,1114.7 2915,1114.7 				"/>
				<path class="st1" d="M3653.6,1150.4H2968c-29.3,0-53.1-23.8-53.1-53V817.3c0-29.3,23.8-53.1,53.1-53.1h685.6
					c29.3,0,53.1,23.8,53.1,53.1v280.1C3706.7,1126.7,3682.9,1150.4,3653.6,1150.4z"/>
				<path class="st2" d="M3608.9,1116.7h-595.8c-29.3,0-53.1-23.8-53.1-53.1V876.3c0-29.3,23.8-53.1,53.1-53.1h595.8
					c29.3,0,53.1,23.8,53.1,53.1v187.3C3661.9,1093,3638.2,1116.7,3608.9,1116.7z"/>
				<polygon class="st3" points="2187.1,1868.3 2828,1868.3 2904,1114.7 2111,1114.7 				"/>
				<path class="st4" d="M2850.3,1163.7h-685.6c-29.3,0-53.1-23.8-53.1-53V830.6c0-29.3,23.8-53.1,53.1-53.1h685.6
					c29.3,0,53.1,23.8,53.1,53.1v280.1C2903.4,1140,2879.6,1163.7,2850.3,1163.7z"/>
				<path class="st2" d="M2805.4,1116.7h-595.8c-29.3,0-53.1-23.8-53.1-53.1V876.3c0-29.3,23.8-53.1,53.1-53.1h595.8
					c29.3,0,53.1,23.8,53.1,53.1v187.3C2858.5,1093,2834.7,1116.7,2805.4,1116.7z"/>
				<polyline class="st5" points="1386.4,1868.3 1310.5,1114.7 2102.1,1114.7 2026.2,1868.3 				"/>
				<path class="st6" d="M1363.5,777.5h685.6c29.3,0,53.1,23.8,53.1,53v280.1c0,29.3-23.8,53.1-53.1,53.1h-685.6
					c-29.3,0-53.1-23.8-53.1-53.1v-280C1310.5,801.3,1334.2,777.5,1363.5,777.5z"/>
				<path class="st2" d="M1408.4,823.3h595.8c29.3,0,53.1,23.8,53.1,53v187.3c0,29.3-23.8,53.1-53.1,53.1h-595.8
					c-29.3,0-53.1-23.8-53.1-53.1V876.4C1355.3,847.1,1379.1,823.3,1408.4,823.3z"/>
				<polygon class="st7" points="1224.9,1870.3 582.4,1870.3 506.1,1116.7 1301.1,1116.7 				"/>
				<path class="st8" d="M560.9,779.5h685.5c29.3,0,53.1,23.8,53.1,53v280.1c0,29.3-23.8,53.1-53.1,53.1H560.9
					c-29.3,0-53-23.8-53-53.1v-280C507.8,803.3,531.6,779.5,560.9,779.5z"/>
				<path class="st2" d="M605.7,823.3h595.8c29.3,0,53.1,23.8,53.1,53v187.3c0,29.3-23.8,53.1-53.1,53.1H605.7
					c-29.3,0-53-23.8-53-53.1V876.4C552.7,847.1,576.4,823.3,605.7,823.3z"/>
			</g>
			<g>
				<path class="st9" d="M1039.1,1391.7c-23.4,4.3-38.4,32.6-44.9,38.5c-0.7-0.2-1.4-0.3-2.2-0.3h-11.7v-25.4c0-3.2-2.6-5.7-5.7-5.7
					s-5.7,2.6-5.7,5.7v25.4h-18.3v-30.5c0-3.2-2.6-5.7-5.7-5.7s-5.7,2.6-5.7,5.7v30.5h-18.3v-35.6c0-3.2-2.6-5.7-5.7-5.7
					s-5.7,2.6-5.7,5.7v35.6H891v-30.5c0-3.2-2.6-5.7-5.7-5.7c-3.2,0-5.7,2.6-5.7,5.7v30.5h-16.7c-1.2-35.6-9.9-55.7-9.9-55.7
					c-49.2,3.1-84.9,50.5-84.9,50.5l10,13l-10,13c0,0,35.7,47.4,84.9,50.5c0,0,8.7-20,9.9-55.7h16.7v30.5c0,3.2,2.6,5.7,5.7,5.7
					s5.7-2.6,5.7-5.7v-30.5h18.3v35.6c0,3.2,2.6,5.7,5.7,5.7c3.2,0,5.7-2.6,5.7-5.7v-35.6h18.3v30.5c0,3.2,2.6,5.7,5.7,5.7
					c3.2,0,5.7-2.6,5.7-5.7v-30.5h18.3v25.4c0,3.2,2.6,5.7,5.7,5.7c3.2,0,5.7-2.6,5.7-5.7v-25.4h11.7c0.8,0,1.5-0.1,2.2-0.3
					c6.5,5.9,21.4,34.3,44.8,38.5l-4-46L1039.1,1391.7z M820.8,1430.5c-4.9,0-8.9-4-8.9-8.9c0-4.9,4-8.9,8.9-8.9
					c4.9,0,8.9,4,8.9,8.9C829.8,1426.5,825.8,1430.5,820.8,1430.5z"/>
			</g>
			<g id="PLANTS">
				<path class="st10" d="M3864.4,1872.7H2894c0,0,35.6-119.9,170.3-125.3s289.5,81.8,289.5,81.8s24.6-286.2,255.9-302.3
					S3864.4,1872.7,3864.4,1872.7z"/>
				<path class="st11" d="M4042.1,1800.7c-31.1,44.4-78.3,72.1-78.3,72.1h-489c-54.8-111.9-52.5-260.8-40.8-323.8
					c3.6-19.1,27.4-26,40.4-11.6c78.6,86.8,154.7,273.6,154.7,273.6c18-200.8,124.8-387.5,182.5-475.5
					c15.2-23.2,50.8-16.9,57.1,10.1c41.8,178.8-38.3,349.1-41.3,355.4c34.4-66.9,92.3-116.5,131.6-144.6c18.2-13,43.4,0.8,42.1,23.1
					c-5,92.1-42.4,167.6-77.1,218.9c28.5-20,60.5-32.8,87-40.8C4036.6,1749.8,4057.4,1778.8,4042.1,1800.7z"/>
				<ellipse class="st11" cx="1012" cy="1695.9" rx="149.1" ry="149.1"/>
				<path class="st10" d="M1420.6,1868.5H0c3-22,24.9-118.1,174.2-110.3c0,0,31.9-303.7,344.2-322.3
					c379.9-22.7,476.2,330.8,476.2,330.8S1349.7,1679.2,1420.6,1868.5z"/>
				<path class="st11" d="M414.3,1868.5c0,0-140.2-146.2-8.2-213c97-49.2,110.6,189.5,110.6,189.5s-1.2-121.2,37.7-116.5
					s0,130.7,0,130.7s80-66,109.5-31.8s-74.1,41.2-74.1,41.2L414.3,1868.5z"/>
			</g>
			<g id="_4_HAND">
				<g id="PAPER_BAG">
					<path class="st12" d="M3398,522.2c-22.1,0-41.1,15.8-45,37.6l-62,343.8c-5.1,24.1,10.4,47.7,34.5,52.8c3,0.6,6.1,0.9,9.1,0.9
						h-157.5c-24.6,0-44.6-20-44.6-44.6c0-3.1,0.3-6.1,0.9-9.1l62-343.8c3.9-21.8,22.9-37.6,45-37.6L3398,522.2L3398,522.2z"/>
					<path class="st13" d="M3367.4,550.5c3.6-18.9,22.6-28.3,41.4-28.3H3398c-22.1,0-41.1,15.8-45,37.6l-62,343.8
						c-5.1,24.1,10.4,47.7,34.5,52.8c3,0.6,6.1,0.9,9.1,0.9h51.7c24.6,0,44.6-20,44.6-44.6c0-3.1-0.3-6.1-0.9-9.1L3367.4,550.5z"/>
					<polyline class="st14" points="3361.1,536.6 3361.1,897.6 3411,949.9 					"/>
					<line class="st14" x1="3310.8" y1="951.3" x2="3361.1" y2="897.6"/>
				</g>
				<g id="CLOTHES">
					<path class="st15" d="M3583,616.3c-9.3,1.5-11.5-32-11.5-32c-7-103.7,37.9-176.1,49.9-190.7c7.5-8.9,14.6-14.6,20.9-13.5
						c15.3,2.8,21.6,61.9,4.9,126.9C3635.1,553.8,3599.8,613.6,3583,616.3z"/>
					<path class="st16" d="M3582.5,613.4l273.2,189c30.4,18,91.2-79.3,88.1-183.8s-41.1-187.6-96-198.5l-205.4-37.3
						c0,0,25.4,50-0.4,130C3615.8,594.4,3582.5,613.4,3582.5,613.4z"/>
				</g>
				<g id="HAND">
					<path class="st17" d="M3643.2,501.4c-11.6,46.4-29.6,84.4-45.6,99.4l-30.1-19.5l-97.4-63.1l-12.1,26.3
						c-7,11.7-19.5,18.8-33.1,19l-38.7,0.5c-4.3,0.1-7.9-3.4-7.9-7.7c0,0,0,0,0-0.1c0-13.3,7.8-25.4,19.9-30.8l10.4-4.6l-0.9-12.6
						c0-10.7-8.7-19.4-19.4-19.4h-36.1c-6.6,0-12.7,3.3-16.2,8.8l-14,49.7c5.9,8.1,8.3,18.3,6.6,28.2l-1.6,9.3
						c-0.6,3.5-3.9,5.8-7.3,5.2c-1-0.2-1.9-0.5-2.7-1.1l-80.7-56.8c-15.1-11.2-20.7-31.1-13.7-48.5l44.8-80.2
						c9-19.5,27.7-32.8,49.1-34.8l146.1-14.1c9.6,0,19.2,1.2,28.5,3.6l126.4,32.7l34,8.8C3656.1,421.8,3653.6,459.8,3643.2,501.4z"
						/>
					<path class="st18" d="M3276.8,453.8l-23.8,51.4c-7,17.4-1.3,37.3,13.7,48.5"/>
					<path class="st18" d="M3306.4,473.9l-23.7,51.4c-7,17.4-1.3,37.3,13.7,48.5"/>
					<path class="st19" d="M3643.2,501.4c-11.6,46.4-29.6,84.4-45.6,99.4l-30.1-19.5l-97.4-63.1l-12.1,26.3
						c-7,11.7-19.5,18.8-33.1,19l-38.7,0.5c-4.3,0.1-7.9-3.4-7.9-7.7c0,0,0,0,0-0.1c0-13.3,7.8-25.4,19.9-30.8l10.4-4.6l-0.9-12.6
						c0-10.7-8.7-19.4-19.4-19.4h-36.1c-6.6,0-12.7,3.3-16.2,8.8l-14,49.7c5.9,8.1,8.3,18.3,6.6,28.2l-1.6,9.3
						c-0.6,3.5-3.9,5.8-7.3,5.2c-1-0.2-1.9-0.5-2.7-1.1l-80.7-56.8c-15.1-11.2-20.7-31.1-13.7-48.5l44.8-80.2
						c9-19.5,27.7-32.8,49.1-34.8l146.1-14.1c9.6,0,19.2,1.2,28.5,3.6l126.4,32.7l34,8.8C3656.1,421.8,3653.6,459.8,3643.2,501.4z"
						/>
				</g>
			</g>
			<g id="_3_HAND">
				<g id="PLASTIC_CUP">
					<path class="st20" d="M2435.8,341.2l129.4,191l0,0l2.8,4.2l0,0c7.2,14.7-3.1,40.1-25.3,59.9s-48.6,27.3-62.4,18.4l0,0l-3.8-3.3
						l0,0l-175.2-150L2435.8,341.2z"/>
					<path class="st20" d="M2435.8,341.2c21.1,23.6,0.2,60.9-36.9,94.1s-76.6,49.7-97.7,26.1s-15.9-78.4,21.3-111.6
						S2414.7,317.6,2435.8,341.2z"/>
					
						<ellipse transform="matrix(0.7458 -0.6661 0.6661 0.7458 347.2199 1654.9602)" class="st21" cx="2342.3" cy="372.5" rx="22.8" ry="12.5"/>
					<path class="st22" d="M2474.1,517.4L2319.2,344c-14.4-16.1-17-39.5-6.6-58.4l26.2-47.6"/>
				</g>
				<g id="HAND-2">
					<path class="st17" d="M3042,50.6l-50.2,36l-423.1,303.5v39.8c0,15.1-7.5,29.1-20,37.5l-43,35.1l-13.5,1.3
						c-12.1-7.6-9.6-31.8-3.4-47.2l14.1-21.1l-57.3-84.8l-8-11.4c-13.3-14.9-43.8-21.7-71.1-15.7L2589.3,86l36.9-39.4
						c52.6-24.4,129.3-42.9,217.5-42.9C2929.8,3.7,3007.7,26.6,3042,50.6z"/>
					<path class="st2" d="M2693.1,300.9l-38.9,27.9c-91.3-34.5-136.9-106.1-155.8-145.6l8.2-8.7
						C2530.5,203.3,2593.5,269,2693.1,300.9z"/>
					<g id="FINGERS">
						<path class="st17" d="M2338.5,552c8.6,17.8,34.6,30.5,54.4,29.2l30-2c6.6-0.4,11.5-6.1,11.1-12.7c0-0.3-0.1-0.6-0.1-0.9
							l-9.7-67.8c-1.5-10.3-10.3-18-20.8-18H2343c-11,0-24.9-2-35-7.6c-1-0.6-2.2-0.2-2.7,0.7c-0.3,0.6-0.4,1.2-0.1,1.8L2338.5,552z
							"/>
						<path class="st18" d="M2331.4,531c9.5,20,28.1,31.2,49.9,29.8l35.8-2.2c7.6-0.5,12.7-8.3,11.6-16.1"/>
						<path class="st18" d="M2320.6,506c10.5,20,30.2,30.3,54.2,28.9l36.4-2.2c8.4-0.5,14.6-8.5,13.4-16.2"/>
						<path class="st18" d="M2307.4,474.5c10.9,20,34.5,35,59.6,33.5l38.1-2.2c8.8-0.5,15.2-7.5,14-15.2"/>
					</g>
				</g>
				<g id="CLOTHES-2">
					<path class="st23" d="M3055,86h0.9l-324.2,225.1c-152.5-33.2-232.4-150-232.4-150l67.6-75.1c38.5-40.7,144.6-82.3,276.8-82.3
						C2974.7,3.7,3086.8,56.8,3055,86z"/>
					<path class="st11" d="M2731.7,311.2c-152.5-33.2-232.4-150-232.4-150l67.6-75.1c38.5-40.7,144.6-82.3,276.8-82.3
						s245.1,54,210.4,83L2731.7,311.2z"/>
				</g>
			</g>
			<g id="_2_HAND">
				<g id="BOTTLE">
					<path class="st24" d="M1775.5,642v241.7c0,20.5-36.1,37.1-80.6,37.1s-80.6-16.6-80.6-37.1V642c0-43,11.3-85.3,32.8-122.5
						l20-34.6V418c0-12.3,12.4-22.3,27.8-22.3s27.8,10,27.8,22.3v66.9l20,34.6C1764.2,556.7,1775.5,599,1775.5,642z"/>
					<line class="st25" x1="1756.2" y1="735.9" x2="1756.2" y2="774"/>
					<path class="st25" d="M1723.4,519.4c21.5,37.3,32.8,79.5,32.8,122.6v59.9"/>
					<ellipse class="st26" cx="1694.9" cy="418.6" rx="20.5" ry="16.5"/>
					<path class="st27" d="M1758.5,876c0,16.2-28.5,29.3-63.7,29.3s-63.7-13.2-63.7-29.3s28.5-38.5,63.7-38.5
						S1758.5,859.8,1758.5,876z"/>
				</g>
				<g id="HAND-3">
					<path class="st17" d="M1833.7,335.1v73.3c0,19.2-10.9,36.8-28.2,45.4l-82,40.7c-10.2,5.1-20.8-6-15.4-16l15.3-36.7
						c2.3-5.5,2.6-11.5,1-17.2l-14-48c-3.8-6.8-11-11.1-18.8-11.1h-29.8c-14,0-25.4,11.3-25.4,25.4l0,0v17.8l14.1,7.7
						c8.8,5.3,13.1,14.7,13.1,24.9V455h-39c-43.4,0-66.9-22.2-90.2-58.9l-51.1-80.4c15.4-29,66.8-59.4,131.9-74.8
						c29.9-7.1,58.6-10.1,83.4-9.4l0,0l112.6,64.9C1825.2,304.3,1833.7,319.1,1833.7,335.1z"/>
					<path class="st18" d="M1776.4,466.1c17.2-8.5,28.1-24.2,28.1-43.5v-50.7"/>
					<path class="st18" d="M1727.4,492.5c17.2-8.5,37.6-32.7,37.6-52v-50.7"/>
				</g>
				<g id="CLOTHES-3">
					<path class="st28" d="M1663,164.8c-29.3-3.4-66.6-0.5-105.8,9.5c-56,14.3-101.6,39.5-122.6,65L1326.1,67.8
						c-23.8-41.4,58.4-71,137.7-63.7c62.8,5.7,134.9,33.7,151.6,70.4L1663,164.8z"/>
					<path class="st28" d="M1698.6,231.4c-24.9-0.6-53.6,2.4-83.4,9.4c-65.1,15.4-116.5,45.8-131.9,74.8l-48.6-76.4
						c21-25.5,66.6-50.7,122.6-64.9c39.2-10,76.4-12.9,105.8-9.5l35,66.2L1698.6,231.4z"/>
					<circle class="st29" cx="1642.4" cy="195.4" r="12.5"/>
				</g>
			</g>
			<g id="_1_HAND">
				<g id="BANANA">
					<path class="st12" d="M944.7,602.1v273.4c0,15.5,12.6,28.1,28.1,28.1h-31.9c-28.1,0-50.9-22.8-50.9-50.9l0,0v-83.6l-5.4,13
						c-8.2,19.6-30.8,28.8-50.4,20.6c-18.7-7.8-28.1-28.8-21.6-47.9l1-3c0,10.6,8.6,19.2,19.2,19.2h2c10.6,0,19.2-8.6,19.2-19.2
						V531.1c0-28.6,23.2-51.8,51.8-51.8l0,0v-53.8h33.8v53.7l0,0c23.3,0,42.3,18.9,42.3,42.2c0,0,0,0,0,0.1v100.3
						c0,23.2,2.9,91.8,36.7,91.1c0,0-3.6-22.9,19.6-22.5c33.8,0.6,30.9,63.9-28.9,64.3C951,755.3,943,681.1,944.7,602.1z"/>
					<path class="st30" d="M888,781.1V528c0-16,7.6-31,20.4-40.6"/>
					<path class="st30" d="M1015.7,709c-0.6,14.8,25.6,18.6,25.6,4"/>
				</g>
				<g id="HAND-4">
					<path class="st31" d="M1050.3,353.5h-30v46.8c0,4.5-2,8.7-5.5,11.6l-52.7,43.9c-4.6,2.7-13.3,3.9-18.9-0.9
						c-1.5-1.6-2.5-3.6-3.1-5.7L930,408.3c-5.2-18.5-22-31.3-41.3-31.3H861c-12.3,0-22.3,10-22.3,22.3c0,10.7,7.6,19.9,18.2,21.9
						l17.2,3.3c19.3,3.7,41.8,21.1,33.3,40.2h-291c-20.5,0-49.7-47.5-54.6-105.6c-5.9-71.1,7.9-105.6,28.4-105.6h246.6
						c10,0,19.9,1.4,29.5,4.3l83.8,22.2c10.8,3.2,18.5,7.3,27.7,13.7l76.1,46.5c3.6,3.1,6.4,7.1,4.4,10.5
						C1057.1,352.9,1052.9,353.5,1050.3,353.5z"/>
					<path class="st18" d="M963.7,288.1l47.2,51.8c4.4,4.9,6.9,11.2,6.9,17.8v41"/>
					<path class="st18" d="M948.9,323l38.4,43c4.4,4.9,6.9,11.2,6.9,17.8v41"/>
					<path class="st18" d="M924.4,343.9l38.4,43c4.4,4.9,6.9,11.2,6.9,17.8v41"/>
				</g>
			</g>
		</g>
	</g>
</g>
<path class="st32" d="M584.8,237.9c-18.8,22.8-36.5,55.7-49.4,94c-18.4,54.8-21.9,106.8-11.8,138.3l-202.9-1.7
	c-47.7-2.4-28-87.6,21.1-150.3c38.8-49.6,101.4-95.1,141.4-89.2L584.8,237.9z"/>
<path class="st32" d="M660.1,244c-14,20.6-27.1,46.3-37.3,75.2c-22.3,63.1-24.7,122.7-8.7,151.4l-90.5-0.6
	c-10-31.5-6.5-83.5,11.9-138.2c12.8-38.3,30.6-71.2,49.4-94l74.6,6.5L660.1,244z"/>
<g>
	<g>
		<path class="st9" d="M655.4,1278.4c0-17.3,11.4-27.3,24.6-27.3c6.7,0,12.2,3.2,15.7,6.8l-6.2,7.6c-2.6-2.4-5.4-4.2-9.2-4.2
			c-7.2,0-12.8,6.3-12.8,16.8c0,10.7,5,16.9,12.6,16.9c4.3,0,7.7-2.1,10.2-4.9l6.2,7.4c-4.3,5-10.1,7.7-16.8,7.7
			C666.5,1305.2,655.4,1296,655.4,1278.4z"/>
		<path class="st9" d="M702,1277.9c0-17,9.6-26.8,23.7-26.8c14.1,0,23.7,9.8,23.7,26.8c0,17-9.6,27.3-23.7,27.3
			C711.6,1305.2,702,1294.9,702,1277.9z M737.3,1277.9c0-10.5-4.5-16.6-11.6-16.6c-7.1,0-11.6,6.2-11.6,16.6s4.5,17.1,11.6,17.1
			C732.8,1295,737.3,1288.4,737.3,1277.9z"/>
		<path class="st9" d="M759.2,1252.1H772l8.5,23.2c1,3.1,2,6.4,3,9.6h0.3c1-3.2,1.9-6.5,3-9.6l8.2-23.2h12.9v52.1h-10.7v-19.1
			c0-5.1,1-12.7,1.5-17.7h-0.3l-4.3,12.3l-7.4,20h-6.5l-7.4-20l-4.2-12.3h-0.3c0.6,5,1.5,12.6,1.5,17.7v19.1h-10.6V1252.1z"/>
		<path class="st9" d="M820.1,1252.1h17.9c11.5,0,20.7,4.1,20.7,16.8c0,12.3-9.4,17.7-20.4,17.7h-6.4v17.7h-11.8V1252.1z
			 M837.7,1277.1c6.5,0,9.5-2.9,9.5-8.3c0-5.5-3.5-7.4-9.9-7.4h-5.4v15.7H837.7z"/>
		<path class="st9" d="M865.4,1277.9c0-17,9.6-26.8,23.7-26.8c14.1,0,23.7,9.8,23.7,26.8c0,17-9.6,27.3-23.7,27.3
			C875,1305.2,865.4,1294.9,865.4,1277.9z M900.6,1277.9c0-10.5-4.5-16.6-11.6-16.6c-7.1,0-11.6,6.2-11.6,16.6s4.5,17.1,11.6,17.1
			C896.1,1295,900.6,1288.4,900.6,1277.9z"/>
		<path class="st9" d="M919.2,1297.6l6.8-8.1c3.7,3.2,8.5,5.4,12.8,5.4c4.9,0,7.3-1.9,7.3-5c0-3.3-3-4.3-7.5-6.2l-6.8-2.9
			c-5.4-2.2-10.5-6.6-10.5-14.2c0-8.6,7.7-15.5,18.6-15.5c6,0,12.3,2.4,16.8,6.8l-6,7.4c-3.4-2.6-6.7-4.1-10.8-4.1
			c-4.1,0-6.7,1.7-6.7,4.7c0,3.2,3.4,4.4,8,6.2l6.6,2.7c6.4,2.6,10.3,6.8,10.3,14.2c0,8.7-7.2,16.2-19.6,16.2
			C931.7,1305.2,924.5,1302.6,919.2,1297.6z"/>
		<path class="st9" d="M976.7,1252.1h14.1l16.4,52.1h-12.5l-6.8-26.4c-1.4-5.2-2.8-11.4-4.2-16.8h-0.3c-1.3,5.5-2.7,11.6-4.1,16.8
			l-6.8,26.4h-12.1L976.7,1252.1z M971.1,1282.6h25.1v9.2h-25.1V1282.6z"/>
		<path class="st9" d="M1012.9,1252.1h17.8c10.8,0,19.2,3,19.2,12.9c0,4.7-2.6,9.7-6.9,11.3v0.3c5.3,1.4,9.4,5.3,9.4,12.3
			c0,10.6-9,15.4-20.3,15.4h-19.3V1252.1z M1030.2,1272.9c5.7,0,8.2-2.4,8.2-6.2c0-4-2.7-5.6-8.2-5.6h-5.6v11.8H1030.2z
			 M1031.2,1295.1c6.4,0,9.7-2.3,9.7-7c0-4.6-3.3-6.4-9.7-6.4h-6.6v13.5H1031.2z"/>
		<path class="st9" d="M1061.3,1252.1h11.8v42.3h20.6v9.9h-32.4V1252.1z"/>
		<path class="st9" d="M1102.7,1252.1h32.7v9.9h-20.9v10.5h17.8v9.9h-17.8v12h21.7v9.9h-33.5V1252.1z"/>
	</g>
</g>
<g>
	<g>
		<path class="st9" d="M1489.5,1253h11.8v20.1h18V1253h11.8v52.1h-11.8v-21.8h-18v21.8h-11.8V1253z"/>
		<path class="st9" d="M1553.1,1253h14.1l16.4,52.1h-12.5l-6.8-26.4c-1.4-5.2-2.8-11.4-4.2-16.8h-0.3c-1.3,5.5-2.7,11.6-4.1,16.8
			l-6.8,26.4h-12.1L1553.1,1253z M1547.5,1283.6h25.1v9.2h-25.1V1283.6z"/>
		<path class="st9" d="M1589.2,1253h18.8c11.1,0,20.1,3.8,20.1,16.2c0,12-9.1,17.1-20.1,17.1h-7v18.8h-11.8V1253z M1607,1277
			c6.2,0,9.5-2.7,9.5-7.8c0-5.2-3.3-6.9-9.5-6.9h-6v14.7H1607z M1605.8,1283.3l8.2-7.5l16.6,29.4h-13.2L1605.8,1283.3z"/>
		<path class="st9" d="M1634.9,1298l23.1-35.1h-20.9v-9.9h35.4v7.1l-23.1,35.1h23.2v9.9h-37.8V1298z"/>
		<path class="st9" d="M1691.2,1253h14.1l16.4,52.1h-12.5l-6.8-26.4c-1.4-5.2-2.8-11.4-4.2-16.8h-0.3c-1.3,5.5-2.7,11.6-4.1,16.8
			l-6.8,26.4h-12.1L1691.2,1253z M1685.7,1283.6h25.1v9.2h-25.1V1283.6z"/>
		<path class="st9" d="M1727.4,1253h14.7c15.9,0,26.2,7.9,26.2,25.8s-10.3,26.3-25.5,26.3h-15.4V1253z M1741.4,1295.7
			c8.8,0,14.8-4.3,14.8-16.8s-6-16.4-14.8-16.4h-2.2v33.2H1741.4z"/>
		<path class="st9" d="M1775.7,1278.9c0-17,9.6-26.8,23.7-26.8c14.1,0,23.7,9.8,23.7,26.8c0,17-9.6,27.3-23.7,27.3
			C1785.3,1306.1,1775.7,1295.9,1775.7,1278.9z M1811,1278.9c0-10.5-4.5-16.6-11.6-16.6c-7.1,0-11.6,6.2-11.6,16.6
			s4.5,17.1,11.6,17.1C1806.5,1295.9,1811,1289.3,1811,1278.9z"/>
		<path class="st9" d="M1832.6,1281v-28h11.8v29.2c0,10.2,3.2,13.7,9.1,13.7c5.9,0,9.2-3.5,9.2-13.7V1253h11.4v28
			c0,17.5-7.1,25.1-20.6,25.1S1832.6,1298.5,1832.6,1281z"/>
		<path class="st9" d="M1882.7,1298.6l6.8-8.1c3.7,3.2,8.5,5.4,12.8,5.4c4.9,0,7.3-1.9,7.3-5c0-3.3-3-4.3-7.5-6.2l-6.8-2.9
			c-5.4-2.2-10.5-6.6-10.5-14.2c0-8.6,7.7-15.5,18.6-15.5c6,0,12.3,2.4,16.8,6.8l-6,7.4c-3.4-2.6-6.7-4.1-10.8-4.1
			c-4.1,0-6.7,1.7-6.7,4.7c0,3.2,3.4,4.4,8,6.2l6.6,2.7c6.4,2.6,10.3,6.8,10.3,14.2c0,8.7-7.2,16.2-19.6,16.2
			C1895.2,1306.1,1888,1303.5,1882.7,1298.6z"/>
	</g>
</g>
<g>
	<g>
		<path class="st9" d="M2334.9,1279.4c0-17.3,11.5-27.3,25.4-27.3c7.6,0,12.9,3.2,16.5,6.8l-6.2,7.6c-2.6-2.4-5.4-4.2-9.8-4.2
			c-8,0-13.7,6.3-13.7,16.8c0,10.7,4.9,16.9,14.7,16.9c2.1,0,4.3-0.5,5.5-1.6v-9h-8.6v-9.6h19.1v24c-3.6,3.5-9.9,6.3-17.2,6.3
			C2346.1,1306.1,2334.9,1297,2334.9,1279.4z"/>
		<path class="st9" d="M2388.4,1253h32.7v9.9h-20.9v10.5h17.8v9.9h-17.8v12h21.7v9.9h-33.5V1253z"/>
		<path class="st9" d="M2432.3,1253h12.1l13.6,25.9l5.2,11.5h0.3c-0.6-5.5-1.5-12.8-1.5-19V1253h11.2v52.1h-12.1l-13.6-26l-5.2-11.4
			h-0.3c0.6,5.8,1.5,12.7,1.5,18.9v18.5h-11.2V1253z"/>
		<path class="st9" d="M2485.5,1253h32.7v9.9h-20.9v10.5h17.8v9.9h-17.8v12h21.7v9.9h-33.5V1253z"/>
		<path class="st9" d="M2529.3,1253h18.8c11.1,0,20.1,3.8,20.1,16.2c0,12-9.1,17.1-20.1,17.1h-7v18.8h-11.8V1253z M2547.1,1277
			c6.2,0,9.5-2.7,9.5-7.8c0-5.2-3.3-6.9-9.5-6.9h-6v14.7H2547.1z M2545.9,1283.3l8.2-7.5l16.6,29.4h-13.2L2545.9,1283.3z"/>
		<path class="st9" d="M2588,1253h14.1l16.4,52.1H2606l-6.8-26.4c-1.4-5.2-2.8-11.4-4.2-16.8h-0.3c-1.3,5.5-2.7,11.6-4.1,16.8
			l-6.8,26.4h-12.1L2588,1253z M2582.5,1283.6h25.1v9.2h-25.1V1283.6z"/>
		<path class="st9" d="M2624.2,1253h11.8v42.3h20.6v9.9h-32.4V1253z"/>
	</g>
</g>
<g>
	<g>
		<path class="st9" d="M3162.8,1254h18.8c11.1,0,20.1,3.8,20.1,16.2c0,12-9.1,17.1-20.1,17.1h-7v18.8h-11.8V1254z M3180.6,1278
			c6.2,0,9.5-2.7,9.5-7.8c0-5.2-3.3-6.9-9.5-6.9h-6v14.7H3180.6z M3179.4,1284.2l8.2-7.5l16.6,29.4H3191L3179.4,1284.2z"/>
		<path class="st9" d="M3211.8,1254h32.7v9.9h-20.9v10.5h17.8v9.9h-17.8v12h21.7v9.9h-33.5V1254z"/>
		<path class="st9" d="M3253.2,1280.3c0-17.3,11.4-27.3,24.6-27.3c6.7,0,12.2,3.2,15.7,6.8l-6.2,7.6c-2.6-2.4-5.4-4.2-9.2-4.2
			c-7.2,0-12.8,6.3-12.8,16.8c0,10.7,5,16.9,12.6,16.9c4.3,0,7.7-2.1,10.2-4.9l6.2,7.4c-4.3,5-10.1,7.7-16.8,7.7
			C3264.2,1307.1,3253.2,1297.9,3253.2,1280.3z"/>
		<path class="st9" d="M3311.2,1287.5l-15.7-33.5h12.6l4.7,12c1.4,3.9,2.8,7.5,4.2,11.6h0.3c1.5-4,3-7.7,4.4-11.6l4.7-12h12.3
			l-15.7,33.5v18.6h-11.8V1287.5z"/>
		<path class="st9" d="M3341.8,1280.3c0-17.3,11.4-27.3,24.6-27.3c6.7,0,12.2,3.2,15.7,6.8l-6.2,7.6c-2.6-2.4-5.4-4.2-9.2-4.2
			c-7.2,0-12.8,6.3-12.8,16.8c0,10.7,5,16.9,12.6,16.9c4.3,0,7.7-2.1,10.2-4.9l6.2,7.4c-4.3,5-10.1,7.7-16.8,7.7
			C3352.8,1307.1,3341.8,1297.9,3341.8,1280.3z"/>
		<path class="st9" d="M3390.8,1254h11.8v42.3h20.6v9.9h-32.4V1254z"/>
		<path class="st9" d="M3432.2,1254h32.7v9.9H3444v10.5h17.8v9.9H3444v12h21.7v9.9h-33.5V1254z"/>
	</g>
</g>
<path class="st9" d="M1699,1419.4c27,0,48.9,21.9,48.9,48.9c0,27-21.9,48.9-48.9,48.9c-27,0-48.9-21.9-48.9-48.9
	C1650.1,1441.4,1672.1,1419.4,1699,1419.4 M1699,1400.4c-37.5,0-67.9,30.4-67.9,67.9c0,37.5,30.4,67.9,67.9,67.9
	c37.5,0,67.9-30.4,67.9-67.9C1766.9,1430.8,1736.5,1400.4,1699,1400.4L1699,1400.4z"/>
<path class="st9" d="M1797,1456.2c-11.7-11.7-26.8-17.7-42.1-18.2c4.3-8.5,6.8-18,6.8-28.2c0-20.8-10.2-39.2-25.7-50.6
	c10,9.7,16.2,23.2,16.2,38.2c0,29.4-23.8,53.2-53.2,53.2c-29.4,0-53.2-23.8-53.2-53.2c0-15,6.2-28.5,16.2-38.2
	c-15.6,11.4-25.7,29.8-25.7,50.6c0,10.1,2.5,19.7,6.7,28.2c-15.3,0.5-30.4,6.6-42,18.2c-14.7,14.7-20.5,34.9-17.5,53.9
	c-0.2-13.9,4.9-27.9,15.5-38.5c20.8-20.8,54.4-20.8,75.2,0c20.8,20.8,20.8,54.4,0,75.2c-10.6,10.6-24.6,15.8-38.5,15.5
	c19.1,3,39.3-2.8,53.9-17.5c3.7-3.7,6.8-7.8,9.3-12c2.6,4.3,5.6,8.4,9.3,12.1c14.7,14.7,34.9,20.5,53.9,17.5
	c-13.9,0.2-27.9-4.9-38.5-15.5c-20.8-20.8-20.8-54.4,0-75.2c20.8-20.8,54.4-20.8,75.2,0c10.6,10.6,15.8,24.6,15.5,38.5
	C1817.5,1491.1,1811.7,1470.9,1797,1456.2z"/>
<path class="st9" d="M3273.2,1473.7l9,5.4c1.5,0,2.2-0.6,2.2-1.9c-0.1-1.2-0.5-2.3-1-3.3l-19.6-36.7l-43.3,1c-1.5-0.1-2.8,1-2.9,2.5
	c0,0.2,0,0.4,0,0.6c0,0.5,0.6,1,1.9,1.9l9,5.4l-9.7,14.8c-2.2,3.1-3.6,6.7-3.9,10.5c0.1,3,1,5.9,2.6,8.4l29.5,51.4
	c-0.7-3-1-6.1-1-9.2c0.1-5.5,1.8-10.9,4.9-15.5L3273.2,1473.7L3273.2,1473.7z"/>
<path class="st9" d="M3284.6,1443.8l24.3-37.8c-9.1-20.7-18.7-31-28.9-31c-6.2,0-10.3,1.7-12.4,5.1l-23,36.7L3284.6,1443.8z"/>
<path class="st9" d="M3264.7,1545.7h46.9V1497h-45.2c-3.8,5.2-7.3,10.5-10.5,16.1c-2.2,4.2-3.4,8.9-3.5,13.7
	c0,12.6,4.1,18.9,12.2,18.9H3264.7z"/>
<path class="st9" d="M3361.3,1434.8l21-35c0.7-1.2,1-2.5,1-3.8c0-1.6-0.5-2.4-1.6-2.4c-0.7,0.4-1.4,0.6-2.1,0.8l-9.6,4l-8.7-17.2
	c-3.8-7.7-11.5-11.6-23.2-11.6h-54.4c4.8,1.2,9.4,3.2,13.5,5.9c5.6,4.4,11.3,12.7,17.1,24.8l10.8,22.7l-7.9,3.8
	c-0.8,0.4-1.3,1.2-1.2,2.1c0,1.3,0.8,2.1,2.5,2.2l43,3.5L3361.3,1434.8z"/>
<path class="st9" d="M3382.2,1538.5l30.4-55.2c-3.9,4.7-8.9,8.3-14.6,10.3c-5.9,1.6-12,2.3-18.1,2.1H3346v-7c0-2.7-0.7-4.1-2-4.1
	c-0.8-0.1-1.6,0.3-2.1,1l-21.2,37.1l22.2,34.1c1.7,2.6,3.1,3.5,4.3,3c1.2-0.5,1.9-1,1.9-2v-11.6h18.8c6,0.5,11.7-2.6,14.5-7.8
	H3382.2z"/>
<path class="st9" d="M3369,1488.7h20.2c5.6-0.3,10.9-2.6,15.1-6.4c5.6-4.4,8.3-9.1,8.3-14c-0.1-2.4-0.8-4.8-2.2-6.7l-24.1-36.7
	l-41.4,24.1L3369,1488.7z"/>
<g>
	<path class="st33" d="M1676.8,659h-4.4c-1.1,0-2.1-1-2.1-2.1v-13.4c0-1.2,0.9-2.1,2.1-2.1h4.4c1.1,0,2.1,1,2.1,2.1v13.4
		C1678.8,658,1677.9,659,1676.8,659z"/>
	<path class="st33" d="M1686.9,659h-4.4c-1.1,0-2.1-1-2.1-2.1v-13.4c0-1.2,0.9-2.1,2.1-2.1h4.4c1.1,0,2.1,1,2.1,2.1v13.4
		C1688.9,658,1688,659,1686.9,659z"/>
	<path class="st33" d="M1717.2,659h-4.4c-1.1,0-2.1-1-2.1-2.1v-13.4c0-1.2,0.9-2.1,2.1-2.1h4.4c1.1,0,2.1,1,2.1,2.1v13.4
		C1719.3,658,1718.4,659,1717.2,659z"/>
	<path class="st33" d="M1707.1,659h-4.4c-1.1,0-2.1-1-2.1-2.1v-13.4c0-1.2,0.9-2.1,2.1-2.1h4.4c1.1,0,2.1,1,2.1,2.1v13.4
		C1709.2,658,1708.3,659,1707.1,659z"/>
	<path class="st33" d="M1697,659h-4.4c-1.1,0-2.1-1-2.1-2.1v-13.4c0-1.2,0.9-2.1,2.1-2.1h4.4c1.1,0,2.1,1,2.1,2.1v13.4
		C1699.1,658,1698.1,659,1697,659z"/>
</g>
<path class="st9" d="M1729,610.2c0-17.1-15.3-31-34.2-31c-18.9,0-34.2,13.9-34.2,31c0,7.9,3.2,15,8.5,20.5v13.6
	c0,3.2,2.5,5.8,5.6,5.8h40c3.1,0,5.6-2.6,5.6-5.8v-13.6C1725.7,625.3,1729,618.1,1729,610.2z"/>
<ellipse transform="matrix(0.9495 -0.3139 0.3139 0.9495 -109.9328 558.8123)" class="st34" cx="1680.5" cy="620.8" rx="10.1" ry="7"/>
<ellipse transform="matrix(0.3139 -0.9495 0.9495 0.3139 583.2282 2048.7271)" class="st35" cx="1709.1" cy="620.8" rx="7" ry="10.1"/>
<ellipse class="st34" cx="1689.4" cy="636.8" rx="2.1" ry="2.1"/>
<ellipse class="st35" cx="1700.2" cy="636.8" rx="2.1" ry="2.1"/>
<path class="st9" d="M2461.7,1517.2l10.9,2.9l2.9-10.9l-10.9-2.9L2461.7,1517.2"/>
<path class="st9" d="M2480,1476.4l-9.8,5.6l5.7,9.7l9.8-5.6L2480,1476.4"/>
<path class="st9" d="M2461.9,1463.6l-9.8,5.6l5.7,9.7l9.8-5.6L2461.9,1463.6"/>
<path class="st9" d="M2495.2,1570l14.3-80.4h-11.3l-12.3,69.1h-28.3l-12.3-69.1H2434l14.3,80.4H2495.2"/>
<path class="st9" d="M2565.9,1460.4c-0.5-3.1-1.5-6-2.8-8.8h0c-10.1-21.9-24.2-41.5-41.4-58c-0.4-0.4-1-0.7-1.7-0.7
	c-0.8,0-1.5,0.4-2,1c-15.6,21.6-36.2,39.4-60.1,51.7l7.9,11.2c14.3-5.8,27.6-13.4,39.6-22.7l20.7,22.8l-9.9,113h16.9l14.3-66.9
	l21,66.9h16.9L2565.9,1460.4"/>
<path class="st9" d="M2500.3,1398.8c8.9,0,16.2-7.2,16.2-16.1c0-8.9-7.2-16.1-16.2-16.1c-8.9,0-16.2,7.2-16.2,16.1
	C2484.1,1391.6,2491.3,1398.8,2500.3,1398.8"/>
</svg>
