<?xml version="1.0" encoding="utf-8"?>
<!-- Generator: Adobe Illustrator 28.0.0, SVG Export Plug-In . SVG Version: 6.00 Build 0)  -->
<svg version="1.1" id="Layer_1" xmlns="http://www.w3.org/2000/svg" xmlns:xlink="http://www.w3.org/1999/xlink" x="0px" y="0px"
	 viewBox="0 0 825.5 946.6" style="enable-background:new 0 0 825.5 946.6;" xml:space="preserve">
<style type="text/css">
	.st0{fill:#E9CC79;}
	.st1{fill:#353519;}
	.st2{fill:#BAB653;}
	.st3{fill:#666538;}
	.st4{fill:#2B3D0A;}
	.st5{fill:#F4ECE5;}
	.st6{fill:#F98638;}
	.st7{fill:#AD4D4D;}
	.st8{fill:#DEB8FC;}
	.st9{fill:#FFAA9F;}
	.st10{fill:none;}
</style>
<path class="st0" d="M86.1,614.6h690.5c-2.4-91.3-41.6-173.8-103.1-233.9s-145.3-97.6-236.8-99c-93.5-1.4-179.9,35.2-243.6,95.4
	S88.5,521.3,86.1,614.6z"/>
<path class="st1" d="M86.1,613.7h690.5C774.2,705,735,787.5,673.5,847.5s-145.3,97.6-236.8,99c-93.5,1.4-179.9-35.2-243.6-95.4
	S88.5,707,86.1,613.7z"/>
<path class="st1" d="M87,613.7c-9.6-4.6-17.2-12.6-21.3-22.4c-4-9.3-4.2-19.7-0.7-29.1c3.1-7.8,8.6-14.3,15.8-18.7
	c7.4-4.6,16.1-6.8,24.9-6.3c-5-11.5-7.3-24-6.7-36.5c0.6-12.6,4.2-24.7,11.5-33.5c8.4-10,20-16.9,32.8-19.6
	c6.5-1.5,13.2-2.1,19.9-1.6c13.6,1,26.8,5.4,38.3,12.7c10.8,7,19.3,16.6,24,28.1c2.8,7.2,4.9,14.6,6.1,22.2
	c1.2,7.3,1.5,13.9,0.9,17.7c13.3-7.4,28.8-9.8,43.6-6.5c14.2,3,26.7,11.3,35,23.2c6.9,10.3,10.2,22.6,9.4,35
	c-0.8,12.9-5.5,25.2-13.6,35.2L87,613.7L87,613.7z"/>
<path class="st2" d="M296.8,281.6l35.6-0.3l35.5-0.3c10.9-1.9,20.7-7.6,27.6-16.2c6.9-8.5,10.4-19.2,9.9-30.2
	c-0.6-11.5-5.6-19.8-13.3-25.3s-18.3-8.3-30-8.6c6.9,1.6,14,1.2,20.6-1.2c6.3-2.3,11.6-6.5,15.3-12c3.9-6.1,5.5-13.5,4.5-20.7
	c-0.7-6.2-3-12.1-6.8-17c-6.1-7.6-14.9-11.9-24.4-14.2s-19.8-2.6-28.7-2.1c-0.2,0-1.6,0.1-2.9,0.1c-0.9,0-1.8,0.1-2.7,0.4h-0.3
	c-0.1,0-0.3,0-0.3,0s5.3-1.5,12.2-4.4c6.9-2.9,15.4-7.4,21.5-14c4-4.4,7.1-9.5,9-15.1c1.9-5.9,2.3-12.3,0-18.3
	c-1.6-3.8-4-7.2-7.2-9.8c-1.9-1.6-4-3-6.3-4.2c-12.3-6.5-26.9-5.3-38.6-2.4c-11.7,2.9-20.6,7.8-21.5,8.5c2.6-18.5,1-35.1-3.6-47.8
	s-12.2-21.7-21.6-25c-4.2-1.4-8.6-1.8-13-1.1c-2.3,0.3-4.5,0.9-6.6,1.8c-9.2,3.9-16.3,13.1-20.2,25.9s-4.6,29.1-1,47.1
	c-8.7-2.3-17.6-3.6-26.5-4c-12.9-0.4-27.3,1.9-35.1,12c-0.7,0.9-1.3,1.9-1.9,2.9c-0.6,1.1-1.2,2.2-1.6,3.4c-1,3.1-1.6,6.3-1.8,9.6
	c-0.1,2.3,0.1,4.6,0.6,6.9c1.6,7,6,13.4,12.6,18.7c6.6,5.3,15.3,9.4,25.5,11.9l0,0c-9-0.8-20.6-0.9-31.1,1.7s-20,8-24.9,18.1
	c-2.7,5.6-3.7,12-2.7,18.2c0.9,6.2,3.6,12,7.8,16.8c4.3,4.9,9.6,8.8,15.6,11.5c7,3.3,16,5.7,27.5,6.2l8.7-0.2l8.7-0.2
	c-3.2,0.3-6.2,0.5-9.1,0.6c-2.9,0.1-5.6,0-8.3-0.1l-12.4,0.3l-12.4,0.3c-9.7,0.3-18.9,4.1-25.9,10.8c-7,6.6-11.1,15.7-11.6,25.3
	c-1,20.9,15.1,38.7,36,39.7c0.9,0,1.9,0.1,2.8,0l28.5-1l28.5-1l0.3,165.1l0.4,165.2H297c0-21.3-0.1-93.6-0.1-166
	S296.9,302.9,296.8,281.6z"/>
<polygon class="st1" points="296.6,281.4 279.9,281.4 263.1,281.4 279.9,307.2 296.6,333 296.6,307.2 "/>
<path class="st3" d="M337.1,135.5h-15.5c-0.8,0-1.5-0.7-1.5-1.5c0-0.4,0.2-0.8,0.4-1.1c0.3-0.3,0.7-0.4,1.1-0.4h15.5
	c0.4,0,0.8,0.2,1.1,0.4c0.3,0.3,0.4,0.7,0.4,1.1c0,0.4-0.2,0.8-0.4,1.1C337.8,135.3,337.5,135.5,337.1,135.5z"/>
<path class="st3" d="M244.9,81.7c-0.2,0-0.4,0-0.5-0.1c-0.2-0.1-0.3-0.2-0.5-0.3l-2.6-2.5l-2.6-2.5c-0.3-0.3-0.4-0.6-0.5-1
	c0-0.4,0.1-0.8,0.4-1.1c0.6-0.6,1.5-0.6,2.1,0l2.6,2.5l2.6,2.5c0.3,0.3,0.4,0.6,0.5,1c0,0.4-0.1,0.8-0.4,1.1
	c-0.1,0.2-0.3,0.3-0.5,0.3C245.3,81.7,245.1,81.7,244.9,81.7z"/>
<path class="st2" d="M218.4,208.4l-8.7,0.2l-8.7,0.2c2.6,0.1,5.4,0.2,8.3,0.1C212.2,208.9,215.2,208.7,218.4,208.4z"/>
<path class="st3" d="M215.2,210.2h-26.1c-0.8,0-1.5-0.7-1.5-1.5c0-0.4,0.2-0.8,0.4-1.1c0.3-0.3,0.7-0.4,1.1-0.4h26.1
	c0.4,0,0.8,0.2,1.1,0.4c0.3,0.3,0.4,0.7,0.4,1.1C216.7,209.5,216,210.2,215.2,210.2z"/>
<path class="st3" d="M620.8,310.5l-6.4,0.2l-6.4,0.2c-0.1,0-0.1,0-0.2-0.1c0-0.1,0-0.1,0.1-0.2c4.7-1.6,9.1-4.2,12.7-7.6
	c3.2-2.9,5.5-6.7,6.6-10.9c0.9-4,0.7-8.2-0.7-12.2c-2.7-8.4-9.4-15-17.9-17.4c-6.8-2.2-14.2-2.4-21.1-0.6
	c6.6-1.5,12.5-5.2,16.8-10.5c7.8-9.5,8.2-23.1,0.9-33.1c-6.7-9.5-18.8-13.4-29.8-9.6c-5.7,1.9-10.7,5.5-14.3,10.3
	c3-6,4.1-12.7,3.2-19.3c-0.9-6.4-3.8-12.4-8.5-17s-10.8-7.5-17.4-8.3c-6.3-0.9-12.7,0.4-18.2,3.8c-6.5,4.1-10.8,11.4-12.1,19.7
	c-1.3,9,0.8,18.2,6,25.7c0.1,0.1,0.1,0.3,0,0.4c-0.1,0.1-0.3,0.1-0.4,0c-5.5-4-12.3-5.7-19-4.6c-6.2,0.8-11.7,4.2-15.3,9.3
	c-3.5,5.3-4.2,12.3-2.3,18.7c2,6.9,6.9,12.6,13.5,15.7l0,0l0,0c-8.2-1.7-16.8-0.1-23.8,4.5c-6.4,4.2-10.8,10.6-11.8,17.4
	c-0.8,5.9,1,12.1,4.8,17.5c4,5.7,9.8,9.9,16.5,11.9l-6.6,0.2l-6.6,0.2c-18.1,0.5-32.4,15.6-31.9,33.6l0,0
	c0.5,18.1,15.6,32.4,33.7,31.9l0,0l27-0.7l27-0.7c0.7,34.1,1.4,76,2,118s1.4,83.8,2,118l25,0.4l24.9,0.4c-0.8-34.5-1.6-76.8-2.4-119
	s-1.6-84.5-2.4-119l27-0.7l27-0.7c18.1-0.5,32.4-15.5,31.9-33.6s-15.5-32.4-33.7-31.9l0,0L620.8,310.5z"/>
<path class="st4" d="M502.1,264.5h-11.3c-0.7,0-1.2-0.6-1.2-1.2c0-0.3,0.1-0.6,0.4-0.9c0.2-0.2,0.5-0.4,0.9-0.4h11.3
	c0.3,0,0.6,0.1,0.9,0.4c0.2,0.2,0.4,0.5,0.4,0.9c0,0.3-0.1,0.7-0.4,0.9C502.8,264.4,502.5,264.5,502.1,264.5z"/>
<path class="st4" d="M609.2,312.5h-35.4c-0.7,0-1.2-0.6-1.2-1.2c0-0.7,0.5-1.2,1.2-1.2l0,0h35.4c0.3,0,0.6,0.1,0.9,0.4
	c0.2,0.2,0.4,0.6,0.4,0.9s-0.1,0.6-0.4,0.9C609.9,312.4,609.5,312.5,609.2,312.5z"/>
<path class="st5" d="M732,317.1c-0.3,3.6-0.9,13.5-0.9,26s0.9,27.5,3.5,41.4c0.7,3.5,1.4,7.2,2.5,11.4c1.2,4.8,2.7,9.4,4.5,14
	c1.5,3.8,2.5,6.1,3.7,8.7s2.6,5.5,4.8,10.6s3.8,9.7,5.2,13.7s2.4,7.5,3.1,10.2c1.3,4.7,2.2,9.4,2.8,14.3s1,9.9,1.2,15.5
	c0.4,11.5,0,23-1.1,34.4c-1.1,11.6-2.8,23.5-4.9,36.9c-1.2,8-2.6,16.9-4.3,26.7s-3.5,20.4-5.5,31.8l-7.1,0.1l-7.1,0.1
	c2.5-11.2,5.4-25.2,8.3-40.9s5.7-33.3,8-51.6c1.1-7.8,1.7-15.7,2-23.6c0.3-9.4-0.4-18.8-2-28.1c-1-6.2-2.4-11.9-3.7-16.6
	s-2.4-8.1-3-9.8c-2-6-4.4-11.9-7-17.7c-2.1-4.5-3.7-7.6-4.3-8.8c-3.2-6.2-6.3-15.7-8.5-31.2s-3.5-36.8-3-66.7l6.4-0.4L732,317.1z"/>
<path class="st6" d="M774.7,317.5l-47.5,1.9l-47.5,1.9c-0.8,0-1.5-0.4-1.8-1.1c-0.4-0.7-0.4-1.6,0-2.3l10.6-19.3l10.6-19.3
	c2.4-4.5,5.9-8.3,10.2-11.2c4.1-2.7,8.8-4.2,13.7-4.4l0,0c4.5-0.2,9,0.8,13,2.8c4.2,2.1,7.9,5.2,10.7,8.9l14.7,19.3l14.7,19.2
	c0.5,0.7,0.6,1.5,0.3,2.3C776.2,316.9,775.5,317.4,774.7,317.5z"/>
<path class="st7" d="M746.1,297.3c-0.4,1.4-1.5,2.6-2.9,3.2c-1.6,0.7-3.4,0.8-5.1,0.4c-1.7-0.4-3.2-1.3-4.4-2.7
	c-1.7-1.8-1.6-4.7,0.2-6.4c0.4-0.4,1-0.7,1.5-0.9c3.3-1.3,7.1-0.4,9.5,2.3C746,294.3,746.4,295.8,746.1,297.3z"/>
<path class="st7" d="M754.4,306.9c-0.2,0.9-0.9,1.6-1.8,2c-2,0.8-4.4,0.2-5.8-1.4c-0.6-0.7-0.8-1.6-0.7-2.5c0.3-0.9,0.9-1.6,1.8-2
	c2-0.8,4.4-0.2,5.8,1.4C754.3,305.1,754.5,306,754.4,306.9z"/>
<path class="st5" d="M455.6,192.4c-0.4,5.4-1.4,20.2-1.3,38.8s1.3,41,5.3,61.7c1,5.1,2.1,10.8,3.7,17c1.8,7.1,4,14.1,6.6,20.9
	c2.2,5.7,3.8,9.1,5.6,12.9s3.9,8.2,7.1,15.8s5.7,14.4,7.7,20.4s3.5,11.2,4.6,15.2c0,0,1.2,4.8,2.6,12.7c1.8,10.4,2.9,21,3.4,31.6
	c0.6,14.9-0.6,38.2-4,67.9c-3.4,29.7-8.9,65.8-17,106.5h-19.4c1-5,2.3-11,3.7-18s2.9-14.9,4.5-23.5c3-16.5,5.2-29.6,7.1-41.6
	s3.3-23,4.8-35.4c1.6-11.7,2.5-23.4,2.9-35.2c0.4-14-0.6-28-2.9-41.9c-1.5-9.2-3.6-17.8-5.5-24.7s-3.6-12.1-4.4-14.6
	c-3-9-6.5-17.7-10.4-26.4c-3.1-6.8-5.5-11.3-6.4-13.1c-4.7-9.2-9.4-23.4-12.7-46.5s-5.3-54.9-4.6-99.4l9.6-0.6L455.6,192.4z"/>
<path class="st6" d="M519.2,192.8l-70.9,2.8l-70.8,2.8c-1.1,0-2.2-0.6-2.6-1.6c-0.6-1.1-0.6-2.3,0-3.4l15.8-28.8l15.8-28.8
	c3.6-6.7,8.9-12.4,15.2-16.6c6.1-4,13.2-6.3,20.5-6.6l0,0c6.7-0.2,13.4,1.2,19.5,4.2c6.3,3.1,11.7,7.7,15.9,13.3l21.9,28.7
	l21.9,28.7c0.7,1,0.9,2.3,0.5,3.4C521.4,192,520.4,192.7,519.2,192.8z"/>
<path class="st7" d="M476.6,162.8c-0.6,2.2-2.2,3.9-4.2,4.7c-5,2-10.6,0.6-14.2-3.4c-2.5-2.7-2.4-7,0.4-9.5c0.7-0.6,1.4-1.1,2.3-1.4
	c2.4-1,5.1-1.2,7.6-0.5c2.6,0.6,4.8,2,6.5,4C476.5,158.3,477.1,160.6,476.6,162.8z"/>
<path class="st7" d="M488.9,177.1c-0.4,1.3-1.3,2.4-2.6,2.9c-3,1.2-6.5,0.4-8.6-2.1c-1.5-1.7-1.4-4.3,0.2-5.8
	c0.4-0.4,0.9-0.7,1.4-0.8c3-1.2,6.5-0.4,8.6,2.1C488.8,174.3,489.2,175.7,488.9,177.1z"/>
<path class="st1" d="M431.4,613.7c-8.9-4.3-15.9-11.6-19.7-20.7c-3.7-8.6-3.9-18.2-0.6-26.9c2.9-7.2,8-13.3,14.6-17.3
	c6.9-4.2,14.9-6.3,23-5.9c-4.6-10.6-6.7-22.2-6.2-33.7c0.5-11.7,3.9-22.8,10.7-31c7.8-9.2,18.5-15.6,30.3-18.2
	c6-1.4,12.2-1.9,18.4-1.5c12.6,1,24.7,5,35.4,11.8c9.9,6.2,17.6,15.3,22.2,26c2.6,6.6,4.5,13.5,5.6,20.5c1.1,6.8,1.4,12.9,0.8,16.4
	c12.3-6.9,26.6-9,40.4-6c25.3,5,42.9,28.1,41.1,53.8c-0.7,11.9-5.1,23.3-12.6,32.6L431.4,613.7L431.4,613.7z"/>
<path class="st2" d="M401,455c-2.3,9.7-3.3,19.6-2.9,29.5c0.4,10,2.4,19.8,6.1,29.1c2.5,6.1,5.8,11.9,9.8,17.2s8.8,10,14.1,13.9
	c5.7,4.2,12.3,6.9,19.2,8c6.6,1,13.5,0.7,21-0.2c4.9-0.7,10-0.6,14.9,0.4s9.3,3.7,12.5,7.5c3.2,3.9,5.4,8.4,6.5,13.3
	c1.2,4.9,1.7,9.8,1.8,14.8l0.3,12.6l0.3,12.6h24.1c0,0,0.2-4,0.2-9.6c0.1-6.4-0.2-12.9-0.8-19.3c-0.6-5.4-1.6-10.8-3-16
	c-1.9-6.8-4.8-13.4-8.5-19.4c-2.4-3.9-5.4-7.5-8.7-10.6c-3.4-3.1-7.3-5.6-11.5-7.4c-4.8-1.8-10-2.7-15.2-2.6
	c-5.2,0-10.4,0.5-15.5,0.7c-5.2,0.2-10.4-0.4-15.5-1.9c-5-1.5-9.7-4-13.6-7.4c-12.4-10.8-15.4-26.2-14.4-42.2s6.2-32.5,10.1-45.8
	c1.9-6.5,4-13.6,6.4-21.3s5-15.9,7.9-24.5l-11.4-4.1l-11.4-4.1c-2.9,8.2-5.8,16.7-8.6,25.5c-2.8,8.8-5.5,17.8-8,27.1
	c-1.1,4.1-2.2,8.2-3.3,12.3S401.9,451,401,455z"/>
<path class="st1" d="M424.7,460.9l1.5-6.2l1.5-6.2c0.1-0.4,0.2-0.7,0.2-0.9s0.1-0.5,0.2-0.7c0.1-0.5,0.3-1.3,0.6-2.3
	s0.6-2.4,1.2-4.1c2-7,3.4-11.2,4.5-14.7s2-6.4,3.1-10.9c0.7-2.8,0.9-4,1.1-5.5s0.5-3.3,1.4-7.3c0.9-4.3,1.9-8.2,2.7-11.6
	s1.7-6.3,2.4-8.6l-13.8-2.3l-13.8-2.2c-0.9,4-2.2,9.1-3.5,14.6s-2.6,11.2-3.8,16.4c-2.9,12.1-5,21.3-6.7,29.5s-3,15.4-4,23.5
	c-0.3,2.1-0.5,4.1-0.7,5.8s-0.4,3.2-0.5,4.3l19.6-7.8L424.7,460.9L424.7,460.9z"/>
<path class="st2" d="M424.1,513.7c-3.3-6.6-8.9-11.9-15.6-15c-4.9-2.3-10.2-3.4-15.6-3.2c0-0.8,0.1-1.6,0-2.3
	c-0.1-14.5-12-26.2-26.6-26.1c-0.6,0-1.3,0-1.9,0.1c-1.9,0.1-3.8,0.5-5.6,1c-0.8-11.7-9.8-21.1-21.4-22.6
	c-10.7-1.4-20.5,6.2-21.8,16.8c-0.1,0.9-0.2,1.8-0.2,2.7c0,12.3,9.2,22.7,21.4,24.2c0.4,0,0.8,0,1.2,0.1c-0.7,2.6-1,5.2-0.9,7.8
	c0.1,14.5,12,26.2,26.6,26.1c0.6,0,1.3,0,1.9-0.1c1.9-0.2,3.7-0.5,5.5-1c0.4,1.6,1,3.1,1.7,4.6c7,13.5,22.3,20.6,37.2,17.3
	c6.6-1.7,12-5.7,14.8-11.6S427.1,519.9,424.1,513.7z"/>
<path class="st3" d="M410.2,525.4c-0.1,0-0.2,0-0.3,0c-0.1,0-0.2-0.1-0.3-0.1c-5-2.7-9.9-5.5-14.8-8.4s-9.6-6-14.3-9.1
	c-11.2-7.6-21.9-15.8-32.1-24.7c-10.2-8.9-19.9-18.5-29-28.6c-0.5-0.5-0.4-1.3,0.1-1.7l0,0c0.2-0.2,0.6-0.3,0.9-0.3s0.6,0.2,0.9,0.4
	c9,10,18.6,19.5,28.8,28.4c10.1,8.8,20.7,17,31.8,24.5c4.6,3.1,9.3,6.1,14.2,9c4.8,2.9,9.7,5.7,14.6,8.3c0.6,0.3,0.8,1.1,0.5,1.7
	l0,0c-0.1,0.2-0.3,0.4-0.5,0.5C410.7,525.3,410.4,525.4,410.2,525.4z"/>
<path class="st5" d="M483.2,304.7c25.2-25.7,30.6-45.2,24.2-51.5s-24.8,0.6-47,27.8c9.6-35,3.9-54.1-5.5-54.5s-22.7,17.8-28.3,57.3
	c-9.8-39.1-25.1-55.8-34.5-53.9s-12.7,22.3,1.5,57.2c-25.7-25.2-45.2-30.6-51.5-24.1s0.6,24.8,27.8,47c-35-9.6-54.1-3.9-54.5,5.5
	s17.8,22.7,57.3,28.3c-39.2,9.8-55.8,25.1-53.9,34.5S341,391,376,376.8c-25.2,25.7-30.6,45.2-24.2,51.5s24.8-0.6,47-27.7
	c-9.6,35-3.9,54.1,5.5,54.5s22.7-17.8,28.3-57.3c9.8,39.2,25.1,55.8,34.5,53.9s12.7-22.2-1.5-57.2c25.7,25.2,45.2,30.6,51.5,24.2
	c6.3-6.4-0.6-24.8-27.8-47c35,9.6,54.1,3.9,54.5-5.5s-17.8-22.7-57.3-28.3c39.2-9.8,55.8-25.1,53.9-34.5S518.1,290.5,483.2,304.7z"
	/>
<path class="st8" d="M450.8,341.1c0.3,13.2-10.1,24.2-23.3,24.5c-13.2,0.3-24.2-10.1-24.5-23.3c-0.3-13.2,10.1-24.2,23.3-24.5
	c6.3-0.2,12.5,2.2,17.1,6.6C448,328.8,450.7,334.8,450.8,341.1z"/>
<path class="st2" d="M668.7,261.6c0.1,7.9-0.2,15.1-0.6,21.3s-1.2,11.5-1.8,15.8c-2.3,15.6-5.7,31.1-10,46.4
	c-4.2,15.4-9.2,31.5-14.6,50.8c-4.8,17.1-8.6,30.7-11.7,43.8s-5.7,25.5-7.9,40.3c-1,7-2.3,16.2-3.4,27.2s-2.1,23.8-2.5,37.9
	c-0.4,12.9-0.4,25,0,36.5s1.1,22.1,2,32c-3.8-0.1-7.6-0.1-11.6-0.1s-8,0.1-12.2,0.2c-3.6,0.1-7.2,0.3-10.7,0.5s-6.9,0.4-10.3,0.7
	c-2,0.2-1.9-16.2-1.2-33.2s1.9-34.6,2.1-37c1.3-17.4,3-34.2,5.4-51s5.4-33.5,9.4-50.5c2.4-10.3,4.9-20.5,7.5-30.7s5.4-20.4,8.4-30.5
	c8.3-28.1,14.5-45.2,18.7-59.5c4.4-14,7-28.6,7.6-43.2c0.5-10.5,0.4-21.4,0.1-31.1s-0.9-18.2-1.3-23.9c-1-14.1-2.3-27.1-3.8-38.6
	s-3.1-21.6-4.6-30l17.1-2.9l17.1-2.8c1.9,17.1,3.7,32.2,5.4,45.4c1.7,13.1,3.2,24.2,4.5,33.2c0.5,3.3,1.2,7.7,1.8,13.3
	S668.5,253.9,668.7,261.6z"/>
<path class="st3" d="M629.3,296.6c0.2-2.1,0.4-4.1,0.6-5.8s0.3-3.2,0.4-4.4c0,0,0.6-6.5,1.1-14.5s0.9-17.5,0.5-23.5
	c0-0.6-0.1-1.2-0.1-1.7s-0.1-0.8-0.1-0.8c0-0.8-0.1-1.9-0.2-3.4s-0.3-3.5-0.6-6.1c-1.1-10.9-2.1-20.5-2.9-27.3s-1.3-10.9-1.3-10.9
	c-0.7-5.8-1.5-12.3-2.4-19.4s-1.9-14.9-3-23.3l17.1-2.9l17.1-2.8c1.6,9.1,3,17.5,4.2,25.1s2.2,14.4,3,20.3c3.4,25,5,42.5,5.6,54.9
	c0.5,7.9,0.5,15.8,0.1,23.7c-0.3,6.2-0.8,11.8-1.3,16.4s-1,8.1-1.3,10.2c-1.1,7.9-2.5,15.2-3.9,21.7s-3,12.4-4.4,17.4
	c-4.7-7.2-9.4-14.3-14.2-21.5L629.3,296.6z"/>
<path class="st2" d="M810.2,365.7c-3-8-9.3-14.4-17.3-17.6c-16.6-6.5-35.5-0.3-45.1,14.8c-2.1-2-4.4-3.9-6.8-5.4
	c-18.6-12.1-43.5-6.9-55.6,11.6c-0.5,0.8-1,1.7-1.5,2.5c-0.6,1-1.1,2.1-1.6,3.2c-7.1-4.2-15.1-6.6-23.3-7
	c-12.2-0.8-23.5,2.6-31.9,8.7s-13.9,14.8-14.5,24.8s3.8,19.3,11.4,26.4s18.4,11.7,30.6,12.5s23.5-2.6,31.9-8.7
	c2-1.5,3.9-3.1,5.6-4.9c2.1,2,4.3,3.7,6.7,5.3c18.6,12.1,43.5,6.9,55.6-11.6c0.5-0.8,1-1.7,1.5-2.5c2-3.5,3.4-7.2,4.4-11.1
	c0.5,0.3,1.1,0.5,1.7,0.7c17.5,6.8,37.3-0.4,46.3-16.9C812.3,382.7,813.1,373.8,810.2,365.7z"/>
<path class="st3" d="M641.3,401.7h-3.2c-0.3,0-0.6-0.1-0.8-0.3c-0.2-0.2-0.4-0.6-0.4-0.9s0.1-0.6,0.4-0.9c0.2-0.2,0.5-0.4,0.9-0.4
	l0,0c8.5,0.1,17.1-0.1,25.7-0.5s17.1-1,25.6-1.8c20.4-2,40.6-5.2,60.6-9.7c20.1-4.5,39.9-10.3,59.2-17.3c0.3-0.1,0.7-0.1,1,0
	s0.5,0.4,0.6,0.7c0.2,0.6-0.1,1.3-0.7,1.6l0,0c-19.5,7-39.4,12.8-59.6,17.3c-20.1,4.5-40.4,7.8-60.9,9.8c-8,0.8-16,1.4-24.1,1.8
	C657.4,401.5,649.4,401.7,641.3,401.7z"/>
<path class="st8" d="M555.1,204.8L555.1,204.8L555.1,204.8L555.1,204.8c-12.2,17.8-7.7,42.2,10.1,54.5c9.2,6.3,20.6,8.4,31.4,5.8
	l0,0l0,0l0,0c3.9,21.3,24.3,35.3,45.6,31.4c11-2,20.6-8.6,26.4-18.2l0,0l0,0l0,0c17.8,12.2,42.2,7.7,54.5-10.1
	c6.3-9.2,8.4-20.6,5.8-31.4l0,0l0,0l0,0c21.3-3.9,35.3-24.3,31.4-45.6c-2-11-8.6-20.6-18.2-26.4l0,0l0,0v-0.1
	c12.2-17.9,7.6-42.2-10.3-54.4c-9.1-6.2-20.4-8.3-31.2-5.7h-0.1C696.7,83.1,676.3,69,655,73c-11,2-20.6,8.6-26.4,18.2l0,0l0,0l0,0
	c-17.8-12.2-42.2-7.7-54.4,10.1c-6.3,9.2-8.4,20.6-5.8,31.4v0.1l0,0c-21.3,3.9-35.3,24.4-31.4,45.6C539,189.4,545.6,199,555.1,204.8
	L555.1,204.8z"/>
<path class="st5" d="M605.5,185.7c-0.5,23.6,18.2,43.3,41.8,43.8s43.3-18.2,43.8-41.8s-18.2-43.3-41.8-43.8
	c-11.3-0.3-22.3,4-30.6,11.8C610.5,163.5,605.7,174.3,605.5,185.7z"/>
<path class="st3" d="M795.6,543.1c9.1-0.9,17.4-5.5,23-12.7c10.6-12.9,8.8-32-4.1-42.6c-0.3-0.3-0.6-0.5-0.9-0.7
	c-6.4-5-14.3-7.6-22.4-7.2c10-3.4,18.1-10.8,22.3-20.5c8-16.9,0.9-37-16-45.1c-1.1-0.5-2.2-1-3.4-1.4c-9-3.4-18.9-3.2-27.8,0.5
	c2.2-2.9,4.1-6.1,5.5-9.5c5.9-13.8,3.3-29.9-6.7-41.1c-2.8-3.3-6.1-6.2-9.8-8.5c-7.4-3.4-15.7-4.4-23.7-3c-17.4,3-30,18.3-29.5,36
	c0.1,9.7,3.7,18.9,10.2,26.1c-9.8-3.4-20.6-2.6-29.7,2.2c-8.6,4.5-15.1,12.1-17.3,21.1c-2.1,8.5-0.1,17.7,4.8,25.3
	c5.2,8.1,13.2,13.9,22.5,16.2c-8.4-0.9-16.8,0.8-24.2,4.9c-6.8,3.7-12,9.6-14.8,16.8c-1.8,4.8-2.3,10-1.7,15.1
	c0.7,5.8,3,11.2,6.7,15.7c3.9,4.6,9,7.9,14.7,9.5c3.1,0.9,6.2,1.4,9.4,1.5c-16.5,3.8-28.2,18.5-28.2,35.5l0,0
	c0,20.1,16.3,36.4,36.4,36.4h91.8c20.1,0,36.4-16.3,36.4-36.4l0,0c0-7.5-2.3-14.9-6.6-21C808.3,550.2,802.4,545.7,795.6,543.1z"/>
<path class="st4" d="M700.8,543h-18.1c-0.7,0-1.2-0.6-1.2-1.2c0-0.3,0.1-0.6,0.4-0.9c0.2-0.2,0.5-0.4,0.9-0.4h18.1
	c0.7,0,1.2,0.6,1.2,1.2C702,542.4,701.5,543,700.8,543z"/>
<path class="st4" d="M751.7,422.6c-0.2,0-0.4-0.1-0.6-0.2c-0.2-0.1-0.4-0.3-0.5-0.5c-0.2-0.3-0.2-0.6-0.1-1c0.1-0.3,0.3-0.6,0.6-0.8
	l7.3-4l7.3-4c0.3-0.2,0.6-0.2,1-0.1c0.3,0.1,0.6,0.3,0.8,0.6c0.3,0.6,0.1,1.4-0.5,1.7l-7.3,4l-7.3,4c-0.1,0.1-0.2,0.1-0.3,0.1
	C751.9,422.6,751.8,422.6,751.7,422.6z"/>
<path class="st4" d="M704.7,479.5h-13.8c-0.7,0-1.2-0.6-1.2-1.2s0.6-1.2,1.2-1.2h13.8c0.7,0,1.2,0.6,1.2,1.2
	S705.4,479.5,704.7,479.5z"/>
<path class="st1" d="M205.6,226.2c0,16.4-13.3,29.8-29.7,29.8s-29.8-13.3-29.8-29.7s13.3-29.8,29.7-29.8c7.9,0,15.5,3.1,21.1,8.7
	C202.4,210.7,205.6,218.3,205.6,226.2z"/>
<path class="st1" d="M180,252.9c0,16.4-13.3,29.8-29.7,29.8s-29.8-13.3-29.8-29.7s13.3-29.8,29.7-29.8c7.9,0,15.5,3.1,21.1,8.7
	C176.8,237.5,180,245,180,252.9z"/>
<path class="st3" d="M157.3,239.1c-1.7,0-3.3-0.5-4.8-1.4s-2.7-2-3.8-3.4c-1-1.4-1.9-2.8-2.4-4.4c-0.6-1.6-1-3.3-1.1-5h-0.1H145
	c-0.3,0.1-0.7,0-0.9-0.2c-0.6-0.4-0.7-1.2-0.3-1.7c0.2-0.3,0.5-0.5,0.8-0.5l0.4-0.1l0.4-0.1c0-0.2,0-0.5,0.1-0.7s0.1-0.5,0.1-0.7
	c0.1-0.3,0.3-0.6,0.5-0.8c0.3-0.2,0.6-0.2,0.9-0.2c0.3,0.1,0.6,0.3,0.8,0.5c0.2,0.3,0.2,0.6,0.2,0.9l-0.1,0.3c0,0.1,0,0.2-0.1,0.3
	c2.5-0.3,5.1-0.1,7.6,0.5c2.6,0.6,4.9,2,6.6,3.9c0.9,1,1.6,2.3,1.9,3.6c0.4,1.3,0.4,2.6,0.1,3.8c-0.6,2.1-2.1,3.9-4.1,4.7
	c-0.4,0.2-0.9,0.3-1.3,0.4C158.2,239,157.8,239.1,157.3,239.1z M147.7,224.5c0.1,1.5,0.4,3,0.9,4.4s1.2,2.7,2.1,3.9
	c1,1.3,2.3,2.4,3.8,3.1c1.4,0.8,3,0.9,4.5,0.3c1.3-0.6,2.3-1.7,2.6-3.1c0.2-0.9,0.2-1.8-0.1-2.6c-0.3-0.9-0.7-1.8-1.4-2.5
	c-1.5-1.7-3.5-2.8-5.7-3.2C152.3,224.4,150,224.3,147.7,224.5z"/>
<path class="st9" d="M258.2,419.2l0.2,16.8l0.2,16.8c0,3.2-0.1,6.3-0.4,9.5c-0.3,3.1-0.8,6.3-1.4,9.4c-0.6,3-1.5,5.8-2.6,8.6
	c-1.1,2.3-2.4,3.9-4,3.8c-0.6,1.8-1.6,3.3-2.9,4.6c-1.1,1.1-2.6,1.8-4.2,2c-0.4,0-0.8,0-1.3,0c-0.6-0.1-1.2-0.2-1.7-0.5
	c-0.4,0.7-1,1.3-1.5,1.9c-0.7,0.7-1.6,1.3-2.6,1.8c-0.5,0.2-1,0.4-1.5,0.5c-0.3,0-0.5,0-0.8,0c-0.6-0.1-1.1-0.3-1.6-0.7
	c-0.3-0.2-0.6-0.5-0.9-0.8c-0.8-0.9-1.2-2.2-1.1-4.6s0.5-6,1.3-11.4c0.1-0.5,0.2-1.2,0.3-2.3s0.4-2.3,0.6-3.8
	c0.1-0.5,0.1-0.8,0.2-1.1s0.1-0.4,0.1-0.6c0.3-1.7,0.4-3.4,0.4-5.2c0-1.4,0-2.8-0.1-4.1c-0.1-1.5-0.2-3.1-0.5-4.6
	c-0.2-1.5-0.5-3-0.9-4.5c-0.2-0.9-0.6-1.7-1-2.5s-1.1-1.5-2-1.8s-1.8-0.1-2.6,0.4s-1.4,1.1-1.8,2c-0.4,0.9-0.7,1.8-0.8,2.8
	s-0.2,2-0.3,2.9c-0.1,1.4-0.3,2.8-0.5,4.2c-0.2,1.4-0.6,2.8-1,4.1c-0.5,2-1.4,3.9-2.8,5.5c-0.5,0.6-1.1,1-1.8,1.1
	c-0.2,0-0.4,0-0.6,0c-0.3,0-0.7-0.1-1-0.2c-1.1-0.6-1.9-1.6-2.3-2.8c-0.6-1.7-0.8-3.4-0.8-5.2c0-0.8,0-1.7,0-2.5s0-1.7,0-2.5
	l-0.3-18.5l-0.3-18.5h23.2L258.2,419.2z"/>
<path class="st7" d="M240.1,491.3c-0.1,0-0.2,0-0.2,0c-0.1,0-0.2,0-0.3-0.1c-0.3-0.1-0.5-0.4-0.6-0.7c-0.1-0.3-0.1-0.6,0-1
	c1.7-3.9,3.1-10.4,4.1-16s1.5-10.3,1.5-10.4c0-0.3,0.2-0.6,0.5-0.8c0.3-0.2,0.6-0.3,0.9-0.3c0.3,0,0.6,0.2,0.8,0.5s0.3,0.6,0.3,0.9
	c0,0.4-0.6,5.2-1.6,10.9s-2.4,12.3-4.3,16.3c-0.1,0.2-0.3,0.4-0.5,0.5C240.6,491.3,240.4,491.3,240.1,491.3z"/>
<path class="st7" d="M250.2,485.2H250h-0.2c-0.3-0.1-0.6-0.3-0.8-0.6c-0.2-0.3-0.2-0.6-0.1-1c0.4-1.5,0.8-3.1,1.1-4.6
	s0.7-3.1,0.9-4.7c0.4-1.9,0.7-3.9,0.9-5.8c0.3-2,0.5-3.9,0.7-5.9c0-0.3,0.2-0.6,0.4-0.8c0.3-0.2,0.6-0.3,0.9-0.3
	c0.7,0.1,1.2,0.7,1.1,1.4c-0.2,2-0.4,4-0.7,6s-0.6,4-1,6c-0.3,1.6-0.6,3.2-1,4.8s-0.7,3.2-1.1,4.7c-0.1,0.3-0.2,0.5-0.5,0.7
	C250.7,485.2,250.4,485.2,250.2,485.2z"/>
<path class="st3" d="M146.1,355.5l-25.7,96.4l-25.7,96.4h112.5c5-32.1,10.1-64.2,15.1-96.4s10.1-64.2,15.1-96.4H146.1L146.1,355.5z"
	/>
<path class="st5" d="M202,237c-3.3-0.6-6.6-1-9.9-1.1c-4.2-0.1-8.5,0.3-12.6,1.3c-9.9,2.3-19.1,7.3-26.4,14.5
	c-4.3,4.1-8,8.8-11.1,13.9L130.4,285l-11.6,19.4c-2.8,4.6-5.1,9.5-6.9,14.6s-3.1,10.3-3.8,15.7c-0.9,6.6-0.9,13.8,0.9,20.4
	c1.8,7,6.2,13,12.3,16.9c2.7,1.7,5.6,2.9,8.7,3.7c3.1,0.8,6.3,1.1,9.5,0.9l42.1-2.1l42.1-2.1l-1-28.5l-1-28.5l19.5-1.4l6.7-0.5
	c0,0-1.3,6.2-3.3,15.5s-4.4,21.5-6.8,33.5c-2.8,14.4-5.5,28.6-7.4,39.2s-3.1,17.6-3.1,17.6l15.5,0.3l15.5,0.3
	c5.2-38.5,8.9-71.8,11.2-96.2s3.1-39.9,2.6-42.8c-0.6-3.5-1.4-7-2.4-10.4c-0.8-2.7-1.4-4.5-1.4-4.5l0,0c-1.4-2.9-3-5.6-4.9-8.2
	c-2.6-3.5-5.7-6.6-9.3-9.1c-2.9-2-6.1-3.6-9.5-4.8c-2.6-0.9-5.3-1.5-8.1-1.9l-17.2-2.6L202,237z"/>
<path class="st1" d="M396.2,100.6c-58.3-14.4-117.1,21.2-131.5,79.4c-9.4,37.9,2.3,77.9,30.6,104.8L217,396.6l-78.3,111.8l8,5.6
	l8,5.6l78-111.3L310.6,297c50.2,32.8,117.6,18.7,150.4-31.5s18.7-117.6-31.5-150.4C419.4,108.5,408.1,103.6,396.2,100.6z M348.5,294
	c-48.5-12-78.2-61.1-66.2-109.6s61.1-78.2,109.6-66.2s78.2,61.1,66.2,109.6c-5.8,23.3-20.5,43.4-41.1,55.8
	C396.4,296,371.8,299.8,348.5,294z"/>
<path class="st4" d="M248.3,314.8h-0.2c-0.3,0-0.6-0.2-0.8-0.5s-0.3-0.6-0.2-0.9l1.2-7.8l1.2-7.8c0.1-0.3,0.2-0.6,0.5-0.8
	c0.3-0.2,0.6-0.3,0.9-0.2c0.3,0,0.6,0.2,0.8,0.5s0.3,0.6,0.2,0.9l-1.2,7.8l-1.2,7.8c-0.1,0.3-0.2,0.6-0.4,0.8
	C248.9,314.7,248.6,314.8,248.3,314.8z"/>
<path class="st9" d="M223.7,372.4c13.5-1.5,25.1-3,33.9-4.3c8.8-1.3,14.8-2.3,17-2.8c0.6-0.1,1.4-0.4,2.5-0.6s2.6-0.7,4.7-1.1
	c1.4-0.3,2.3-0.5,3-0.7c0.6-0.2,1.3-0.4,1.9-0.6c1.1-0.5,2.1-1,3.1-1.7c1.1-0.7,1.8-1.7,2.2-2.9c0.2-0.9,0.2-1.9,0-2.8
	c-0.2-0.7-0.4-1.4-0.8-2l2.4-1.2c0.9-0.5,1.8-1,2.8-1.5c2.1-1.1,4.2-2.3,6.2-3.7c0.9-0.6,1.6-1.5,1.9-2.5c0.2-0.8,0.3-1.6,0.1-2.5
	c-0.1-0.4-0.2-0.8-0.3-1.1c-0.2-0.6-0.6-1.2-1.1-1.7c-0.3-0.3-0.6-0.6-1-0.8c2-0.9,3.5-2.6,4.3-4.6c0.7-1.7,0.6-3.6-0.2-5.2
	c-0.6-1-1.5-1.9-2.7-2.4s-2.5-0.8-3.9-0.7c0-0.6-0.1-1.2-0.3-1.8c-0.3-1-0.9-2-1.8-2.7c-0.5-0.5-1.1-0.8-1.8-1.1
	c-0.6-0.2-1.2-0.3-1.8-0.4c-0.6,0-1.2,0-1.8,0.1c-0.4,0.1-0.8,0.2-1.2,0.4l-0.2,0.1h-0.1c-1,0.5-8.6,3.1-16,5.5s-14.7,4.5-14.9,3.7
	c-0.1-0.2,0.3-0.5,1.5-1.2s3.2-1.7,6.5-3.2l4.5-6.4l4.5-6.4l-27.5,2l-27.5,2l1,28.5L223.7,372.4z"/>
<path class="st7" d="M267,340.1c-0.3,0-0.5-0.1-0.7-0.2c-0.2-0.2-0.4-0.4-0.5-0.6c-0.1-0.3-0.1-0.7,0.1-1s0.4-0.5,0.7-0.6
	c3.4-1.1,6.8-2.2,10.1-3.5s6.6-2.7,9.9-4.1c2.1-1,4.2-2,6.3-3.1s4.1-2.2,6.2-3.3c0.3-0.2,0.6-0.2,0.9-0.1s0.6,0.3,0.8,0.6
	c0.3,0.6,0.1,1.4-0.5,1.7c-2.1,1.2-4.1,2.3-6.3,3.4s-4.3,2.1-6.4,3.1c-3.3,1.5-6.6,2.9-10,4.2c-3.4,1.3-6.8,2.5-10.3,3.6h-0.2
	L267,340.1z"/>
<path class="st7" d="M270.2,350.9c-0.3,0-0.5-0.1-0.7-0.2c-0.2-0.2-0.4-0.4-0.5-0.6c-0.2-0.7,0.1-1.4,0.8-1.6
	c2.4-0.8,4.8-1.6,7.1-2.4s4.7-1.7,7-2.7c3-1.2,5.9-2.4,8.9-3.7s5.9-2.6,8.7-4c0.3-0.1,0.6-0.2,1-0.1c0.3,0.1,0.6,0.3,0.7,0.6
	c0.2,0.3,0.2,0.7,0.1,1s-0.3,0.6-0.6,0.7c-2.9,1.4-5.8,2.8-8.8,4.1c-3,1.3-6,2.6-9,3.8c-2.4,0.9-4.7,1.8-7.1,2.7s-4.8,1.7-7.2,2.5
	h-0.2L270.2,350.9z"/>
<path class="st7" d="M273.3,360.4c-0.5,0-1-0.4-1.2-0.9c-0.1-0.3-0.1-0.7,0.1-1c0.1-0.3,0.4-0.5,0.7-0.6l3.1-1c1-0.3,2-0.7,3.1-1
	c2-0.7,3.9-1.4,5.9-2.1s3.9-1.5,5.8-2.3c0.6-0.3,1.4,0,1.6,0.7c0.1,0.3,0.1,0.7,0,1s-0.4,0.5-0.7,0.7c-1.9,0.8-3.9,1.6-5.9,2.3
	s-4,1.5-5.9,2.2c-1,0.4-2,0.7-3.1,1s-2.1,0.7-3.1,1h-0.2L273.3,360.4z"/>
<path class="st4" d="M163.7,548.8h-0.1h-0.1c-0.3-0.1-0.6-0.2-0.8-0.5s-0.3-0.6-0.2-0.9l13.7-72.7l13.7-72.7
	c0.1-0.3,0.2-0.6,0.5-0.8c0.6-0.4,1.3-0.2,1.7,0.3c0.2,0.3,0.3,0.6,0.2,0.9l-13.7,72.7L165,547.8c-0.1,0.3-0.2,0.6-0.4,0.7
	C164.3,548.7,164,548.8,163.7,548.8z"/>
<path class="st4" d="M173.7,319.6l6.7-13.1l6.7-13.1c0.2-0.3,0.4-0.5,0.7-0.6c0.7-0.2,1.4,0.2,1.6,0.8c0.1,0.3,0.1,0.7-0.1,1
	l-5.7,11.1l-5.7,11.1l21.9-1.3l21.9-1.3c0.3,0,0.7,0.1,0.9,0.3c0.5,0.5,0.6,1.3,0.1,1.8c-0.2,0.2-0.5,0.4-0.9,0.4l-24.1,1.4
	L173.7,319.6z"/>
<path class="st9" d="M250.2,221.7c0,14.6-11.9,26.5-26.5,26.5s-26.5-11.9-26.5-26.5s11.9-26.5,26.5-26.5c7,0,13.7,2.8,18.7,7.8
	S250.2,214.7,250.2,221.7z"/>
<path class="st4" d="M220.4,221.1c0,0.5-0.2,1-0.6,1.4c-0.8,0.7-2,0.7-2.8,0c-0.8-0.8-0.8-2,0-2.7l0,0c0.8-0.7,2.1-0.7,2.8,0.2
	C220.2,220.2,220.3,220.6,220.4,221.1L220.4,221.1z"/>
<path class="st4" d="M237.7,218.7c0,1.1-0.9,1.9-1.9,2c-0.5,0-1-0.2-1.4-0.6c-0.7-0.8-0.7-2,0-2.8c0.8-0.8,2-0.8,2.7,0l0,0
	C237.5,217.7,237.7,218.2,237.7,218.7z"/>
<path class="st7" d="M227.9,234.4c-1.7,0-3.4-0.5-5-1.4c-0.7-0.4-1.4-0.9-2-1.4c-0.2-0.2-0.4-0.5-0.4-0.9c0-0.3,0.1-0.6,0.3-0.9
	c0.2-0.2,0.5-0.4,0.9-0.4c0.3,0,0.6,0.1,0.9,0.3c0.6,0.6,1.3,1,2.1,1.4c2.7,1.4,6,0.8,8.1-1.4c0.5-0.6,1-1.2,1.4-1.9
	c0.3-0.6,1-0.9,1.7-0.6c0.3,0.1,0.5,0.4,0.6,0.7s0.1,0.7-0.1,0.9c-0.5,0.9-1.1,1.8-1.8,2.5c-1.2,1.2-2.7,2.1-4.4,2.6
	c-0.4,0.1-0.8,0.2-1.2,0.2C228.7,234.4,228.3,234.4,227.9,234.4z"/>
<path class="st1" d="M233.3,197c-1.5-0.6-3.1-1-4.6-1.3c-1.6-0.3-3.3-0.5-4.9-0.5c-5.1,0-10.1,1.5-14.3,4.2s-7.5,6.5-9.6,10.9
	c3.3,1.5,9.4,3.6,15.8,2.6S228.7,207.9,233.3,197z"/>
<path class="st3" d="M276.5,613.7c-8.1-13.1-10.7-27-8.6-39.4c1.9-12.2,8.9-23,19.2-29.8c7.9-5,16.9-8,26.2-8.8
	c10-1,20.7,0.6,29.8,6.3c7.3,4.6,12.9,11.5,15.8,19.6c1.6,4.2,2.5,8.7,2.6,13.2c7.4-2,15.2-1.6,22.3,1.4c6.4,2.7,11.3,7.4,13.2,13
	c1.4,4.3,1.1,9-0.8,13.1c-2.1,4.7-5.5,8.6-9.9,11.4H276.5z"/>
<path class="st3" d="M87.3,613.8c-0.3,0-0.6-0.1-0.9-0.3c-0.2-0.2-0.4-0.5-0.4-0.9l-7-180.3L72,252c0-0.7,0.5-1.3,1.2-1.3l0,0
	c0.3,0,0.7,0.1,0.9,0.3c0.2,0.2,0.4,0.5,0.4,0.9l7,180.3l7,180.4c0,0.3-0.1,0.6-0.3,0.9C88,613.7,87.7,613.8,87.3,613.8L87.3,613.8
	L87.3,613.8z"/>
<path class="st8" d="M146.9,168.2c-5.1-40.7-42.3-69.6-83.1-64.4c-15.7,2-30.3,8.9-41.8,19.8c-4.8,5-9,10.7-12.4,16.7
	c-5.8,10.2-9.1,21.6-9.6,33.3c-0.9,21.3,7.8,38.2,17.1,49.9c5.7,7.3,12.4,13.8,20,19.1c3.2,1.8,6.6,3.3,10,4.6
	c7.9,3,16.3,4.5,24.7,4.7c3.6,0.1,7.1-0.1,10.6-0.6C123.2,246.1,152,208.9,146.9,168.2L146.9,168.2z"/>
<path class="st3" d="M124,178.4c-4.4,0-8.8-1.4-12.5-3.9c-3.9-2.6-7-6.2-8.9-10.4V164l0,0c-4.5,3.2-9.8,5.1-15.3,5.3
	c-5.1,0.3-10.2-1.1-14.5-4c-3.5-2.5-6.3-5.9-7.9-9.8c-1.1-2.4-1.8-5-2.1-7.7c0-0.3,0.1-0.7,0.2-0.9c0.2-0.3,0.5-0.4,0.8-0.5
	c0.3,0,0.7,0,0.9,0.2c0.3,0.2,0.4,0.5,0.5,0.8c0.3,2.4,1,4.7,1.9,6.9c1.5,3.6,3.9,6.6,7.1,8.9c3.8,2.6,8.4,3.8,13.1,3.5
	c4.9-0.3,9.7-2,13.7-4.9c0.6-0.5,1.4-0.6,2.2-0.4c0.4,0.1,0.7,0.3,1,0.5c0.3,0.3,0.5,0.6,0.7,0.9c2.2,4.8,5.9,8.6,10.6,10.9
	c4.5,2.2,9.6,2.5,14.3,0.9c3.8-1.4,7.1-4.1,9.2-7.6c2.3-3.7,3.4-7.9,3.3-12.3c0-0.3,0.1-0.7,0.3-0.9s0.5-0.4,0.9-0.4
	c0.3,0,0.7,0.1,0.9,0.4c0.2,0.2,0.4,0.5,0.4,0.9c0.2,4.8-1.1,9.6-3.7,13.7c-2.4,3.9-6.1,6.9-10.4,8.6c-1.1,0.4-2.2,0.7-3.3,0.9
	C126.3,178.3,125.2,178.4,124,178.4z"/>
<path class="st3" d="M87.3,613.8h-0.2c-0.3-0.1-0.6-0.2-0.8-0.5c-0.2-0.3-0.3-0.6-0.2-0.9l20.3-130l20.3-130c0-0.3,0.2-0.6,0.5-0.8
	c0.3-0.2,0.6-0.3,0.9-0.2c0.3,0.1,0.6,0.2,0.8,0.5s0.3,0.6,0.2,0.9l-20.3,130l-20.3,130c0,0.3-0.2,0.6-0.4,0.8
	C87.9,613.8,87.6,613.9,87.3,613.8z"/>
<path class="st8" d="M167.4,331.3c3.2,19.6-10.1,38.1-29.7,41.3c-19.6,3.2-38.1-10.1-41.3-29.7c-3.2-19.6,10.1-38.1,29.7-41.3
	c9.4-1.5,19,0.7,26.8,6.3C160.6,313.4,165.8,321.9,167.4,331.3z"/>
<path class="st3" d="M120.7,335.7c-0.3,0-0.6,0-0.9,0s-0.6-0.1-0.9-0.1c-2-0.4-3.7-1.4-5.1-2.8c-1.4-1.5-2.3-3.3-2.6-5.3
	c0-0.3,0-0.7,0.2-0.9c0.2-0.3,0.5-0.4,0.8-0.5c0.7-0.1,1.3,0.4,1.4,1.1c0.2,1.5,0.9,2.9,1.9,4s2.3,1.8,3.8,2.1
	c1.4,0.3,2.8,0.1,4.1-0.5c1.3-0.6,2.4-1.5,3.2-2.7c0.3-0.5,0.9-0.9,1.6-0.9c0.3,0,0.6,0,0.9,0.2c0.3,0.1,0.6,0.3,0.8,0.6
	c1.1,1.4,2.6,2.3,4.3,2.7c1.6,0.4,3.3,0.1,4.7-0.7c1.2-0.8,2.1-1.9,2.6-3.2c0.5-1.4,0.6-3,0.3-4.4c-0.1-0.3,0-0.7,0.2-0.9
	c0.2-0.3,0.5-0.5,0.8-0.6s0.7,0,0.9,0.2c0.3,0.2,0.5,0.5,0.6,0.8c0.5,2,0.3,4.1-0.4,6c-1.5,4-5.6,6.3-9.8,5.4
	c-2.2-0.4-4.2-1.5-5.7-3.1c-0.9,1.2-2.1,2.2-3.5,2.9C123.7,335.3,122.2,335.7,120.7,335.7z"/>
<path class="st5" d="M355.5,613.6c-0.1-3.1,0.2-6.3,0.9-9.4c1.1-5,3.3-9.8,6.5-13.8c3.6-4.5,8.4-8,13.8-10.2c3.7-1.4,7.5-2.4,11.4-3
	c6.1-1,12.4-0.8,18.4,0.7s11.6,4.3,16.4,8.2c2.7,2.2,5.1,4.8,7.1,7.6c1,1.5,2,3,2.8,4.6c2.4,4.7,3.7,9.9,3.9,15.2h-40.6h-40.6V613.6
	z"/>
<path class="st6" d="M411.9,588.7c0,1.5-0.8,2.9-2,3.8c-2.8,2.1-6.6,2.1-9.5,0c-2.1-1.5-2.6-4.3-1.1-6.4c0.3-0.4,0.7-0.8,1.1-1.1
	c2.8-2.1,6.6-2.1,9.5,0C411.2,585.8,411.9,587.2,411.9,588.7z"/>
<path class="st8" d="M207.6,548.2c-0.7,6.6-1.5,13.2-2.2,19.7c-0.7,6.6-1.5,13.1-2.2,19.7c-0.1,0.6-0.1,1.2-0.1,1.7
	c0,0.6,0.1,1.1,0.3,1.7c0.2,0.7,0.6,1.4,1,2.1c0.4,0.6,1,1.2,1.6,1.6l11,8l11,8c0.5,0.4,0.7,1,0.5,1.7c-0.1,0.6-0.6,1.1-1.2,1.1
	h-89.6c-1.4,0-2.7-0.6-3.6-1.7c-1-1.1-1.5-2.5-1.5-4l6-30.2l6-30.2c11.2,0,21.4,0.2,31.6,0.3S196.4,548.2,207.6,548.2z"/>
<path class="st8" d="M163,548.2l-3,19.7l-2.9,19.7c-0.1,0.6-0.1,1.2-0.1,1.7c0,0.6,0.1,1.1,0.3,1.7c0.2,0.7,0.6,1.4,1,2.1
	c0.4,0.6,1,1.2,1.6,1.6l11,8l11,8c0.5,0.4,0.7,1,0.5,1.7c-0.1,0.6-0.7,1-1.3,1.1H86.2c-1.4,0-2.7-0.6-3.6-1.7c-1-1.1-1.5-2.5-1.5-4
	l6.5-29.8l6.6-29.8H163L163,548.2z"/>
<path class="st4" d="M182.5,614.8c-0.2,0-0.3,0-0.5-0.1s-0.3-0.2-0.4-0.3c-0.2-0.2-0.3-0.6-0.3-0.9c0-0.3,0.2-0.6,0.4-0.9
	c0.1-0.1,0.2-0.3,0.3-0.4c0.1-0.3,0-0.5-0.1-0.8c-0.1-0.2-0.3-0.4-0.4-0.5c-0.2-0.2-0.4-0.3-0.6-0.5l-0.2-0.1l-0.2-0.1l-1.3-1
	l-1.3-1l-1.9-1.3l-1.9-1.3l-0.8-0.6l-0.8-0.6c-1.7-1.2-3.4-2.5-5.2-3.8s-3.6-2.6-5.3-4c-1.6-1.1-3-2.5-4.1-4.1
	c-1.1-1.9-1.5-4-1.2-6.2c0.1-0.8,0.2-1.6,0.3-2.4s0.3-1.5,0.4-2.3l0.2-1.4c0.1-0.5,0.1-0.9,0.2-1.4c0.5-3.5,1-7,1.6-10.5
	s1.1-7,1.6-10.3c0.3-1.7,0.5-3.5,0.8-5.2s0.5-3.5,0.8-5.2c0-0.3,0.2-0.6,0.5-0.8s0.6-0.3,0.9-0.2c0.3,0,0.6,0.2,0.8,0.5
	s0.3,0.6,0.2,0.9c-0.3,1.7-0.5,3.5-0.8,5.2s-0.5,3.5-0.8,5.2c-0.5,3.4-1.1,6.9-1.6,10.3s-1,7-1.5,10.4c-0.1,0.5-0.1,0.9-0.2,1.4
	s-0.2,0.9-0.2,1.4c-0.1,0.7-0.3,1.5-0.4,2.2s-0.2,1.5-0.3,2.2c-0.2,1.5,0.1,3.1,0.8,4.5c0.9,1.4,2.2,2.6,3.6,3.5
	c1.8,1.3,3.5,2.7,5.3,4s3.5,2.5,5.2,3.7l0.8,0.6l0.8,0.6l1.9,1.3l1.9,1.3l1.3,1l1.3,1l0.2,0.1l0.2,0.1c0.4,0.2,0.7,0.5,1,0.8
	c0.4,0.3,0.6,0.7,0.9,1.1c0.4,0.7,0.5,1.5,0.4,2.2c-0.1,0.8-0.5,1.4-1.1,2c-0.1,0.1-0.2,0.2-0.4,0.2
	C182.8,614.8,182.6,614.8,182.5,614.8z"/>
<path class="st6" d="M164.2,704.6c-0.4,1.2-2.1,1.8-4.6,1.9c-6.1-0.2-12-2.3-17-5.9c-1.9-1.5-2.9-3.1-2.5-4.3s2.1-1.8,4.6-1.8
	c6.1,0.2,12,2.3,17,5.9C163.6,701.8,164.6,703.4,164.2,704.6z"/>
<path class="st6" d="M294.7,640.8c0.7,1.1,0.1,2.8-1.3,4.8c-3.9,4.7-9.1,8.2-15,10c-2.4,0.6-4.2,0.4-4.9-0.7s-0.1-2.8,1.3-4.8
	c1.9-2.4,4.2-4.5,6.8-6.1c2.5-1.7,5.3-3,8.2-3.8C292.2,639.6,294,639.8,294.7,640.8z"/>
<path class="st6" d="M303.4,711.4c1.2,0.5,1.8,2.2,1.7,4.7c-0.4,6.1-2.7,12-6.5,16.8c-1.6,1.8-3.2,2.8-4.4,2.3s-1.8-2.2-1.7-4.7
	c0.4-6.1,2.7-12,6.5-16.8C300.7,711.9,302.2,710.9,303.4,711.4z"/>
<path class="st6" d="M612.8,730.4c0.7,1.1,0.2,2.8-1.3,4.8c-1.9,2.4-4.2,4.5-6.8,6.1c-2.5,1.7-5.3,3-8.3,3.8
	c-2.4,0.6-4.2,0.4-4.9-0.7s-0.2-2.8,1.3-4.8c3.9-4.7,9.1-8.2,15-9.9C610.3,729.2,612.1,729.3,612.8,730.4z"/>
<path class="st6" d="M354.9,716c-1.2,0.4-2.8-0.5-4.3-2.5c-3.6-4.9-5.7-10.9-5.9-17c0-2.5,0.6-4.2,1.9-4.6s2.8,0.5,4.3,2.5
	c3.6,5,5.7,10.9,5.9,17C356.7,713.8,356.1,715.6,354.9,716z"/>
<path class="st6" d="M749.4,635c0.7,1.1,0.2,2.8-1.3,4.8c-1.9,2.4-4.2,4.5-6.8,6.1c-2.5,1.7-5.3,3-8.3,3.8c-2.4,0.6-4.2,0.4-4.9-0.7
	s-0.1-2.8,1.3-4.8c1.9-2.4,4.2-4.5,6.8-6.1c2.5-1.7,5.3-3,8.3-3.8C746.8,633.7,748.7,633.9,749.4,635z"/>
<path class="st6" d="M184.1,766.1c-1,0.8-2.8,0.4-4.9-0.8c-5.1-3.4-9.1-8.2-11.5-13.9c-0.8-2.3-0.8-4.2,0.1-5s2.8-0.4,4.9,0.8
	c5.1,3.4,9.1,8.2,11.4,13.9C185.1,763.4,185.1,765.3,184.1,766.1z"/>
<path class="st6" d="M486.2,725.1c1.2,0.5,1.8,2.2,1.7,4.7c-0.4,6.1-2.7,12-6.5,16.8c-1.6,1.8-3.2,2.8-4.4,2.3s-1.8-2.2-1.7-4.7
	c0.4-6.1,2.7-12,6.5-16.8C483.4,725.5,485,724.6,486.2,725.1z"/>
<path class="st6" d="M452.8,793c-1,0.8-2.8,0.4-4.9-0.8c-5.1-3.4-9.1-8.2-11.5-13.9c-0.8-2.3-0.8-4.2,0.1-5s2.8-0.4,4.9,0.8
	c5.1,3.4,9.1,8.2,11.5,13.9C453.7,790.4,453.7,792.2,452.8,793z"/>
<path class="st6" d="M571.7,706.9c-0.9,0.9-2.7,0.7-4.9-0.3c-5.4-2.9-9.9-7.3-12.7-12.7c-1-2.2-1.2-4-0.3-4.9s2.7-0.7,4.9,0.3
	c5.4,2.9,9.9,7.3,12.7,12.7C572.4,704.2,572.6,706,571.7,706.9z"/>
<path class="st10" d="M282.1,771c-5,0.9-9.8,2.1-14.6,3.6c-5.1,1.6-10.1,3.6-15,5.8c4.3,14.4,11.4,32.6,22.8,47.2s27,25.7,48.1,25.7
	c1.5,0,3-0.1,4.6-0.2s3.1-0.3,4.7-0.5c10.3-1.3,20.1-5.5,28.2-12c8-6.5,14.5-15.5,19.7-27.3l-0.1-0.1l-0.1-0.1
	c-13.1-16.7-28.6-28.9-45.4-36.1C318.5,769.9,300,767.7,282.1,771z"/>
<path class="st10" d="M522.1,746.1c-1.7-2.2-3.3-4.5-5-6.8s-3.4-4.5-5.1-6.8c-1.2-1.6-2.5-3.3-3.8-5.2s-2.7-3.8-4-5.7
	c-9.9-14.1-19.8-27.3-29.9-35.6s-20.6-11.8-31.6-6.4c-11.6,5.7-18.8,18.1-23.5,33s-7.1,32.2-9.1,47.7c-0.6,4.7-1.2,9.2-1.9,13.6
	s-1.4,8.4-2.2,12.2c-1,4.5-2,8.8-3.2,12.9s-2.4,8.1-3.8,11.8c14.1,16.9,28.4,29.8,43.4,39.1c14.8,9.1,31.2,15.1,48.4,17.6
	c44.8,6.7,90-9.1,120.8-42.2c-6.9-2.2-13.5-4.9-19.9-8.3c-6.1-3.2-12-7-17.4-11.4c-10.2-8.4-19.7-17.9-28.1-28.1
	S529.9,756.6,522.1,746.1z"/>
<path class="st5" d="M665.1,612.4H655h-10.1c0,0,0,0.1,0,0.2s0,0.1,0,0.2h20.2v-0.1C665.1,612.6,665.1,612.4,665.1,612.4z"/>
<path class="st0" d="M639.8,815c1.1-1.7,2.2-3.4,3.2-5.2s2-3.5,3-5.3c8.9-16.4,15.5-34,19.7-52.2c6-27.8,8.4-56.2,7.1-84.6
	c-0.9-18.6-3.5-37-7.7-55.1H645c4.2,13.7,7.4,27.8,9.4,42c2.5,17.8,3.1,35.8,1.8,53.8c-0.8,12.8-2.6,25.6-5.4,38.1
	c-3.9,17.6-10.2,34.6-18.8,50.4c-1.4,2.6-2.9,5.1-4.4,7.5s-3.2,4.9-4.9,7.2c-7.1-1.8-14.1-4.4-20.7-7.6c-6.3-3-12.1-6.7-17.6-11.1
	c-9.6-7.9-18.4-16.8-26.2-26.4c-8.1-9.7-15.7-20-23.2-30.1c-1.7-2.3-3.4-4.6-5.1-6.9s-3.4-4.6-5.2-6.9c-1.1-1.5-2.3-3.1-3.6-4.9
	s-2.5-3.6-3.9-5.5c-4.3-6.2-9.2-13.1-14.6-19.8c-5.3-6.8-11.2-13-17.7-18.6c-8.3-6.8-16.5-11-24.8-12.5c-8.4-1.5-17-0.2-24.5,3.7
	c-15.5,7.5-24.7,22.1-30.6,39.1s-8.5,36.5-10.9,53.8c-0.6,4.5-1.2,8.9-1.8,13s-1.3,8-2,11.4c-0.5,2.4-1,4.7-1.6,6.9
	s-1.2,4.4-1.8,6.5c-6.2-7-13.1-13.4-20.6-19c-7.2-5.4-15-10-23.2-13.7c-10-4.6-20.6-7.6-31.5-9c-10.8-1.3-21.8-1-32.5,1
	c-10.6,1.9-21,5.1-30.8,9.4c-0.1-0.3-0.1-0.5-0.2-0.8l-0.1-0.7c-1.7-8.5-3.1-15.9-4.1-24.2s-1.8-17.6-2.4-30l-0.1-2
	c0-0.7-0.1-1.4-0.1-2c15.2-0.4,30.2-3.1,44.6-8.1c7.9-2.7,15.6-6.1,22.9-10.2c9.7-5.5,18.7-12.2,26.7-19.8
	c5.3-5.1,10.3-10.5,14.9-16.3c9.2-11.2,16.8-23.6,22.7-36.8h-7.8h-7.8c-11.5,22.3-28.6,41.2-49.6,54.8c-19.9,13-43.1,20.1-66.8,20.8
	c-0.1-15.5,0.4-29.8,1.3-42.4s2.1-23.8,3.3-33h-8h-8c-1.8,13.9-3,27.1-3.7,39.6s-1,24.2-0.9,35.2c-1.1-0.1-2.2-0.3-3.2-0.4
	s-2.2-0.3-3.2-0.5c-31.3-5.4-54.1-22.4-69.4-38.8c-9.8-10.5-18.1-22.4-24.5-35.3l-7.9,0.1l-7.9,0.1c3.7,9.2,8.2,17.9,13.6,26.2
	c7.9,12.1,17.5,23,28.5,32.2c7.1,6.1,14.8,11.5,23,16.2c13.1,7.4,27.3,12.5,42.2,15c0.5,0.1,1.7,0.3,3.3,0.5s3.6,0.4,6.1,0.7
	c0.5,12.9,1.5,24.6,2.8,34.9s2.7,19.4,4.1,27.1c0.2,0.9,0.4,1.9,0.5,2.9s0.4,2,0.6,3c-1.5,0.9-2.9,1.8-4.3,2.7s-2.8,1.9-4.1,2.8
	c-8.5,6.1-16,13.4-22.1,21.8c-7.7,10.5-12.7,22.6-14.7,35.5c-0.5,3.1-0.8,6.2-0.9,9.4c2.7,2.7,5.5,5.4,8.4,8s5.7,5.2,8.6,7.7
	c-0.8-5-1.1-10.2-0.9-15.3c0.5-14.1,5.7-27.7,14.6-38.6c5.6-6.9,12.3-12.8,19.7-17.7c2.5,8.3,5.7,16.4,9.5,24.2
	c4.3,8.9,9.6,17.3,15.7,25.1c8.2,10.4,17.4,18.2,27.6,23.5c10.1,5.3,21.4,8,32.9,8c1.9,0,3.8-0.1,5.7-0.2s3.9-0.3,5.8-0.6
	c11.9-1.5,23.3-6,33.1-13.1c9.5-6.9,17.4-16.5,23.8-28.6c14.6,16.4,29.6,29.1,45.6,38.4c15.7,9.2,33,15.3,51,17.9
	c53.1,8,106.5-12.4,140.8-53.7c5.3,1,10.9,1.7,16.6,2.2c5.8,0.5,11.7,0.8,17.8,0.8c3.9,0,7.9-0.1,12-0.3s8.2-0.5,12.5-0.9
	c2.7-2.9,5.3-5.9,7.8-8.9s5-6.1,7.5-9.2c-11.2,1.8-22.5,2.8-33.8,3.2C659.7,816.7,649.7,816.3,639.8,815z M332.7,852.8
	c-1.6,0.2-3.2,0.4-4.7,0.5s-3.1,0.2-4.6,0.2c-21.1,0-36.8-11.1-48.1-25.7s-18.5-32.9-22.8-47.2c4.9-2.3,9.9-4.2,15-5.8
	c4.8-1.5,9.7-2.7,14.6-3.6c17.9-3.3,36.3-1.2,53,6.1c16.8,7.2,32.3,19.4,45.4,36.1l0.1,0.1l0.1,0.1c-5.2,11.8-11.8,20.8-19.7,27.3
	C352.8,847.3,343,851.5,332.7,852.8z M572.7,854.4c-25.3,12.7-53.8,17.3-81.8,13c-17.2-2.5-33.7-8.5-48.5-17.6
	c-15.1-9.3-29.3-22.2-43.4-39.1c1.3-3.7,2.6-7.7,3.8-11.8s2.3-8.4,3.2-12.9c0.8-3.7,1.5-7.8,2.2-12.2s1.3-8.9,1.9-13.6
	c2.1-15.4,4.4-32.8,9.1-47.7s11.9-27.3,23.5-33c11-5.4,21.5-1.9,31.6,6.4s20,21.5,29.9,35.6c1.4,2,2.7,3.9,4,5.7s2.6,3.6,3.8,5.2
	c1.7,2.2,3.4,4.5,5.1,6.8s3.4,4.6,5,6.8c7.8,10.5,15.7,21.2,24.2,31.4c8.4,10.2,17.8,19.6,28.1,28.1c5.4,4.3,11.2,8.1,17.4,11.4
	c6.4,3.3,13,6.1,19.9,8.3C600.5,837.1,587.3,847,572.7,854.4L572.7,854.4z"/>
<path class="st2" d="M401.6,650.7l-10.3-6.5l-10.3-6.5c-0.4-0.3-0.9-0.2-1.1,0.2c-0.2,0.2-0.2,0.5-0.1,0.8l14.6,37.3l14.6,37.4
	c1.3,3.2,4.9,4.8,8.1,3.6h0.1l25.8-10.5l25.8-10.5l-13.3-31.3c-4.4-10.4-8.9-20.9-13.3-31.4l-20.2,8.8L401.6,650.7z"/>
<path class="st3" d="M624.6,594.3h-93.1l-44.7,19.4l-44.7,19.4c4.4,10.4,8.9,20.9,13.3,31.4l13.3,31.3l53-21.6l53-21.6l42.9,25.4
	l42.9,25.4l18.1-30.8l18.1-30.8l-36-23.8L624.6,594.3z"/>
<path class="st2" d="M760,660.2l-11,4.3l-11,4.3l-20.6-13.5l-20.6-13.5l-18.1,30.8l-18.1,30.8l26.5,15.7l26.5,15.7
	c3,1.8,6.8,0.8,8.6-2.2c0-0.1,0.1-0.1,0.1-0.2c6.5-11.8,12.9-23.6,19.4-35.4l19.3-35.4c0.2-0.3,0.1-0.7-0.1-0.9
	C760.7,660.2,760.4,660.1,760,660.2z"/>
<path class="st5" d="M558.7,484.3c-0.8,0-1.7,0-2.8,0c-1.2,0.1-2.5,0.2-3.7,0.4c-3.4,0.5-6.7,1.6-9.8,3.2c-3.2,1.7-6.3,3.7-9.2,6
	c-5.1,4-10,8.3-14.5,13c-4.1,4.3-7.6,8.3-10.2,11.6L489.6,542l-18.9,23.5c-1.8,2.2-3.2,4.6-4.4,7.1c-1.2,2.5-2,5.2-2.4,8
	c-0.4,2.7-0.4,5.5,0,8.2c0.5,3.1,1.7,6.1,3.5,8.6l0.5,0.7c0.2,0.2,0.3,0.5,0.5,0.7c3.2,5.1,7.4,9.5,12.2,13
	c6.5,4.5,15.1,6.9,24.8,0.7l8.9-6.4l8.9-6.4c1-0.9,2-1.8,2.7-3c1.5-2,1.9-4.6,1.1-6.9l-6.2-13.2l-6.2-13.2h119.7
	c-1.2,6.3-2.3,11.8-3.3,16.6s-1.8,8.8-2.5,12c-0.3,1-0.4,2-0.5,3.1c-0.2,3.2,1.3,6.2,3.9,8.1c1.1,0.8,2.2,1.5,3.4,2
	c6.6,3.2,13.5,5.9,20.4,8.2c5.8,1.9,10.9,3.3,15.9,4.8c0.9,0.3,1.8,0.5,2.7,0.7c3.1,0.6,6.4,0.5,9.4-0.4c1-0.3,2-0.7,3-1.1
	c5.5-2.4,9.2-7,11.6-11c1.5-2.5,2.7-5.2,3.5-8c0.4-1.3,0.6-2.7,0.8-4.1c0.3-2.7,0.4-5.5,0.1-8.2c-0.4-4.1-1.5-8.1-3.3-11.8
	c-1.3-2.8-2.9-5.5-4.7-8.1c-7-10.5-12.4-18.2-16.2-23.1s-5.7-7.3-5.7-7.3c-3.8-4.4-7.6-9-11.6-13.6s-8.1-9.3-12.2-14
	c-2.8-3.2-5.8-6.1-9.1-8.8c-3.2-2.7-6.7-5.1-10.4-7.2c-4.4-2.6-9.1-4.6-14-6c-3.8-1.1-7.6-1.5-11.5-1.4c-1.3,0.1-3.1,0.1-4.9,0.1
	s-3.5,0-4.9,0l-17.8-0.2L558.7,484.3z"/>
<path class="st6" d="M526.7,523.2v75.4l24.8,8.6l24.8,8.6l26.2-8.9l26.2-8.9l0.3-38.4l0.3-38.4l-26.8,7.6l-26.8,7.6l-24.5-6.7
	L526.7,523.2z"/>
<path class="st9" d="M557,465.3c0,14.7,11.9,26.5,26.5,26.5c14.7,0,26.5-11.9,26.5-26.5c0-14.7-11.9-26.5-26.5-26.5
	c-7,0-13.8,2.8-18.8,7.8C559.8,451.5,557,458.3,557,465.3z"/>
<path class="st4" d="M578.7,463.9c0,0.5,0.3,0.9,0.7,1.2c0.4,0.3,0.9,0.5,1.3,0.4c0.5,0,0.9-0.3,1.2-0.7c0.3-0.4,0.5-0.9,0.4-1.3
	c-0.1-0.5-0.3-0.9-0.7-1.2c-0.8-0.6-1.9-0.5-2.6,0.2l0,0C578.7,463,578.6,463.5,578.7,463.9z"/>
<path class="st4" d="M565.3,463.4c0,0.5,0.3,0.9,0.7,1.2c0.4,0.3,0.9,0.5,1.3,0.4c1-0.1,1.7-1,1.6-2l0,0c0-0.5-0.3-0.9-0.7-1.2
	c-0.4-0.3-0.9-0.5-1.3-0.4C565.9,461.5,565.2,462.4,565.3,463.4z"/>
<path class="st7" d="M575,477.2h-0.5H574c-1.7-0.2-3.4-0.8-4.8-1.9c-0.8-0.6-1.6-1.4-2.2-2.2c-0.4-0.6-0.3-1.3,0.3-1.7
	c0.6-0.4,1.3-0.3,1.7,0.3l0,0c0.5,0.6,1,1.2,1.6,1.7c2.4,1.9,5.8,1.9,8.3,0.2c0.7-0.5,1.3-1,1.8-1.7c0.2-0.3,0.5-0.4,0.8-0.5
	c0.3,0,0.7,0,0.9,0.2c0.3,0.2,0.4,0.5,0.5,0.8s0,0.7-0.2,0.9c-0.6,0.8-1.4,1.4-2.2,2C579,476.6,577,477.2,575,477.2z"/>
<path class="st7" d="M583.5,438.8c-2.6,0-5.2,0.4-7.6,1.1c-2.4,0.7-4.7,1.8-6.8,3.1c0.4,0.8,0.9,1.6,1.5,2.3
	c0.6,0.8,1.3,1.6,2.1,2.2c2.6,2.2,5.7,3.6,9.1,3.9c3.6,0.4,7.3-0.1,10.7-1.4c-0.6,2-0.9,4-0.9,6.1c-0.2,6.7,3.4,13,9.3,16.3
	c2.3,1.3,4.8,2.1,7.4,2.4c5.3-13.7-1.6-29-15.2-34.3C590,439.4,586.8,438.8,583.5,438.8z"/>
<path class="st7" d="M575.7,616.4c-0.7,0-1.2-0.5-1.2-1.2l0,0v-77.8c0-0.7,0.5-1.2,1.2-1.2l0,0c0.7,0,1.2,0.6,1.2,1.2v77.8
	C577,615.9,576.4,616.5,575.7,616.4L575.7,616.4z"/>
<path class="st9" d="M527.1,556.2v-13.8c0-0.7-0.3-1.4-0.7-1.9c-0.9-1.2-2.6-1.5-3.9-0.8c-0.7,0.4-1.2,1-1.5,1.7l-4.2,10.8
	l-4.2,10.8l0,0v0.1c0,0-0.4,1-0.9,2.6c-0.6,1.9-1,3.9-1.2,5.8c-0.1,3.8,0.4,7.5,1.5,11.1c1.5,4.6,4.2,9.3,9.1,11.2
	c2.2,0.9,4.5,1.2,6.8,1c1.2-0.1,2.3-0.3,3.5-0.6c0.9-0.3,1.7-0.6,2.4-1.2c0.8-0.5,1.8-1.2,3.5-2.4c0.1,0,3.1-2.1,6.8-4.7
	s8.2-5.7,10.9-7.8c0.4-0.3,0.7-0.6,1-0.9c0.4-0.5,0.8-1.1,1-1.7c0.1-0.5,0.2-0.9,0.2-1.4c0-0.3-0.1-0.6-0.1-0.8
	c-0.2-0.6-0.5-1.2-0.9-1.7c-0.2-0.3-0.5-0.6-0.8-0.8c0.3-0.2,1.5-1,2.9-2.1c1.5-1.1,3-2.4,4.4-3.6c0.3-0.3,0.7-0.6,0.9-1
	c0.4-0.5,0.6-1.1,0.7-1.7c0.1-0.2,0.1-0.5,0.1-0.7c0-0.4,0-0.8-0.2-1.1c-0.2-0.7-0.7-1.3-1.3-1.8c-0.4-0.2-0.7-0.4-1.2-0.6
	c0.4-0.4,0.7-0.9,0.9-1.5c0.9-1.9,0.5-4.2-1.1-5.7c-0.4-0.3-0.8-0.6-1.2-0.9c-0.9-0.4-1.9-0.6-2.9-0.5s-2,0.5-2.8,1.1
	c-0.5-1-1.2-1.8-2.1-2.4c-0.4-0.3-0.9-0.5-1.4-0.7c-1.1-0.4-2.3-0.5-3.4-0.3c-0.7,0.1-1.4,0.3-2,0.6l-9.3,4.2L527.1,556.2z"/>
<path class="st7" d="M535,564.6c-0.4,0-0.8-0.2-1.1-0.6c-0.2-0.3-0.2-0.6-0.2-0.9c0.1-0.3,0.3-0.6,0.5-0.8l9.8-6.3l9.8-6.3
	c0.3-0.2,0.6-0.2,0.9-0.2c0.3,0.1,0.6,0.3,0.8,0.5c0.2,0.3,0.2,0.6,0.2,0.9c-0.1,0.3-0.3,0.6-0.5,0.8l-9.8,6.3l-9.8,6.3
	c-0.1,0.1-0.2,0.1-0.3,0.2C535.2,564.6,535.1,564.6,535,564.6z"/>
<path class="st7" d="M540.5,572.5c-0.2,0-0.4-0.1-0.6-0.2c-0.2-0.1-0.4-0.3-0.5-0.4c-0.4-0.6-0.2-1.3,0.4-1.7l0,0l10.6-6.5l10.6-6.5
	c0.3-0.2,0.7-0.2,1-0.2c0.3,0.1,0.6,0.3,0.8,0.6s0.2,0.7,0.2,1c-0.1,0.3-0.3,0.6-0.6,0.8l-10.6,6.5l-10.6,6.5
	c-0.1,0.1-0.2,0.1-0.3,0.1C540.7,572.5,540.6,572.5,540.5,572.5z"/>
<path class="st7" d="M544.4,579.4c-0.2,0-0.4,0-0.6-0.1c-0.2-0.1-0.3-0.2-0.5-0.4c-0.2-0.3-0.3-0.6-0.2-0.9c0.1-0.3,0.3-0.6,0.5-0.8
	l5.5-3.6l5.5-3.7c0.6-0.4,1.3-0.2,1.7,0.3c0.4,0.6,0.2,1.3-0.3,1.7l0,0l-5.5,3.6l-5.5,3.6c-0.1,0.1-0.2,0.1-0.3,0.2
	C544.6,579.4,544.5,579.4,544.4,579.4z"/>
<path class="st9" d="M629,556.2v-13.8c0-0.7,0.3-1.4,0.7-1.9c0.9-1.2,2.6-1.5,3.9-0.8c0.7,0.4,1.2,1,1.5,1.7l4.1,10.8l4.2,10.8l0,0
	v0.1c0,0,0.4,1,0.9,2.6c0.6,1.9,1,3.9,1.2,5.8c0.1,3.8-0.4,7.5-1.5,11.1c-1.5,4.6-4.2,9.3-9.1,11.2c-2.2,0.9-4.5,1.2-6.8,1
	c-1.2-0.1-2.4-0.3-3.5-0.6c-0.9-0.3-1.7-0.6-2.4-1.2c-0.8-0.5-1.8-1.2-3.5-2.4c-0.1,0-3.1-2.1-6.8-4.7s-8.2-5.7-10.9-7.8
	c-0.4-0.3-0.7-0.5-1-0.9c-0.4-0.5-0.8-1.1-1-1.7c-0.1-0.5-0.2-0.9-0.2-1.4c0-0.3,0.1-0.6,0.1-0.8c0.2-0.6,0.5-1.2,0.9-1.7
	c0.2-0.3,0.5-0.5,0.8-0.8c-0.3-0.2-1.5-1-2.9-2.1c-1.5-1.1-3-2.3-4.4-3.6c-0.3-0.3-0.7-0.6-0.9-1c-0.4-0.5-0.6-1.1-0.7-1.7
	c-0.1-0.2-0.1-0.5-0.1-0.7c0-1.2,0.5-2.3,1.5-2.9c0.4-0.3,0.7-0.5,1.2-0.6c-0.4-0.4-0.7-0.9-1-1.5c-0.5-1-0.6-2.2-0.3-3.3
	c0.2-0.9,0.7-1.7,1.4-2.4c0.4-0.3,0.8-0.6,1.2-0.9c0.9-0.4,1.9-0.6,2.9-0.5s2,0.5,2.8,1.1c0.2-0.4,0.5-0.8,0.7-1.1
	c0.7-0.9,1.7-1.6,2.8-2c0.4-0.2,0.9-0.3,1.4-0.3c0.7-0.1,1.3-0.1,2,0s1.4,0.3,2,0.6l9.3,4.2L629,556.2z"/>
<path class="st7" d="M621,564.6c-0.1,0-0.2,0-0.3,0s-0.2-0.1-0.3-0.2l-9.8-6.3l-9.8-6.3c-0.3-0.2-0.5-0.5-0.5-0.8
	c-0.1-0.3,0-0.7,0.2-0.9c0.2-0.3,0.5-0.5,0.8-0.5c0.3-0.1,0.7,0,0.9,0.2l9.8,6.3l9.8,6.3c0.6,0.4,0.7,1.1,0.4,1.7
	c-0.1,0.2-0.3,0.3-0.5,0.4C621.4,564.5,621.2,564.6,621,564.6z"/>
<path class="st7" d="M615.6,572.5c-0.1,0-0.2,0-0.3,0s-0.2-0.1-0.3-0.1l-10.6-6.5l-10.6-6.5c-0.3-0.2-0.5-0.4-0.6-0.8
	c-0.2-0.7,0.3-1.3,0.9-1.5l0,0c0.3-0.1,0.7,0,0.9,0.2l10.6,6.5l10.6,6.5c0.3,0.2,0.5,0.4,0.6,0.8c0.1,0.3,0,0.7-0.2,1
	C616.4,572.3,616,572.5,615.6,572.5L615.6,572.5z"/>
<path class="st7" d="M611.7,579.4c-0.1,0-0.2,0-0.4,0c-0.1,0-0.2-0.1-0.3-0.2l-5.5-3.6L600,572c-0.3-0.2-0.5-0.5-0.5-0.8
	c-0.1-0.3,0-0.7,0.2-0.9c0.2-0.3,0.5-0.5,0.8-0.5c0.3-0.1,0.7,0,0.9,0.2l5.5,3.7l5.5,3.6c0.3,0.2,0.5,0.5,0.5,0.8
	c0.1,0.3,0,0.7-0.2,0.9c-0.1,0.2-0.3,0.3-0.5,0.4C612.1,579.4,611.9,579.4,611.7,579.4z"/>
</svg>
