<?xml version="1.0" encoding="utf-8"?>
<!-- Generator: Adobe Illustrator 28.0.0, SVG Export Plug-In . SVG Version: 6.00 Build 0)  -->
<svg version="1.1" id="Layer_1" xmlns="http://www.w3.org/2000/svg" xmlns:xlink="http://www.w3.org/1999/xlink" x="0px" y="0px"
	 viewBox="0 0 1000 1000" style="enable-background:new 0 0 1000 1000;" xml:space="preserve">
<style type="text/css">
	.st0{fill:#666538;}
	.st1{fill:#E9CF81;}
	.st2{fill:#F98638;}
	.st3{fill:#BAB653;}
	.st4{fill:#353519;}
	.st5{fill:#AD4D4D;}
	.st6{fill:#F4ECE5;}
	.st7{fill:#DEB8FC;}
	.st8{fill:#FFAA9F;}
	.st9{fill:#F9822B;}
	.st10{fill:#E2B2FF;}
	.st11{fill:#2B3D0A;}
</style>
<path class="st0" d="M549.9,551c-0.2,0-0.5-0.1-0.7-0.2c-0.2-0.1-0.4-0.3-0.5-0.5l-5.7-11.9l-5.7-11.9c-0.3-0.6,0-1.4,0.6-1.7
	c0,0,0,0,0,0c0.3-0.1,0.7-0.1,1,0c0.3,0.1,0.6,0.3,0.7,0.6l5.7,11.9l5.6,11.8c0.1,0.3,0.2,0.7,0,1c-0.1,0.3-0.3,0.6-0.7,0.7
	c-0.1,0-0.2,0.1-0.3,0.1C550.1,551,550,551,549.9,551z"/>
<path class="st0" d="M696.8,755.2L696.8,755.2h-81h-81c-0.7,0-1.2-0.5-1.3-1.2c0-0.3,0.1-0.7,0.4-0.9c0.2-0.2,0.5-0.4,0.9-0.4l0,0
	h81h81c0.3,0,0.6,0.1,0.9,0.4c0.5,0.5,0.5,1.3,0,1.8C697.4,755,697.1,755.1,696.8,755.2z"/>
<path class="st0" d="M679.8,858.6c-0.4,0-0.8-0.2-1-0.6l-62.7-97.1l-62.7-97.1c-0.2-0.3-0.2-0.6-0.2-0.9c0.1-0.3,0.3-0.6,0.5-0.8
	c0.3-0.2,0.6-0.2,0.9-0.2c0.3,0.1,0.6,0.3,0.8,0.5l62.7,97.1l62.7,97.1c0.4,0.6,0.2,1.4-0.4,1.7c-0.1,0.1-0.2,0.1-0.3,0.2
	C680.1,858.6,680,858.6,679.8,858.6z"/>
<path class="st0" d="M548.5,849.6c-0.1,0-0.2,0-0.4,0c-0.1,0-0.2-0.1-0.3-0.2c-0.3-0.2-0.5-0.5-0.5-0.8c-0.1-0.3,0-0.7,0.2-0.9
	l63.4-94.7l63.4-94.7c0.2-0.3,0.5-0.5,0.8-0.5c0.3-0.1,0.7,0,0.9,0.2c0.3,0.2,0.5,0.5,0.5,0.8c0.1,0.3,0,0.7-0.2,0.9l-63.4,94.7
	l-63.4,94.7c-0.1,0.2-0.3,0.3-0.5,0.4C548.8,849.6,548.6,849.6,548.5,849.6z"/>
<path class="st0" d="M598.4,916.6L598.4,916.6c-0.8-0.1-1.3-0.7-1.2-1.3l12-152.9l12-152.9c0-0.3,0.2-0.6,0.4-0.8
	c0.3-0.2,0.6-0.3,0.9-0.3c0.3,0,0.6,0.2,0.8,0.4c0.2,0.3,0.3,0.6,0.3,0.9l-12,152.9l-12,152.9c0,0.3-0.2,0.6-0.4,0.8
	C599.1,916.5,598.8,916.6,598.4,916.6z"/>
<path class="st0" d="M337.7,360l-3.8,0.1l-3.8,0.1c0,0-0.1,0-0.1-0.1c0,0,0-0.1,0-0.1c0,0,0,0,0,0c2.8-1,5.4-2.5,7.6-4.5
	c1.9-1.7,3.3-4,3.9-6.5c0.6-2.4,0.4-4.9-0.4-7.2c-0.4-1.3-1-2.5-1.7-3.7c-2.1-3.2-5.3-5.5-8.9-6.7c-4.1-1.3-8.4-1.5-12.6-0.4
	c3.9-0.9,7.5-3.1,10-6.3c4.7-5.7,4.9-13.8,0.5-19.7c-4-5.7-11.2-8-17.7-5.7c-3.4,1.1-6.4,3.3-8.5,6.1c1.8-3.5,2.5-7.6,1.9-11.5
	c-0.5-3.8-2.3-7.4-5-10.1c-2.8-2.7-6.5-4.4-10.4-4.9c-3.8-0.6-7.6,0.2-10.8,2.2c-4,2.7-6.6,7-7.2,11.7c-0.8,5.4,0.5,10.8,3.5,15.3
	c0.1,0.1,0.1,0.2,0,0.2c-0.1,0.1-0.2,0.1-0.2,0c-3.3-2.4-7.3-3.4-11.3-2.7c-6.9,0.8-11.9,7-11.1,13.9c0.1,0.9,0.3,1.9,0.6,2.8
	c1.2,4.1,4.1,7.5,8,9.4l0,0l0,0c-4.9-1-10,0-14.2,2.7c-3.7,2.3-6.2,6.1-7,10.3c-0.4,3.7,0.6,7.4,2.9,10.4c2.4,3.4,5.9,5.8,9.8,7
	l-3.9,0.1l-3.9,0.1c-10.8,0.3-19.3,9.2-19,20l0,0c0.3,10.8,9.2,19.3,20,19l16.1-0.4l16.1-0.4l2.9,155.9l2.9,155.9l14.6-0.4l14.6-0.4
	l-2.9-155.8l-2.9-155.9l16.1-0.4l16.1-0.4c10.8-0.3,19.3-9.2,19-20c0,0,0,0,0,0l0,0C357.5,368.2,348.5,359.7,337.7,360L337.7,360z"
	/>
<path class="st0" d="M194.9,447.9l-3.7,1.1l-3.6,1.1c0,0-0.1,0-0.1,0c0,0,0-0.1,0-0.1c2.5-1.6,4.6-3.8,6.1-6.3
	c1.4-2.2,2.1-4.7,2.1-7.3c-0.1-2.5-0.9-4.8-2.2-6.9c-0.7-1.1-1.6-2.2-2.6-3.1c-2.9-2.5-6.5-4-10.3-4.1c-4.3-0.2-8.5,0.8-12.2,2.9
	c3.6-1.9,6.4-4.9,8-8.6c3-6.7,1.1-14.6-4.6-19.2c-5.3-4.4-12.9-4.8-18.6-0.9c-3,2-5.3,4.8-6.7,8.1c0.8-3.9,0.5-7.9-1.1-11.6
	c-1.5-3.6-4.1-6.5-7.5-8.5c-3.4-1.9-7.4-2.6-11.2-2.1c-3.8,0.5-7.3,2.2-9.9,5c-3.1,3.6-4.5,8.4-3.9,13.2c0.6,5.4,3.3,10.3,7.4,13.9
	c0.1,0.1,0.1,0.2,0,0.2c0,0.1-0.1,0.1-0.2,0.1c-3.8-1.4-7.9-1.3-11.6,0.3c-6.5,2.5-9.7,9.9-7.1,16.3c0.3,0.9,0.8,1.7,1.3,2.5
	c2.2,3.7,5.9,6.2,10.2,7l0,0c-5,0.3-9.7,2.5-13,6.3c-3,3.2-4.5,7.5-4.1,11.8c0.6,3.7,2.5,7,5.5,9.3c3.2,2.6,7.2,4.1,11.3,4.2
	l-3.8,1.1l-3.7,1c-10.3,3.1-16.2,13.9-13.1,24.3c0,0,0,0,0,0l0,0c3.1,10.3,13.9,16.2,24.3,13.1l15.4-4.6l15.4-4.6l39.7,123.8
	l39.7,123.9l14-4.2l14-4.2l-39.6-123.8l-39.7-123.9l15.4-4.5l15.5-4.6c10.3-3.1,16.2-13.9,13.1-24.3l0,0
	C216.1,450.8,205.2,444.9,194.9,447.9L194.9,447.9z"/>
<path class="st1" d="M192.4,923.1c-13.8-6.6-24.8-18.1-30.7-32.3c-5.6-13.5-6.2-28.5-0.9-42c4.5-11.2,12.5-20.7,22.8-26.9
	c10.7-6.6,23.2-9.8,35.8-9.2c-7.2-16.6-10.5-34.6-9.7-52.6c0.8-18.2,6-35.6,16.6-48.3c14.3-17.2,32.3-24.9,47.3-28.3
	c9.4-2.2,19.1-3,28.7-2.3c20.6,1.8,39.6,8.2,55.2,18.3s27.8,24,34.7,40.6c4.1,10.3,7,21.1,8.8,32.1c1.7,10.6,2.2,20,1.2,25.6
	c19.3-10.8,41.9-14.2,63.5-9.4c20.4,4.5,38.6,16.2,50,33.5c9.3,14.3,13.7,31.2,12.6,48.2c-1.1,17.9-7.5,35-18.4,49.2l-158.7,1.9
	L192.4,923.1z"/>
<path class="st2" d="M513.1,536.2l34.7-12.3l34.7-12.3c4.3-2.1,6.1-7.2,4-11.5c-1.5-3.1-4.6-5-8-4.9l-58.8,2.2l-58.8,2.2
	c-4.3,0.2-7.6,3.8-7.5,8.1c0.1,2.5,1.3,4.7,3.4,6.1l13.5,9.2l13.5,9.2C492.5,538.3,503.4,539.7,513.1,536.2L513.1,536.2z"/>
<path class="st3" d="M203.4,732.2c-2.8,11.6-4,23.5-3.5,35.5c0.4,12,2.9,23.8,7.4,34.9c3,7.4,7,14.3,11.8,20.7
	c4.8,6.4,10.5,12,17,16.7c6.8,5.1,14.7,8.4,23.1,9.7c7.9,1.2,16.2,0.8,25.3-0.2c5.9-0.9,12-0.7,17.9,0.5c5.9,1.2,11.2,4.4,15.1,9
	c3.8,4.7,6.5,10.1,7.8,16c1.4,5.8,2.1,11.8,2.1,17.8l0.4,14.4l0.4,14.4l14.3-0.2l14.3-0.2c0.8,0,0.8-7.5,0.5-15.4s-0.8-16.1-1-17.5
	c-0.9-7.5-2.4-14.8-4.6-22c-2.2-7.2-5.3-14.1-9.2-20.5c-2.9-4.7-6.4-9-10.5-12.7c-4-3.8-8.7-6.8-13.8-8.9c-5.9-2.4-12-3.1-18.3-3.2
	s-12.5,0.6-18.7,0.8c-6.3,0.3-12.6-0.5-18.6-2.3c-6-1.8-11.6-4.8-16.4-8.9c-14.9-13-18.5-31.5-17.2-50.7s7.4-39.1,12.1-55.1
	c2.3-7.8,4.9-16.4,7.7-25.6s6-19.1,9.5-29.5l-13.7-4.9l-13.7-4.9c-3.5,9.9-7,20.1-10.3,30.6c-3.4,10.5-6.6,21.4-9.7,32.6
	c-1.4,5-2.7,9.9-3.9,14.8S204.6,727.4,203.4,732.2z"/>
<path class="st4" d="M231.9,739.3l1.8-7.5l1.8-7.5c4.2-15.3,8.8-31,13.8-47c2.9-9.4,5.9-18.6,8.9-27.7l0,0l-27.3-9.9
	c-2.2,6-4,11.2-5.4,15.6c-0.8,2.5-2.1,6.2-3.7,11.2c-1.6,5.2-2.1,7-4.2,13.8c-1.6,5.2-2.2,6.9-3,9.6c-0.6,2-2,6.4-6.9,25.4
	c-1.8,6.8-3.8,14.4-5.1,20.8c0,0-1.2,5.9-1.8,10.6c-0.2,1.7-0.4,3.8-0.4,3.8c0,0.5-0.1,0.9-0.1,1.4l23.6-9.4L231.9,739.3z"/>
<path class="st4" d="M175.1,494.5l-11.6,2.9l-11.6,2.9l16.3,11.7l16.3,11.7l-4.7-14.6L175.1,494.5z"/>
<path class="st3" d="M212.4,784.8c-3-1.4-6.2-2.4-9.4-3.1c-3.1-0.6-6.2-0.9-9.3-0.7c0.3-4.8-0.4-9.5-2.1-14
	c-3.8-9.9-12.3-17.2-22.7-19.4c-5.4-1.1-10.9-1-16.2,0.5c-0.2-3.1-0.9-6.2-2.1-9.1c-1.3-3.1-3-5.9-5.2-8.4
	c-4.7-5.4-11.3-8.9-18.4-9.7c-12.8-1.7-24.6,7.4-26.3,20.2c-0.1,1.1-0.2,2.2-0.2,3.2c0,7.2,2.6,14.1,7.4,19.4c2.6,2.9,5.7,5.3,9.2,7
	c3.3,1.6,6.9,2.6,10.6,2.8c-1.5,5.7-1.5,11.7,0,17.5c3.1,11.3,12.2,20,23.6,22.5c5.3,1.2,10.9,1,16.1-0.5c1.4,5,3.9,9.6,7.3,13.4
	c3.8,4.3,8.4,7.7,13.6,10.1c8,3.9,17.2,4.9,25.9,2.8c7.9-2,14.4-6.8,17.8-14s2.8-15.3-0.7-22.6C227.2,794.8,220.5,788.5,212.4,784.8
	z"/>
<path class="st0" d="M214.5,816.6h-0.3c-0.1,0-0.2-0.1-0.3-0.1c-6-3.2-11.9-6.5-17.7-10s-11.6-7.2-17.1-10.9
	c-13.4-9.1-26.3-19-38.5-29.7c-12.3-10.7-23.9-22.2-34.8-34.4c-0.2-0.2-0.3-0.6-0.3-0.9c0-0.3,0.2-0.6,0.4-0.9
	c0.2-0.2,0.6-0.3,0.9-0.3c0.3,0,0.6,0.2,0.9,0.4c10.8,12.1,22.4,23.5,34.6,34.2c12.1,10.6,24.9,20.4,38.3,29.5
	c5.6,3.8,11.2,7.4,17,10.9c5.8,3.5,11.7,6.8,17.6,10c0.3,0.2,0.5,0.4,0.6,0.7c0.1,0.3,0.1,0.7-0.1,1c-0.1,0.2-0.3,0.4-0.5,0.5
	C214.9,816.6,214.7,816.6,214.5,816.6z"/>
<path class="st5" d="M450.1,546.2l23.3-17.5l23.3-17.5l-17.1-24.6L462.5,462l-30,18.7l-30,18.7c0,0-7.1,4.4-12,14.5
	c-4.9,10.1-7.7,25.8,1,48.5c4.7,10.1,9.4,20.1,14.1,30.2l14.1,30.2l25.7-13.4l25.7-13.4l-10.5-24.9L450.1,546.2z"/>
<path class="st6" d="M308.6,550.6c33.1-31.1,40.8-55.2,32.8-63.3s-31.5-0.2-60.9,32.9c13.6-43.3,7.2-67.3-4.7-68.2
	s-29.6,21.3-38.3,70.4c-10.8-49.2-29.5-70.5-41.5-68.5s-17,27.3-0.5,71.3c-31.5-32.4-56.1-39.8-64.3-32s-0.3,30.9,33.2,59.6
	c-44-13.2-68.5-6.9-69.4,4.9s21.6,28.9,71.5,37.3c-50.1,10.8-71.9,29.3-69.9,41s27.7,16.6,72.6,0.2c-33.1,31.1-40.8,55.2-32.9,63.3
	s31.5,0.2,60.9-32.9c-13.6,43.3-7.2,67.3,4.7,68.1s29.6-21.3,38.3-70.4c10.8,49.2,29.5,70.5,41.5,68.5s17-27.3,0.5-71.3
	c31.5,32.4,56,39.8,64.3,32s0.3-30.9-33.2-59.6c44.1,13.2,68.5,6.9,69.4-4.9s-21.6-28.9-71.5-37.3c50.1-10.8,71.9-29.3,69.9-41
	S353.5,534.2,308.6,550.6z"/>
<path class="st7" d="M263.3,595.3c0.4,15.9-12.1,29-28,29.5s-29-12.1-29.5-28c-0.4-15.9,12.1-29,28-29.5c7.6-0.2,15,2.6,20.5,7.9
	C259.9,580.5,263.1,587.7,263.3,595.3z"/>
<path class="st1" d="M654.7,399.7h-0.2h-0.1c-3.6,14.3-8.6,28.2-13.7,42.1s-10.2,27.8-14.2,42s-6.6,29.2-6.7,44s2.4,29.4,8.7,42.7
	c3,6.4,6.9,12.4,11.5,17.8c4.6,5.4,9.8,10.3,15.5,14.5c5.2,3.8,11.8,6.4,17.9,9.5s11.9,6.7,15.5,12.3c11.3,17.7,4.6,33.5-6.8,48.1
	s-27.5,28.2-34.9,41.4c-5.6,10-8.5,21.4-9.9,33.1c-1.1,11.5-1.1,23.2,0,34.7c0.9,10.1,2.4,20.1,4.5,30c2.1,9.9,4.7,19.7,7.6,29.4
	c1.9,6.3,3.9,12.5,6.1,18.7c2.2,6.2,4.4,12.3,6.8,18.4c0.9,2.2,4.5,12.4,8.2,22.1s7.8,18.7,9.4,18.7l16.9-0.5l16.9-0.4
	c0,0-9.8-18.3-20.5-44.3s-22.2-59.7-25.6-90.6c-1.3-11.8-0.2-23.7,3.3-35.1c3.4-11.1,9.1-21.3,16.8-30c10.4-11.7,21.3-24.7,28.9-39
	s11.9-29.8,9.1-46.5c-2.9-16.8-12.2-31.9-25.8-42.2c-5.5-4.1-11.8-7.4-17.8-10.9s-11.8-7.2-16.6-12.2c-4-4.2-7.1-9.1-9.4-14.5
	c-2.3-5.4-3.8-11-4.6-16.8c-1.5-11.1-1.1-22.3,1.1-33.3c2.2-11,5.3-21.9,9.3-32.4c3.8-10.5,8.1-21,11.9-31.5
	c3.9-10.5,6.9-21.3,9-32.3l-14.1-3.6L654.7,399.7z"/>
<path class="st1" d="M690,590.7c0,0,9.2-22.9,23-50.2s32.2-59,50.6-76.7c10-9.6,23.1-9.4,32.6-3.4s15.4,17.6,10.9,30.8
	c-2.6,7.3-6.3,14.2-10.9,20.5c-6.7,9.1-14.2,17.5-22.5,25.1l-34,35.2l-34,35.2c-1.1-1.8-2.3-3.5-3.6-5
	C698.4,597.9,694.4,594,690,590.7z"/>
<path class="st0" d="M697.2,597.5c-0.1,0-0.3,0-0.4-0.1c-0.1,0-0.2-0.1-0.4-0.2c-0.3-0.2-0.4-0.5-0.5-0.8c-0.1-0.3,0-0.7,0.2-0.9
	l41.3-56.3l41.3-56.3c0.2-0.3,0.5-0.4,0.8-0.5c0.3,0,0.7,0,0.9,0.2c0.3,0.2,0.4,0.5,0.5,0.8c0.1,0.3,0,0.7-0.2,0.9l-41.3,56.3
	L698.2,597c-0.1,0.2-0.3,0.3-0.5,0.4C697.6,597.5,697.4,597.5,697.2,597.5z"/>
<path class="st0" d="M742.8,909.4c-0.1,0-0.1,0-0.2,0h-0.2c-0.3-0.1-0.6-0.3-0.7-0.6c-0.2-0.3-0.2-0.7,0-1L802.4,739l60.7-168.8
	c0.1-0.3,0.3-0.6,0.6-0.7c0.3-0.1,0.7-0.1,1,0c0.3,0.1,0.6,0.3,0.7,0.6c0.2,0.3,0.2,0.7,0,1l-60.8,168.7L744,908.6
	c-0.1,0.2-0.2,0.5-0.5,0.6C743.3,909.4,743.1,909.4,742.8,909.4z"/>
<path class="st0" d="M746.6,898.8h-0.1h-0.1c-0.3-0.1-0.6-0.3-0.8-0.5c-0.2-0.3-0.2-0.6-0.2-0.9L790.2,688l44.8-209.4
	c0.1-0.7,0.8-1.1,1.5-1c0,0,0,0,0,0c0.7,0.1,1.1,0.8,1,1.5c0,0,0,0,0,0l-44.9,209.4l-44.8,209.3c-0.1,0.3-0.2,0.5-0.4,0.7
	C747.2,898.7,746.9,898.8,746.6,898.8z"/>
<path class="st0" d="M615.4,920c-11,0-21.7-4.1-31.6-11.8s-18.9-19.2-26.7-34s-13.8-31.8-17.9-50.5c-8.4-39.4-8.5-80-0.5-119.4
	c4-18.7,9.8-35.9,17.5-50.7s16.7-26.5,26.5-34.3s20.5-12,31.6-12h0.2c11,0,21.7,4.1,31.6,11.8s19,19.1,26.7,33.9
	s13.8,31.8,17.9,50.5c8.4,39.4,8.5,80,0.5,119.4c-4,18.7-9.8,35.9-17.5,50.7s-16.7,26.5-26.5,34.3s-20.5,12-31.6,12L615.4,920
	L615.4,920z M614.5,609.7h-0.2c-22,0.1-41.8,17.4-56.1,45.4s-23.1,66.5-22.9,108.9s9.2,80.8,23.7,108.6s34.4,45,56.3,45h0.2
	c10.5,0,20.8-4.1,30.2-11.7s18.2-18.8,25.6-33.3s13.3-31.6,17.2-50.1c4-19.5,6-39.3,5.8-59.1c-0.2-42.4-9.2-80.8-23.7-108.6
	S636.4,609.6,614.5,609.7L614.5,609.7z"/>
<path class="st0" d="M611.9,755.2c-0.3,0-0.6-0.1-0.8-0.3c-0.2-0.2-0.4-0.5-0.4-0.8l-9.8-86.9l-9.8-86.9
	c-0.6-8.2-4.4-15.9-10.5-21.4c-6.1-5.5-14.1-8.5-22.3-8.2l-105.7,2.8L347,556.3c-0.3,0-0.7-0.1-0.9-0.3c-0.5-0.5-0.5-1.3-0.1-1.8
	c0.2-0.2,0.5-0.4,0.9-0.4l105.6-2.8l105.7-2.8c18.4-0.5,33.9,13.6,35.3,31.9l9.8,86.9l9.8,86.9c0.1,0.7-0.4,1.3-1.1,1.4c0,0,0,0,0,0
	L611.9,755.2L611.9,755.2z"/>
<path class="st2" d="M618.2,753.8c0.1,1.7-0.6,3.3-1.7,4.5c-2.4,2.5-6.3,2.6-8.8,0.2s-2.6-6.3-0.2-8.8s6.3-2.6,8.8-0.2
	C617.4,750.6,618.1,752.2,618.2,753.8z"/>
<path class="st6" d="M431.5,353.5c4.8-4.9,10.3-9,16.4-12.2c4-2.1,8.2-3.9,12.5-5.1c4.8-1.5,9.8-2.5,14.8-3
	c7.3-0.7,14.7-0.2,21.8,1.4c12.7,3,24.2,9.6,33.4,18.9c5.1,5.1,9.5,10.8,13,17.1c2.6,4.5,4.7,9.2,6.3,14.2
	c5.8,18.1,3.5,37.8-6.2,54.1c-3,5.2-6.7,10-11,14.3l-43.5,5.4l-43.5,5.4c-12.9-11.9-22.4-25.7-27.8-39.8s-6.7-28.5-3-41.4
	c2.2-7.6,5.7-14.7,10.2-21.1C426.9,358.9,429.1,356.1,431.5,353.5z"/>
<path class="st8" d="M343.7,377.5l8.5,15.5l8.5,15.5c0,0,0,0.1,0.1,0.1c0,0,0.1,0,0.1,0l14-12.9l14-12.9l0.4-11.9l0.4-11.9
	c0.1-1.7-0.9-3.2-2.5-3.9l-13.4-5.8l-13.4-5.8c-2.9,5.7-5.6,11.3-8.3,17S346.6,371.8,343.7,377.5z"/>
<path class="st6" d="M414.6,383l-3.9,8l-3.9,8l-8.8-8.2l-8.8-8.1l-14.2,13l-14.2,13L373,425l12.3,16.3c1.8,2.4,3.8,4.6,6,6.5
	c2.2,2,4.6,3.7,7.2,5.2c4.6,2.7,9.9,4.2,15.3,4.3c5.7-0.1,11.9-2.2,18-8l-8.6-33.2L414.6,383z"/>
<path class="st4" d="M678.3,677.5c-3.8,4.2-7,7.7-9.2,10.1l-3.4,3.8l0,0l2.5,11.6c1.6,7.7,4.1,19.1,7.3,33.9
	c0.8-1.7,1.9-3.8,3.3-6.2c1.6-2.8,3.4-5.5,5.4-8c1.7-2.3,3.1-3.9,4.7-5.8s3.4-3.8,5.8-6.6c1.4-1.6,3.1-3.7,5-6.1s4.1-5.2,6.4-8.4
	c-1-3.3-2.1-6.6-3.1-9.9s-2.1-6.6-3.1-9.9l-10.8,0.7L678.3,677.5z"/>
<path class="st4" d="M529,496.5c0.3,5.6,0.7,11.1,1,16.7c0.3,5.6,0.7,11.1,1,16.7l-11.1,3.9l-11.1,3.9l10.1-20.6L529,496.5z"/>
<path class="st8" d="M380.7,353.3c-0.6,0.5-1,1.2-1.2,1.9c-0.3,0.7-0.4,1.5-0.4,2.3l0.3,6.8l0.3,6.8c0.1,0.7,0.4,1.3,0.9,1.8
	c0.4,0.5,1,0.8,1.7,0.9c0.8,0.1,1.6,0,2.3-0.5c0.7-0.5,1.3-1.2,1.5-2l1.7-5.8l1.6-5.8c0.4-1.3,0.5-2.6,0.2-3.9
	c-0.5-2.1-2.2-3.6-4.2-4c-0.9-0.2-1.8-0.1-2.7,0.2c-0.4,0.1-0.7,0.3-1.1,0.5C381.3,352.8,381,353,380.7,353.3z"/>
<path class="st2" d="M448.7,340.9c0,3-0.1,8.5-0.1,13.2s0,8.8,0,9.1c0,0.1,0.1,0.2,0.1,0.3c0,0,0.1,0.1,0.1,0.1c0,0,0.1,0,0.1,0
	c0.1,0,0.3-0.1,0.4-0.1c0.3-0.2,2.9-3.9,6.1-8.4s7.1-10.1,9.8-14.1l-5-1.5l-5-1.5c-0.6,0.2-1.3,0.5-2,0.8s-1.4,0.6-2.2,1
	c-0.5,0.2-0.9,0.4-1.3,0.6L448.7,340.9z"/>
<path class="st2" d="M464.8,340.7l10.1,10.1L485,361c0.1,0.1,0.2,0.1,0.4,0.1c0.1-0.1,0.2-0.2,0.2-0.3l-2.3-13.9l-2.3-13.9l-8,3.9
	L464.8,340.7z"/>
<path class="st2" d="M468.6,363.7c0.2,1.5-0.9,2.8-2.4,2.9c0,0,0,0,0,0c-1.5,0.1-2.8-1-2.9-2.4c-0.1-0.7,0.1-1.4,0.6-2
	c0.9-1.2,2.7-1.3,3.8-0.4C468.1,362.3,468.5,363,468.6,363.7z"/>
<path class="st2" d="M471.3,391.3c0.1,1.5-0.9,2.8-2.4,2.9s-2.8-0.9-2.9-2.4c-0.1-0.7,0.1-1.4,0.6-2c0.9-1.2,2.6-1.3,3.8-0.4
	c0,0,0,0,0,0C470.9,389.9,471.2,390.6,471.3,391.3z"/>
<path class="st9" d="M436.8,432.7c-0.3,0-0.6-0.1-0.9-0.4c-0.2-0.2-0.4-0.5-0.4-0.9l-0.3-11l-0.3-11c0-0.7,0.5-1.3,1.2-1.3
	c0,0,0,0,0,0c0.3,0,0.7,0.1,0.9,0.3c0.2,0.2,0.4,0.6,0.4,0.9l0.3,11l0.3,11c0,0.3-0.1,0.7-0.3,0.9
	C437.5,432.6,437.1,432.7,436.8,432.7L436.8,432.7L436.8,432.7z"/>
<path class="st9" d="M416.4,409.1c-0.1,0-0.3,0-0.4-0.1c-0.1-0.1-0.3-0.1-0.4-0.2l-4.8-4.5l-4.8-4.5c-0.2-0.2-0.4-0.5-0.4-0.9
	c0-0.3,0.1-0.7,0.3-0.9c0.5-0.5,1.2-0.5,1.8-0.1c0,0,0,0,0,0l4.8,4.5l4.8,4.5c0.5,0.5,0.5,1.2,0.1,1.8c0,0,0,0,0,0
	c-0.1,0.1-0.3,0.2-0.4,0.3C416.8,409,416.6,409.1,416.4,409.1z"/>
<path class="st5" d="M510.1,536.3c3.4-7,7.4-14.2,11.1-21.5c3.8-7.1,6.9-14.5,9.4-22.1c2.2-8,3.1-16.4,2.8-24.7
	c0-2.9-0.1-5.6-0.3-8.1s-0.4-4.7-0.7-6.6l-35,4.4l-35,4.4l-11.8,26.9L439,515.7c-0.4,1.1-0.8,2.2-1.2,3.4s-0.7,2.4-0.9,3.7
	c-1.4,7.2-1.1,14.7,0.9,21.8c1.4,5.1,3.5,10,6.2,14.6l25,37.8l25,37.8l25.1-16.9l25.1-16.9l-23.2-44L510.1,536.3z"/>
<path class="st3" d="M690.8,869.5l-17.1-20l-17.1-20.1c2.9-1.6,5.6-3.6,8-5.9c4.1-3.9,7-8.9,8.4-14.4c0.6-2.5,1-5,1-7.6
	c0-3.6-1.1-7.2-3.1-10.2c-0.9-1.2-1.9-2.3-3-3.3c-2-1.8-4.5-3.1-7.2-3.7c-4.3-0.8-8.8,0-12.6,2.3c-4.4,2.7-8,6.6-10.3,11.2
	c2.8-6.8,3.1-14.4,0.9-21.5c-2.1-6-6.1-10.5-10.9-12.2c-3.9-1.2-8.2-1-12,0.4c-7.6,2.4-12.3,10.1-11,17.9c0.5,3.3,1.8,6.5,3.9,9.2
	c-2.5-2.4-5.4-4.5-8.5-6c-4.9-2.3-11-3.2-16,2.3c-2.3,2.6-3.6,5.8-3.8,9.3c-0.2,3.4,0.7,6.9,2.6,9.7c0.6,0.9,1.3,1.8,2,2.6
	c0.6,0.7,1.3,1.4,2,2c2.4,2.2,5.2,4,8.2,5.3c2.5,1.1,5.2,2,7.9,2.5c-0.9,0.1-2,0.3-3.2,0.6c-1.3,0.3-2.6,0.7-3.9,1.1
	c-3.7,1.2-7.3,2.7-10.7,4.7c-3.8,2.4-7.2,5.6-8.6,10.2c-0.8,2.8-0.8,5.7,0.1,8.4c0.9,2.7,2.5,5.2,4.7,7c2.6,2.3,6.1,3.5,9.6,3.2
	c4.2-0.2,9.3-2.3,15.5-7.5c-1,1-1.9,2.1-2.8,3.2c-2,2.5-3.8,5.2-5.2,8.1c-3.1,6.1-2.8,13.4,0.9,19.2c3.5,5.8,10,9.2,16.8,8.8h0.5
	l0.5,0c5.6-0.7,10.8-3.5,14.6-7.8c4.3-4.7,7-10.7,7.8-17l18.2,28.6l18.2,28.7l33.9-0.6l33.9-0.6l16.1-20.6l16.1-20.5
	c3.1,5.7,8.4,9.9,14.7,11.6c5.8,1.5,11.7,0.7,16.1-2.4c3.4-2.5,5.8-6.1,6.9-10.2c1.2-4.5,1.1-9.3-0.4-13.8c6-0.4,11.6-3.3,15.3-8
	c3.5-4.2,4.9-9.8,3.9-15.1c-1.1-4.6-4-8.6-8-11.1c-4.4-2.8-9.7-3.9-14.8-3.1c0.9-7.3-1.4-14.7-6.2-20.3c-4.4-5.1-10.5-8-16.5-7.7
	c-5,0.4-9.6,2.7-13,6.3c-3.9,4.1-6.5,9.3-7.2,15c-5-1.9-10.4-2.2-15.6-0.8c-4.6,1.1-8.6,3.9-11.2,7.8c-3.1,4.8-3.6,11.3-1.6,17.3
	c2.3,6.6,7.2,12,13.6,14.9c-3.5,4-6.7,8-9.8,12s-6.2,8-9.8,11.9c-0.1-33-0.1-66-0.2-99.1c-0.1-33-0.1-66-0.2-99.1l25.2-0.2l25.2-0.2
	c7.7-1.3,14.7-5.4,19.6-11.5c4.9-6,7.4-13.6,7-21.4c-0.4-8.2-4-14-9.5-18s-13-5.9-21.3-6.1l-8.3,0.2l-8.3,0.2
	c6.3-0.2,12.6-0.8,18.9-2c6.3-1.2,12.3-3.4,17.7-6.8c2.8-1.8,5-4.3,6.5-7.2c1.5-2.9,2.2-6.2,2.1-9.5c-0.5-10.5-8.1-16.4-17.6-19.5
	s-20.8-3.4-28.7-2.7c-1.7,0.2,1.9-0.5,7-2.5s11.8-5.3,16.6-10.4c2.9-3.1,5-6.8,6.3-10.8c1.5-4.2,1.5-8.8,0-13
	c-1.1-2.7-2.8-5.1-5.1-7c-1.4-1.2-2.9-2.2-4.5-3c-8.7-4.6-19-3.8-27.4-1.7c-5.3,1.3-10.5,3.3-15.3,6c1.8-13.1,0.7-24.9-2.6-33.9
	s-8.7-15.4-15.3-17.7c-3-1-6.1-1.3-9.2-0.8c-1.6,0.2-3.2,0.6-4.7,1.2c-6.5,2.7-11.6,9.3-14.3,18.4s-3.2,20.6-0.7,33.4
	c-6.1-1.6-12.5-2.6-18.8-2.8c-9.2-0.3-19.3,1.4-24.9,8.5c-0.5,0.6-0.9,1.3-1.3,2c-0.4,0.8-0.8,1.6-1.2,2.4c-0.7,2.2-1.2,4.5-1.2,6.8
	c-0.1,1.6,0.1,3.3,0.5,4.9c1.4,6.2,5.9,11.7,12.6,15.9s15.6,6.8,25.7,7.5c-7.1-1.5-14.3-2.2-21.6-2c-11.4,0.3-24.2,3.5-29.5,14.4
	c-1.9,4-2.6,8.5-1.9,12.9c0.7,4.4,2.6,8.5,5.5,11.9c4,4.4,9,7.8,14.7,9.7c6.9,2.5,16.1,3.7,28.2,2.6l-15,0.4l-14.9,0.4
	c-6.9,0.2-13.5,3-18.5,7.8c-5,4.7-7.9,11.2-8.3,18c-0.7,14.8,10.7,27.4,25.5,28.1c0.7,0,1.4,0,2,0l20.2-0.7l20.2-0.7l0.5,92.8
	L690.8,869.5z"/>
<path class="st3" d="M449,760.6l-2.6,0.1l-2.6,0.1c2.7-2.1,5-4.8,6.7-7.7c1.7-2.9,2.7-6.1,3-9.5c0.1-2.5-0.1-5-0.6-7.5
	c-0.8-4.6-3.4-8.8-7.1-11.7c-4-2.8-9-4-13.8-3.4c-5.6,0.7-10.9,3-15.2,6.6c4-2.8,6.8-6.9,8.2-11.5c2.9-10.2-3-20.8-13.1-23.7
	c-6.9-2-14.4,0.1-19.3,5.3c-3.4,3.5-5.4,8.1-5.8,13c1.5-5.4,1.3-11.1-0.7-16.3c-1.8-4.9-5.3-9-9.8-11.7c-5.7-3.1-12.4-3.5-18.4-1.2
	c-6.1,2.1-11.1,6.4-14.1,12.1c-3,6-3.4,13-1.2,19.3c2.3,6.7,7.2,12.3,13.5,15.5c-6-2.2-12.7-1.7-18.3,1.3
	c-5.2,2.7-8.9,7.5-10.2,13.2c-0.7,3.9-0.1,7.9,1.6,11.4c1.7,3.8,4.5,7,8,9.3l-5.3,0.1l-5.3,0.1c-9.4,0.5-16.7,8.5-16.2,17.9
	c0.4,9.1,8,16.3,17.1,16.2l20.3-0.5l20.3-0.5l1.6,62l1.6,62l15.5-0.1l15.5-0.1l-1.7-62.3l-1.8-62.4l25.6-0.7l25.6-0.7
	c9.4-0.5,16.7-8.5,16.2-17.9C465.6,767.6,458.1,760.5,449,760.6L449,760.6z"/>
<path class="st0" d="M332.1,747.4L332.1,747.4c-0.4,0-0.7-0.2-0.9-0.4c-0.2-0.3-0.3-0.6-0.3-0.9l11.4-140.3l11.4-140.3
	c0.9-10.9,10-19.3,20.9-19.3h0.1l40.2,0.1l40.2,0.1c4.1,0.2,7.3,3.8,7.1,8c-0.2,3.7-3.2,6.7-6.9,7l-4.3,0.1l-4.3,0.1
	c-0.3,0-0.6-0.1-0.9-0.4c-0.2-0.2-0.4-0.5-0.4-0.9c0-0.3,0.1-0.7,0.3-0.9c0.2-0.2,0.5-0.4,0.9-0.4l4.3-0.1l4.3-0.1
	c2.8,0,5-2.3,4.9-5.1s-2.3-5-5.1-4.9l-40.2-0.1l-40.2-0.1h-0.1c-9.6,0-17.6,7.4-18.4,17l-11.5,140.4l-11.4,140.3
	c0,0.3-0.2,0.6-0.4,0.8C332.7,747.3,332.4,747.4,332.1,747.4z"/>
<path class="st3" d="M309.1,510.2c-0.1,0-0.2,0-0.2,0c-0.1,0-0.2,0-0.2-0.1c-0.3-0.1-0.6-0.4-0.7-0.7c-0.1-0.3-0.1-0.7,0-1
	l58.6-143.1l58.6-143.2c0.3-0.6,1-0.9,1.6-0.7c0.3,0.1,0.6,0.4,0.7,0.7c0.1,0.3,0.1,0.7,0,1l-58.6,143.1l-58.6,143.2
	C310.1,509.9,309.6,510.2,309.1,510.2z"/>
<path class="st8" d="M485.6,318.8c0.3,11.8-9,21.6-20.7,21.9s-21.6-9-21.9-20.7s9-21.6,20.7-21.9c5.6-0.1,11.1,2,15.2,5.8
	C483,307.8,485.4,313.1,485.6,318.8z"/>
<path class="st4" d="M456.9,322.4c0,0.4-0.1,0.8-0.4,1.1c-0.6,0.6-1.6,0.6-2.2,0.1c-0.3-0.3-0.5-0.7-0.5-1.1c0-0.9,0.6-1.6,1.5-1.6
	c0,0,0,0,0,0c0.4,0,0.8,0.1,1.1,0.4C456.7,321.6,456.9,322,456.9,322.4z"/>
<path class="st4" d="M468.4,321c0,0.4-0.1,0.8-0.4,1.1c-0.3,0.3-0.7,0.5-1.1,0.5c-0.4,0-0.8-0.1-1.1-0.4c-0.3-0.3-0.5-0.7-0.5-1.1
	c0-0.9,0.6-1.6,1.5-1.6c0,0,0,0,0,0c0.4,0,0.8,0.1,1.1,0.4C468.2,320.2,468.3,320.6,468.4,321z"/>
<path class="st5" d="M462.2,334c-1.2,0-2.3-0.3-3.4-0.9c-1-0.6-1.9-1.4-2.6-2.4c-0.2-0.3-0.3-0.6-0.2-0.9c0.1-0.7,0.8-1.1,1.4-1
	c0,0,0,0,0,0c0.3,0.1,0.6,0.3,0.8,0.5c0.5,0.7,1.1,1.3,1.9,1.7c0.8,0.4,1.6,0.5,2.5,0.4c0.9-0.1,1.8-0.6,2.5-1.2
	c0.7-0.7,1.2-1.6,1.3-2.5c0.1-0.7,0.8-1.1,1.5-1c0.3,0.1,0.6,0.3,0.8,0.5c0.2,0.3,0.3,0.6,0.2,0.9c-0.3,1.5-1,2.8-2.1,3.9
	c-1.1,1-2.4,1.7-3.9,1.9l-0.5,0L462.2,334z"/>
<path class="st5" d="M452,313.5c2-0.3,3.9-1.1,5.4-2.4c0.8-0.7,1.6-1.5,2.2-2.4c0.3,0.6,0.7,1.2,1.1,1.7c0.5,0.7,1.2,1.4,1.8,2
	c1.5,1.3,3.4,2.3,5.3,2.8c1.2,0.3,2.4,0.5,3.7,0.5c2.9,0.1,5.7-0.6,8.2-2c1.5-0.8,2.8-1.7,4-2.9c-1.7-3.8-4.5-7.1-8-9.4
	c-7.3-4.7-16.8-4.5-23.9,0.5c-3.3,2.4-5.9,5.7-7.5,9.5c1.1,0.8,2.3,1.4,3.6,1.8C449.3,313.6,450.7,313.7,452,313.5z"/>
<path class="st8" d="M342.7,367.3l5.9-10.1l5.9-10.1c0.9-1.6,2.3-2.9,4.1-3.5c1.8-0.6,3.7-0.2,5.1,1c2.3,1.7,3.8,4.4,4.9,7.3
	s2.1,5.9,3.2,8.4l2.6,6l2.6,6l0,0.1v0.1c0.4,0.9,0.7,1.9,0.9,2.9c0.2,1.5-0.1,3.2-2.1,3.9c0.3,0.7,0.4,1.4,0.3,2.1
	c-0.1,1.2-0.9,2.3-2.1,2.8c-0.3,0.1-0.6,0.2-1,0.3c0,0.4,0,0.7-0.1,1.1c-0.2,0.7-0.6,1.3-1.2,1.7l-0.3,0.1l-0.3,0.1
	c-0.3,0.1-0.7,0.2-1,0.2c-0.3,0-0.7-0.1-1-0.2l-11-3.8l-11-3.8c-0.8-0.3-1.5-0.7-2.2-1.1c-2.8-1.9-4.1-5.4-3.4-8.7
	C341.9,369,342.2,368.1,342.7,367.3z"/>
<path class="st5" d="M375.9,380.5c-0.2,0-0.3,0-0.5-0.1c-0.2-0.1-0.3-0.2-0.4-0.3l-7.5-8.5L360,363c-0.2-0.2-0.3-0.6-0.3-0.9
	c0-0.3,0.2-0.6,0.4-0.9c0.2-0.2,0.6-0.3,0.9-0.3c0.3,0,0.6,0.2,0.9,0.4l7.5,8.5l7.5,8.5c0.2,0.2,0.3,0.6,0.3,0.9
	c0,0.3-0.2,0.6-0.4,0.9c-0.1,0.1-0.3,0.2-0.4,0.2C376.2,380.4,376.1,380.4,375.9,380.5z"/>
<path class="st5" d="M373.2,385.6c-0.1,0-0.3,0-0.4-0.1c-0.1,0-0.2-0.1-0.4-0.2l-9.3-6.9l-9.3-6.9c-0.3-0.2-0.4-0.5-0.5-0.8
	c0-0.3,0-0.7,0.2-0.9c0.2-0.3,0.5-0.4,0.8-0.5c0.3,0,0.7,0,0.9,0.2l9.3,6.9l9.3,6.9c0.3,0.2,0.4,0.5,0.5,0.8
	c0.1,0.5-0.2,1.1-0.7,1.3C373.5,385.5,373.4,385.6,373.2,385.6z"/>
<path class="st5" d="M367.4,388c-0.1,0-0.2,0-0.3,0c-0.1,0-0.2-0.1-0.3-0.1l-8.3-5l-8.3-5c-0.3-0.2-0.5-0.4-0.6-0.8
	c-0.2-0.7,0.3-1.3,0.9-1.5c0.3-0.1,0.6,0,0.9,0.1l8.3,5l8.3,5c0.3,0.2,0.5,0.4,0.6,0.8c0.1,0.3,0,0.7-0.1,1
	c-0.1,0.2-0.3,0.3-0.5,0.5C367.8,388,367.6,388,367.4,388z"/>
<path class="st9" d="M530,471.8c-6.3,0.1-12.3-2.7-16.3-7.6c-2-2.3-3.6-4.9-4.6-7.7c-0.2-0.7,0.1-1.4,0.8-1.6c0.3-0.1,0.7-0.1,1,0.1
	c0.3,0.1,0.5,0.4,0.6,0.7c1.1,2.9,2.7,5.5,4.9,7.8c3.4,3.5,8.8,6.8,16.9,5.7c0.3,0,0.7,0,0.9,0.2c0.3,0.2,0.4,0.5,0.5,0.8
	c0,0.3,0,0.7-0.2,0.9c-0.2,0.3-0.5,0.4-0.8,0.5c-0.6,0.1-1.2,0.1-1.8,0.2C531.1,471.8,530.5,471.8,530,471.8z"/>
<path class="st9" d="M468.6,597.6c-0.2,0-0.4,0-0.6-0.1c-0.2-0.1-0.3-0.2-0.5-0.4l-12.3-18.5L443,559.9c-5.9-9-8.8-19.7-8-30.5
	c0.3-4.9,1.2-9.7,2.9-14.2l11.4-26l11.4-26c0.3-0.6,1-0.9,1.6-0.7c0.3,0.1,0.6,0.4,0.7,0.7c0.1,0.3,0.1,0.7,0,1l-11.4,26l-11.4,26
	c-1.6,4.3-2.5,8.9-2.7,13.5c-0.7,10.2,1.9,20.3,7.5,28.8l12.3,18.5l12.3,18.6c0.2,0.3,0.3,0.6,0.2,0.9c-0.1,0.3-0.3,0.6-0.5,0.8
	c-0.1,0.1-0.2,0.1-0.3,0.2C468.8,597.6,468.7,597.6,468.6,597.6z"/>
<path class="st6" d="M504.4,392.1l3.9,11l3.9,11l-25.4,4.6l-25.3,4.6c2.2,4,4.1,8.2,5.5,12.6c2.5,7.4,4.4,16.8,2,25.3
	c0.2-0.6,4.4-1.1,8.9-1.5s9.1-0.7,10.1-0.9l9.8-1.2l9.8-1.2c3.3-0.4,6.5-0.9,9.8-1.3s6.5-0.8,9.8-1.2c4.5-0.3,9-1.2,13.3-2.7
	c4.3-1.6,8-4.2,10.9-7.8c2.2-2.7,3.9-7,4.8-12.5c1-6.6,1.1-13.2,0.3-19.8c-0.4-3.8-1.1-7.5-2-11.2c-0.9-3.7-2-7.3-3.2-10.9l-1.5-4.3
	l-1.5-4.3l-21.9,5.9L504.4,392.1z"/>
<path class="st8" d="M461.5,423.3c-3.1,0.3-6.1,0.9-9.1,1.6c-4,1-7.8,2.5-11.4,4.4c-5.7,2.9-10.9,6.8-15.3,11.5
	c-2.9,3.1-5.5,6.5-7.8,10.1c-1.1,2-2.1,4-2.9,6.1c-1,2.9-1.6,6-0.2,7.4c0.1,0.1,0.2,0.2,0.3,0.3c0.1,0.1,0.3,0.2,0.4,0.2
	c-0.5,1.1-0.7,2.3-0.5,3.4c0.2,1,0.7,1.8,1.5,2.4c0.6,0.3,1.3,0.5,1.9,0.4c0.4,0,0.8-0.1,1.2-0.2c0.6,0.5,1.2,0.9,2,1.1
	c1.4,0.4,2.9,0,3.9-1.1c0.3-0.3,0.5-0.6,0.7-0.9c0.7,0.6,1.5,0.9,2.5,1c1.4,0,3.1-0.9,4.4-4.7c0.5-1.5,1-2.8,1.5-3.8
	s0.9-1.9,1.2-2.6c0.2-0.4,0.4-0.6,0.6-1s0.5-0.9,1-1.7c0,0,1.5-2.6,3.3-5.3s3.9-5.4,5-5.7c0.1,0,0.3-0.1,0.4-0.1h0.2
	c0.2,0,0.4,0,0.6,0c0.2,0,0.3,0.1,0.5,0.1c0.3,0.2,0.6,0.4,0.8,0.8c0.1,0.2,0.3,0.5,0.3,0.8c0.3,1.4,0.3,2.8-0.1,4.2
	c-0.7,2.7-1.8,5.2-3.4,7.4c-0.4,0.6-0.9,1.3-1.5,2.1c-0.7,0.9-1.5,1.8-2.3,2.7l-0.8,1l-0.8,1c-0.8,0.9-1.4,1.9-1.7,3
	c-0.3,0.8-0.2,1.7,0.2,2.4c0.1,0.2,0.3,0.4,0.5,0.5c0.1,0.1,0.3,0.2,0.5,0.3c0.5,0.3,1,0.4,1.6,0.4c0.5,0,1-0.1,1.5-0.2
	c0.5-0.1,0.9-0.3,1.3-0.5c0.4-0.2,0.8-0.5,1.2-0.8c0.8-0.6,2.3-1.8,4-3.1s3.6-2.7,5.2-3.8c0.8-0.5,1.6-1,2.5-1.3
	c0.9-0.3,1.8-0.6,2.8-0.7l4.9-0.6l4.9-0.6c0.2-0.8,0.5-1.9,0.7-3.1c0.2-1.4,0.4-2.8,0.5-4.2c0.2-3.7-0.2-7.4-1-11
	c-0.8-3.2-1.8-6.4-3.1-9.5c-0.5-1.3-1.1-2.8-1.8-4.5S462.6,425.3,461.5,423.3z"/>
<path class="st5" d="M426.5,470.5h-0.2l-0.2,0c-0.3-0.1-0.6-0.3-0.7-0.6c-0.1-0.3-0.1-0.7,0-1c0.6-1.6,1.1-3.1,1.8-4.6
	s1.2-3.1,1.9-4.6c0.7-1.7,1.5-3.4,2.2-5.1s1.6-3.4,2.4-5c0.3-0.6,1.1-0.9,1.7-0.6c0.3,0.1,0.5,0.4,0.6,0.7c0.1,0.3,0.1,0.7-0.1,1
	c-0.8,1.6-1.6,3.3-2.4,5s-1.5,3.4-2.2,5c-0.6,1.5-1.2,3-1.8,4.5s-1.2,3-1.7,4.6c-0.1,0.2-0.3,0.5-0.5,0.6
	C427,470.4,426.7,470.5,426.5,470.5z"/>
<path class="st5" d="M419.8,471.1h-0.2c-0.1,0-0.1,0-0.2-0.1c-0.6-0.2-1-1-0.7-1.6c0.6-1.6,1.2-3.2,1.8-4.8s1.3-3.2,1.9-4.8
	c0.7-1.8,1.5-3.6,2.3-5.5s1.5-3.6,2.4-5.4c0.1-0.3,0.4-0.5,0.7-0.7c0.3-0.1,0.7-0.1,1,0c0.3,0.1,0.5,0.4,0.7,0.7
	c0.1,0.3,0.1,0.6,0,1c-0.8,1.8-1.6,3.6-2.3,5.4c-0.8,1.8-1.5,3.6-2.2,5.4c-0.7,1.6-1.3,3.2-1.9,4.8c-0.6,1.6-1.2,3.2-1.8,4.8
	C420.9,470.8,420.4,471.1,419.8,471.1L419.8,471.1z"/>
<path class="st5" d="M415.8,465.3h-0.2c-0.1,0-0.1,0-0.2-0.1c-0.3-0.1-0.6-0.3-0.7-0.6c-0.1-0.3-0.1-0.7,0-1
	c0.5-1.2,0.9-2.4,1.4-3.6s1-2.4,1.5-3.5c0.6-1.4,1.3-2.8,2-4.2s1.4-2.8,2.2-4.1c0.3-0.6,1.1-0.8,1.7-0.5c0,0,0,0,0,0
	c0.3,0.2,0.5,0.4,0.6,0.8c0.1,0.3,0.1,0.7-0.1,1c-0.7,1.3-1.5,2.7-2.1,4c-0.7,1.4-1.3,2.7-2,4.1c-0.5,1.1-1,2.3-1.5,3.5
	s-1,2.3-1.4,3.5c-0.1,0.2-0.3,0.5-0.5,0.6C416.3,465.2,416.1,465.3,415.8,465.3z"/>
<path class="st9" d="M462.8,424.3c-0.3,0-0.6-0.1-0.8-0.3c-0.2-0.2-0.4-0.4-0.4-0.7c-0.1-0.3,0-0.7,0.2-0.9c0.2-0.3,0.5-0.5,0.8-0.5
	l24-4.3l24-4.3l-3.6-10.3l-3.6-10.3c-0.1-0.3-0.1-0.7,0-1c0.1-0.3,0.4-0.5,0.6-0.6c0.3-0.1,0.7-0.1,1,0c0.3,0.1,0.5,0.4,0.6,0.7
	l4.1,11.7l4.1,11.7l-25.4,4.6l-25.5,4.6L462.8,424.3L462.8,424.3z"/>
<path class="st0" d="M442.2,461.5c-0.7,0-1.3-0.6-1.3-1.2c0-0.3,0.1-0.6,0.3-0.9c0.2-0.2,0.5-0.4,0.9-0.4l8.1-0.2l8.1-0.2
	c1.7,0,3.4-0.6,4.8-1.6c1.2-0.8,1.9-2.2,1.9-3.6c0-0.7-0.2-1.3-0.5-1.9c-0.4-0.6-0.9-1.1-1.4-1.6c-0.7-0.5-1.5-0.9-2.3-1.1
	c-0.9-0.2-1.8-0.4-2.7-0.3l-5.9,0.1l-5.9,0.2c-0.3,0-0.6-0.1-0.9-0.4c-0.5-0.5-0.5-1.3-0.1-1.8c0,0,0,0,0,0c0.2-0.2,0.5-0.4,0.9-0.4
	l5.9-0.2l5.9-0.1c1.2,0,2.4,0.1,3.5,0.5c1.1,0.3,2.1,0.8,3,1.5c0.9,0.6,1.6,1.5,2.2,2.4c0.5,0.9,0.8,1.9,0.8,2.9
	c0,2.1-0.9,4.1-2.5,5.4c-1.8,1.5-4.1,2.4-6.5,2.4l-8.1,0.2L442.2,461.5L442.2,461.5L442.2,461.5z"/>
<path class="st6" d="M400.8,846.4l-1.9,37.8l-1.9,37.8l34.8-0.6l34.8-0.6l-4-38l-4-38c-1.9-17.8-15.9-26.4-29.6-26
	S401.7,828.5,400.8,846.4z"/>
<path class="st6" d="M286.2,922.7c-0.5-8.7,1.1-17.5,4.6-25.5c5.8-13.3,18.6-27.8,46.7-32.4c9.7-1.6,19.5-1.2,29.1,1.1
	c9.5,2.3,18.3,6.7,25.9,12.9c3.1,2.5,5.9,5.3,8.5,8.4c2.7,3.3,5.1,6.9,7.1,10.8c1.9,3.9,3.3,8,4.2,12.3c0.8,3.7,1.4,7.4,1.8,11.1
	l-63.9,0.6L286.2,922.7z"/>
<path class="st0" d="M336.7,920.9c-11,0-21.7-4.1-31.6-11.8s-18.9-19.2-26.7-34s-13.8-31.8-17.9-50.5c-8.4-39.4-8.6-80-0.5-119.5
	c4-18.7,9.8-35.9,17.5-50.7s16.7-26.4,26.5-34.3s20.5-12,31.6-12h0.2c11,0,21.7,4.1,31.6,11.8s18.9,19.2,26.7,34
	s13.8,31.8,17.9,50.5c8.4,39.4,8.5,80,0.5,119.4c-4,18.7-9.8,35.9-17.5,50.7s-16.7,26.5-26.5,34.3s-20.5,12-31.6,12L336.7,920.9
	L336.7,920.9z M335.8,610.6h-0.2c-10.5,0-20.8,4.1-30.2,11.7s-18.2,18.9-25.6,33.3s-13.4,31.6-17.2,50.1c-4,19.5-6,39.3-5.8,59.1
	c0.2,42.4,9.2,80.8,23.7,108.6s34.4,45,56.3,45h0.2c10.5,0,20.8-4.1,30.3-11.7s18.1-18.8,25.6-33.3s13.4-31.6,17.3-50.1
	c4-19.5,6-39.3,5.8-59.1c-0.2-42.4-9.2-80.8-23.8-108.6S357.7,610.6,335.8,610.6L335.8,610.6z"/>
<path class="st6" d="M908.9,424.2c0.8,30.8-23.5,56.4-54.3,57.2c-30.8,0.8-56.4-23.5-57.2-54.3c-0.8-30.8,23.5-56.4,54.3-57.2
	c14.8-0.4,29.1,5.1,39.8,15.3C902.3,395.4,908.5,409.4,908.9,424.2z"/>
<path class="st6" d="M899.3,546.6c0.4,13.9-10.6,25.6-24.6,25.9c-13.9,0.4-25.6-10.6-25.9-24.6s10.6-25.6,24.6-25.9
	c6.7-0.2,13.2,2.3,18.1,6.9C896.3,533.6,899.1,539.9,899.3,546.6z"/>
<path class="st0" d="M416.9,755.5L416.9,755.5h-81h-81c-0.3,0-0.6-0.1-0.9-0.4c-0.5-0.5-0.5-1.3,0-1.8c0,0,0,0,0,0
	c0.2-0.2,0.6-0.4,0.9-0.4h81h81c0.3,0,0.6,0.1,0.9,0.4c0.5,0.5,0.5,1.3,0,1.8C417.5,755.4,417.2,755.5,416.9,755.5z"/>
<path class="st7" d="M816,828.6c0,6.9-5.6,12.5-12.5,12.5s-12.5-5.6-12.5-12.5s5.6-12.5,12.5-12.5c3.3,0,6.5,1.3,8.8,3.7
	C814.7,822.1,816,825.3,816,828.6z"/>
<path class="st0" d="M400,859c-0.2,0-0.4-0.1-0.6-0.2c-0.2-0.1-0.3-0.2-0.5-0.4l-62.8-97.1l-62.7-97.1c-0.2-0.3-0.3-0.7-0.2-1
	c0.1-0.3,0.3-0.6,0.5-0.8c0.3-0.2,0.6-0.2,0.9-0.2c0.3,0.1,0.6,0.3,0.8,0.5l62.7,97.2l62.7,97c0.2,0.3,0.2,0.6,0.2,0.9
	c-0.1,0.3-0.3,0.6-0.5,0.8c-0.1,0.1-0.2,0.1-0.3,0.2C400.2,858.9,400.1,859,400,859z"/>
<path class="st0" d="M268.6,850c-0.1,0-0.2,0-0.4,0c-0.1,0-0.2-0.1-0.3-0.2c-0.3-0.2-0.5-0.5-0.5-0.8c-0.1-0.3,0-0.7,0.2-0.9
	l63.4-94.7l63.4-94.7c0.2-0.3,0.5-0.5,0.8-0.5c0.3-0.1,0.7,0,0.9,0.2c0.3,0.2,0.5,0.5,0.5,0.8c0.1,0.3,0,0.7-0.2,0.9L333,754.7
	l-63.4,94.7c-0.1,0.2-0.3,0.3-0.5,0.4C269,850,268.8,850,268.6,850z"/>
<path class="st0" d="M318.6,917h-0.1c-0.7-0.1-1.2-0.7-1.1-1.3l12-152.9l12-152.9c0-0.3,0.2-0.6,0.4-0.8c0.3-0.2,0.6-0.3,0.9-0.3
	c0.7,0.1,1.2,0.7,1.1,1.3l-12,152.9l-12,152.9c0,0.3-0.2,0.6-0.4,0.8C319.2,916.9,318.9,917,318.6,917z"/>
<path class="st2" d="M338.9,752.7c0.1,3.7-2.8,6.8-6.5,6.9c-3.7,0.1-6.8-2.8-6.9-6.5s2.8-6.8,6.5-6.9c1.8,0,3.5,0.6,4.8,1.8
	C338.1,749.2,338.9,750.9,338.9,752.7z"/>
<path class="st4" d="M647.6,421.5l8.5,21l8.5,21c0,0,3.3-8.5,6.8-17.7s6.9-18.9,7.3-21.5l-6.5-12l-6.5-12l-9,10.5L647.6,421.5z"/>
<path class="st7" d="M623.7,329.1c-5.7-0.3-11.4,1.1-16.4,3.9c-4.9,2.7-8.8,6.9-11.2,11.9c-2.5,5.4-3.4,11.3-2.5,17.2
	c0.8,6.1,4,11.6,8.8,15.3c3.6,2.7,7.8,4.3,12.3,4.6c4.7,0.4,9.4-0.4,13.7-2.3c-6,2.6-10.8,7.3-13.6,13.2c-2.8,5.8-3.3,12.4-1.5,18.5
	c1.8,6.1,5.9,11.4,11.3,14.8c5.3,3.4,11.6,4.7,17.8,3.7c5.6-1.1,10.7-4.2,14.3-8.7c2-2.3,3.6-4.9,4.8-7.6c1,3.3,2.4,6.4,4.3,9.2
	c3.5,5.5,8.7,9.7,14.8,11.9c6,2,12.5,2.2,18.6,0.3c6.2-1.7,11.5-5.6,15-11c2.4-3.9,3.8-8.3,4-12.9c0.1-2.7-0.1-5.5-0.7-8.2
	c4.4,5.2,10.1,9.3,16.5,11.7c5.9,2.3,12.3,2.6,18.5,1c2.9-0.8,5.7-2,8.3-3.6c4.5-2.7,8-6.9,9.9-11.9c1.9-5.3,1.9-11.1,0-16.4
	c-0.9-2.8-2.2-5.4-3.9-7.8c6.6,2.1,13.7,1.7,20-1.1c6-2.6,10.8-7.4,13.3-13.4c2.3-5.7,2.3-12.1,0.1-17.9c-2-5.5-5.6-10.3-10.4-13.7
	c-3.3-2.3-7-3.9-11-4.6c-2.5-0.5-5.1-0.6-7.6-0.4c2.5-1.8,4.7-3.8,6.6-6.2c3-3.6,5-7.9,5.8-12.4c1.2-7.9-1.7-16.2-7.1-22.7
	s-13.1-11-21.5-11.6c-6.3-0.3-12.5,1.5-17.7,5c-3,1.9-5.7,4.3-8,6.9c0.3-3.5,0.1-7.1-0.6-10.5c-0.9-5.3-3.2-10.2-6.8-14.2
	c-6.6-7.3-17.2-10.5-27.6-9.8s-20.7,5.2-26.5,13.5c-3.4,5-5.3,11-5.3,17.1c-0.1,3.8,0.3,7.6,1.2,11.2c-3.7-4.9-8.5-8.7-14.1-11.2
	c-5.3-2.3-11.2-3-16.9-1.9c-7.7,1.7-14.5,6.2-19.1,12.6c-4.5,6.2-6.7,13.9-5,21.1c1.3,4.8,4.1,9.1,7.9,12.3
	C618.4,326.1,621,327.8,623.7,329.1z"/>
<path class="st2" d="M675.8,327.5c-4.5-1.5-9.4-1.9-14.1-1.2c-4.8,0.7-9.1,3.4-11.7,7.5c-3.9,6.1-2.9,12.9,0.8,18
	c3.8,5.4,10,8.4,16.6,8c-0.3,0-0.9,0.8-1.4,1.6s-0.9,1.6-1.1,1.9c-2.4,3.9-3,8.6-1.7,13c1.4,4.4,4.7,7.9,8.9,9.6
	c4.2,1.8,9.2,1,13.6-1.1c4.3-2,7.8-5.2,10.2-9.3c1-2,1.9-4.1,2.6-6.3c0.7-2.1,1.2-3.8,1.2-3.8c4.1,4.8,6.5,7.4,8,8.9
	c0.6,0.6,1.2,1.2,1.9,1.7c1.8,1.1,3.7,1.9,5.7,2.4c3.8,1.2,7.9,1,11.7-0.3c1-0.4,1.9-0.8,2.8-1.4c0.9-0.6,1.8-1.2,2.6-1.9
	c3.2-2.9,5.3-6.9,6-11.2c0.8-4.3-0.4-8.7-3.2-12.1c-1.3-1.3-2.6-2.5-4.1-3.6c-1.4-1.1-2.5-1.8-2.5-1.8l1.6-0.8l1.5-0.7
	c4.3-2.2,7.4-6.1,8.8-10.7c1.5-4.6,1-9.7-1.3-13.9c-2.9-5.1-8.4-8.2-14.3-8.1c-5.9,0-11.5,2.5-15.4,6.9c0.1-1,0.1-2,0-2.9
	c-0.1-1.3-0.3-2.5-0.6-3.8c-1-3.5-3.1-6.6-5.8-9c-1.4-1.3-3-2.4-4.8-3.2c-3.4-1.6-7.2-2.2-10.9-2c-4,0.2-7.8,1.9-10.7,4.7
	c-2.4,2.5-4,5.7-4.6,9.1c-0.3,1.8-0.4,3.5-0.3,5.3c0.1,1,0.3,2.1,0.6,3.1c0.2,0.8,0.5,1.6,0.8,2.3c0.2,0.5,0.6,1.7,1,2.9
	S675.4,327.4,675.8,327.5z"/>
<polygon class="st4" points="306.6,399.8 298.8,399.8 290.9,399.8 299,410.6 307,421.5 306.8,410.6 "/>
<polygon class="st4" points="398.7,796 389.1,796 379.6,796 389.6,806.1 399.6,816.1 399.1,806.1 "/>
<polygon class="st4" points="732.1,682.7 721.3,682.7 710.6,682.7 721.3,699.4 732.1,716.1 732.1,699.4 "/>
<path class="st4" d="M639.8,861.8l1.4-10c0.5-3.3,0.9-6.6,1.4-10c2.7,8.3,5.4,16.7,8.1,25c2.7,8.3,5.4,16.7,8.1,25
	c-3.2-5-6.4-10-9.5-15L639.8,861.8z"/>
<polygon class="st4" points="776,876.7 766.5,881.8 756.9,886.8 757.8,892.9 758.7,898.9 767.4,887.8 "/>
<path class="st7" d="M698.2,579.4c0,6.9-5.6,12.5-12.5,12.5s-12.5-5.6-12.5-12.5s5.6-12.5,12.5-12.5c3.3,0,6.5,1.3,8.8,3.7
	C696.9,572.9,698.2,576.1,698.2,579.4z"/>
<path class="st7" d="M622.4,826.2c0,6.9-5.6,12.5-12.5,12.5s-12.5-5.6-12.5-12.5s5.6-12.5,12.5-12.5c3.3,0,6.5,1.3,8.8,3.7
	C621.1,819.7,622.4,822.9,622.4,826.2z"/>
<path class="st7" d="M736.7,643.7c0,6.9-5.6,12.5-12.5,12.5s-12.5-5.6-12.5-12.5s5.6-12.5,12.5-12.5c3.3,0,6.5,1.3,8.8,3.7
	C735.4,637.2,736.7,640.4,736.7,643.7z"/>
<path class="st7" d="M776.3,605.1c0,6.9-5.6,12.5-12.5,12.5s-12.5-5.6-12.5-12.5s5.6-12.5,12.5-12.5c3.3,0,6.5,1.3,8.8,3.7
	C775,598.6,776.3,601.8,776.3,605.1z"/>
<path class="st0" d="M414.1,922.7c-0.7,0-1.2-0.6-1.2-1.2c-0.1-9.7-3-19.1-8.3-27.2c-2.4-3.8-5.2-7.3-8.4-10.4
	c-0.2-0.2-0.4-0.5-0.4-0.9c0-0.3,0.1-0.7,0.3-0.9c0.2-0.2,0.5-0.4,0.9-0.4c0.3,0,0.7,0.1,0.9,0.3c3.5,3.3,6.5,7.1,9,11.1
	c5.5,8.5,8.4,18.3,8.5,28.4C415.3,922.1,414.7,922.6,414.1,922.7L414.1,922.7L414.1,922.7z"/>
<path class="st0" d="M271.8,924.2c-0.3,0-0.6-0.1-0.9-0.4c-0.2-0.2-0.4-0.6-0.4-0.9c0-0.3,0.1-0.7,0.4-0.9c0.2-0.2,0.5-0.4,0.9-0.4
	l205.3-2l205.3-2l0,0c0.7,0,1.2,0.5,1.2,1.2c0,0.3-0.1,0.7-0.3,0.9c-0.2,0.2-0.5,0.4-0.9,0.4l-205.3,2L271.8,924.2L271.8,924.2
	L271.8,924.2z"/>
<path class="st10" d="M894.3,424.5c-3,0-5.9-1-8.3-2.8c-2.5-1.9-4.4-4.4-5.4-7.4c-3,1.5-6.3,2.1-9.6,1.9c-3.1-0.3-6.1-1.5-8.5-3.6
	c-2-1.8-3.4-4.1-4.2-6.7c-0.5-1.6-0.7-3.3-0.7-5c0-0.7,0.6-1.2,1.2-1.2l0,0c0.3,0,0.6,0.1,0.9,0.4c0.2,0.2,0.4,0.5,0.4,0.9
	c0,1.4,0.2,2.8,0.6,4.2c0.6,2.2,1.8,4.1,3.5,5.6c2.2,1.9,4.9,2.9,7.8,3c3.1,0.1,6.1-0.7,8.8-2.3l0.7-0.5l0.7-0.5l0.2,0.9l0.2,0.9
	c0.7,3.1,2.6,5.9,5.2,7.8c2.5,1.8,5.6,2.5,8.6,1.9c2.3-0.6,4.4-1.9,5.9-3.7c1.6-2,2.6-4.4,2.8-6.9c0-0.3,0.2-0.6,0.5-0.8
	c0.3-0.2,0.6-0.3,0.9-0.3c0.7,0.1,1.2,0.7,1.1,1.4c0,0,0,0,0,0c-0.3,3-1.5,5.9-3.4,8.3c-1.8,2.3-4.4,3.9-7.2,4.5
	c-0.4,0.1-0.9,0.2-1.3,0.2C895.2,424.5,894.7,424.5,894.3,424.5z"/>
<path class="st10" d="M823.3,450.4c-1.5,0-2.9-0.4-4.2-1.2c-0.8-0.5-1.5-1.1-2.1-1.7c-0.2-0.2-0.3-0.6-0.3-0.9
	c0-0.3,0.2-0.6,0.4-0.9c0.2-0.2,0.6-0.3,0.9-0.3c0.3,0,0.6,0.2,0.9,0.4c0.4,0.5,0.9,0.9,1.5,1.2c0.9,0.6,1.9,0.9,2.9,0.9l0,0
	c1.3,0,2.6-0.5,3.6-1.4c1.1-0.9,1.9-2.2,2.3-3.6l0.2-0.8l0.2-0.8l0.7,0.5l0.7,0.5c1.3,0.9,2.8,1.3,4.3,1c1.3-0.2,2.5-0.9,3.3-2
	c0.6-0.9,0.9-2,0.8-3.1c-0.1-1.2-0.5-2.3-1.2-3.2c-0.4-0.6-0.3-1.3,0.3-1.8c0.3-0.2,0.6-0.3,0.9-0.2c0.3,0.1,0.6,0.2,0.8,0.5
	c1,1.4,1.6,3,1.7,4.7c0.2,3.5-2.2,6.7-5.7,7.4c-1.8,0.4-3.7,0.2-5.4-0.6c-0.7,1.5-1.8,2.9-3.2,3.8
	C826.5,449.8,825,450.3,823.3,450.4L823.3,450.4L823.3,450.4z"/>
<path class="st10" d="M887.1,567h-0.7l-0.7-0.1c-1.8-0.4-3.3-1.4-4.4-2.9c-1.1-1.5-1.7-3.3-1.6-5.2c-1.7-0.1-3.4-0.5-4.8-1.4
	c-1.4-0.9-2.5-2.1-3.1-3.6c-0.6-1.4-0.8-2.9-0.5-4.3c0.1-0.9,0.4-1.8,0.8-2.6c0.1-0.3,0.4-0.5,0.7-0.6c0.6-0.2,1.4,0.1,1.6,0.7
	c0.1,0.3,0.1,0.7,0,1c-0.3,0.6-0.5,1.2-0.6,1.9c-0.2,1,0,2.1,0.3,3c0.6,1.2,1.5,2.2,2.7,2.8c1.3,0.6,2.7,0.9,4.2,0.7l0.9-0.1
	l0.9-0.1l-0.2,0.8l-0.2,0.8c-0.3,1.5-0.1,3.1,0.8,4.4c0.7,1.1,1.8,2,3.1,2.3c1.1,0.2,2.2,0.1,3.2-0.4c1-0.5,1.9-1.3,2.5-2.3
	c0.2-0.3,0.4-0.5,0.8-0.6c0.7-0.2,1.4,0.2,1.5,0.9c0,0,0,0,0,0c0.1,0.3,0,0.7-0.1,0.9c-0.7,1.2-1.8,2.3-3,3
	C889.8,566.6,888.5,567,887.1,567z"/>
<path class="st2" d="M441.5,836.5c-0.1,1-0.6,1.9-1.4,2.4c-2.1,1.3-4.8,1.3-6.9,0c-1.3-0.7-1.8-2.3-1.1-3.6c0.3-0.5,0.6-0.9,1.1-1.1
	c2.1-1.3,4.8-1.3,6.9,0C440.9,834.6,441.4,835.5,441.5,836.5z"/>
<path class="st2" d="M451.9,850.3c0,1.4-0.7,2.7-1.8,3.5c-2.6,1.9-6.1,1.9-8.7,0c-1.9-1.3-2.4-4-1-5.9c0.3-0.4,0.6-0.8,1-1
	c2.6-1.9,6.1-1.9,8.7,0C451.2,847.7,451.9,848.9,451.9,850.3z"/>
<path class="st2" d="M375,882.9c-0.1,2.3-1.2,4.5-3.1,5.9c-4.4,3.3-10.5,3.3-14.9,0c-3.3-2.3-4.1-6.8-1.8-10.1
	c0.5-0.7,1.1-1.3,1.8-1.8c4.4-3.3,10.5-3.3,14.9,0C373.8,878.3,374.9,880.5,375,882.9z"/>
<path class="st0" d="M673,632.2h-18.5c-0.3,0-0.6-0.1-0.9-0.4c-0.2-0.2-0.4-0.5-0.4-0.9c0-0.3,0.1-0.6,0.4-0.9
	c0.2-0.2,0.5-0.4,0.9-0.4H673c0.7,0,1.2,0.6,1.2,1.2S673.7,632.2,673,632.2z"/>
<path class="st0" d="M760.7,579.3h-11c-0.7,0-1.2-0.6-1.2-1.2c0-0.7,0.6-1.2,1.2-1.2h11c0.7,0,1.2,0.6,1.2,1.2
	C761.9,578.7,761.4,579.3,760.7,579.3z"/>
<path class="st0" d="M695.3,541.2c-0.2,0-0.3,0-0.5-0.1c-0.2-0.1-0.3-0.1-0.4-0.3l-1.9-1.8l-1.9-1.8c-0.5-0.5-0.5-1.3,0-1.8
	c0.2-0.2,0.5-0.4,0.9-0.4c0.3,0,0.7,0.1,0.9,0.3l1.9,1.8l1.9,1.8c0.2,0.2,0.4,0.5,0.4,0.9c0,0.3-0.1,0.7-0.3,0.9
	c-0.1,0.1-0.3,0.2-0.4,0.3C695.7,541.1,695.5,541.2,695.3,541.2z"/>
<path class="st11" d="M267.1,333h-6.8c-0.3,0-0.6-0.1-0.9-0.4c-0.5-0.5-0.5-1.3,0-1.8c0.2-0.2,0.5-0.4,0.9-0.4h6.8
	c0.3,0,0.6,0.1,0.9,0.4c0.5,0.5,0.5,1.3,0,1.8C267.8,332.9,267.4,333,267.1,333z"/>
<path class="st11" d="M330.1,362.3h-21c-0.3,0-0.6-0.1-0.9-0.4c-0.5-0.5-0.5-1.3,0-1.7c0,0,0,0,0,0c0.2-0.2,0.5-0.4,0.9-0.4h21
	c0.3,0,0.6,0.1,0.9,0.4c0.5,0.5,0.5,1.3,0,1.7c0,0,0,0,0,0C330.8,362.2,330.5,362.3,330.1,362.3z"/>
<path class="st11" d="M300.1,309.8c-0.1,0-0.3,0-0.4-0.1c-0.1,0-0.2-0.1-0.4-0.2c-0.3-0.2-0.5-0.5-0.5-0.8c-0.1-0.3,0-0.7,0.2-0.9
	l1.1-1.5l1.1-1.5c0.4-0.6,1.2-0.7,1.7-0.3c0.6,0.4,0.7,1.2,0.3,1.8l-1.1,1.5l-1.1,1.5c-0.1,0.2-0.3,0.3-0.5,0.4
	C300.5,309.8,300.3,309.8,300.1,309.8z"/>
<path class="st11" d="M112.5,473.7c-0.3,0-0.5-0.1-0.8-0.2c-0.2-0.2-0.4-0.4-0.4-0.7c-0.1-0.3,0-0.7,0.1-1c0.2-0.3,0.4-0.5,0.8-0.6
	l8.6-2.4l8.6-2.4c0.7-0.2,1.3,0.2,1.5,0.9c0,0,0,0,0,0c0.1,0.3,0.1,0.7-0.1,1c-0.2,0.3-0.4,0.5-0.8,0.6l-8.6,2.4l-8.6,2.4h-0.2
	L112.5,473.7z"/>
<path class="st11" d="M155.1,430.9c-0.3,0-0.5-0.1-0.7-0.2c-0.2-0.2-0.4-0.4-0.5-0.6c-0.1-0.3-0.1-0.7,0.1-1
	c0.1-0.3,0.4-0.5,0.7-0.6l6.6-2.3l6.6-2.3c0.6-0.2,1.3,0.1,1.6,0.7c0,0,0,0,0,0c0.1,0.3,0.1,0.7-0.1,1c-0.1,0.3-0.4,0.5-0.7,0.6
	l-6.6,2.3l-6.6,2.3l-0.2,0L155.1,430.9z"/>
<path class="st11" d="M124.4,418.1h-0.3l-0.3-0.1l-2.2-1.1l-2.2-1c-0.3-0.1-0.5-0.4-0.6-0.7c-0.1-0.3-0.1-0.7,0.1-1
	c0.1-0.3,0.4-0.5,0.7-0.6c0.3-0.1,0.7-0.1,0.9,0l2.2,1.1l2.2,1.1c0.3,0.1,0.5,0.4,0.6,0.7c0.2,0.6,0,1.2-0.5,1.5
	C124.9,418,124.7,418.1,124.4,418.1z"/>
<path class="st1" d="M447.8,172.1l-18,20.8l-17.9,20.9l20.3,17.5l20.3,17.5l44.2,4.2l44.2,4.2c1.1,0.1,2.1-0.7,2.2-1.8
	c0.1-0.7-0.2-1.3-0.7-1.7l-47.4-40.8L447.8,172.1z"/>
<path class="st6" d="M447.5,172.6l-20.9-17.9l-20.9-17.9l-17.4,20.4l-17.4,20.4l-4,44.3l-4,44.3c-0.1,1.1,0.7,2.1,1.8,2.2
	c0.7,0.1,1.3-0.2,1.8-0.7l40.6-47.5L447.5,172.6z"/>
<path class="st6" d="M447.6,171.9l20.8,18l20.9,17.9l17.5-20.3l17.5-20.3l4.2-44.2l4.2-44.2c0.1-1.1-0.7-2.1-1.8-2.2
	c-0.7-0.1-1.3,0.2-1.8,0.7l-40.8,47.3L447.6,171.9z"/>
<path class="st7" d="M447.1,172.5l17.9-20.8l17.9-20.9l-20.3-17.5l-20.3-17.5l-44.2-4.2l-44.2-4.2c-0.9-0.1-1.7,0.4-2,1.2
	c-0.4,0.8-0.2,1.8,0.5,2.3l47.4,40.8L447.1,172.5z"/>
<path class="st3" d="M452.9,250.3c-0.3,0-0.6-0.1-0.9-0.3c-0.2-0.2-0.4-0.5-0.4-0.8l-2.9-38.3l-2.9-38.3c-0.1-0.7,0.5-1.3,1.1-1.3
	c0.3,0,0.7,0.1,0.9,0.3c0.3,0.2,0.4,0.5,0.4,0.9l2.9,38.3l2.9,38.3c0,0.3-0.1,0.7-0.3,0.9C453.6,250.1,453.3,250.2,452.9,250.3
	L452.9,250.3L452.9,250.3z"/>
<path class="st3" d="M447.6,173.2c-0.3,0-0.6-0.1-0.9-0.3c-0.2-0.2-0.4-0.5-0.4-0.8c0-0.3,0.1-0.7,0.3-0.9c0.2-0.3,0.5-0.4,0.9-0.4
	l38.3-2.9l38.3-2.8c0.3,0,0.7,0.1,0.9,0.3c0.2,0.2,0.4,0.5,0.4,0.9c0,0.3-0.1,0.7-0.3,0.9c-0.2,0.3-0.5,0.4-0.8,0.4l-38.3,2.8
	L447.6,173.2L447.6,173.2z"/>
<path class="st3" d="M447.1,173.7c-0.3,0-0.6-0.1-0.9-0.3c-0.2-0.2-0.4-0.5-0.4-0.8l-2.9-38.3L440.1,96c0-0.7,0.5-1.3,1.2-1.3
	c0.6,0,1.2,0.5,1.3,1.1l2.9,38.3l2.9,38.3C448.4,173.1,447.9,173.7,447.1,173.7C447.2,173.7,447.2,173.7,447.1,173.7L447.1,173.7
	L447.1,173.7z"/>
<path class="st3" d="M370.8,179.9c-0.7,0-1.2-0.5-1.2-1.1c0-0.7,0.5-1.3,1.1-1.4l38.3-3l38.3-3c0.3,0,0.7,0.1,0.9,0.3
	c0.3,0.2,0.4,0.5,0.4,0.9c0.1,0.7-0.5,1.3-1.1,1.3l-38.3,3l-38.3,3L370.8,179.9L370.8,179.9z"/>
<path class="st3" d="M489.3,209.1c-0.1,0-0.3,0-0.4-0.1c-0.1,0-0.3-0.1-0.4-0.2l-41.8-35.5l-41.8-35.5c-0.3-0.2-0.4-0.5-0.4-0.9
	c0-0.3,0.1-0.7,0.3-0.9c0.4-0.5,1.2-0.6,1.8-0.1l41.8,35.5l41.8,35.5c0.3,0.2,0.4,0.5,0.4,0.9c0,0.3-0.1,0.7-0.3,0.9
	c-0.1,0.1-0.3,0.3-0.4,0.3C489.7,209,489.5,209.1,489.3,209.1z"/>
<path class="st3" d="M411.9,215c-0.3,0-0.6-0.1-0.8-0.3c-0.2-0.2-0.4-0.5-0.4-0.9c0-0.3,0.1-0.7,0.3-0.9l35.5-41.4l35.5-41.4
	c0.2-0.3,0.5-0.4,0.9-0.4c0.7-0.1,1.3,0.5,1.3,1.1c0,0.3-0.1,0.7-0.3,0.9l-35.5,41.4l-35.5,41.4c-0.1,0.1-0.3,0.3-0.4,0.3
	C412.3,215,412.1,215,411.9,215z"/>
<path class="st7" d="M790.5,869.7c0,6.9-5.6,12.5-12.5,12.5s-12.5-5.6-12.5-12.5s5.6-12.5,12.5-12.5c3.3,0,6.5,1.3,8.8,3.7
	C789.2,863.2,790.6,866.4,790.5,869.7z"/>
<path class="st7" d="M492.9,633.1l11.5,17.9l11.5,17.8c0.8,1.2,1.3,2.6,1.5,4c0.1,1.4-0.1,2.9-0.6,4.2l-6.7,16.2l-6.7,16.3
	c-0.4,0.9,0.1,1.9,1,2.3c0.6,0.2,1.2,0.2,1.7-0.2l36.5-23.9l36.5-23.9c3.1-2.1,3.9-6.4,1.8-9.5c0,0,0,0,0,0l-18.3-26.8l-18.3-26.8
	l-25.6,16.2L492.9,633.1z"/>
<path class="st7" d="M419.6,622.8l9.9,18.4l9.9,18.4c1.4,2.6,1.4,5.7,0,8.3l-8.4,15.5l-8.4,15.5c-0.5,0.9-0.1,1.9,0.7,2.4
	c0.5,0.3,1.2,0.3,1.7,0l36.3-19.4l36.3-19.4c3.3-1.8,4.6-5.9,2.8-9.3l-15.4-28.5L469.8,596l-25.1,13.4L419.6,622.8z"/>
<path class="st6" d="M750.6,923l-8.9,0.2l-8.9,0.2c-6.6,0.2-12.2-5-12.4-11.6c0-0.5,0-0.9,0-1.4l2.4-30.3l2.4-30.3l14.1-0.4
	l14.1-0.4l4.3,30.1l4.4,30.1c1,6.6-3.5,12.7-10.1,13.6C751.6,922.9,751.1,923,750.6,923z"/>
<polygon class="st5" points="725.3,849.8 741.2,862.1 757.2,874.4 755.3,861.8 753.5,849.1 739.4,849.5 "/>
<path class="st2" d="M796.6,848l-55.1,1.5l-55.1,1.5c-3.5,0.1-6.3-2.6-6.4-6.1c0,0,0,0,0,0l0,0c-0.8-31.1,23.7-57.1,54.9-57.9
	c0,0,0,0,0.1,0l4.9-0.1l4.9-0.1c31.1-0.8,57.1,23.7,57.9,54.9c0,0,0,0,0,0l0,0C802.9,845,800.1,847.9,796.6,848
	C796.7,848,796.7,848,796.6,848L796.6,848z"/>
<path class="st5" d="M735,827.5c-0.7,0-1.2-0.5-1.2-1.2c0,0,0,0,0,0v-36l-13,10.2l-13,10.2c-0.3,0.2-0.6,0.3-0.9,0.3
	c-0.3,0-0.6-0.2-0.8-0.5c-0.4-0.5-0.3-1.3,0.2-1.7c0,0,0,0,0,0l13.2-10.4l13.2-10.3c0.5-0.6,1.4-0.8,2.2-0.5c0.8,0.3,1.4,1.1,1.4,2
	v36.9c0,0.3-0.1,0.7-0.4,0.9C735.6,827.3,735.3,827.4,735,827.5z"/>
<path class="st5" d="M763.3,816.7c-0.3,0-0.6-0.1-0.9-0.3l-14.4-13.8l-14.4-13.8l0.3-1l0.3-1l0.6,0.1l0.6,0.2l15.3,4.4l15.3,4.4
	c0.7,0.2,1.1,0.9,0.9,1.5s-0.9,1.1-1.5,0.9l-12.9-3.7l-12.9-3.7l12.3,11.8l12.3,11.8c0.5,0.5,0.5,1.3,0,1.8
	c-0.1,0.1-0.3,0.2-0.4,0.3C763.7,816.7,763.5,816.7,763.3,816.7z"/>
</svg>
