<?xml version="1.0" encoding="utf-8"?>
<!-- Generator: Adobe Illustrator 28.0.0, SVG Export Plug-In . SVG Version: 6.00 Build 0)  -->
<svg version="1.1" id="Layer_1" xmlns="http://www.w3.org/2000/svg" xmlns:xlink="http://www.w3.org/1999/xlink" x="0px" y="0px"
	 viewBox="0 0 791.9 792.9" style="enable-background:new 0 0 791.9 792.9;" xml:space="preserve">
<style type="text/css">
	.st0{fill:#E9CF81;}
	.st1{fill:#BAB653;}
	.st2{fill:#353519;}
	.st3{fill:#666538;}
	.st4{fill:#2B3D0A;}
	.st5{fill:#DEB8FC;}
	.st6{fill:#F98638;}
	.st7{fill:#F4ECE5;}
	.st8{fill:#FFAA9F;}
	.st9{fill:#AD4D4D;}
</style>
<path class="st0" d="M541.2,115.5l-15.6,8l-15.6,8c-1.6,0.8-2.2,2.8-1.4,4.4c0,0.1,0.1,0.2,0.2,0.3l9.5,14.7l9.5,14.7
	c1,1.5,0.5,3.6-1,4.5c-0.6,0.4-1.3,0.6-1.9,0.5l-17.5-0.9l-17.5-1c-1.8-0.1-3.3,1.3-3.4,3.1c0,0.1,0,0.2,0,0.3l0.9,17.5l0.9,17.5
	c0.1,1.8-1.3,3.3-3.1,3.4c-0.7,0-1.3-0.1-1.9-0.5l-14.7-9.5L454,191c-1.5-1-3.5-0.6-4.5,1c-0.1,0.1-0.1,0.2-0.2,0.3l-8,15.6l-8,15.6
	c-0.8,1.6-2.8,2.2-4.4,1.4c-0.6-0.3-1.1-0.8-1.4-1.4l-8-15.6l-8-15.6c-0.8-1.6-2.8-2.2-4.4-1.4c-0.1,0.1-0.2,0.1-0.3,0.2l-14.7,9.5
	l-14.7,9.5c-1.5,1-3.5,0.6-4.5-1c-0.4-0.6-0.6-1.3-0.5-2l0.9-17.5l0.9-17.5c0.1-1.8-1.3-3.3-3.1-3.4c-0.1,0-0.2,0-0.3,0l-17.5,0.9
	l-17.5,0.9c-1.8,0.1-3.3-1.3-3.4-3.1c0-0.7,0.1-1.4,0.5-1.9l9.5-14.7l9.6-14.7c1-1.5,0.5-3.6-1-4.5c-0.1-0.1-0.2-0.1-0.3-0.2
	l-15.6-8l-15.6-8c-1.6-0.8-2.3-2.8-1.4-4.4c0.3-0.6,0.8-1.1,1.4-1.4l15.6-8l15.6-8c1.6-0.8,2.2-2.8,1.4-4.4c0-0.1-0.1-0.2-0.2-0.3
	l-9.5-14.5l-9.5-14.7c-1-1.5-0.5-3.5,1-4.5c0.6-0.3,1.2-0.5,1.9-0.5l17.5,0.9l17.5,0.9c1.8,0.1,3.3-1.3,3.4-3.1c0-0.1,0-0.2,0-0.3
	l-0.9-17.5l-0.9-17.5c-0.1-1.8,1.3-3.3,3.1-3.4c0.7,0,1.4,0.1,2,0.5l14.7,9.5l14.7,9.5c1.5,1,3.6,0.5,4.5-1c0.1-0.1,0.1-0.2,0.2-0.3
	l8-15.6l8-15.6c0.8-1.6,2.8-2.2,4.4-1.4c0.6,0.3,1.1,0.8,1.4,1.4l8,15.6l8,15.6c0.8,1.6,2.8,2.2,4.4,1.4c0.1,0,0.2-0.1,0.3-0.2
	l14.7-9.5l14.7-9.5c1.5-1,3.5-0.5,4.5,1c0.4,0.6,0.5,1.2,0.5,1.9l-0.9,17.5l-0.9,17.5c0,1.8,1.4,3.3,3.2,3.3c0,0,0.1,0,0.1,0
	l17.5-0.9l17.5-0.9c1.8-0.1,3.3,1.3,3.4,3.1c0,0.7-0.1,1.3-0.5,1.9l-9.5,14.8l-9.5,14.7c-1,1.5-0.5,3.6,1,4.5
	c0.1,0.1,0.2,0.1,0.3,0.2l15.6,8l15.6,8c1.6,0.8,2.3,2.8,1.4,4.4c-0.3,0.6-0.8,1.1-1.4,1.4L541.2,115.5z"/>
<path class="st1" d="M154.1,313.5c-0.9-9.1-0.6-18.3,0.7-27.3c1.2-8.7,3-16.8,4.5-23.2c2.1-9,4.7-17.9,7.8-26.6
	c2.8-7.8,5.6-14.4,8.1-19.8l-15.8-3.8l-15.8-3.8c-2,4.7-4.4,10.6-6.8,17.4s-4.9,14.7-7.1,23.3c-3.8,14.6-7.2,27.2-8.8,39.1
	s-1.5,23.2,1.7,35.3c1.5,5.6,3.5,11,6.1,16.2c3.8,7.6,8.6,14.8,14.2,21.2l10.1,12.4l10.2,12.4c34.1,41.6,52.3,63.9,62.7,76.8
	s13.1,16.3,16,20.3c17.6,23.7,30.8,41.4,40.4,56.7s15.4,28.1,18.1,42c7.2,36.4-7.7,74.9-28,107.8s-45.8,60.2-59.9,74.2h50.3
	c4.7-4.5,13.3-13.2,22.1-23.2s18-21.2,23.8-30.8c7.4-12.6,13.7-25.9,18.7-39.6c7.3-19.7,13.5-44.4,12.6-69.4
	c-0.9-23.9-8.1-44.2-20.2-64.6s-29-41.1-49.2-65.7c-4.5-5.4-12.3-15.5-22.9-28.6c-10.6-13.1-23.9-29.1-39.4-46.5
	c-16.8-18.9-29.7-32.3-38.7-44.5S155.7,327.8,154.1,313.5z"/>
<path class="st1" d="M638.6,472.3l39-0.3l39-0.3c12-2,22.8-8.4,30.3-17.8c7.6-9.3,11.4-21.1,10.9-33.1c-0.6-12.6-6.1-21.7-14.6-27.8
	s-20.1-9.1-32.9-9.5l-12.8,0.3l-12.9,0.3c4.4,0,8.8,0.3,13.1,0.7c4.4,0.4,8.8,0.5,13.2,0.4c7.3-0.3,14.4-1.7,21.3-4.1
	c6.9-2.5,13.2-6.4,17.6-12.1s6.1-13.4,5.5-20.9c-0.6-7.4-3.4-14.5-8-20.4c-6.7-8.3-16.3-13-26.8-15.5s-21.7-2.9-31.5-2.3
	c-0.2,0-1.7,0.1-3.2,0.2s-2.9,0.2-2.9,0.4c-0.1,0-0.2,0-0.3,0c-0.2,0-0.3,0-0.3,0s5.8-1.6,13.4-4.8s16.9-8.1,23.6-15.3
	c4.4-4.8,7.8-10.5,9.8-16.7c2.1-6.5,2.6-13.5,0-20.1c-1.7-4.2-4.4-7.9-7.9-10.8c-2.1-1.8-4.4-3.3-6.9-4.6
	c-13.5-7.2-29.5-5.9-42.4-2.6s-22.6,8.6-23.6,9.3c2.9-20.4,1.1-38.5-4-52.5s-13.3-23.8-23.7-27.5c-4.6-1.6-9.5-2-14.2-1.2
	c-2.5,0.4-4.9,1-7.2,1.9c-10.1,4.2-17.9,14.4-22.1,28.4s-5,32-1.1,51.7c-9.5-2.5-19.3-4-29.1-4.4c-14.2-0.4-30,2.1-38.5,13.1
	c-0.8,1-1.5,2.1-2.1,3.1c-0.7,1.2-1.3,2.4-1.8,3.7c-1.1,3.4-1.8,6.9-1.9,10.5c-0.1,2.5,0.2,5.1,0.7,7.5c1.7,7.7,6.6,14.8,13.8,20.5
	c7.2,5.8,16.8,10.3,27.9,13c5.1,0.5,9.5,1.1,12.6,1.7s4.9,1,4.9,1c-3.1-0.2-6.1-0.5-9-1s-5.8-1-8.5-1.7c-9.9-0.9-22.6-1-34.1,1.9
	c-11.5,2.9-22,8.8-27.4,19.9c-3,6.2-4,13.2-3,20c1,6.8,4,13.2,8.5,18.4c4.8,5.4,10.6,9.7,17.1,12.7c7.7,3.6,17.5,6.2,30.2,6.8
	l9.5-0.2l9.5-0.3c-3.5,0.3-6.8,0.5-10,0.6s-6.2,0-9.1-0.1l-13.6,0.4l-13.6,0.3c-10.6,0.3-20.8,4.5-28.5,11.8
	c-7.7,7.3-12.3,17.2-12.8,27.8c-1.1,22.9,16.6,42.5,39.5,43.6c1.1,0.1,2.1,0.1,3.2,0l31.3-1.1l31.3-1.2l0.4,133.5l0.4,133.5h65.1
	c0-23.3-0.1-78.9-0.1-134.4S638.7,495.6,638.6,472.3z"/>
<path class="st2" d="M638.6,472.3h-36.7c6.1,11.2,12.3,22.5,18.4,33.7c6.1,11.2,12.3,22.5,18.4,33.7l-0.1-33.7L638.6,472.3z"/>
<path class="st3" d="M682.8,311.7h-17c-0.8,0-1.5-0.7-1.5-1.5c0-0.4,0.2-0.8,0.4-1.1c0.3-0.3,0.7-0.4,1.1-0.4h17
	c0.4,0,0.8,0.2,1.1,0.4c0.3,0.3,0.4,0.7,0.4,1.1c0,0.4-0.2,0.8-0.4,1.1C683.6,311.5,683.2,311.7,682.8,311.7z"/>
<path class="st3" d="M581.6,252.7c-0.2,0-0.4,0-0.5-0.1c-0.2-0.1-0.3-0.2-0.5-0.3l-2.9-2.8l-2.9-2.8c-0.3-0.3-0.5-0.7-0.5-1
	c0-0.4,0.1-0.8,0.4-1.1c0.3-0.3,0.7-0.5,1.1-0.5c0.4,0,0.8,0.1,1.1,0.4l2.9,2.8l2.9,2.8c0.3,0.3,0.4,0.6,0.5,1
	c0,0.6-0.4,1.2-0.9,1.4C582,252.6,581.8,252.7,581.6,252.7z"/>
<path class="st1" d="M552.5,391.9l-9.5,0.3l-9.5,0.2c2.9,0.1,5.9,0.2,9.1,0.1S549,392.3,552.5,391.9z"/>
<path class="st1" d="M535.1,299.1c3,0.7,6.1,1.3,9.4,1.8c3.2,0.5,6.5,0.8,9.9,1.1c5.1,0.3-2-0.5-5.4-1.1S540.8,299.6,535.1,299.1z"
	/>
<path class="st3" d="M763.2,535.6l-5.5,0.1l-5.5,0.2c-0.1,0-0.1,0-0.1-0.1c0,0,0,0,0,0c0-0.1,0-0.1,0.1-0.1c4-1.4,7.7-3.6,10.8-6.5
	c2.7-2.5,4.7-5.7,5.6-9.3c0.8-3.4,0.6-7-0.5-10.4c-0.6-1.9-1.4-3.7-2.5-5.3c-3-4.6-7.6-7.9-12.8-9.6c-5.8-1.8-12.1-2-18-0.5
	c5.7-1.3,10.7-4.5,14.3-9c6.7-8.1,7-19.8,0.8-28.2c-5.7-8.1-16.1-11.5-25.4-8.2c-4.9,1.6-9.1,4.7-12.3,8.8
	c2.6-5.1,3.5-10.9,2.8-16.5c-0.8-5.5-3.3-10.6-7.2-14.5c-4.1-3.9-9.3-6.4-14.9-7.1c-5.4-0.8-10.9,0.3-15.5,3.2
	c-5.5,3.5-9.2,9.7-10.3,16.8c-1.2,7.7,0.6,15.6,5.1,22c0.1,0.1,0.1,0.2,0,0.3c-0.1,0.1-0.2,0.1-0.3,0c-4.7-3.4-10.5-4.8-16.2-3.9
	c-9.9,1.1-17,9.9-16,19.8c0.2,1.4,0.5,2.8,1,4.2c1.8,5.9,5.9,10.8,11.5,13.4l0,0l0,0c-7-1.5-14.3-0.1-20.3,3.9
	c-5.5,3.6-9.2,9.1-10,14.8c-0.6,5.3,0.9,10.6,4.1,14.9c3.4,4.8,8.4,8.4,14,10.1l-5.6,0.2l-5.6,0.2c-15.5,0.4-27.7,13.3-27.3,28.7
	c0,0,0,0,0,0l0,0c0.4,15.5,13.3,27.7,28.7,27.3c0,0,0,0,0,0l23.1-0.6l23.1-0.6l1.9,87.8l1.9,87.8h42.2l-2-88.4l-2-88.4l23.1-0.6
	l23.1-0.6c15.5-0.4,27.7-13.3,27.2-28.7l0,0C791.5,547.4,778.6,535.2,763.2,535.6C763.2,535.6,763.2,535.6,763.2,535.6L763.2,535.6z
	"/>
<polygon class="st2" points="718.5,592.8 707.2,592.8 696,592.8 707.5,608.3 719,623.8 718.8,608.3 "/>
<path class="st4" d="M661.8,496.4h-9.7c-0.7,0-1.3-0.6-1.3-1.2c0-0.3,0.1-0.6,0.4-0.9c0.2-0.2,0.6-0.4,0.9-0.4h9.7
	c0.3,0,0.6,0.1,0.9,0.4c0.5,0.5,0.5,1.3,0,1.8c0,0,0,0,0,0C662.5,496.3,662.1,496.4,661.8,496.4z"/>
<path class="st4" d="M753.2,537.4h-30.2c-0.3,0-0.7-0.1-0.9-0.4c-0.5-0.5-0.5-1.3,0-1.8c0.2-0.2,0.6-0.4,0.9-0.4h30.2
	c0.7,0,1.2,0.6,1.2,1.2c0,0.3-0.1,0.6-0.4,0.9C753.9,537.3,753.6,537.4,753.2,537.4z"/>
<path class="st4" d="M709.2,463.1c-0.1,0-0.3,0-0.4-0.1c-0.1,0-0.2-0.1-0.3-0.2c-0.3-0.2-0.5-0.5-0.5-0.8c-0.1-0.3,0-0.7,0.2-0.9
	l1.5-2.2l1.5-2.2c0.2-0.3,0.5-0.5,0.8-0.5c0.3-0.1,0.7,0,0.9,0.2c0.3,0.2,0.5,0.5,0.5,0.8c0.1,0.3,0,0.7-0.2,0.9l-1.5,2.2l-1.5,2.2
	c-0.1,0.2-0.3,0.3-0.5,0.4C709.6,463,709.4,463.1,709.2,463.1z"/>
<path class="st4" d="M493.3,708c-0.1,0-0.3,0-0.4-0.1c-0.1-0.1-0.3-0.1-0.4-0.2l-25.6-22.6l-25.6-22.6c-0.5-0.5-0.6-1.3-0.1-1.8
	c0.5-0.5,1.3-0.6,1.8-0.1l25.6,22.6l25.6,22.6c0.5,0.5,0.6,1.2,0.1,1.8c-0.1,0.1-0.3,0.2-0.4,0.3C493.7,707.9,493.5,708,493.3,708z"
	/>
<path class="st3" d="M132,241.8l11.9,18.8l11.9,18.8c0.8-4.2,1.5-8.1,2.4-11.8c0.8-3.6,1.6-7,2.4-10c1.2-4.5,2.3-8.3,3.2-11.3
	s1.6-4.9,1.8-5.7c1.2-3.4,2.3-6.6,3.4-9.5c1.1-2.9,2.2-5.6,3.2-7.9l-17.9,1.5l-17.9,1.5c-0.8,2.6-1.5,5.2-2.3,7.8
	C133.5,236.6,132.8,239.2,132,241.8z"/>
<path class="st5" d="M642.4,573.4c-0.7,10.3-1.4,20.6-2.2,30.8c-0.7,10.3-1.4,20.5-2.2,30.8c-0.8,12,8.2,22.3,20.1,23.2
	c0.5,0,1,0.1,1.5,0.1h69c-11.2-14.9-22.3-29.9-33.5-44.8l-33.5-44.7c-2.9-4.9-9.3-6.6-14.2-3.6C644.5,566.9,642.6,570,642.4,573.4z"
	/>
<path class="st6" d="M495.8,112.6c0,36.2-29.3,65.5-65.5,65.5s-65.5-29.3-65.5-65.5s29.3-65.5,65.5-65.5c17.4,0,34,6.9,46.3,19.2
	C488.9,78.5,495.9,95.2,495.8,112.6z"/>
<polygon class="st6" points="651.8,619.8 614.3,619.8 576.7,619.8 576.7,612.5 576.7,605.1 614.3,605.1 651.8,605.1 651.8,612.5 "/>
<polygon class="st6" points="576.7,619.8 571.9,639 567.1,658.2 604.7,658.2 642.3,658.2 647.1,639 651.8,619.8 614.3,619.8 "/>
<polygon class="st2" points="651.8,619.8 656.4,639 661,658.2 651.7,658.2 642.3,658.2 647.1,639 "/>
<path class="st2" d="M708.6,611l7.2-14l7.2-14c1.1-1.6,1.4-3.7,0.9-5.6c-0.6-3-3.6-5-6.6-4.4c-0.5,0.1-0.9,0.3-1.4,0.5
	c-1.7,0.7-3,2.1-3.7,3.8l-12.8,24.1l-12.8,24.1c-3.3,6.2-1.2,14,4.8,17.7l3.3,2.1l3.3,2.1l-2.1,5.4l-2.1,5.4h44.5l13.7-27.5
	l13.7-27.5c0.7-1.6,0.9-3.3,0.7-5c-0.2-1.7-1.1-3.3-2.6-4.1c-1.3-0.7-2.9-0.7-4.2,0c-1.3,0.7-2.3,1.7-3,3l-8,15.1l-8,15.1
	c-0.8,1.9-2.4,3.4-4.3,4.1c-1.7,0.7-3.6,0.5-5.2-0.4c-1.2-0.8-2.2-2-2.6-3.4c-0.5-1.6-0.4-3.3,0.2-4.8l7-15.7l7-15.7
	c1-1.6,1.3-3.6,0.7-5.4c-0.4-1.6-1.6-3-3.1-3.6c-1.4-0.5-3-0.4-4.3,0.2c-1.5,0.7-2.8,2-3.4,3.6l-7.8,15l-7.8,15.2
	c-0.7,1.4-1.9,2.6-3.3,3.4c-1.1,0.6-2.3,0.8-3.5,0.4c-1.3-0.7-2.2-1.9-2.5-3.4C707.2,614.7,707.6,612.7,708.6,611z"/>
<path class="st4" d="M683.4,621.1c-0.2,0-0.4,0-0.6-0.1c-0.2-0.1-0.3-0.2-0.5-0.4l-13.6-20.2L655,580.1c-0.2-0.3-0.3-0.6-0.2-0.9
	c0.1-0.3,0.3-0.6,0.5-0.8c0.3-0.2,0.6-0.3,0.9-0.2c0.3,0.1,0.6,0.3,0.8,0.5l13.6,20.2l13.6,20.2c0.2,0.3,0.3,0.6,0.2,0.9
	c-0.1,0.3-0.3,0.6-0.5,0.8c-0.1,0.1-0.2,0.1-0.3,0.2C683.6,621.1,683.5,621.1,683.4,621.1z"/>
<polygon class="st7" points="623.6,658.2 586.9,658.2 550.2,658.2 550.2,647.4 550.2,636.6 586.9,636.6 623.6,636.6 623.6,647.4 "/>
<polygon class="st8" points="737.6,769.5 634.2,769.5 530.8,769.5 525.2,713.9 519.7,658.2 635.1,658.2 750.6,658.2 744.1,713.9 "/>
<path class="st1" d="M96.7,449c0.1,7.7,0.9,15.3,2.3,22.8c1.9,9.9,5.2,19.4,9.8,28.4c6.1,12,14.6,22.5,24.3,31.7
	s20.7,17.3,31.7,24.7c10.8,7.2,22.3,13.5,33.7,19.9s22.7,12.9,33.2,20.6c10.3,7.5,19.9,15.9,28.8,25.1
	c11.2,11.6,21.3,24.2,30.2,37.7c0.8-1.9,1.7-3.9,2.5-6s1.6-4.3,2.4-6.7s1.4-4.5,2-6.7s1.1-4.2,1.6-6.2c-9.1-13.1-19.8-25-31.8-35.5
	c-12-10.5-24.8-20.1-38.2-28.6c-14.7-9.4-30.2-17.6-45-26.7s-29-19.1-41-32.2c-4.9-5.4-9.2-11.3-12.7-17.7c-3.4-6.4-6.3-13.1-8.4-20
	c-0.3-1-2.4-7.5-4-13.8s-2.7-12.3-0.9-12.5l-14.8,1.3L96.7,449z"/>
<path class="st3" d="M97.1,458.1l13.2,10l13.2,10c-0.6-1.7-1.2-3.5-1.8-5.4c-0.6-1.8-1.2-3.7-1.7-5.7c-0.8-2.8-1.5-5.5-2.2-8.2
	s-1.2-5.2-1.7-7.8l-9.5,3.5L97.1,458.1z"/>
<path class="st4" d="M748.8,674.9H521.2c-0.3,0-0.6-0.1-0.9-0.4c-0.5-0.5-0.5-1.3,0-1.8c0.2-0.2,0.5-0.4,0.9-0.4h227.6
	c0.7,0,1.3,0.6,1.3,1.2c0,0.3-0.1,0.7-0.4,0.9C749.5,674.8,749.2,674.9,748.8,674.9z"/>
<path class="st1" d="M312.4,528.5c-3.2-9.1-5.4-18.5-6.6-28.1c-1.6-13.7-0.7-29.2,8.5-38.9c1.5-1.6,3.1-3.1,4.9-4.3
	c2.6-1.8,5.7-2.9,8.9-3.2c4.5-0.3,9.1,1.4,13.3,4.6c4.6,3.8,8.3,8.5,10.8,13.9c-3.8-15.3-3.2-29.2,0.2-39.9s9.6-18.2,17.1-20.7
	c2.4-0.8,5-1.1,7.5-0.9c3.8,0.2,8.9,1.4,15.1,4.8c1.1-6.5,3-12.8,5.6-18.7c4.3-9.3,11.5-18.4,23.2-17.7c5.4,0.3,10.4,2.6,14.1,6.5
	c3.8,3.9,6.1,8.9,6.5,14.3c0.5,5.4,0,10.9-1.6,16.1c-2,6.3-5.8,12-11,16.2c4.8,3.2,8.8,7.5,11.8,12.4c1.5,2.5,2.5,5.2,3,8.1
	c1.4,9-2.6,19.2-11.1,28.3s-21.5,17-38,21.4c4.7,2.2,9.1,4.9,13.1,8.1c6,4.9,11.7,11.8,11.8,20.3c0,2.8-0.6,5.6-1.7,8.2
	c-0.7,1.7-1.6,3.2-2.6,4.7c-8,11.9-27.3,16.3-45.4,17.6c-12.7,0.8-25.5,0.6-38.1-0.7c-1-2.1-2-4.2-3.1-6.4c-1.1-2.2-2.3-4.4-3.6-6.6
	c-2-3.6-4.1-7-6.2-10.3S314.4,531.3,312.4,528.5z"/>
<path class="st3" d="M564.7,294.2c-0.4,0-0.8-0.2-1.1-0.4c-0.3-0.3-0.4-0.7-0.4-1.1v-8.9c0-0.8,0.7-1.5,1.5-1.5
	c0.4,0,0.8,0.2,1.1,0.4c0.3,0.3,0.4,0.7,0.4,1.1v8.9C566.2,293.5,565.5,294.2,564.7,294.2z"/>
<path class="st3" d="M669.7,341.9c-0.4,0-0.8-0.2-1.1-0.4c-0.3-0.3-0.4-0.7-0.4-1.1v-8.9c0-0.8,0.7-1.5,1.5-1.5
	c0.4,0,0.8,0.2,1.1,0.4c0.3,0.3,0.4,0.7,0.4,1.1v8.9C671.2,341.2,670.5,341.9,669.7,341.9z"/>
<path class="st3" d="M587.5,390.7c-0.4,0-0.8-0.2-1.1-0.4c-0.3-0.3-0.4-0.7-0.4-1.1v-8.9c0-0.8,0.7-1.5,1.5-1.5
	c0.4,0,0.8,0.2,1.1,0.4c0.3,0.3,0.4,0.7,0.4,1.1v8.9C589,390,588.3,390.7,587.5,390.7z"/>
<path class="st7" d="M126.1,377.2c-2.6-5.3-6.6-9.7-11.6-12.8c-10.4-6.5-23.6-6.3-33.8,0.6c-5.2,3.5-9.2,8.4-11.6,14.2
	c-2.6-0.6-5.3-0.9-8-0.7c-4.9,0.1-9.6,1.8-13.4,4.8c-4.7,3.8-7.7,9.2-8.5,15.2c-1,5.9,0.3,12,3.5,17.1c2.9,4.4,7.1,7.7,12.1,9.4
	c2.6,1,5.4,1.6,8.2,1.8c0,3.3,0.5,6.6,1.4,9.7c1.6,5.8,4.9,11,9.5,14.9c5.2,4.2,11.7,6.6,18.4,6.7c7.2,0.2,14.2-1.9,20.2-5.8
	c5.5,2.7,11.7,3.6,17.8,2.5c5.7-1,11-3.9,14.8-8.3c3.8-4.5,5.9-10.3,5.9-16.2c0.1-3-0.3-6.1-1.1-9c4.1-4.1,6.8-9.5,7.5-15.3
	c1.6-11.4-4.7-22.4-15.2-27C137.1,376.8,131.5,376.2,126.1,377.2z"/>
<path class="st6" d="M135.9,411c-0.6,6.7-5,12.4-11.7,16.2c-6.7,3.8-15.6,5.7-25.2,4.9s-18-4.4-23.9-9.3s-9.2-11.4-8.6-18.1
	s5-12.4,11.7-16.2s15.6-5.7,25.2-4.9s18,4.4,23.9,9.3C133.1,397.9,136.5,404.4,135.9,411z"/>
<path class="st0" d="M148.3,708.6c7.3-0.7,13.9-4.4,18.4-10.2c8.5-10.4,7.1-25.7-3.3-34.2c-0.2-0.2-0.5-0.4-0.8-0.6
	c-5.1-4-11.5-6.1-18-5.8c8-2.7,14.5-8.7,17.9-16.4c6.5-13.5,0.7-29.7-12.8-36.2c-0.9-0.4-1.8-0.8-2.7-1.1
	c-7.2-2.7-15.2-2.6-22.3,0.4c1.8-2.3,3.3-4.9,4.4-7.6c4.7-11.1,2.6-24-5.4-33c-2.3-2.7-4.9-5-7.8-6.9c-5.9-2.7-12.6-3.6-19-2.4
	c-14,2.4-24.1,14.7-23.7,28.9c0.1,7.8,3,15.2,8.2,21c-7.9-2.7-16.5-2.1-23.9,1.8c-6.9,3.6-12.1,9.7-13.9,17
	c-1.5,7-0.2,14.4,3.8,20.3c4.1,6.5,10.6,11.2,18.1,13c-6.7-0.7-13.5,0.7-19.4,3.9c-5.4,2.9-9.6,7.7-11.9,13.5
	c-1.4,3.9-1.9,8.1-1.4,12.2c0.5,4.6,2.4,9,5.4,12.6c3.1,3.7,7.2,6.3,11.8,7.6c2.5,0.7,5,1.1,7.6,1.2C44.4,710.6,35,722.4,35,736l0,0
	c0,16.1,13.1,29.2,29.2,29.2H138c16.1,0,29.2-13.1,29.2-29.2l0,0C167.2,723.8,159.6,712.9,148.3,708.6L148.3,708.6z"/>
<path class="st1" d="M112.2,506.4c-8-3.4-16.7-4.6-25.3-3.4c-7.9,1-15.3,4.5-21.1,10.1c-3.6,3.6-6.4,7.8-8.2,12.6
	c-1.2,3.2-2.1,6.5-2.5,9.9c-9.4-1.5-19-0.4-27.7,3.3c-8.4,3.5-15.6,9.4-20.5,17.1c-3.5,5.6-5.7,11.9-6.4,18.5
	c-0.7,6.6-0.1,13.4,1.9,19.8c5.6,18.2,21.5,31.3,40.4,33.3c2.4,0.3,4.8,0.3,7.3,0.2c2.6-0.1,5.2-0.5,7.8-1.1
	c11-2.6,20.8-9.5,27.9-19.1c7.5-10.4,11.8-22.9,12.2-35.8c2.9-0.9,5.7-2.1,8.3-3.6c3.8-2.2,7.2-5,10-8.3c6.7-8,8.4-17.4,8.4-24.9
	c0-4.8-0.7-9.6-2.1-14.2l-5.1-7.1L112.2,506.4z"/>
<path class="st7" d="M385.8,632.7L345,670.4l-40.9,37.7c-2.3,2.2-4.4,4.6-6,7.4c-1.6,2.7-2.9,5.7-3.6,8.8c0,0.2-0.1,0.4-0.1,0.6
	l-0.1,0.6c-0.8,3.7-1,7.6-0.7,11.4c0.6,12,8.7,22.3,20.2,25.8c2.8,0.9,5.7,1.5,8.7,1.6h166.3v-69.7h-44.1c3.6-5.8,6.4-12.1,8.4-18.7
	c2.4-8.2,3.5-16.7,3.2-25.2c-0.2-6-1-12-2.4-17.8H385.8L385.8,632.7z"/>
<path class="st6" d="M206.5,704v35.1c0,2.5,1.2,4.8,3.3,6.1l12.3,8.1l12.3,8.1c0.7,0.4,0.9,1.4,0.4,2.1c-0.3,0.4-0.8,0.7-1.3,0.7
	h-83.3c-3.2,0-5.7-2.6-5.7-5.7V704H206.5L206.5,704z"/>
<path class="st6" d="M236.6,704v35.1c0,2.5,1.2,4.8,3.3,6.1l12.3,8.1l12.3,8.1c0.7,0.4,0.9,1.4,0.4,2.1c-0.3,0.4-0.8,0.7-1.3,0.7
	h-78.9c-3.2,0-5.7-2.6-5.7-5.7V704H236.6z"/>
<path class="st3" d="M236.6,538.1V704h-57.5V538.1c0,0,14.4-0.2,28.8-0.3S236.6,537.7,236.6,538.1z"/>
<path class="st9" d="M446,473.4c0,13.7-11.1,24.8-24.8,24.8c-13.7,0-24.8-11.1-24.8-24.8c0-13.7,11.1-24.8,24.8-24.8
	c6.6,0,12.9,2.6,17.6,7.3C443.3,460.5,446,466.8,446,473.4z"/>
<path class="st9" d="M481.7,495.8c0,16.7-13.5,30.1-30.2,30.1c-16.7,0-30.1-13.5-30.1-30.2c0-16.7,13.5-30.1,30.2-30.1
	c8,0,15.7,3.2,21.3,8.8C478.5,480.1,481.7,487.8,481.7,495.8z"/>
<path class="st9" d="M503.7,529.6c0,15.5-12.6,28.1-28.1,28.1c-15.5,0-28.1-12.6-28.1-28.1c0-15.5,12.6-28.1,28.1-28.1
	c7.5,0,14.6,3,19.9,8.2C500.7,515,503.7,522.2,503.7,529.6z"/>
<path class="st2" d="M382.6,519.7c0,0-8.2,1.1-17,11.2s-18.1,29.3-20.6,65.5l-2.9,39.4l-2.9,39.4l23.2-21.3l23.2-21.3h68l0.8,4.5
	l0.8,4.6l-20.3,22.6L415,687.1l20.3,19.8l20.3,19.8l22.7-21.7l22.7-21.7c6.2-5.9,11.1-13,14.3-20.9c3.3-7.9,4.7-16.4,4.3-24.9
	c0-0.3,0-0.5,0-0.8s0-0.5-0.1-0.8c-0.2-2.3-0.5-4.5-0.9-6.8c-0.4-2.1-0.9-4.1-1.4-6l-7.1-29.2l-7.1-29.2c-2.5-9.8-7-19-13.2-27
	c-10.3-13.3-28-26.2-57.5-24.4l-24.8,3.2L382.6,519.7z"/>
<path class="st5" d="M370.8,525.8l25.2,19.4l9.4,7.2l0,0l-2.9-9.3c-1.8-6-4.5-14.5-7.7-25l-6.2,0.8l-6.2,0.8c-0.2,0-0.5,0.1-0.9,0.2
	s-0.7,0.2-1.1,0.3l-0.9,0.3l-0.8,0.3c-0.7,0.3-1.4,0.6-1.9,0.8s-0.9,0.4-1,0.5l-0.9,0.5c-0.4,0.2-0.9,0.5-1.4,0.9s-0.9,0.6-1.4,1
	S371.4,525.4,370.8,525.8z"/>
<path class="st5" d="M405.5,552.4l8.5-18.9l8.5-18.9c1.9-0.4,3.7-0.6,5.3-0.8s3.2-0.3,4.6-0.4c2.5-0.2,4.7-0.2,6.8-0.2
	s3.8,0.2,5.4,0.3c2.2,0.2,4.1,0.5,5.6,0.7s2.5,0.4,2.9,0.5c1.5,0.3,2.8,0.6,4.1,1s2.4,0.7,3.3,1L433,534.5L405.5,552.4z"/>
<path class="st3" d="M144.7,538.1V704h61.6l-0.1-83l-0.1-83L144.7,538.1L144.7,538.1z"/>
<path class="st5" d="M405.5,552.4c1,5.8,2.1,11.5,3.1,17.3l3.1,17.3c0.2,1.3,1.5,2.2,2.8,2c0.2,0,0.3-0.1,0.4-0.1l4.9-1.9l4.9-1.9
	c1.3-0.5,1.9-1.9,1.4-3.2c-0.1-0.2-0.2-0.4-0.3-0.5l-10.2-14.5L405.5,552.4z"/>
<path class="st5" d="M405.5,552.4l-0.8,17.3l-0.8,17.3c0,0.7-0.4,1.3-1,1.7c-0.6,0.4-1.3,0.4-1.9,0.2l-5.3-2.2l-5.3-2.2
	c-1.1-0.4-1.6-1.7-1.1-2.7c0-0.1,0.1-0.2,0.1-0.3l8.1-14.5L405.5,552.4z"/>
<path class="st8" d="M432.6,497.4c0,16-13,29-29,29c-16,0-29-13-29-29c0-16,13-29,29-29c7.7,0,15.1,3.1,20.5,8.5
	C429.5,482.3,432.6,489.7,432.6,497.4z"/>
<path class="st1" d="M415,687.1L415,687.1c0.9-0.9,0,0-1.3,1.3l-3.9,4c0,0-1,0.9-2.6,2.5s-4,3.6-6.9,5.8
	c-5.8,4.7-11.7,7.5-17.8,10.7s-12.4,6.6-19.1,12.4c-1.1,1-2.5,2.2-4.1,3.8c-1.9,1.9-3.6,3.8-5.3,5.9c-1.3,1.5-2.3,3.2-2.9,5
	c-0.5,1.2-0.4,2.6,0.3,3.7c0.2,0.2,0.3,0.4,0.5,0.5c0.3,0.2,0.6,0.3,0.9,0.5c-0.9,1.1-1.3,2.5-1.3,3.8c0,1.2,0.5,2.4,1.4,3.3
	c0.8,0.7,1.9,1.2,3,1.2c0.6,0,1.2,0,1.8-0.2c0.4,1.4,1.3,2.6,2.5,3.5c1.9,1.4,5.2,2.1,10.6-0.8c3.3-1.8,6.7-3.4,10.3-4.7
	c6.1-2.4,14.2-4.8,22.2-4.9c1,0.1,1.9,0.4,2.8,0.9c1.1,0.8,1.6,2.3-0.8,5c-1.2,1.4-2.4,2.8-3.5,4.2s-2.4,2.8-3.5,4.2l-0.7,0.9
	l-0.7,0.9c-1.1,1.2-1.7,2.8-1.7,4.5c0,1.3,0.5,2.6,1.5,3.4c0.4,0.3,0.8,0.5,1.2,0.5c0.5,0.1,1,0.1,1.5,0.1c0.5-0.1,1-0.2,1.5-0.4
	c0.5-0.2,0.9-0.5,1.4-0.8c4.6-3.1,9.3-6.4,14-9.9c4.8-3.5,9.6-7.1,14.5-10.9c4.4-3.4,8.7-6.9,12.8-10.3s8.1-6.8,11.9-10.2
	l-20.3-19.8L415,687.1z"/>
<path class="st4" d="M357.8,752.5c-0.2,0-0.4-0.1-0.6-0.2c-0.2-0.1-0.4-0.3-0.5-0.5c-0.2-0.3-0.2-0.7-0.1-1c0.1-0.3,0.3-0.6,0.6-0.8
	c0.5-0.3,5.9-3.5,12.9-7.2s15.5-7.8,22.1-9.8c0.3-0.1,0.7-0.1,1,0.1c0.3,0.2,0.5,0.4,0.6,0.7c0.1,0.3,0.1,0.7-0.1,1
	c-0.2,0.3-0.4,0.5-0.7,0.6c-6.4,2-15,6.1-21.9,9.8s-12.4,6.9-12.5,7c-0.1,0.1-0.2,0.1-0.3,0.1C358.1,752.5,357.9,752.5,357.8,752.5z
	"/>
<path class="st4" d="M352.9,744.3c-0.4,0-0.8-0.2-1.1-0.6c-0.2-0.3-0.2-0.6-0.1-1c0.1-0.3,0.3-0.6,0.6-0.8c0.5-0.3,6-3.5,12.7-7.1
	s14.6-7.4,19.7-8.8c0.3-0.1,0.7,0,1,0.1c0.6,0.3,0.8,1.1,0.5,1.7c0,0,0,0,0,0c-0.2,0.3-0.4,0.5-0.8,0.6c-5,1.3-12.9,5.2-19.6,8.7
	s-12.2,6.8-12.3,6.8c-0.1,0.1-0.2,0.1-0.3,0.1C353.1,744.3,353,744.3,352.9,744.3z"/>
<path class="st4" d="M354,734.7c-0.2,0-0.5-0.1-0.6-0.2c-0.2-0.1-0.4-0.3-0.5-0.5c-0.3-0.6-0.1-1.4,0.6-1.7c0,0,0,0,0,0
	c0.4-0.2,5.2-2.6,10.7-5.2s11.6-5.4,14.6-6.4c0.3-0.1,0.7-0.1,1,0.1c0.3,0.1,0.5,0.4,0.6,0.7c0.1,0.3,0.1,0.7-0.1,1
	c-0.2,0.3-0.4,0.5-0.7,0.6c-2.9,0.9-9.1,3.8-14.6,6.4s-10.3,5-10.4,5.1l-0.3,0.1C354.2,734.7,354.1,734.7,354,734.7z"/>
<path class="st4" d="M389.3,505.7c0,0.5-0.2,1-0.5,1.3c-0.7,0.7-1.9,0.7-2.7,0c0,0,0,0,0,0c-0.7-0.7-0.7-1.9,0-2.7
	c0.7-0.7,1.9-0.7,2.7,0c0,0,0,0,0,0C389.1,504.7,389.3,505.2,389.3,505.7z"/>
<path class="st4" d="M404.2,503.4c0,1-0.8,1.9-1.9,1.9c0,0,0,0,0,0c-0.5,0-1-0.2-1.4-0.5c-0.7-0.7-0.7-1.9,0-2.7
	c0.7-0.7,1.9-0.7,2.7,0C404,502.4,404.2,502.9,404.2,503.4L404.2,503.4z"/>
<path class="st9" d="M396.8,517.8c-1.6,0-3.1-0.4-4.5-1.1c-0.7-0.3-1.3-0.7-1.9-1.2c-0.5-0.4-0.6-1.2-0.2-1.8
	c0.4-0.5,1.2-0.6,1.8-0.2c0,0,0.1,0,0.1,0.1c0.6,0.5,1.3,0.9,2,1.2c2.8,1.2,6,0.4,7.9-1.9c0.5-0.6,0.8-1.2,1.1-1.8
	c0.1-0.3,0.4-0.5,0.7-0.7c0.3-0.1,0.6-0.1,1,0c0.3,0.1,0.5,0.4,0.7,0.7c0.1,0.3,0.1,0.7,0,1c-0.4,0.9-1,1.8-1.6,2.6
	c-1.1,1.3-2.5,2.3-4.1,2.8c-0.5,0.2-0.9,0.3-1.4,0.3C397.6,517.8,397.2,517.8,396.8,517.8z"/>
<path class="st0" d="M269.5,374.8c0.9,7.4-3.9,14.9-12.4,20.9c-8.6,6-20.8,10.7-34.8,12.4s-27,0.4-36.8-3.3s-16.3-9.7-17.2-17.1
	s3.9-14.9,12.4-20.9s20.8-10.6,34.8-12.4s27-0.4,36.8,3.3C262.1,361.4,268.6,367.4,269.5,374.8z"/>
<path class="st5" d="M196.6,412.8c-9.3-0.4-18.5,1.3-27.1,4.8c-13.9,5.8-28.5,18.5-31.3,46l3.2,37.3l3.2,37.2h92l14.3-45.3
	l14.2-45.4c0,0-1.2-8.6-10.4-17.3C245.6,421.6,228.4,412.9,196.6,412.8z"/>
<path class="st4" d="M248,765.4c-0.1,0-0.3,0-0.4-0.1c-0.1,0-0.3-0.1-0.4-0.2c-0.3-0.2-0.4-0.5-0.4-0.8c0-0.3,0.1-0.7,0.3-0.9
	c0.3-0.4,0.5-0.8,0.5-1.3c0-0.2,0-0.3-0.1-0.5c0-0.1-0.1-0.2-0.2-0.3l-18.9-7.4l-18.9-7.4c-0.4-0.1-0.9-0.3-1.2-0.6
	c-0.4-0.2-0.8-0.5-1.1-0.8c-1-1-1.7-2.3-1.8-3.7c-0.2-2-0.3-4.1-0.2-6.1v-1.9c0-0.7,0-1.3,0-2.1c0-0.9,0-1.8,0-2.5s0-1.3,0-1.8
	V539.5c0-0.7,0.5-1.2,1.2-1.3c0.3,0,0.7,0.1,0.9,0.4c0.2,0.2,0.4,0.5,0.4,0.9V727c0,0.5,0,1,0,1.8s0,1.6,0,2.5c0,0.7,0,1.4,0,2.1
	v1.9c-0.1,1.8,0,3.6,0.2,5.4c0,0.9,0.4,1.8,1.1,2.5c0.2,0.2,0.4,0.4,0.7,0.5c0.3,0.1,0.5,0.3,0.8,0.3l19.2,7.5l19.2,7.5l0.1,0.1
	l0.1,0.1c0.7,0.7,1.1,1.7,1.1,2.7c0,1.1-0.3,2.2-1,3c-0.1,0.1-0.3,0.2-0.4,0.3C248.3,765.3,248.1,765.4,248,765.4z"/>
<path class="st9" d="M203,539.4h-0.1c-0.7-0.1-1.2-0.7-1.1-1.4c0,0,0,0,0,0l6.6-56.9l6.6-56.9c0-0.3,0.2-0.6,0.5-0.8
	c0.3-0.2,0.6-0.3,0.9-0.2c0.3,0,0.6,0.2,0.8,0.5c0.2,0.3,0.3,0.6,0.3,0.9l-6.6,57l-6.6,56.9c0,0.3-0.2,0.6-0.4,0.8
	C203.6,539.3,203.3,539.4,203,539.4z"/>
<path class="st3" d="M377.3,373.7c0.3,0.1,0.6,0.2,0.9,0.3s0.6,0.2,0.9,0.3c1.7,0.5,3.4,0.7,5.1,0.7c2.7,0,5.4-0.9,7.5-2.6
	c2-1.8,3.4-4.2,3.9-6.9c0.5-2.7,0.2-5.5-0.9-8c-1-2.2-2.6-4.2-4.5-5.6c-2-1.4-4.4-2.3-6.9-2.5c1.8-0.1,3.6-0.5,5.4-1.1
	c2.2-0.8,4.2-2.3,5.7-4.1c2-2.5,3.1-5.7,3.2-9c0-3.4-1-6.8-3-9.6c-1.1-1.3-2.3-2.4-3.6-3.4c-2.5-1.8-5.4-2.7-8.4-2.6
	c-3.6,0.2-6.9,1.7-9.5,4.3c-2.8,2.8-4.6,6.4-5.2,10.4c-1.3-3.2-3.6-5.8-6.5-7.5c-2.8-1.6-6.1-2.2-9.2-1.5c-2.5,0.5-4.7,1.7-6.5,3.5
	c-1.8,1.8-3.1,4.1-3.7,6.6c-0.7,3.2-0.2,6.6,1.4,9.4l-0.5-0.4l-0.5-0.4c-5.6-4.7-13.9-4-18.6,1.5c0,0,0,0,0,0l0,0
	c-4.7,5.6-4,13.9,1.5,18.6c0,0,0,0,0,0l5,4.3l5.1,4.3l-12.7,14.9L310,402.6l7.3,6.2l7.3,6.2l12.7-14.9l12.7-14.9l5,4.3l5.1,4.3
	c5.6,4.7,13.9,4.1,18.6-1.5c0,0,0,0,0,0l0,0C383.2,386.7,382.7,378.5,377.3,373.7L377.3,373.7z"/>
<path class="st6" d="M239.1,457l16.7-25.6l16.7-25.6c4.4-6.9,10.6-12.6,17.9-16.4c12.6-6.7,27.9-5.3,39,3.7c2.5,1.9,4.7,4.1,6.7,6.5
	c1.5,2,2.9,4.2,4,6.5c1.9,3.9,3,8.1,3.3,12.4c0.3,6.3-1.1,12.6-3.9,18.3c-2,4.3-4.9,8.1-8.3,11.4l-65.8,58.1l-65.9,58.1
	c-4.1,3.6-10.2,3.7-14.4,0.2l-3.8-3.1l-3.8-3.1c-4.5-3.8-5.4-10.4-1.9-15.1l31.8-43.1C217.9,485.8,228.5,471.4,239.1,457z"/>
<path class="st4" d="M286.6,484.6c-0.2,0-0.3,0-0.5-0.1c-0.2-0.1-0.3-0.2-0.4-0.3L275,473.6l-10.7-10.7c-0.2-0.2-0.4-0.5-0.4-0.9
	c0-0.3,0.1-0.7,0.4-0.9c0.2-0.2,0.6-0.4,0.9-0.4c0.3,0,0.7,0.1,0.9,0.4l10.7,10.7l10.7,10.7c0.2,0.2,0.4,0.5,0.4,0.9
	c0,0.3-0.1,0.7-0.4,0.9c-0.1,0.1-0.3,0.2-0.4,0.3C286.9,484.6,286.7,484.6,286.6,484.6z"/>
<path class="st4" d="M319.9,459.4c-0.2,0-0.3,0-0.5-0.1c-0.2-0.1-0.3-0.2-0.4-0.3l-12.7-12.5l-12.7-12.5c-0.2-0.2-0.4-0.5-0.4-0.9
	c0-0.7,0.5-1.3,1.2-1.3c0,0,0,0,0,0c0.3,0,0.7,0.1,0.9,0.4l12.7,12.5l12.7,12.5c0.5,0.5,0.5,1.3,0,1.8c0,0,0,0,0,0
	c-0.1,0.1-0.3,0.2-0.4,0.3C320.2,459.3,320.1,459.4,319.9,459.4z"/>
<path class="st5" d="M138.2,463.6l-3.5,20.9l-3.5,20.9c-0.8,5-0.7,10.1,0.4,15.1c1.8,7.8,6.8,15.9,19.5,17.6H203v-41l-12.5-0.2
	l-12.5-0.2l2.2-13.7l2.1-13.7l-22-2.9L138.2,463.6z"/>
<path class="st9" d="M189,539.4c-0.3,0-0.6-0.1-0.9-0.4c-0.2-0.2-0.4-0.5-0.4-0.9v-41.2c0-0.3,0.1-0.6,0.4-0.9
	c0.5-0.5,1.3-0.5,1.8,0c0,0,0,0,0,0c0.2,0.2,0.4,0.6,0.4,0.9v41.2C190.3,538.8,189.7,539.4,189,539.4L189,539.4z"/>
<path class="st8" d="M203,497.1c2.4,0.2,4.8,0,7.1-0.5c5.3-1.2,10-4.1,13.4-8.4c1-1.2,2.1-2.2,3.4-3.1c2-1.4,4.4-2.3,6.4-0.6
	c0.8,0.7,1.3,1.7,1.5,2.8c0.1,1.1-0.1,2.2-0.7,3.2l-3.7,6l-3.7,6c-0.4,1.2-0.6,2.5-0.4,3.7c0.3,1.9,1.5,3.8,5.5,3.9h21.4
	c1.3-0.1,2.6,0,3.9,0.5c0.9,0.3,1.6,1,2,1.9c0.1,0.2,0.1,0.4,0.1,0.7c0,0.3-0.1,0.7-0.2,1c0.3,0.2,0.6,0.5,0.9,0.7
	c0.5,0.5,0.8,1.2,0.8,1.9c0,0.7-0.2,1.4-0.6,2c-0.4,0.6-1.1,1.1-1.8,1.3c0.1,0.2,0.1,0.5,0.2,0.8c0,0.2,0,0.4,0,0.6
	c-0.2,1-0.7,1.9-1.5,2.5c-1,0.8-2.2,1.3-3.4,1.6c-4.9,2.2-10,4.1-15.2,5.7c-11.4,3.7-23.2,6-35.1,6.8L203,497.1L203,497.1z"/>
<path class="st9" d="M235.1,517.5c-0.3,0-0.6-0.1-0.8-0.3c-0.2-0.2-0.4-0.5-0.4-0.8c-0.1-0.7,0.5-1.3,1.1-1.4l11.9-1.1l11.9-1.1
	c0.7-0.1,1.3,0.4,1.4,1.1c0,0,0,0,0,0c0.1,0.7-0.4,1.3-1.1,1.4l-11.9,1l-11.9,1.1L235.1,517.5L235.1,517.5z"/>
<path class="st9" d="M235.6,524.3c-0.3,0-0.6-0.1-0.8-0.3c-0.2-0.2-0.4-0.5-0.4-0.8c-0.1-0.7,0.4-1.3,1.1-1.4c0,0,0,0,0,0l11.2-1.4
	l11.3-1.5c0.3,0,0.7,0.1,0.9,0.2c0.3,0.2,0.4,0.5,0.5,0.8c0,0.3,0,0.7-0.2,0.9c-0.2,0.3-0.5,0.4-0.8,0.5l-11.2,1.5l-11.2,1.5
	L235.6,524.3L235.6,524.3z"/>
<path class="st8" d="M295.6,473.5h-35.3c-0.5,0-1.1,0.1-1.6,0.2c-0.5,0.1-1.1,0.3-1.5,0.6c-0.8,0.5-1.6,1.1-2.1,1.9
	c-0.7,1.2-1,2.5-0.8,3.9c-1.1-0.1-2.3,0.2-3.2,0.9c-1.7,1.3-2.2,3.7-1,5.5c0.5,0.8,1.3,1.5,2.3,1.8c-0.2,1.1-0.1,2.3,0.2,3.4
	c0.5,1.7,1.9,3.5,5.1,3.7c0.2,1.2,0.5,2.3,1.1,3.4c1,2.1,3.2,3.4,5.6,3.3h30.2c5.6,0,11.1-1.2,16.1-3.6c4.9-2.5,9-6.4,10.7-11.9
	c0.8-2.6,1.1-5.4,1-8.1c-0.1-2.7-0.8-5.4-2-7.9c-1.6-3.1-4.3-5.6-7.5-7c-3.2-1.4-6.6-2.4-10-3c-1.8-0.4-3.6-0.8-5.4-1.2
	s-3.6-0.8-5.5-1c-1-0.1-2-0.2-3-0.2c-1,0-2,0.1-3,0.3c-0.9,0.2-1.6,0.8-1.9,1.7c-0.3,0.8-0.4,1.7-0.1,2.6c0.4,1.1,1.2,2.1,2.2,2.7
	c1,0.6,2.1,1.1,3.3,1.5c1.4,0.5,2.8,0.9,4.3,1.3s2.9,0.7,4.4,1c0.7,0.1,1.4,0.4,2.1,0.8c0.7,0.4,1,1.2,0.7,1.9
	c-0.3,0.9-1.2,1.3-2.2,1.5C297.6,473.5,296.6,473.5,295.6,473.5z"/>
<path class="st9" d="M284,496.6h-26.2c-0.7,0-1.2-0.5-1.2-1.2c0,0,0,0,0,0c0-0.7,0.6-1.2,1.2-1.2H284c0.3,0,0.6,0.1,0.9,0.4
	c0.2,0.2,0.4,0.5,0.4,0.9c0,0.3-0.1,0.7-0.4,0.9C284.6,496.5,284.3,496.6,284,496.6z"/>
<path class="st9" d="M283.4,489.5h-31c-0.7,0-1.3-0.6-1.3-1.2c0-0.3,0.1-0.7,0.4-0.9c0.2-0.2,0.6-0.4,0.9-0.4h31
	c0.7,0,1.3,0.6,1.3,1.2c0,0.3-0.1,0.6-0.4,0.9C284,489.4,283.7,489.5,283.4,489.5z"/>
<path class="st9" d="M282.6,481.3h-28.4c-0.3,0-0.7-0.1-0.9-0.4c-0.5-0.5-0.5-1.3,0-1.8c0.2-0.2,0.6-0.4,0.9-0.4h28.4
	c0.3,0,0.6,0.1,0.9,0.4c0.5,0.5,0.5,1.3,0,1.8C283.2,481.2,282.9,481.3,282.6,481.3z"/>
<polygon class="st6" points="196.6,412.8 194.6,424.3 192.7,435.7 204.4,430 216.1,424.3 206.4,418.5 "/>
<polygon class="st6" points="216.1,424.3 225.4,421.4 234.7,418.5 235.4,430.1 236.1,441.7 226.1,433 "/>
<path class="st6" d="M488.8,764.2h35.1c2.5,0,4.8,1.2,6.1,3.3l8.1,12.3l8.1,12.3c0.4,0.7,1.3,1,2,0.6c0.5-0.3,0.8-0.8,0.8-1.3v-90.5
	c0-3.2-2.6-5.7-5.7-5.7h-54.4V764.2L488.8,764.2z"/>
<path class="st9" d="M401,497.1c5.7,2.9,11.9,4.6,18.3,4.9c4.4,0.2,8.9-0.2,13.2-1.2c0.1-0.6,0.1-1.1,0.2-1.7s0-1.2,0-1.7
	c0-16-13-29-29-29c-8.3,0-16.1,3.5-21.6,9.7c1.9,3.6,4.2,6.9,7,9.9C392.4,491.7,396.5,494.8,401,497.1z"/>
<path class="st9" d="M203,498.4L203,498.4l-13.3-0.2l-13.3-0.2l2.3-14.4l2.3-14.4c0-0.3,0.2-0.6,0.5-0.8c0.3-0.2,0.6-0.3,0.9-0.2
	c0.3,0.1,0.6,0.2,0.8,0.5c0.2,0.3,0.3,0.6,0.2,0.9l-2.1,13l-2.1,13l11.8,0.1l11.8,0.1c0.7,0,1.2,0.6,1.2,1.2c0,0,0,0,0,0
	c0,0.3-0.1,0.6-0.4,0.9C203.7,498.3,203.4,498.4,203,498.4z"/>
<path class="st4" d="M221,451.1l-0.3-0.1l-0.3-0.1c-4-1.7-7.7-3.9-11-6.7c-8.7-7-14.5-17-16.1-28.1c-0.6-3.7-0.7-7.4-0.3-11.1
	c0-0.3,0.2-0.6,0.5-0.9c0.3-0.2,0.6-0.3,0.9-0.3c0.7,0.1,1.2,0.7,1.1,1.4c-0.3,3.5-0.2,7.1,0.3,10.5c1.6,10.3,6.8,19.6,14.8,26.2
	c3.1,2.6,6.6,4.7,10.3,6.4c3.8-2.4,7.3-5.3,10.3-8.6c7.2-7.7,11.4-17.7,11.9-28.2c0.2-3.8-0.1-7.6-0.9-11.3c-0.1-0.3,0-0.7,0.2-0.9
	c0.2-0.3,0.5-0.5,0.8-0.5c0.3-0.1,0.7,0,0.9,0.2c0.3,0.2,0.5,0.5,0.5,0.8c0.8,3.9,1.1,7.9,0.9,12c-0.2,4-0.8,7.9-2,11.7
	c-2.2,6.9-5.9,13.3-10.9,18.5c-3.2,3.4-6.9,6.4-11,8.9l-0.3,0.2L221,451.1z"/>
<path class="st4" d="M215.1,461.5c-0.1,0-0.2,0-0.3,0c-0.1,0-0.2-0.1-0.3-0.1c-0.3-0.2-0.5-0.4-0.6-0.8c-0.1-0.3,0-0.7,0.1-1
	l2.9-4.9l2.9-4.8c0.1-0.2,0.3-0.4,0.5-0.5c0.2-0.1,0.4-0.2,0.7-0.2c0.2,0,0.5,0,0.7,0.1c0.2,0.1,0.4,0.2,0.6,0.4l3.9,4.4l3.9,4.4
	c0.2,0.3,0.3,0.6,0.3,0.9c0,0.7-0.6,1.2-1.3,1.2c-0.3,0-0.6-0.2-0.9-0.4l-3.5-3.9l-3.5-3.9l-2.5,4.3l-2.5,4.3
	c-0.1,0.2-0.3,0.3-0.5,0.5C215.5,461.4,215.3,461.5,215.1,461.5z"/>
<path class="st8" d="M245,397.3c0,14.9-12.1,27-27,27c-14.9,0-27-12.1-27-27s12.1-27,27-27c7.2,0,14,2.8,19.1,7.9
	C242.1,383.3,245,390.1,245,397.3z"/>
<path class="st4" d="M213,401.1c0,1-0.9,1.9-1.9,1.9c-0.5,0-1-0.2-1.3-0.6c-0.4-0.4-0.6-0.8-0.5-1.3c0-1,0.8-1.9,1.9-1.9
	c0,0,0,0,0,0C212.1,399.3,212.9,400.1,213,401.1C213,401.1,213,401.1,213,401.1L213,401.1z"/>
<path class="st4" d="M229,399.3c0,1-0.9,1.9-1.9,1.9c-0.5,0-1-0.2-1.3-0.5c-0.7-0.7-0.7-1.9,0-2.7c0,0,0,0,0,0
	c0.4-0.4,0.8-0.6,1.3-0.6c0.5,0,1,0.2,1.3,0.6C228.8,398.3,229,398.8,229,399.3z"/>
<path class="st9" d="M219.8,413.7c-1.7,0-3.4-0.5-4.8-1.3c-0.7-0.4-1.4-0.9-2-1.4c-0.2-0.2-0.4-0.5-0.4-0.9c0-0.3,0.1-0.7,0.4-0.9
	c0.2-0.2,0.5-0.4,0.9-0.4c0.3,0,0.7,0.1,0.9,0.3c0.6,0.5,1.3,1,2,1.3c2.7,1.4,6,0.8,8-1.4c0.5-0.5,0.9-1.1,1.3-1.8
	c0.2-0.3,0.4-0.5,0.7-0.6c0.3-0.1,0.7-0.1,1,0.1c0.3,0.2,0.5,0.4,0.6,0.7c0.1,0.3,0.1,0.7-0.1,1c-0.5,0.9-1.1,1.7-1.8,2.5
	c-1.2,1.2-2.7,2.1-4.3,2.5c-0.4,0.1-0.8,0.2-1.1,0.2C220.6,413.6,220.2,413.7,219.8,413.7z"/>
<path class="st9" d="M207.4,396.5c3.2-0.8,6.2-2.5,8.6-4.8c1.4-1.3,2.5-2.7,3.5-4.3c1.2,0.3,2.5,0.4,3.7,0.4c2.2-0.1,4.4-0.7,6.3-2
	c1.5-1.1,2.8-2.5,3.6-4.1c0.9-1.7,1.4-3.5,1.5-5.4c-11.5-9.2-28.3-7.4-37.5,4.1c-3.1,3.8-5,8.4-5.6,13.3c2,1.3,4.2,2.2,6.5,2.8
	C201.1,397.3,204.3,397.3,207.4,396.5z"/>
<path class="st4" d="M446,733c-0.2,0-0.3,0-0.5-0.1c-0.2-0.1-0.3-0.2-0.4-0.3l-18.6-18.3L408,696c-0.2-0.2-0.4-0.5-0.4-0.9
	c0-0.3,0.1-0.7,0.4-0.9c0.2-0.2,0.5-0.4,0.9-0.4c0.3,0,0.7,0.1,0.9,0.4l18.5,18.3l18.5,18.3c0.2,0.2,0.4,0.5,0.4,0.9
	c0,0.3-0.1,0.7-0.4,0.9c-0.1,0.1-0.3,0.2-0.4,0.3C446.2,733,446.1,733,446,733z"/>
<path class="st3" d="M454.2,635.9c-0.3,0-0.6-0.1-0.8-0.3c-0.2-0.2-0.4-0.4-0.4-0.7l-4.1-23.2l-4.1-23.3c-0.1-0.3,0-0.7,0.2-0.9
	c0.2-0.3,0.5-0.5,0.8-0.5c0.3-0.1,0.7,0,0.9,0.2c0.3,0.2,0.5,0.5,0.5,0.8l4.1,23.2l4.1,23.2c0.1,0.7-0.3,1.3-1,1.5L454.2,635.9
	L454.2,635.9z"/>
<path class="st3" d="M384.1,634.1c-3.3,0-6.4-1.2-8.7-3.6c-5.3-5.2-7.2-15.3-7.7-24.3c-0.3-5.8-0.2-11.6,0.3-17.4
	c0-0.3,0.2-0.6,0.5-0.8c0.3-0.2,0.6-0.3,0.9-0.3c0.3,0,0.6,0.2,0.8,0.5c0.2,0.3,0.3,0.6,0.3,0.9c-0.5,5.4-0.6,10.9-0.3,16.3
	c0.5,8.7,2.1,18.5,7,23.3c1.1,1.1,2.4,1.9,3.9,2.4c1.5,0.5,3.1,0.6,4.7,0.4c0.7-0.1,1.3,0.4,1.4,1.1c0,0,0,0,0,0
	c0,0.3,0,0.7-0.2,0.9c-0.2,0.3-0.5,0.4-0.8,0.5c-0.3,0-0.6,0.1-0.9,0.1L384.1,634.1z"/>
<path class="st0" d="M383,665.6l1-0.4c0.4-0.1,0.7-0.3,1.1-0.5c1.8-0.9,3.6-2,5.1-3.3c2.5-2.1,4.1-4.9,4.7-8.1
	c0.5-3.2-0.2-6.4-1.8-9.2c-1.6-2.8-4-5.1-6.9-6.5c-2.6-1.3-5.5-1.8-8.3-1.5c-2.9,0.3-5.7,1.3-8.1,3c1.6-1.5,2.9-3.2,3.9-5.1
	c1.4-2.5,2-5.2,2-8c-0.1-3.8-1.5-7.5-4-10.5c-2.6-3.1-6.1-5.3-10-6.3c-1.9-0.3-3.9-0.4-5.9-0.2c-3.5,0.3-6.9,1.7-9.6,4
	c-3,2.9-4.9,6.8-5.2,11c-0.4,4.7,0.8,9.4,3.3,13.4c-3.6-1.9-7.6-2.5-11.6-1.8c-3.7,0.7-7.1,2.7-9.5,5.7c-1.8,2.3-2.9,5.2-3.1,8.1
	c-0.3,3.1,0.3,6.1,1.8,8.8c0.9,1.7,2.1,3.2,3.6,4.5c1.4,1.3,3.1,2.2,4.9,2.9h-1.6c-8.6,0-15.6,7-15.6,15.6l0,0l0,0
	c0,8.6,7,15.6,15.6,15.6c0,0,0,0,0,0h15.6v67.4H367v-67.4h15.6c8.6,0,15.6-7,15.6-15.6c0,0,0,0,0,0l0,0
	C398.2,672.7,391.5,665.8,383,665.6L383,665.6z"/>
<path class="st3" d="M549,393.7h-28.6c-0.4,0-0.8-0.2-1.1-0.4c-0.3-0.3-0.4-0.7-0.4-1.1c0-0.4,0.2-0.8,0.4-1.1
	c0.3-0.3,0.7-0.4,1.1-0.4H549c0.8,0,1.5,0.7,1.5,1.5l0,0c0,0.4-0.2,0.8-0.4,1.1C549.7,393.5,549.3,393.7,549,393.7z"/>
<path class="st5" d="M612.3,415c0,13.7-11.1,24.8-24.8,24.8c-13.7,0-24.8-11.1-24.8-24.8c0-13.7,11.1-24.8,24.8-24.8
	c6.6,0,12.9,2.6,17.5,7.3C609.7,402.1,612.3,408.5,612.3,415z"/>
<path class="st5" d="M694.5,365.2c0,13.7-11.1,24.8-24.8,24.8c-13.7,0-24.8-11.1-24.8-24.8s11.1-24.8,24.8-24.8
	c6.6,0,12.9,2.6,17.5,7.3C691.9,352.3,694.5,358.6,694.5,365.2z"/>
<path class="st5" d="M589.5,317.5c0,13.7-11.1,24.8-24.8,24.8c-13.7,0-24.8-11.1-24.8-24.8s11.1-24.8,24.8-24.8
	c6.6,0,12.9,2.6,17.5,7.3C586.9,304.6,589.5,310.9,589.5,317.5z"/>
<path class="st0" d="M525.2,665.6l1-0.4c0.3-0.1,0.7-0.3,1.1-0.5c1.8-0.9,3.5-2,5.1-3.3c2.5-2.1,4.2-4.9,4.7-8.1
	c0.5-3.2-0.2-6.4-1.8-9.2c-1.6-2.8-4-5.1-6.9-6.5c-2.6-1.3-5.5-1.8-8.3-1.5c-2.9,0.3-5.7,1.3-8.1,3c1.6-1.5,2.9-3.2,3.9-5.1
	c1.4-2.5,2-5.2,2-8c-0.1-3.8-1.5-7.5-4-10.5c-2.6-3.1-6.1-5.3-10-6.3c-1.9-0.3-3.9-0.4-5.9-0.2c-3.5,0.3-6.9,1.7-9.6,4
	c-3,2.9-4.9,6.8-5.2,11c-0.4,4.7,0.8,9.4,3.3,13.3c-3.6-1.9-7.6-2.5-11.6-1.8c-3.7,0.7-7.1,2.7-9.5,5.7c-1.8,2.3-2.9,5.2-3.2,8.1
	c-0.3,3.1,0.3,6.1,1.8,8.8c0.9,1.7,2.1,3.2,3.6,4.5c1.4,1.2,3.1,2.2,4.9,2.9H471c-8.6,0-15.6,7-15.6,15.6l0,0
	c0,8.6,7,15.6,15.6,15.6h15.6v67.4h22.5v-67.4h15.6c8.6,0,15.6-7,15.6-15.6l0,0C540.4,672.7,533.6,665.8,525.2,665.6z"/>
<path class="st0" d="M254.1,665.6l1-0.4c0.4-0.1,0.7-0.3,1.1-0.5c1.8-0.9,3.5-2,5.1-3.3c2.5-2.1,4.2-4.9,4.7-8.1
	c0.5-3.2-0.2-6.4-1.8-9.2c-1.6-2.8-4-5.1-6.9-6.5c-2.6-1.3-5.5-1.8-8.3-1.5c-2.9,0.3-5.7,1.3-8.1,3c1.6-1.5,2.9-3.2,4-5.1
	c1.4-2.5,2-5.2,2-8c-0.1-3.8-1.5-7.5-4-10.5c-2.6-3.1-6.1-5.3-10-6.3c-1.9-0.3-3.9-0.4-5.9-0.2c-3.5,0.3-6.9,1.7-9.6,4
	c-3,2.9-4.9,6.8-5.2,11c-0.4,4.7,0.8,9.4,3.3,13.3c-3.6-1.9-7.6-2.5-11.6-1.8c-3.7,0.7-7.1,2.7-9.5,5.7c-1.8,2.3-2.9,5.2-3.2,8.1
	c-0.3,3.1,0.3,6.1,1.8,8.8c0.9,1.7,2.1,3.2,3.6,4.5c1.4,1.2,3.1,2.2,4.9,2.9H200c-8.6,0-15.6,7-15.6,15.6l0,0
	c0,8.6,7,15.6,15.6,15.6h15.6v67.4h22.5v-67.4h15.6c8.6,0,15.6-7,15.6-15.6l0,0C269.3,672.7,262.5,665.8,254.1,665.6L254.1,665.6z"
	/>
<path class="st4" d="M649.6,621.1h-71.1c-0.3,0-0.6-0.1-0.9-0.4c-0.5-0.5-0.5-1.3,0-1.7c0,0,0,0,0,0c0.2-0.2,0.5-0.4,0.9-0.4h71.1
	c0.3,0,0.6,0.1,0.9,0.4c0.5,0.5,0.5,1.3,0,1.7c0,0,0,0,0,0C650.2,620.9,649.9,621.1,649.6,621.1z"/>
<path class="st3" d="M14,613.6c-0.2,0-0.3,0-0.5-0.1c-0.2-0.1-0.3-0.2-0.4-0.3c-0.2-0.2-0.3-0.6-0.3-0.9c0-0.3,0.2-0.6,0.4-0.9
	l49.5-46.1l49.5-46c0.2-0.2,0.6-0.3,0.9-0.3c0.7,0,1.2,0.6,1.2,1.3c0,0,0,0,0,0c0,0.3-0.1,0.6-0.4,0.9l-49.5,46.1l-49.5,46.1
	c-0.1,0.1-0.3,0.2-0.4,0.2C14.3,613.6,14.1,613.6,14,613.6z"/>
<path class="st3" d="M332.5,542c-0.1,0-0.2,0-0.3,0c-0.1,0-0.2-0.1-0.3-0.2c-0.3-0.2-0.5-0.5-0.5-0.8c-0.1-0.3,0-0.7,0.2-0.9
	l50.2-77.6l50.2-77.6c0.2-0.3,0.5-0.5,0.8-0.5c0.3-0.1,0.7,0,0.9,0.2c0.3,0.2,0.5,0.5,0.5,0.8c0.1,0.3,0,0.7-0.2,0.9l-50.2,77.6
	l-50.2,77.5c-0.1,0.2-0.3,0.3-0.5,0.4C332.9,541.9,332.7,542,332.5,542z"/>
<path class="st7" d="M270.1,96.4c-2.8-4.9-7.1-8.9-12.2-11.4c-5.1-2.5-10.7-3.6-16.4-3.2c0.3-1.4,0.6-2.8,0.8-4.1
	c0.2-1.4,0.3-2.9,0.3-4.3c0-19.3-15.7-35-35.1-34.9c-11.9,0-22.9,6-29.3,16c-3.7-20.2-23.1-33.6-43.4-29.9
	c-19.7,3.6-33,22.2-30.2,42c0.3,1.8,0.7,3.7,1.3,5.4c-17.7-7.8-38.3,0.2-46.2,17.9c-2,4.5-3,9.3-3,14.1c0,2.6,0.3,5.3,0.9,7.9
	c0.6,2.5,1.4,4.9,2.5,7.2c-17.2,2.3-29.3,18-27,35.2c1.3,9.6,6.9,18.1,15.3,23c-13.6,10.8-15.8,30.6-5,44.1
	c10.8,13.6,30.6,15.8,44.1,5c2.6-2.1,4.9-4.6,6.7-7.4c3.5,8.1,12.1,13.6,23.5,15.9s25.4,1.4,39.7-3.3c13.1-4.3,24.2-11,32-18.7
	s12.3-16.3,12.1-24.5c5.4,2.7,11.4,4.1,17.4,3.9c6.3-0.2,12.5-1.9,18-5.1c8.1-4.6,14.1-12,17-20.8c2.8-8.5,2.2-17.7-1.7-25.8
	c0.9-0.3,1.8-0.7,2.6-1.1s1.7-0.9,2.6-1.3c7.2-4.1,12.6-10.9,15-18.9C275.1,111.8,274.1,103.5,270.1,96.4z"/>
<path class="st6" d="M217.5,108.6c4.5,10.4,0.7,23.3-9,35.6c-9.7,12.3-25.5,24.2-44.9,32.5s-38.8,11.8-54.4,10.4
	s-27.6-7.4-32.2-17.8s-0.7-23.3,9-35.6s25.5-24.1,44.9-32.5s38.8-11.8,54.5-10.4S213,98.2,217.5,108.6z"/>
<path class="st2" d="M349.8,385.1l-4.3-3.8l-4.3-3.8l-0.7,9.7l-0.7,9.7l5-5.9C346.5,389,348.2,387.1,349.8,385.1z"/>
<path class="st4" d="M346.2,349.8c-0.2,0-0.3,0-0.5-0.1c-0.1-0.1-0.3-0.2-0.4-0.3l-1.5-1.4l-1.4-1.4c-0.2-0.2-0.4-0.5-0.4-0.9
	c0-0.3,0.1-0.6,0.3-0.9c0.2-0.2,0.5-0.4,0.9-0.4c0.3,0,0.6,0.1,0.9,0.3l1.4,1.4l1.5,1.4c0.2,0.2,0.4,0.5,0.4,0.9
	c0,0.3-0.1,0.6-0.3,0.9c-0.1,0.1-0.3,0.2-0.4,0.3C346.5,349.7,346.4,349.8,346.2,349.8z"/>
<path class="st4" d="M384.4,351.2h-0.2l-2-0.3l-2-0.3c-0.7-0.1-1.1-0.7-1.1-1.4c0,0,0,0,0,0c0.1-0.7,0.7-1.2,1.4-1.1l2,0.3l2,0.3
	c0.7,0.1,1.2,0.7,1.1,1.4c0,0.3-0.2,0.6-0.4,0.8C385,351.2,384.7,351.3,384.4,351.2z"/>
<path class="st4" d="M289.4,659.3c-0.1,0-0.2,0-0.3,0c-0.1,0-0.2-0.1-0.3-0.1c-0.3-0.2-0.5-0.4-0.6-0.8c-0.1-0.3,0-0.7,0.1-1
	c0,0,0.5-0.9,1.1-2.1c0.7-1.3,1.3-2.7,1.7-4.1c0.1-0.3,0.3-0.6,0.6-0.8c0.3-0.2,0.7-0.2,1-0.1c0.3,0.1,0.6,0.3,0.8,0.6
	c0.2,0.3,0.2,0.7,0.1,1c-0.5,1.6-1.1,3.1-1.8,4.5c-0.6,1.3-1.2,2.2-1.2,2.3c-0.1,0.2-0.3,0.3-0.5,0.5
	C289.8,659.2,289.6,659.3,289.4,659.3z"/>
<path class="st3" d="M209.4,666.8H200c-0.3,0-0.6-0.1-0.9-0.4c-0.2-0.2-0.4-0.5-0.4-0.9c0-0.7,0.6-1.2,1.2-1.2h9.4
	c0.7,0,1.2,0.6,1.2,1.2C210.6,666.3,210,666.9,209.4,666.8L209.4,666.8z"/>
<path class="st3" d="M238,642.7c-0.4,0-0.8-0.2-1-0.5c-0.4-0.5-0.3-1.3,0.2-1.8l2-1.5l2-1.5c0.3-0.2,0.6-0.3,0.9-0.2
	c0.3,0,0.6,0.2,0.8,0.5c0.2,0.3,0.3,0.6,0.2,0.9c0,0.3-0.2,0.6-0.5,0.8l-2,1.5l-2,1.5c-0.1,0.1-0.2,0.2-0.4,0.2
	C238.3,642.7,238.1,642.7,238,642.7z"/>
<path class="st3" d="M383,667.4h-8.5c-0.3,0-0.6-0.1-0.9-0.4c-0.2-0.2-0.4-0.5-0.4-0.9c0-0.3,0.1-0.7,0.4-0.9
	c0.2-0.2,0.6-0.4,0.9-0.4h8.5c0.7,0,1.2,0.6,1.2,1.2C384.3,666.8,383.7,667.4,383,667.4z"/>
<path class="st3" d="M346.3,640.8c-0.3,0-0.7-0.1-0.9-0.4l-1.6-1.6l-1.6-1.6c-0.5-0.5-0.5-1.3,0-1.8c0.2-0.2,0.5-0.4,0.9-0.4
	c0.3,0,0.7,0.1,0.9,0.4l1.6,1.6l1.6,1.6c0.2,0.2,0.4,0.5,0.4,0.9c0,0.3-0.1,0.7-0.4,0.9c-0.1,0.1-0.3,0.2-0.4,0.3
	C346.7,640.8,346.5,640.8,346.3,640.8z"/>
<path class="st3" d="M478.6,666.6h-8.2c-0.7,0-1.3-0.6-1.3-1.2c0-0.3,0.1-0.6,0.4-0.9c0.2-0.2,0.6-0.4,0.9-0.4h8.2
	c0.3,0,0.7,0.1,0.9,0.4c0.5,0.5,0.5,1.3,0,1.8C479.3,666.5,479,666.6,478.6,666.6z"/>
<path class="st3" d="M508.3,642.3c-0.2,0-0.4-0.1-0.6-0.2c-0.2-0.1-0.4-0.3-0.5-0.5c-0.2-0.3-0.2-0.6-0.1-1c0.1-0.3,0.3-0.6,0.6-0.7
	l2.9-1.6l2.9-1.6c0.3-0.2,0.7-0.2,1-0.1c0.3,0.1,0.6,0.3,0.7,0.6c0.2,0.3,0.2,0.7,0.1,1c-0.1,0.3-0.3,0.6-0.6,0.7l-2.9,1.6l-2.9,1.5
	c-0.1,0.1-0.2,0.1-0.3,0.1C508.5,642.3,508.4,642.3,508.3,642.3z"/>
<path class="st3" d="M72.2,708.8H57.7c-0.3,0-0.6-0.1-0.9-0.4c-0.2-0.2-0.4-0.5-0.4-0.9c0-0.7,0.6-1.2,1.2-1.2h14.5
	c0.7,0,1.2,0.6,1.2,1.2c0,0.3-0.1,0.6-0.4,0.9C72.8,708.6,72.5,708.8,72.2,708.8z"/>
<path class="st3" d="M113,612.1c-0.2,0-0.4-0.1-0.6-0.2c-0.2-0.1-0.4-0.3-0.5-0.5c-0.2-0.3-0.2-0.7-0.1-1c0.1-0.3,0.3-0.6,0.6-0.8
	l5.9-3.2l5.9-3.2c0.3-0.2,0.7-0.2,1-0.1c0.7,0.2,1,0.9,0.8,1.5c-0.1,0.3-0.3,0.6-0.6,0.7l-5.9,3.2l-5.9,3.2
	c-0.1,0.1-0.2,0.1-0.3,0.1C113.2,612.1,113.1,612.1,113,612.1z"/>
<path class="st3" d="M75.3,657.8H64.2c-0.7,0-1.3-0.6-1.3-1.2c0-0.3,0.1-0.6,0.4-0.9c0.2-0.2,0.6-0.4,0.9-0.4h11.1
	c0.3,0,0.7,0.1,0.9,0.4c0.5,0.5,0.5,1.3,0,1.8C75.9,657.7,75.6,657.8,75.3,657.8z"/>
</svg>
