<?xml version="1.0" encoding="utf-8"?>
<!-- Generator: Adobe Illustrator 28.0.0, SVG Export Plug-In . SVG Version: 6.00 Build 0)  -->
<svg version="1.1" id="Layer_1" xmlns="http://www.w3.org/2000/svg" xmlns:xlink="http://www.w3.org/1999/xlink" x="0px" y="0px"
	 viewBox="0 0 1000 1000" style="enable-background:new 0 0 1000 1000;" xml:space="preserve">
<style type="text/css">
	.st0{fill:#E9CF81;}
	.st1{fill:#353519;}
	.st2{fill:#F4ECE5;}
	.st3{fill:#BAB653;}
	.st4{fill:#666538;}
	.st5{fill:#DEB8FC;}
	.st6{fill:#2B3D0A;}
	.st7{fill:#F98638;}
	.st8{fill:#AD4D4D;}
	.st9{fill:#FFAA9F;}
</style>
<path class="st0" d="M821.8,878H138.2V388.5c0-188.8,153-341.8,341.8-341.8c0,0,0,0,0,0l0,0c188.8,0,341.8,153,341.8,341.8v0V878z"
	/>
<path class="st1" d="M138.2,876.5c0,0,21.3-134.2,56.5-285.1S279.1,272.9,335,206c9.8-11.7,20.1-17.1,28-19.6
	c4.3-1.5,8.8-2.2,13.3-2.1c10.4,0.2,19.3,4.6,26.5,9.9c5.7,4.4,10.9,9.4,15.5,14.9c23.3,26.8,56.8,125.1,85.4,220.4
	c28.6,95.3,52.3,187.6,56.1,202.6c0.8-14.2,4.3-73.6,19-132.2s40.4-116.4,85.5-127.4c3.2-0.7,6.4-1.2,9.7-1.4
	c7.3-0.6,14.6-0.2,21.7,1.4c53.1,12.6,83.9,114.3,101.7,225.4s22.8,231.5,24.4,281.5L480,878L138.2,876.5z"/>
<path class="st2" d="M322.7,253.5h-67c-12.4,16.3-23.2,31.6-32.6,45.3s-17.2,26.1-23.6,36.4c-19.4,31.4-34,55.2-44,76.4
	s-15.6,40-16.9,61.3c-0.8,12.4-0.3,24.9,1.4,37.2c2.9,21.5,10,42.2,20.9,60.9c24,40.9,61.9,62.8,95.1,74.5
	c21.5,7.6,43.9,12.2,66.7,13.6v-57.9c-11.4-1.1-22.7-3.4-33.8-6.7c-14.7-4.4-28.8-10.7-41.8-18.9c-5.8-3.5-11.4-7.4-16.7-11.5
	c-6.2-4.9-11.8-10.7-16.5-17.1c-4.5-6.1-8.1-12.7-10.9-19.7c-2.5-6.4-4.4-13-5.6-19.7c-1.8-10.2-2.2-20.6-1-30.9
	c1.1-10.3,3.7-20.4,7.6-30c6.3-15.6,13.6-32.3,22.3-49.7s18.7-35.6,30.3-54.2c11.1-17.9,22.4-34.2,33.5-49.1
	S312.1,265.5,322.7,253.5z"/>
<path class="st3" d="M677,421.4c3.8,15.6,5.4,31.6,4.7,47.6c-0.6,16.1-3.9,32-9.9,46.9c-4,9.9-9.4,19.3-15.8,27.8
	c-6.5,8.5-14.2,16.1-22.8,22.4c-9.1,6.8-19.8,11.3-31.1,13c-10.7,1.7-21.8,1.1-33.9-0.3c-8.1-1.1-16.3-0.5-24.2,1.7
	c-7.5,2.1-14.4,5.9-20.1,11.1c-5.2,4.9-9.2,10.9-11.7,17.7c-2.5,6.7-4,13.8-4.6,20.9c-0.2,2.3-0.5,14-0.8,25.1s-0.3,21.6-0.1,21.6
	h-36c0,0-0.3-6.4-0.4-15.3c-0.1-10.2,0.3-20.4,1.3-30.5c0.9-8.7,2.5-17.3,4.8-25.7c3.1-11.1,7.7-21.6,13.8-31.3
	c3.9-6.3,8.7-12,14.1-17.1c5.4-5.1,11.7-9.1,18.6-12c7.9-3.2,16.2-4.2,24.5-4.2s16.9,0.8,25.1,1.1c8.4,0.4,16.9-0.6,25-3
	c8.1-2.4,15.6-6.5,22-12c20-17.5,24.8-42.3,23.1-68.1s-10-52.6-16.2-74c-3.1-10.5-6.5-22-10.3-34.4s-8.1-25.6-12.8-39.6l18.3-6.6
	l18.4-6.7c4.8,13.3,9.4,27,13.9,41.1s8.8,28.7,13,43.7c1.8,6.7,3.6,13.3,5.3,19.8C673.8,408.4,675.5,414.9,677,421.4z"/>
<path class="st4" d="M641.5,446.5c-1.3-5.9-2.6-11.8-3.8-17.8c-1.3-5.9-2.6-11.8-3.9-17.7c-0.2-0.6-0.3-1.1-0.4-1.5l-0.3-1.2
	c-0.2-0.9-0.5-2-1-3.7s-1-3.8-1.9-6.6c-3.4-11.9-6.5-22.2-8.7-29.5s-3.6-11.8-3.6-11.8c-2-6.3-4.2-13.3-6.6-21s-5.1-16.1-8.1-25.1
	l18.3-6.6l18.4-6.7c3.6,9.7,6.8,18.7,9.7,26.9s5.3,15.5,7.4,21.8c0.4,1.3,4.6,14,9.3,30.8s10.1,37.5,13,54.9
	c0.7,4.1,1.3,8.4,1.7,13.1s0.7,9.6,0.8,15c0,3.4,0,6.6-0.2,9.4s-0.3,5.3-0.5,7.4l-19.8-15L641.5,446.5z"/>
<path class="st3" d="M814.3,492.8c-4.9-8.3-13.2-14.1-22.7-15.9c-19.7-3.8-39.3,6.9-46.9,25.5c-2.7-1.8-5.6-3.4-8.7-4.6
	c-23-9.7-49.4,1.2-59.1,24.1c-0.4,1-0.8,2-1.2,3.1c-0.4,1.3-0.8,2.6-1.2,3.9c-8.7-3.2-18-4.2-27.2-3.1c-13.6,1.7-25.4,7.7-33.5,16.1
	s-12.3,19.2-11,30.3s8.1,20.6,17.9,26.8s22.7,9.2,36.3,7.6s25.4-7.7,33.5-16.1c1.9-2,3.7-4.2,5.2-6.6c2.7,1.8,5.5,3.3,8.5,4.5
	c23,9.7,49.4-1.1,59.1-24.1c0.4-1,0.8-2.1,1.2-3.1c1.5-4.3,2.4-8.7,2.6-13.2c0.7,0.2,1.3,0.3,2,0.5c20.7,4,41.1-8,47.8-28
	C820.2,511.2,819.2,501.2,814.3,492.8z"/>
<path class="st4" d="M631.2,567.4c-0.3,0-0.6-0.1-0.8-0.3c-0.2-0.2-0.4-0.5-0.4-0.8c-0.1-0.7,0.3-1.3,1-1.4
	c9.5-1.7,18.9-3.6,28.3-5.8s18.7-4.6,27.9-7.2c22.1-6.3,43.8-14,65-23.1c21.3-9.1,42-19.5,62-31.1c0.6-0.3,1.4-0.1,1.7,0.5
	c0.2,0.3,0.2,0.7,0.1,1c-0.1,0.3-0.3,0.6-0.6,0.8c-20.1,11.7-40.9,22.1-62.3,31.2c-21.3,9.1-43.1,16.8-65.3,23.2
	c-9.2,2.7-18.6,5.1-28,7.2s-18.9,4.1-28.4,5.8L631.2,567.4L631.2,567.4z"/>
<path class="st5" d="M536.6,360L536.6,360L536.6,360v0.1c-8.2,18.4-2.9,37.1,9.1,49s30.6,17.3,49,9.1l0,0l0,0l0,0
	c7.2,18.8,24.2,28.2,41.1,28.2s33.9-9.5,41.1-28.3l0,0l0,0h0.1c18.4,8.2,37.1,2.9,49-9.1s17.3-30.6,9.1-49V360v0l0,0
	c18.9-7.2,28.3-24.1,28.3-41.1s-9.4-33.9-28.2-41.1l0,0v0l0,0c8.2-18.4,2.9-37.1-9.1-49.1s-30.6-17.3-49-9.1H677l0,0l0,0
	c-7.2-18.9-24.2-28.3-41.1-28.3s-33.9,9.4-41.1,28.3l0,0l0,0l0,0c-18.4-8.2-37.1-2.9-49,9.1s-17.3,30.6-9.1,49.1l0,0v0l0,0
	c-18.8,7.2-28.3,24.1-28.3,41.1S517.8,352.8,536.6,360z"/>
<path class="st2" d="M588.4,328.7c4.1,26.3,28.8,44.2,55,40c26.3-4.1,44.2-28.8,40-55c-4.1-26.3-28.8-44.2-55-40
	c-12.6,2-23.9,8.9-31.4,19.2C589.5,303.2,586.4,316.1,588.4,328.7z"/>
<path class="st2" d="M783.7,533.5c-1.2,4.1-4.5,15.5-7.6,30.1s-6,32.3-6.3,49.1c-0.1,4.2-0.2,8.8,0,13.9c0.2,5.9,0.7,11.7,1.6,17.5
	c0.8,4.8,1.4,7.7,2.2,11s1.7,7,2.9,13.5s2,12.2,2.6,17.3s0.8,9.3,1,12.7c-0.2,5.6-0.5,11.4-0.9,17.4c-0.5,5.9-1.1,12-1.9,18.2
	c-3.8,28.1-11.1,55.7-21.7,82c-8.7,21.6-19.3,42.3-31.8,61.9h-14.3c5.8-12.4,12.7-27.9,20-45.5s15.1-37.3,22.3-58.2
	c2.8-8.2,5.8-17.1,8.3-27c2.7-10.9,4.3-22,4.8-33.2c0.3-7.5,0.2-14.5-0.1-20.2s-0.8-10.1-1-12.2c-0.8-7.5-2-15-3.6-22.3
	c-1.3-5.8-2.4-9.8-2.8-11.3c-2.1-8-3.3-19.9-2-38.5s5.2-43.8,13.3-78.5l7.6,1.1L783.7,533.5z"/>
<path class="st4" d="M760.8,702.3l-4.5,0.1l-4.6,0.1c0,0-0.1,0-0.1-0.1c0,0,0,0,0,0c0-0.1,0-0.1,0.1-0.1c3.4-1.1,6.4-3,9-5.4
	c2.3-2.1,3.9-4.8,4.7-7.8c0.7-2.9,0.5-5.9-0.5-8.7c-0.5-1.6-1.2-3.1-2.1-4.5c-2.5-3.8-6.3-6.6-10.7-8c-4.9-1.5-10.1-1.7-15-0.4
	c4.7-1.1,9-3.7,12-7.5c5.6-6.8,5.8-16.5,0.6-23.6c-4.7-6.8-13.4-9.5-21.2-6.8c-4.1,1.4-7.6,3.9-10.2,7.3c2.2-4.2,3-9.1,2.3-13.8
	c-0.6-4.6-2.7-8.8-6-12.1c-3.4-3.2-7.7-5.3-12.4-5.9c-4.5-0.7-9.1,0.3-13,2.7c-4.7,3.2-7.8,8.3-8.6,14c-1,6.4,0.6,13,4.3,18.3
	c0.1,0.1,0.1,0.2,0,0.3c-0.1,0.1-0.2,0.1-0.3,0c-3.9-2.8-8.8-4-13.5-3.3c-8.3,0.9-14.2,8.4-13.3,16.6c0.1,1.1,0.4,2.3,0.8,3.4
	c1.5,4.9,4.9,9,9.6,11.2l0,0l0,0c-5.9-1.2-12-0.1-17,3.2c-4.6,3-7.7,7.6-8.4,12.4c-0.5,4.4,0.8,8.9,3.4,12.4c2.9,4,7,7,11.7,8.4
	l-4.7,0.1l-4.7,0.1c-12.9,0.3-23.1,11.1-22.7,24c0,0,0,0,0,0l0,0c0.3,12.9,11,23.1,23.9,22.8c0,0,0,0,0.1,0l19.3-0.5l19.3-0.5
	l1.6,63.5l1.6,63.5H727l-1.7-64l-1.7-64l19.3-0.5l19.3-0.5c12.9-0.3,23.1-11.1,22.7-24c0,0,0,0,0,0l0,0
	C784.5,712.1,773.7,701.9,760.8,702.3C760.8,702.3,760.8,702.3,760.8,702.3L760.8,702.3z"/>
<path class="st6" d="M753.5,703h-25.2c-0.7,0-1.3-0.5-1.3-1.2c0-0.3,0.1-0.7,0.4-0.9c0.2-0.2,0.6-0.4,0.9-0.4h25.2
	c0.7,0,1.2,0.6,1.2,1.2c0,0.3-0.1,0.6-0.4,0.9C754.2,702.9,753.9,703,753.5,703z"/>
<path class="st1" d="M723.5,750h-18.8c3.3,4.4,6.5,8.7,9.7,13.1s6.5,8.7,9.7,13.1c-0.1-4.4-0.2-8.7-0.3-13.1
	C723.8,758.7,723.7,754.4,723.5,750z"/>
<path class="st6" d="M673.8,668.8h-8.1c-0.7,0-1.2-0.5-1.3-1.2c0-0.3,0.1-0.7,0.4-0.9c0.2-0.2,0.5-0.4,0.9-0.4h8.1
	c0.7,0,1.3,0.6,1.3,1.2c0,0.3-0.1,0.7-0.4,0.9C674.4,668.7,674.1,668.8,673.8,668.8z"/>
<path class="st6" d="M716.8,640.8c-0.1,0-0.2,0-0.4,0c-0.1,0-0.2-0.1-0.3-0.2c-0.3-0.2-0.5-0.5-0.5-0.8c-0.1-0.3,0-0.7,0.2-0.9
	l1.3-1.8l1.3-1.8c0.4-0.6,1.2-0.7,1.7-0.3c0,0,0,0,0,0c0.3,0.2,0.5,0.5,0.5,0.8c0.1,0.3,0,0.7-0.2,0.9l-1.3,1.8l-1.3,1.8
	c-0.1,0.2-0.3,0.3-0.5,0.4C717.2,640.8,717,640.8,716.8,640.8z"/>
<path class="st4" d="M421,463.7l-6.9,0.2l-6.9,0.2c-0.1,0-0.1,0-0.2-0.1c0,0,0,0,0,0c0-0.1,0-0.2,0.1-0.2c5.1-1.7,9.8-4.5,13.7-8.2
	c3.5-3.2,5.9-7.3,7.1-11.8c1-4.4,0.8-8.9-0.7-13.1c-0.8-2.4-1.8-4.6-3.1-6.7c-3.9-5.8-9.6-10.1-16.2-12.1
	c-7.4-2.3-15.3-2.6-22.8-0.6c7.2-1.6,13.6-5.6,18.2-11.4c8.5-10.3,8.9-25,1-35.8c-7.2-10.3-20.3-14.5-32.2-10.3
	c-6.2,2.1-11.6,6-15.5,11.1c3.3-6.5,4.5-13.8,3.5-20.9c-0.9-6.9-4.1-13.4-9.1-18.3c-5.1-4.9-11.7-8.1-18.8-9
	c-6.8-1-13.8,0.4-19.7,4.1c-7,4.5-11.6,12.3-13.1,21.3c-1.5,9.7,0.8,19.7,6.4,27.8c0.1,0.1,0.1,0.3,0,0.4c-0.1,0.1-0.3,0.1-0.4,0
	c-5.9-4.3-13.3-6.1-20.5-5c-6.7,0.9-12.6,4.6-16.5,10.1c-3.8,5.8-4.6,13.3-2.5,20.2c2.2,7.5,7.5,13.7,14.6,17l0,0l0,0
	c-8.9-1.9-18.2-0.1-25.8,4.9c-7,4.7-11.8,11.6-12.8,18.9c-0.9,6.4,1.1,13.1,5.2,18.9c4.4,6.1,10.7,10.6,17.9,12.7L258,468l-7.1,0.2
	c-19.6,0.5-35,16.8-34.5,36.4c0,0,0,0,0,0l0,0c0.5,19.6,16.8,35,36.4,34.5l29.2-0.8l29.2-0.8c1.5,111.4,2.6,196.5,3.4,253.8
	s1.2,86.7,1.2,86.7h13.8h40.1c-0.9-37.3-1.8-104.1-2.7-170.9s-1.8-133.7-2.7-170.9l29.2-0.8l29.2-0.8c19.6-0.5,35-16.8,34.5-36.4
	C456.9,478.6,440.6,463.2,421,463.7L421,463.7z"/>
<path class="st6" d="M290.8,412.8h-12.2c-0.7,0-1.2-0.6-1.2-1.2c0-0.7,0.5-1.2,1.2-1.2c0,0,0,0,0,0h12.2c0.7,0,1.2,0.5,1.2,1.2
	c0,0,0,0,0,0C292,412.3,291.4,412.8,290.8,412.8z"/>
<path class="st6" d="M409.5,464.7h-38.2c-0.3,0-0.6-0.1-0.9-0.4c-0.2-0.2-0.4-0.5-0.4-0.9c0-0.7,0.6-1.2,1.2-1.2h38.2
	c0.7,0,1.2,0.6,1.2,1.2c0,0.3-0.1,0.6-0.4,0.9C410.1,464.6,409.8,464.7,409.5,464.7z"/>
<path class="st2" d="M827.5,658.2h17.5c-2.8,3-6.1,6.6-9.6,10.9s-7.2,9.2-10.9,14.8c-2.7,4-6.1,9.1-9.5,15.3
	c-3.9,6.9-7.1,14.2-9.8,21.6c-3.3,9.5-5.4,19.3-6.3,29.3c-0.7,8.2-0.9,16.4-0.6,24.5c0.1,9.8,1.1,19.5,3,29.1
	c1.8,9,2.8,18.1,2.9,27.2c0.1,9.2-0.5,18.4-1.8,27.5c-1,6.9-2.4,13.7-4.3,20.4h-16.7c2.4-7.1,4.3-14.3,5.6-21.7
	c1.8-9.6,2.6-19.4,2.4-29.2c-0.1-8.6-1.2-17.2-3.1-25.5c-2-9.4-3.1-18.9-3.2-28.5c-0.3-7.9-0.1-15.7,0.6-23.5
	c0.9-10.5,3.1-20.9,6.4-31c2.5-7.4,5.5-14.6,9.1-21.5c3.1-5.9,5.9-10.4,7.8-13.4c3.3-5.2,6.8-10.2,10.6-15
	C821.2,665.1,824.5,661.4,827.5,658.2z"/>
<path class="st7" d="M862,691.6l-31.9-21.4l-31.9-21.4c-0.5-0.4-0.8-1-0.6-1.6c0.1-0.6,0.5-1.2,1.1-1.5l16.2-7.8l16.2-7.8
	c3.7-1.8,7.9-2.7,12-2.5c4,0.2,7.8,1.4,11.1,3.6l0,0c3,2,5.5,4.8,7.2,8.1c1.7,3.4,2.7,7.2,2.7,11l0.3,19.7l0.3,19.7
	c0,0.7-0.3,1.3-0.9,1.7C863.2,691.9,862.5,692,862,691.6z"/>
<path class="st3" d="M207.8,657.1c-1.9,7.8-2.7,15.9-2.4,23.9c0.3,8.1,2,16,5,23.5c2,5,4.7,9.7,8,13.9c3.2,4.3,7.1,8.1,11.4,11.2
	c4.6,3.4,9.9,5.6,15.6,6.5c5.6,0.7,11.4,0.7,17-0.2c4.1-0.5,8.2-0.2,12.1,0.8c3.7,1,7.2,2.9,10.1,5.5c2.6,2.4,4.6,5.5,5.9,8.9
	c1.2,3.4,2,6.9,2.3,10.5c0.1,1.2,0.3,7,0.4,12.6s0.2,10.8,0,10.8h18c0,0,0.2-3.2,0.2-7.7c0.1-5.1-0.2-10.2-0.7-15.3
	c-0.4-4.4-1.2-8.7-2.4-12.9c-1.5-5.5-3.9-10.8-6.9-15.7c-2-3.2-4.3-6-7.1-8.5c-2.7-2.5-5.9-4.6-9.3-6c-3.9-1.5-8.1-2.2-12.3-2.1
	c-4.2,0-8.5,0.4-12.6,0.5c-4.2,0.2-8.5-0.3-12.5-1.5c-4.1-1.2-7.8-3.2-11-6c-10-8.8-12.4-21.2-11.6-34.1s5-26.4,8.1-37.1
	c1.5-5.3,3.3-11,5.2-17.3c1.9-6.2,4.1-12.8,6.4-19.9l-9.2-3.3l-9.2-3.3c-2.4,6.7-4.7,13.5-7,20.6c-2.3,7.1-4.5,14.4-6.5,21.9
	c-0.9,3.3-1.8,6.6-2.6,9.9C209.4,650.7,208.6,653.9,207.8,657.1z"/>
<path class="st4" d="M225.6,669.7c0.7-3,1.3-5.9,1.9-8.9c0.6-3,1.3-5.9,1.9-8.9c0.1-0.3,0.1-0.5,0.2-0.8s0.1-0.4,0.1-0.6
	c0.1-0.4,0.3-1,0.5-1.8s0.5-1.9,0.9-3.3c1.7-6,3.3-11.1,4.4-14.8s1.8-5.9,1.8-5.9c1-3.1,2.1-6.7,3.3-10.5s2.6-8.1,4-12.6l-9.2-3.3
	l-9.2-3.3c-1.8,4.9-3.4,9.4-4.8,13.5s-2.7,7.8-3.7,10.9c-0.2,0.7-2.3,7-4.7,15.4c-2.6,9-4.8,18.2-6.5,27.5c-0.3,2-0.6,4.2-0.9,6.5
	s-0.4,4.8-0.4,7.5c0,1.7,0,3.3,0.1,4.7s0.1,2.7,0.2,3.7l9.9-7.5L225.6,669.7z"/>
<path class="st3" d="M239.3,717.5c-4.5-4.5-10.4-7.4-16.8-8.1c-4.6-0.6-9.2,0-13.6,1.5c-0.2-0.7-0.4-1.3-0.6-2
	c-4-11.8-16.8-18.2-28.7-14.2c-0.5,0.2-1,0.4-1.5,0.6c-1.5,0.6-3,1.4-4.4,2.3c-3.8-9.3-13.6-14.7-23.5-12.8
	c-9.1,1.7-15.1,10.5-13.4,19.6c0.1,0.8,0.3,1.5,0.6,2.2c3.3,10,13.6,16.1,23.9,14.1c0.3-0.1,0.7-0.2,1-0.3c0.1,2.3,0.6,4.5,1.3,6.7
	c4,11.8,16.8,18.2,28.6,14.3c0.5-0.2,1-0.4,1.5-0.6c1.5-0.6,2.9-1.4,4.3-2.2c0.8,1.2,1.6,2.3,2.6,3.3c9.4,9.2,23.7,10.9,35,4.2
	c4.9-3.1,8.3-7.8,9-13.4S243.4,721.7,239.3,717.5z"/>
<path class="st4" d="M230.7,730.9h-0.1h-0.1c-4.8-0.8-9.5-1.8-14.3-2.9s-9.4-2.3-14.1-3.6c-11.2-3.2-22.1-7.1-32.8-11.6
	c-10.7-4.6-21.2-9.8-31.3-15.7c-0.3-0.2-0.5-0.4-0.6-0.8c-0.2-0.7,0.2-1.4,0.9-1.5c0.3-0.1,0.6,0,0.9,0.1
	c20,11.6,41.3,20.7,63.5,27.1c4.6,1.3,9.3,2.5,14,3.6s9.4,2,14.1,2.9c0.3,0.1,0.6,0.2,0.8,0.5c0.2,0.3,0.3,0.6,0.2,0.9
	C231.9,730.4,231.4,730.9,230.7,730.9L230.7,730.9z"/>
<path class="st7" d="M292.5,542.5c28.1-19.3,36.6-36.4,31.8-43.5s-23.1-3.9-48.7,17.3c15.2-30.8,13.4-49.5,4.7-51.6
	s-24.3,12.4-36.6,48.1c-2-38.1-13.2-56.4-22.2-56.3s-15.8,18.4-8.9,53.4C193.2,481.7,176,473.2,169,478s-3.9,23.1,17.3,48.7
	c-30.8-15.2-49.5-13.4-51.7-4.7s12.4,24.3,48.1,36.6c-38.1,2-56.4,13.2-56.3,22.3s18.4,15.8,53.4,8.9
	c-28.1,19.3-36.6,36.4-31.8,43.5s23.1,3.9,48.7-17.3c-15.2,30.8-13.4,49.5-4.7,51.7s24.3-12.4,36.6-48.1c2,38.2,13.2,56.4,22.2,56.3
	s15.8-18.4,8.9-53.4c19.3,28.1,36.4,36.6,43.5,31.8s3.9-23.1-17.3-48.7c30.8,15.2,49.5,13.4,51.6,4.7s-12.4-24.3-48.1-36.6
	c38.2-2,56.4-13.2,56.4-22.3S327.5,535.6,292.5,542.5z"/>
<path class="st5" d="M258,570.8c-2.3,13.5-15.1,22.7-28.6,20.4c-13.5-2.3-22.7-15.1-20.4-28.6c2.3-13.5,15.1-22.7,28.6-20.4
	c6.5,1.1,12.3,4.7,16.1,10.1C257.6,557.7,259.1,564.3,258,570.8z"/>
<polygon class="st4" points="821.8,953.3 480,953.3 138.2,953.3 138.2,915.7 138.2,878 480,878 821.8,878 821.8,915.7 "/>
<path class="st4" d="M234.4,684.4l-30.2,96.8l-30.2,96.8h122.6l-30.2-96.8l-30.2-96.8c-0.1-0.4-0.5-0.7-0.9-0.7
	C234.9,683.7,234.5,684,234.4,684.4z"/>
<path class="st3" d="M264.5,878c9.3-15.3,12.2-31.5,9.8-45.9s-10.1-26.9-21.9-34.8c-9-5.8-19.2-9.3-29.8-10.3
	c-11.4-1.1-23.6,0.7-34,7.4c-8.4,5.4-14.8,13.4-18.1,22.8c-1.8,4.9-2.8,10.1-3,15.4c-3.2-0.6-6.6-0.8-9.9-0.5
	c-6.2,0.4-12,2.9-16.6,7.2c-4.8,4.8-7.7,11.1-8.2,17.9c-0.5,7.4,1.3,14.7,5.4,20.9H264.5z"/>
<path class="st3" d="M696.5,878c-5.9-3-10.5-8.1-13-14.3c-2.4-5.7-2.4-12.1-0.1-17.8c1.9-4.4,5.1-8,9.1-10.5c4.3-2.6,9.1-4,14.2-4.1
	c-1.8-4.6-3-9.5-3.5-14.5c-0.8-7.9,0-17.8,6.2-26.3c6.7-9.3,18-14.4,29.4-15.1s23,3,30.5,11.5c6.7,7.6,8.4,17.1,8.3,24.9
	c0,4.9-0.7,9.7-2.1,14.4c8-5.2,17.7-7,27-5.3c8.9,1.6,16.7,6.6,21.9,14c4.2,6.3,6.2,13.8,5.7,21.3c-0.5,7.9-3.3,15.5-8.2,21.7H696.5
	z"/>
<path class="st2" d="M474.8,408.5c-44.1,78.3-88.2,156.5-132.4,234.7L210.1,878h116.8c4.5-7.6,10.6-18.3,17.5-31.5
	s14.7-29,22.5-46.9c32.6-74.4,59.7-151.2,80.9-229.6c16.8-62.4,24.7-107.1,27.2-123.3c0-0.4,0.4-0.6,0.7-0.6c0.3,0,0.5,0.3,0.6,0.6
	c3.8,34.3,8.5,65.8,13.6,93.9s10.5,53.1,15.5,74.3c17.1,71.9,40.3,129.6,61.3,171.7s39.8,68.7,48.2,78.6c2.3,2.7,4.4,5.2,6.3,7.3
	s3.5,3.9,4.8,5.3h59.4H745L611.8,643.3L478.5,408.5c-0.6-1-1.9-1.4-2.9-0.8C475.3,407.9,475,408.1,474.8,408.5z"/>
<path class="st7" d="M378.3,893.2l5,17.5l5,17.5c0,1.2-0.3,2.4-0.9,3.5c-0.6,1.1-1.4,2-2.4,2.6l-12.1,8.1l-12.1,8.1
	c-0.6,0.4-0.8,1-0.6,1.7c0.2,0.6,0.8,1.1,1.4,1.1h81.8c1.5,0,2.9-0.6,4-1.7c1-1.1,1.6-2.5,1.6-4l-5-27.2l-5-27.2L378.3,893.2
	L378.3,893.2z"/>
<path class="st7" d="M724.9,877c-0.1,0-0.2,0-0.3,0c-0.1,0-0.2-0.1-0.3-0.1c-9.3-4.7-18.4-9.8-27.3-15.3c-8.9-5.4-17.6-11.2-26-17.2
	c-56.2-40.6-96.2-91.6-124.7-143.5s-45.4-105-55.6-149.4c-0.1-0.3,0-0.7,0.2-1c0.4-0.6,1.1-0.8,1.7-0.4c0.3,0.2,0.5,0.5,0.6,0.8
	c10.1,44.2,27,96.9,55.4,148.6s68.1,102.5,124,142.8c8.3,6,16.9,11.7,25.8,17.1c8.8,5.4,17.9,10.5,27.2,15.2
	c0.3,0.1,0.5,0.4,0.6,0.7c0.1,0.3,0.1,0.7-0.1,1c-0.1,0.2-0.3,0.4-0.5,0.5C725.3,876.9,725.1,877,724.9,877z"/>
<path class="st7" d="M230.5,878.2c-0.5,0-1-0.3-1.2-0.8c-0.1-0.3-0.1-0.7,0-1c0.1-0.3,0.4-0.6,0.7-0.7c10.1-4.1,19.9-8.9,29.4-14.2
	c9.4-5.3,18.5-11.1,27.2-17.5c7-5.2,19.8-14.7,38.2-37.9s42.5-60.2,72.1-120.4c10.6-21.6,20.7-43.8,30.1-66.3s18.2-45.4,26.3-68.6
	c0.1-0.3,0.3-0.6,0.6-0.7c0.3-0.2,0.7-0.2,1,0c0.3,0.1,0.6,0.3,0.7,0.6c0.2,0.3,0.2,0.7,0.1,1c-8.1,23.2-16.9,46.1-26.3,68.7
	s-19.5,44.8-30.2,66.5c-26.4,53.6-48.1,88.9-66.3,113.1S300,837,288,846c-8.8,6.5-17.9,12.4-27.4,17.8c-9.6,5.4-19.5,10.2-29.6,14.4
	l-0.2,0.1L230.5,878.2z"/>
<path class="st1" d="M505.5,615.5c-5-21.3-10.4-46.3-15.5-74.5s-9.8-59.7-13.6-94.1c0-0.4-0.4-0.6-0.8-0.6c-0.3,0-0.6,0.3-0.6,0.6
	c-8.8,56.6-21.2,112.6-37.3,167.6c-18.7,63.8-42.3,126-70.8,186c-6.5,13.6-13.1,26.9-19.8,39.8s-13.5,25.4-20.3,37.7h298.9
	c-1.6-1.7-3.3-3.5-5.1-5.4s-3.7-3.9-5.6-6.1c-12.2-13.6-29.8-35.2-49.3-74S525,697.8,505.5,615.5z"/>
<path class="st5" d="M490.6,583c1.9-1.2,3.8-2.5,5.9-4s4.1-3.2,6.3-5c2.8-2.5,5.5-5.1,8-7.9c2.3-2.6,4.3-5,6-7.3l5.6,23.2
	c1.9,7.7,3.7,15.5,5.6,23.2l-18.7-11.1L490.6,583z"/>
<path class="st2" d="M438.2,601.2c2.5-0.2,5.1-0.5,7.9-1s5.8-1,8.9-1.8s6.3-1.7,9.1-2.6s5.4-1.9,7.8-2.9c-1.2,7.8-2.4,15.7-3.5,23.5
	c-1.2,7.8-2.4,15.6-3.6,23.5l-13.2-19.4L438.2,601.2z"/>
<path class="st7" d="M381.2,591.7c2.4,0.9,4.9,1.8,7.6,2.7s5.5,1.7,8.4,2.5c3.2,0.9,6.4,1.6,9.4,2.2s5.9,1.1,8.6,1.5l-13.4,17.7
	l-13.4,17.7l-3.6-22.1L381.2,591.7z"/>
<path class="st5" d="M429.8,495l-1.6,24.2c-0.5,8.1-1.1,16.2-1.6,24.2l16.4-16.4l16.4-16.4c-3-1.1-6.1-2.4-9.5-3.9
	s-6.8-3.3-10.3-5.4c-1.8-1.1-3.5-2.1-5.1-3.2C432.9,497.1,431.3,496.1,429.8,495z"/>
<path class="st7" d="M481.4,516.8c2.2,7.1,4.4,14.2,6.7,21.3c2.2,7.1,4.5,14.2,6.7,21.3l9.1-20.2L513,519c-2.4,0.1-5,0.1-7.6,0.1
	s-5.5-0.1-8.4-0.3s-5.6-0.5-8.2-0.8S483.7,517.2,481.4,516.8z"/>
<path class="st8" d="M745,878.1l-10.3-0.1h-10.3v-52.4H745V878.1z"/>
<polygon class="st8" points="230.9,878 220.5,878 210.2,878 210.2,852.4 210.2,826.8 220.5,826.8 230.9,826.8 230.9,852.4 "/>
<path class="st4" d="M429.2,602.7c-12.5,0-24.9-2-36.8-5.7c-6.7-2.1-13.3-4.8-19.5-8.1c-0.6-0.3-0.8-1.1-0.5-1.7s1.1-0.8,1.7-0.5
	c10.6,5.4,21.9,9.2,33.5,11.3c18.3,3.4,42.1,3.6,67-7.6c18.9-8.6,35.1-22.4,46.5-39.8c7-10.4,12.3-21.8,15.8-33.9
	c-15,3.5-30.5,4.4-45.8,2.7c-11.5-1.3-22.9-4-33.7-8.2c-7.9-3-15.5-6.9-22.7-11.4c-2.9-1.8-5.8-3.8-8.4-6c-0.2-0.2-0.4-0.5-0.4-0.9
	c0-0.3,0.1-0.7,0.3-0.9c0.2-0.3,0.5-0.4,0.9-0.4c0.3,0,0.7,0.1,0.9,0.3c0.2,0.2,11.5,9.6,30.9,17.1c25.4,9.7,53.1,11.4,79.5,4.8
	l1-0.2l1-0.2l-0.2,1l-0.2,1c-3.2,12-8.2,23.4-14.8,33.9C504.6,582.5,468.3,602.7,429.2,602.7L429.2,602.7z"/>
<path class="st5" d="M569.2,737.1c-0.6-3.2-1.5-6.4-2.5-9.5c-1.7-4.8-4-9.3-6.9-13.5c-0.5-0.7-1-1.4-1.5-2s-1.1-1.4-1.6-2
	c-3.8-4.4-8.2-8.1-13.1-11.2c-6.1-3.8-12.7-6.8-19.6-8.7c-1.5-0.4-2.8-0.7-3.9-0.9s-1.8-0.3-2.1-0.3c-3.4-0.5-6.9-0.7-10.4-0.5
	c-3.1,0.1-5.8,0.5-8.4,0.8c-2.1,0.3-5.9,0.7-10.6,1.1s-10.3,0.8-16.2,0.9c-1.8,0-4.1,0-7,0.1s-6.3,0.2-10.5,0.4
	c-2.4,0.1-4.8,0.3-7.2,0.6c-2.2,0.3-4.4,1-6.5,1.8c-1.7,0.7-3.3,1.5-4.8,2.5c-1.3,0.8-2.3,1.5-2.9,2c0,0-1,0.7-2.4,2
	c-1.8,1.6-3.5,3.3-5.1,5.2c-1.2,1.5-2.4,3.1-3.4,4.8c-1,1.8-2,3.6-2.9,5.5c-2.2,4.7-4,9.7-5.3,14.7c-1.3,5.1-2.1,10.3-2.5,15.5
	l-0.9,13l-0.9,13l19.9,12l19.9,12l42.1-2.5l42.1-2.7c0.4,3.6,0.8,7.3,1.3,11.1c0.5,3.7,1,7.5,1.6,11.3c1.1,7.1,2.2,14.1,3.5,20.8
	c1.3,6.7,2.6,13.3,4,19.7l22.8-3.7l22.8-3.6c-2.9-8.2-5.4-16.6-7.4-25.1c-1.8-7.5-2.9-13.9-3.7-19.2c-1-6.5-2.4-18.1-4.1-30.4
	S571.1,746.6,569.2,737.1z"/>
<path class="st7" d="M421.5,893.2l4.9,17.5l4.9,17.5c0,1.2-0.3,2.4-0.8,3.5c-0.5,1.1-1.3,2-2.3,2.6l-11.8,8.1l-11.8,8.1
	c-0.5,0.4-0.8,1.1-0.6,1.7c0.2,0.6,0.7,1.1,1.4,1.1h79.9c1.5,0,2.9-0.6,3.9-1.7c1-1.1,1.6-2.5,1.6-4l-4.9-27.2l-4.9-27.2
	L421.5,893.2L421.5,893.2z"/>
<path class="st9" d="M618.5,899.1c0,0-2.2-1.6-5-3.5s-6-4.2-7.9-5.8c-0.3-0.2-0.6-0.3-0.9-0.5c-0.3-0.2-0.5-0.5-0.8-0.8l0.7,0.5
	l1,0.8c0.8,0.4,1.6,0.5,2.5,0.5c0.8-0.1,1.5-0.4,2.1-0.9c0.3-0.3,0.5-0.6,0.7-0.9c0.4-0.9,0.5-2,0.2-2.9c-0.2-0.6-0.5-1.1-0.9-1.6
	c-0.6-0.8-1.2-1.6-1.9-2.4l-1.8-2.5c-0.4-0.5-1-1.4-1.8-2.5s-1.8-2.4-2.7-3.7c0,0-0.9-1.3-2.3-3.4s-3.1-5-4.8-8.1
	c-1-1.9-1.8-3.9-2.4-5.9c-0.8-2.5-1.6-5.4-2.4-8.7l-22.8,3.6l-22.8,3.7c0.8,6.2,1.6,11.3,2.1,15.2s1,6.3,1.2,7.3s0.4,1.8,0.6,2.5
	s0.3,1.1,0.3,1.1c1,3.7,2.4,7.3,4.2,10.8c1.8,3.4,4,6.8,7,11.4c0.5,0.9,1.2,1.7,1.9,2.5c0.8,0.9,1.9,1.6,3,2
	c0.7,0.3,1.4,0.4,2.2,0.5c1.1,0.1,2.2-0.2,3.1-0.9c0.8-0.7,1.3-1.5,1.5-2.5c0.1-0.6,0.2-1.1,0.2-1.7c0.8,0.9,1.8,1.9,2.8,2.9
	c1.1,1.1,2.3,2.1,3.5,3c2.7,2.1,5.6,4,8.7,5.7c3.3,1.7,6.8,2.9,9.7,2.3c0.8-0.1,1.5-0.4,2.1-0.9c0.3-0.2,0.5-0.4,0.8-0.6
	c0.4-0.5,0.8-1,1-1.6c0.2-0.4,0.3-0.8,0.4-1.3c1,0.7,2,1.2,3.2,1.7c1,0.4,2,0.7,3,0.9c0.8,0.1,1.5,0.2,2.3,0.1
	c0.8-0.1,1.6-0.4,2.2-0.9c0.7-0.6,1.2-1.4,1.4-2.4c0.3-1.2,0.2-2.5-0.3-3.6c-0.1-0.2-0.2-0.4-0.3-0.6c1,0.7,2.3,1,3.6,0.8
	c1.2-0.2,2.4-0.8,3.1-1.8c0.7-0.9,1.1-2.1,1-3.3C619.8,901.2,619.3,900,618.5,899.1z"/>
<path class="st3" d="M449.1,796.2c-9.5-6.2-17.9-11.4-25.1-15.7s-13.2-7.7-18-10.3c-0.9-0.5-2.1-1.2-3.6-1.9
	c-1.8-0.8-3.6-1.4-5.5-1.9c-5.6-1.1-11.4-0.8-16.9,1c-5.8,1.8-10.9,5.1-15,9.6c-2.6,2.9-4.8,6.3-6.2,10c-1,2.6-1.8,5.3-2.4,8.1
	c-1.1,5.2-1.3,10.5-0.6,15.8c0.6,4.5,1.6,9,3,13.4c5,18.1,10,35.5,13.7,48.4s6.1,21.3,6.1,21.3h102.5l-1-8l-1-8
	c7.6,0.1,15.1-0.8,22.5-2.7c11.5-3,24.6-9.3,32.3-22.4c1.9-3.2,3.4-6.6,4.4-10.2c0.9-3.1,1.5-6.4,1.8-9.6c-0.6-3.1-1.1-6.2-1.6-9.4
	s-1-6.4-1.5-9.6c-0.6-3.9-1.1-7.8-1.6-11.7c-0.5-3.8-0.9-7.6-1.3-11.3l-42.5,2.5L449.1,796.2z"/>
<path class="st6" d="M479.1,879.2c-0.3,0-0.6-0.1-0.8-0.3c-0.2-0.2-0.4-0.5-0.4-0.8l-1.9-11.2l-1.9-11.3c-0.1-0.3,0-0.7,0.2-0.9
	c0.2-0.3,0.5-0.5,0.8-0.5c0.3-0.1,0.7,0,0.9,0.2c0.3,0.2,0.5,0.5,0.5,0.8l1.8,11.3l1.9,11.3c0.1,0.3,0,0.7-0.2,0.9
	c-0.2,0.3-0.5,0.5-0.8,0.5L479.1,879.2L479.1,879.2z"/>
<path class="st6" d="M405.4,954.6h-0.1h-0.2c-0.6-0.2-1.1-0.5-1.5-1c-0.4-0.5-0.6-1.1-0.7-1.7c0-0.5,0.1-1.1,0.4-1.5
	c0.3-0.5,0.7-0.9,1.1-1.2l12.2-7.9l12.2-7.9c0.3-0.2,0.6-0.4,0.9-0.7c0.2-0.2,0.5-0.5,0.7-0.7c0.2-0.2,0.3-0.5,0.5-0.8
	c0.1-0.3,0.2-0.5,0.3-0.8c0.1-0.4,0.2-0.9,0.2-1.4c0-0.5-0.1-1-0.2-1.5l-5-17l-5-17c-5.1-12.8-9.1-24.5-12.1-33.8s-4.7-16.3-5-19.7
	c-0.3-3-0.3-5.9,0-8.9c0.3-3.2,1.4-6.4,3.1-9.1c1.5-2.2,3.3-4.2,5.4-5.8c2.1-1.6,4.3-3.2,6.6-4.6l0.5-0.3l0.5-0.3
	c4-2.6,8.1-5,12.7-7.5s9.7-5,15.5-7.7c-3.8-3.5-7-7.5-9.6-12c-1.5-2.6-2.9-5.3-3.9-8.1c-1.5-3.9-2.2-8-2.2-12.1
	c0-4.2,0.7-8.4,2.2-12.3c1.1-3.1,2.6-6,4.5-8.7c0.2-0.3,0.5-0.5,0.8-0.5c0.3-0.1,0.7,0,0.9,0.2c0.3,0.2,0.5,0.5,0.5,0.8
	c0.1,0.3,0,0.7-0.2,0.9c-1.7,2.5-3.1,5.2-4.2,8.1c-1.3,3.7-2,7.5-2,11.5c0,3.9,0.8,7.7,2.1,11.3c1,2.6,2.3,5.2,3.7,7.6
	c1.4,2.4,2.9,4.6,4.7,6.7c1.8,2.1,3.7,4.1,5.8,5.9l0.7,0.6l0.8,0.6l-0.9,0.4l-0.9,0.4c-6.1,2.8-11.5,5.5-16.4,8.1s-9.2,5.2-13.3,7.8
	l-0.5,0.3l-0.5,0.3c-2.1,1.3-4.2,2.8-6.2,4.3c-1.9,1.5-3.6,3.3-5,5.4c-1.5,2.5-2.5,5.3-2.7,8.2c-0.3,2.7-0.3,5.4,0,8.1
	c0.3,2.7,1.7,8.8,4.5,17.8s6.9,20.9,12.5,35.2v0.1l0,0l5,17l5,17c0.2,0.7,0.3,1.4,0.3,2.2c0,0.7-0.1,1.4-0.3,2v0l0,0
	c-0.1,0.4-0.3,0.8-0.5,1.2c-0.2,0.4-0.4,0.8-0.7,1.1c-0.3,0.4-0.6,0.7-1,1c-0.4,0.3-0.8,0.7-1.2,0.9l-12.2,7.9l-12.2,7.9
	c-0.1,0-0.2,0.1-0.2,0.2c0,0.1-0.1,0.1-0.1,0.2c0,0.1,0,0.2,0.1,0.2c0.1,0.1,0.1,0.1,0.2,0.1c0.7,0.2,1.1,0.9,0.9,1.5c0,0,0,0,0,0
	c-0.1,0.3-0.2,0.5-0.5,0.7C406,954.3,405.7,954.5,405.4,954.6z"/>
<path class="st7" d="M833.4,544.7l-55.9-9.8l-55.9-9.8c-0.9-0.2-1.6-0.9-1.8-1.7c-0.2-0.9,0-1.9,0.6-2.6l17.2-19.8l17.2-19.8
	c4-4.6,9-8.2,14.7-10.4c5.5-2.1,11.4-2.7,17.1-1.7l0,0c5.3,0.9,10.3,3.2,14.5,6.6c4.4,3.5,7.9,8,10.2,13.1l12.2,26.2l12.2,26.2
	c0.4,0.9,0.3,1.9-0.2,2.8C835.2,544.4,834.3,544.8,833.4,544.7z"/>
<path class="st8" d="M571.8,903.2c-0.2,0-0.3,0-0.5-0.1c-0.2-0.1-0.3-0.2-0.4-0.3c-0.8-1-1.6-1.9-2.4-3s-1.5-2.1-2.2-3.1
	s-1.3-2.1-1.9-3.2s-1.2-2.2-1.7-3.4c-0.1-0.3-0.1-0.6,0-1c0.2-0.6,0.9-1,1.6-0.7c0,0,0,0,0,0c0.3,0.1,0.6,0.3,0.7,0.7
	c0.5,1.1,1,2.2,1.6,3.2s1.2,2.1,1.8,3.1s1.3,2,2.1,3s1.5,1.9,2.3,2.8c0.2,0.3,0.3,0.6,0.3,0.9c0,0.3-0.2,0.6-0.4,0.8
	c-0.1,0.1-0.2,0.2-0.4,0.2C572.1,903.1,571.9,903.1,571.8,903.2z"/>
<path class="st8" d="M600.8,912.5c-0.1,0-0.3,0-0.4-0.1c-0.1,0-0.2-0.1-0.3-0.2c-1.9-1.4-3.8-2.8-5.7-4.3c-1.9-1.5-3.7-3-5.5-4.5
	c-2.3-2-4.6-4.1-6.8-6.2s-4.4-4.4-6.4-6.6c-0.2-0.2-0.3-0.6-0.3-0.9c0-0.3,0.2-0.6,0.4-0.9c0.5-0.5,1.3-0.4,1.8,0.1
	c2,2.2,4.2,4.4,6.3,6.5c2.2,2.1,4.4,4.2,6.7,6.1c1.8,1.5,3.6,3,5.4,4.5s3.7,2.8,5.6,4.2c0.6,0.4,0.7,1.2,0.3,1.8
	c-0.1,0.2-0.3,0.3-0.4,0.4C601.2,912.4,601,912.5,600.8,912.5z"/>
<path class="st8" d="M612.2,907.6c-0.1,0-0.2,0-0.3,0c-0.1,0-0.2-0.1-0.3-0.2l-1.8-1.2l-1.8-1.2c0,0-1-0.7-2.3-1.7s-3.2-2.4-4.9-3.8
	c-3.2-2.6-6.4-5.5-9-8.1s-4.6-4.6-5.5-5.6c-0.2-0.2-0.4-0.6-0.3-0.9c0-0.7,0.6-1.2,1.3-1.2c0.3,0,0.7,0.2,0.9,0.4
	c0.9,0.9,2.8,3,5.4,5.5s5.6,5.4,8.8,7.9c1.7,1.4,3.5,2.7,4.8,3.7s2.3,1.6,2.3,1.7l1.8,1.2l1.8,1.2c0.3,0.2,0.5,0.5,0.5,0.8
	c0.1,0.3,0,0.7-0.2,0.9c-0.1,0.2-0.3,0.3-0.5,0.4C612.6,907.6,612.4,907.6,612.2,907.6z"/>
<path class="st8" d="M605.5,890.5c-0.1,0-0.3,0-0.4-0.1c-0.1-0.1-0.3-0.1-0.4-0.2c-0.5-0.5-1.1-0.9-1.6-1.4s-1-1-1.5-1.5
	c-1.1-1.1-2.2-2.3-3.2-3.5c-1-1.2-1.9-2.5-2.8-3.8c-0.2-0.3-0.2-0.6-0.2-0.9c0.1-0.3,0.3-0.6,0.5-0.8c0.3-0.2,0.6-0.2,0.9-0.2
	c0.3,0.1,0.6,0.3,0.8,0.5c0.8,1.3,1.7,2.5,2.6,3.6c0.9,1.2,1.9,2.3,3,3.3c0.5,0.5,1,0.9,1.5,1.4s1,0.9,1.5,1.3
	c0.5,0.4,0.6,1.2,0.2,1.7c0,0,0,0,0,0c-0.1,0.1-0.3,0.3-0.4,0.3C605.9,890.5,605.7,890.5,605.5,890.5z"/>
<path class="st6" d="M533.3,792.3c-0.3,0-0.6-0.1-0.8-0.3c-0.2-0.2-0.4-0.5-0.4-0.8l-2.1-20l-2.1-20c-0.1-0.7,0.4-1.3,1.1-1.4
	c0.3,0,0.6,0.1,0.9,0.3c0.3,0.2,0.4,0.5,0.5,0.8l2.1,20l2.1,20c0,0.3-0.1,0.7-0.3,0.9C534,792.1,533.7,792.2,533.3,792.3
	L533.3,792.3L533.3,792.3z"/>
<path class="st7" d="M455.3,274.6l-158.4-7.7l-158.4-7.7c-2-0.1-3.5-1.8-3.4-3.7c0,0,0,0,0,0l0,0c4.3-89.4,80.4-158.4,169.8-154.1
	h0.2c89.4,4.3,158.4,80.3,154.1,169.8c0,0,0,0,0,0l0,0C459,273.2,457.3,274.7,455.3,274.6L455.3,274.6z"/>
<path class="st8" d="M284.1,206.9h-0.2c-0.7,0-1.3-0.4-1.7-0.9c-0.4-0.5-0.6-1.2-0.6-1.8l3.6-48.3l3.6-48.3L252,132.3L215.2,157
	c-0.6,0.4-1.2,0.5-1.9,0.4c-0.6-0.1-1.2-0.5-1.6-1.1c-0.4-0.6-0.5-1.2-0.4-1.9c0.1-0.7,0.5-1.2,1.1-1.6l36.9-24.7l36.9-24.7
	c1.8-1.8,4.8-1.7,6.5,0.1c0.9,0.9,1.4,2.2,1.3,3.6l-3.7,48.7l-3.7,48.7C286.5,205.9,285.4,206.9,284.1,206.9L284.1,206.9z"/>
<path class="st8" d="M361.1,184.2c-0.3,0-0.7-0.1-1-0.2c-0.3-0.1-0.6-0.4-0.9-0.6l-35-39.1l-35-39.1l0.8-1.8l0.8-1.8l1.2,0.4
	l1.1,0.4l39.5,14.7l39.5,14.7c1.3,0.5,2,1.9,1.5,3.2s-1.9,2-3.2,1.5l-34.8-12.9l-34.8-12.9l31.1,34.8l31.1,34.8
	c0.9,1,0.8,2.6-0.2,3.5c0,0,0,0,0,0c-0.2,0.2-0.5,0.4-0.8,0.5C361.7,184.1,361.4,184.2,361.1,184.2z"/>
<path class="st8" d="M605.6,889.8l-1-0.8l-0.7-0.5c0.2,0.3,0.5,0.5,0.8,0.8C605,889.5,605.3,889.7,605.6,889.8z"/>
<path class="st9" d="M502.6,667.3c0,13.6-11,24.6-24.6,24.6s-24.6-11-24.6-24.6c0-13.6,11-24.6,24.6-24.6c6.5,0,12.8,2.6,17.4,7.2
	C500,654.6,502.6,660.8,502.6,667.3z"/>
<path class="st1" d="M468.2,666.1c-0.1,0.5-0.4,0.9-0.8,1.2c-0.4,0.3-0.9,0.4-1.4,0.3c-0.5-0.1-0.9-0.4-1.2-0.8
	c-0.6-0.8-0.3-2,0.5-2.6c0.8-0.6,2-0.3,2.6,0.5C468.2,665.1,468.3,665.6,468.2,666.1z"/>
<path class="st1" d="M481.7,667.3c-0.1,0.5-0.4,0.9-0.8,1.2c-0.8,0.6-2,0.3-2.6-0.5c-0.3-0.4-0.4-0.9-0.3-1.4c0.2-1,1.1-1.7,2.1-1.6
	c1,0.2,1.7,1.1,1.6,2.1C481.8,667.3,481.8,667.3,481.7,667.3z"/>
<path class="st8" d="M472.9,678.9L472.9,678.9c-1.8,0-3.6-0.5-5.2-1.4c-0.9-0.5-1.8-1.2-2.5-2c-0.2-0.2-0.3-0.6-0.3-0.9
	c0-0.3,0.2-0.6,0.4-0.9c0.2-0.2,0.6-0.3,0.9-0.3c0.3,0,0.6,0.2,0.9,0.4c0.6,0.6,1.2,1.1,1.9,1.5c1.2,0.7,2.6,1.1,3.9,1.1l0,0
	c1.3,0,2.6-0.3,3.8-1c0.7-0.4,1.3-0.9,1.9-1.4c0.5-0.5,1.3-0.5,1.8,0c0.2,0.2,0.4,0.5,0.4,0.9c0,0.3-0.1,0.7-0.4,0.9
	c-0.7,0.7-1.6,1.4-2.5,1.9C476.3,678.4,474.6,678.9,472.9,678.9z"/>
<path class="st8" d="M471.1,655.2c1.5,2.1,3.5,3.7,5.8,4.7c2.4,1,5,1.3,7.5,0.9c1,2.9,3.1,5.3,5.8,6.7c2.5,1.3,5.3,1.4,7.9,0.4
	c0.9-0.4,1.7-0.9,2.4-1.6c0.7-0.7,1.3-1.5,1.8-2.3c-1.9-13.5-14.3-22.8-27.8-20.9c-1.9,0.3-3.8,0.8-5.6,1.5
	c-0.4,1.8-0.5,3.7-0.1,5.5C469.2,651.9,470,653.6,471.1,655.2z"/>
<path class="st8" d="M518.9,629.7c0,11.3-9.1,20.4-20.4,20.4s-20.4-9.1-20.4-20.4c0-11.3,9.1-20.4,20.4-20.4c5.4,0,10.6,2.1,14.4,6
	C516.8,619.1,518.9,624.3,518.9,629.7z"/>
<path class="st8" d="M527,602.8c0,7.6-6.1,13.7-13.7,13.7c-7.6,0-13.7-6.1-13.7-13.7c0-7.6,6.1-13.7,13.7-13.7c3.6,0,7.1,1.4,9.7,4
	C525.6,595.7,527,599.1,527,602.8z"/>
<path class="st1" d="M230.9,826.8c0,1.2-1.2,2.3-3,3c-4.7,1.7-9.9,1.7-14.6,0c-1.9-0.8-3-1.9-3-3s1.2-2.3,3-3
	c4.7-1.7,9.9-1.7,14.6,0C229.7,824.5,230.9,825.6,230.9,826.8z"/>
<path class="st1" d="M745,825.6c0,1.2-1.2,2.3-3,3.1c-4.7,1.7-9.9,1.7-14.6,0c-1.9-0.8-3-1.9-3-3.1s1.2-2.3,3-3
	c4.7-1.7,9.9-1.7,14.6,0C743.9,823.3,745,824.4,745,825.6z"/>
<path class="st5" d="M310.1,446.3c0,8.6-7,15.5-15.5,15.5c-8.6,0-15.5-7-15.5-15.5c0-8.6,7-15.5,15.5-15.5c4.1,0,8.1,1.6,11,4.5
	C308.5,438.2,310.1,442.2,310.1,446.3z"/>
<path class="st5" d="M370.9,495c0,8.6-7,15.6-15.5,15.6c-8.6,0-15.6-7-15.6-15.5c0-8.6,7-15.6,15.5-15.6c4.1,0,8.1,1.6,11,4.5
	C369.3,486.9,370.9,490.9,370.9,495z"/>
<path class="st5" d="M387,405.8c0,8.6-7,15.5-15.5,15.5c-8.6,0-15.5-7-15.5-15.5c0-8.6,7-15.5,15.5-15.5c4.1,0,8.1,1.6,11,4.5
	C385.4,397.7,387,401.7,387,405.8z"/>
<path class="st8" d="M809.7,518.3c-0.6,1.9-2.1,3.5-4,4.2c-4.5,1.6-9.5,0.2-12.6-3.5c-2.2-2.5-1.9-6.3,0.6-8.5
	c0.6-0.5,1.3-0.9,2.1-1.2c4.5-1.7,9.6-0.3,12.6,3.5C809.7,514.3,810.2,516.4,809.7,518.3z"/>
<path class="st8" d="M820.3,531.5c-0.4,1.2-1.3,2.1-2.4,2.5c-2.8,1-5.9,0.2-7.7-2.1c-1.4-1.5-1.2-3.9,0.3-5.2
	c0.4-0.4,0.9-0.6,1.4-0.8c2.8-1,5.9-0.1,7.7,2.1C820.4,529,820.7,530.3,820.3,531.5z"/>
<path class="st8" d="M851.1,640.3c-0.6,1.2-1.7,2-3,2.2c-3.1,0.6-6.2-0.8-7.7-3.5c-1.2-1.8-0.6-4.3,1.2-5.4c0.5-0.3,1-0.5,1.5-0.6
	c1.5-0.3,3-0.1,4.4,0.5c1.4,0.6,2.5,1.7,3.3,3C851.5,637.7,851.6,639.1,851.1,640.3z"/>
<path class="st8" d="M834.8,643.3c-0.4,0.8-1.1,1.4-2,1.5c-2.1,0.4-4.2-0.6-5.2-2.4c-0.8-1.2-0.4-2.9,0.9-3.6c0.3-0.2,0.6-0.3,1-0.4
	c2.1-0.4,4.2,0.6,5.2,2.4C835,641.5,835.1,642.5,834.8,643.3z"/>
</svg>
