<?xml version="1.0" encoding="utf-8"?>
<!-- Generator: Adobe Illustrator 28.0.0, SVG Export Plug-In . SVG Version: 6.00 Build 0)  -->
<svg version="1.1" id="Layer_1" xmlns="http://www.w3.org/2000/svg" xmlns:xlink="http://www.w3.org/1999/xlink" x="0px" y="0px"
	 viewBox="0 0 1000 1000" style="enable-background:new 0 0 1000 1000;" xml:space="preserve">
<style type="text/css">
	.st0{fill:#666538;}
	.st1{fill:#F98638;}
	.st2{fill:#F4ECE5;}
	.st3{fill:#FFAA9F;}
	.st4{fill:#DEB8FC;}
	.st5{fill:#2B3D0A;}
	.st6{fill:#AD4D4D;}
	.st7{fill:#353519;}
	.st8{fill:#BAB653;}
	.st9{fill:#E9CF81;}
</style>
<path class="st0" d="M166,551l11.1,26.7l11.1,26.7c2.6,6.2,6.9,11.6,12.3,15.6l4.8,3.5l4.8,3.5c2.7,2,6.5,1.4,8.5-1.3
	c0.4-0.6,0.8-1.3,1-2l1.4-5.2l1.4-5.2c0.1-0.4,0.3-0.8,0.4-1.2c0.2-0.4,0.4-0.7,0.7-1.1c0.5-0.6,1.2-1.1,1.9-1.4
	c0.7-0.3,1.5-0.4,2.2-0.2c0.5,0.1,1,0.2,1.5,0.4c0.6,0.2,1.1,0.5,1.6,0.8c0.3,0.2,0.6,0.5,0.9,0.8c1.1,1.1,1.8,2.4,2.3,3.9
	c0.4,1.2,0.7,2.5,0.8,3.8c0.1,0.9,0.2,1.8,0.3,2.7s0.2,1.8,0.3,2.7c0.4,3.1,0.8,6.1,1.2,9.2c0.4,3.1,0.8,6.1,1.2,9.2
	c0.9,7.1,4.7,13.4,10.5,17.6l5.3,3.8l5.2,3.8c6.2,4.4,14.8,3,19.3-3.2c1-1.4,1.7-3,2.2-4.6l0,0c0.1-0.5,0.3-0.9,0.5-1.4
	c0.2-0.4,0.5-0.8,0.8-1.2c0.3-0.3,0.6-0.6,0.9-0.8c1.2-0.8,2.6-1.1,4-0.7c0.6,0.2,1.3,0.4,1.9,0.7c1.1,0.5,2,1.3,2.7,2.3
	c0.6,0.8,1.1,1.8,1.5,2.8c0.2,0.6,0.4,1.3,0.5,1.9c0.1,0.7,0.2,1.3,0.2,2c0.2,4.3,0.5,8.2,0.8,11.8s0.7,7.1,1,10.8
	c0.7,8,4.8,15.3,11.3,20.1l7.1,5.2l7.1,5.2c8.8,6.5,21.1,4.6,27.6-4.2c0.2-0.2,0.3-0.4,0.5-0.7l7.3-10.7l7.3-10.7l-98.5-70.8
	L166,551z"/>
<path class="st1" d="M588.9,744.1c0,23.4-11.7,44.6-30.7,59.9S513,828.8,484,828.8s-55.2-9.5-74.2-24.8s-30.7-36.5-30.7-59.9
	s11.7-44.6,30.7-59.9s45.2-24.8,74.2-24.8c29,0,55.2,9.5,74.2,24.8S588.9,720.7,588.9,744.1z"/>
<path class="st2" d="M645.2,748.5c-7.1,4.7-14.6,8.6-22.5,11.6c-7.9,3-16.1,5.2-24.5,6.3c-9.7,1.2-19.5,1.5-29.2,0.8
	c-9.7-0.6-19.3-1.8-29.1-2.9c-27.1-3.2-54.9-3-82.5-0.5c-27.4,2.7-54.7,7-81.6,13c-22.1,4.9-44.9,6-67.4,3.4
	c-22.7-2.8-44.6-10-63.1-23l-12.3,31l-12.3,31c12.5,8.1,25.6,15.2,39.2,21.1c13.6,5.9,27.6,10.8,42,14.6c7.9,2.1,16,3.8,24.1,5.1
	c8.1,1.3,16.3,2.1,24.5,2.3c1.5,0,10.6,0.1,19.4-0.3s17-1.1,16.9-2.6l1.4,23.1l1.4,23.1h188.1v-46.8c0,0.2,3.4,0,7-0.2
	s7.1-0.6,7.5-0.7c6.4-0.8,12.8-2.1,19-3.8c6.2-1.7,12.4-3.7,18.4-6.2c16.7-6.8,32.3-16,46.3-27.3c14.1-11.3,26.8-24,38.1-38.1
	c2-2.5,4-5.1,6-7.7s3.9-5.2,5.8-7.8l-24.1-25.3l-24.1-25.3c-4.4,6.1-9.2,11.8-14.6,17.1C657.6,739.4,651.6,744.2,645.2,748.5z"/>
<path class="st3" d="M777.8,659c-0.8-0.7-1.7-1.2-2.7-1.4c-0.8-0.2-1.6-0.4-2.5-0.4c0.1-1.9-0.4-3.8-1.4-5.4
	c-0.9-1.5-2.4-2.6-4.1-3.2c-2.1-0.6-4.4-0.3-6.2,0.9c-2,1.2-3.5,3.2-4,5.5c-1.6-1.1-3.6-1.6-5.5-1.5c-3.1,0.2-7,2.4-9.9,10.1
	c-0.4,1-0.8,2.1-1.2,3.1s-0.9,2-1.3,3.1c-1.9,4.1-4.1,8.1-6.4,12c-2.7,4.6-6,8.9-9.7,12.8c-1.4,1.4-3.3,2-5.3,1.7
	c-1.9-0.3-3.7-1.4-4.7-3c-0.9-1.4-1.1-3.1-0.7-4.7c0.5-1.6,1.1-3.1,1.8-4.7c1.4-3.2,2.5-6.5,3.3-9.8c0.7-3.7,0.3-7.2-2.9-8.8
	c-3.4-1.7-6.3-0.3-8.6,2.2c-2.1,2.5-3.9,5.4-5.2,8.5c-3.3,7.2-6.8,14.3-10.6,21.2c-3.7,6.8-7.9,13.4-12.4,19.7l24.1,25.3l24.1,25.3
	c4.3-6,8.5-12.1,12.6-18.3s8.1-12.3,12.2-18.5c5.7-8.7,11-17.7,15.7-27c4.7-9.3,8.9-18.9,12.5-28.6l0.1-0.3c0-0.1,0.1-0.2,0.1-0.3
	c0.4-1,0.7-2.1,0.9-3.2c0.3-1.1,0.4-2.2,0.5-3.3c0.1-1.5,0.1-3-0.2-4.4C780,661.8,779.1,660.2,777.8,659z"/>
<path class="st4" d="M386.7,859.7l9.9-10.9l9.9-10.9v-67.1c2.3-0.4,4.7-0.9,7.1-1.3s4.8-0.8,7.2-1.2c3.4-0.5,6.8-1,10.1-1.5
	c3.3-0.5,6.6-0.9,9.8-1.2v56.7c0,8.9,7.2,16.1,16.1,16.1h52.1c8.9,0,16.1-7.2,16.1-16.1v-59.4c2.7,0.2,5.5,0.4,8.2,0.7
	s5.6,0.5,8.4,0.8c3.3,0.3,6.5,0.7,9.7,1.1s6.3,0.8,9.5,1.2v71.8l8.5,10.4l8.5,10.4v46.8H389.6l-1.4-23.1L386.7,859.7z"/>
<path class="st5" d="M438.9,744.5c0,7.7-6.2,13.9-13.9,13.9s-13.9-6.2-13.9-13.9c0-7.7,6.2-13.9,13.9-13.9c3.7,0,7.2,1.5,9.8,4.1
	C437.4,737.3,438.9,740.8,438.9,744.5z"/>
<path class="st5" d="M412.5,739.3c0,7.7-6.2,13.9-13.9,13.9s-13.9-6.2-13.9-13.9c0-7.7,6.2-13.9,13.9-13.9c3.7,0,7.2,1.5,9.8,4.1
	C411,732.1,412.5,735.6,412.5,739.3z"/>
<path class="st5" d="M526.4,742.8c0.5,7.7,7.1,13.5,14.7,13c7.7-0.5,13.5-7.1,13-14.7s-7.1-13.5-14.7-13c-3.7,0.2-7.1,1.9-9.6,4.7
	C527.4,735.5,526.1,739.1,526.4,742.8z"/>
<path class="st5" d="M552.4,736c0.5,7.7,7.1,13.5,14.7,13c7.7-0.5,13.5-7.1,13-14.7s-7.1-13.5-14.7-13c-3.7,0.2-7.1,1.9-9.6,4.7
	C553.4,728.7,552.2,732.3,552.4,736z"/>
<path class="st5" d="M579.9,732.5l14.8,4.3l14.8,4.3c0.7,0.2,1.5,0,2-0.5c0.5-0.5,0.7-1.2,0.6-1.9l-3.6-15l-3.6-15
	c-0.2-1.1-1.3-1.8-2.4-1.5c-0.4,0.1-0.7,0.3-1,0.5l-11.2,10.7l-11.1,10.6c-0.8,0.7-0.9,2-0.1,2.8
	C579.2,732.2,579.5,732.4,579.9,732.5z"/>
<path class="st5" d="M386.5,739.1l-14.1,6.1l-14.1,6.1c-1,0.5-2.2,0-2.7-1c-0.2-0.3-0.2-0.7-0.2-1.1l1.8-15.3l1.8-15.3
	c0.1-1.1,1.1-1.9,2.2-1.8c0.4,0,0.7,0.2,1,0.4l12.4,9.2l12.4,9.2c0.6,0.4,0.9,1.1,0.8,1.9C387.6,738.2,387.2,738.8,386.5,739.1z"/>
<path class="st1" d="M425.2,868.8c-7,0-12.7-5.7-12.7-12.7c0-7,5.7-12.7,12.7-12.7c7,0,12.7,5.7,12.7,12.7c0,3.4-1.3,6.6-3.7,9
	C431.8,867.5,428.6,868.8,425.2,868.8z M425.2,848.4c-4.3,0-7.7,3.4-7.7,7.7c0,4.3,3.4,7.7,7.7,7.7c4.3,0,7.7-3.4,7.7-7.7
	c0-2.1-0.8-4-2.3-5.5C429.2,849.2,427.2,848.4,425.2,848.4z"/>
<path class="st1" d="M543.4,868.8c-7,0-12.7-5.7-12.7-12.7c0-7,5.7-12.7,12.7-12.7c7,0,12.7,5.7,12.7,12.7c0,3.4-1.3,6.6-3.7,9
	C550,867.5,546.8,868.8,543.4,868.8z M543.4,848.4c-4.3,0-7.7,3.4-7.7,7.7c0,4.3,3.4,7.7,7.7,7.7c4.3,0,7.7-3.4,7.7-7.7
	c0-2.1-0.8-4-2.3-5.5C547.4,849.2,545.4,848.4,543.4,848.4z"/>
<path class="st6" d="M739.5,698.1c-0.1,0-0.2,0-0.3,0c-0.1,0-0.2-0.1-0.3-0.2c-0.3-0.2-0.5-0.5-0.5-0.8c-0.1-0.3,0-0.7,0.2-0.9
	c1.8-2.9,3.6-5.8,5.2-8.8c1.6-3,3.1-6.1,4.5-9.2c3.4-7.9,6.1-16.1,7.9-24.5c0.1-0.3,0.3-0.6,0.5-0.8c0.3-0.2,0.6-0.2,0.9-0.2
	c0.3,0.1,0.6,0.3,0.8,0.5c0.2,0.3,0.2,0.6,0.2,0.9c-0.9,4.3-2,8.5-3.4,12.7c-1.3,4.2-2.9,8.3-4.6,12.3c-1.4,3.2-2.9,6.3-4.5,9.4
	s-3.4,6.1-5.3,9c-0.1,0.2-0.3,0.3-0.5,0.4C739.9,698,739.7,698.1,739.5,698.1z"/>
<path class="st6" d="M752.2,704.5c-0.1,0-0.2,0-0.3,0c-0.1,0-0.2-0.1-0.3-0.2c-0.3-0.2-0.5-0.5-0.5-0.8c-0.1-0.3,0-0.7,0.2-0.9
	c1.9-3,3.8-6,5.5-9.1s3.3-6.3,4.8-9.5c2-4.3,3.8-8.7,5.3-13.1c1.5-4.5,2.9-9,4-13.6c0.1-0.3,0.3-0.6,0.6-0.8
	c0.6-0.3,1.3-0.2,1.7,0.4c0.2,0.3,0.2,0.6,0.2,1c-1.1,4.7-2.5,9.3-4.1,13.8c-1.6,4.5-3.4,9-5.4,13.4c-1.5,3.3-3.1,6.5-4.9,9.6
	c-1.7,3.2-3.6,6.2-5.5,9.3c-0.1,0.2-0.3,0.3-0.5,0.4C752.6,704.5,752.4,704.5,752.2,704.5z"/>
<path class="st3" d="M238.7,752.3c-4.2-3.5-8.1-7.3-11.6-11.4c-3.5-4-6.8-8.3-10-12.8c-2.4-3.4-5-6.7-7.8-9.8
	c-3.4-3.6-7.4-6.5-10.6-5.5c-0.6,0.2-1.2,0.5-1.6,1c-0.5,0.4-0.8,1-1.1,1.5c-0.6,1.4-0.8,2.9-0.6,4.4c0.3,2.7,1.2,5.3,2.6,7.6
	c0.5,0.9,1.1,1.8,1.7,2.6c0.6,0.8,1.2,1.7,1.9,2.5c0.4,0.6,0.8,1.1,1.2,1.7c0.3,0.5,0.6,1,0.8,1.5c0.4,0.8,0.8,1.7,1.1,2.6
	c0.3,0.8,0.2,1.6-0.2,2.4c-0.3,0.4-0.7,0.6-1.1,0.8c-0.3,0.1-0.7,0.2-1,0.2c-4.2,0.4-9.9-3.9-14.5-8.3c-2.9-2.8-5.7-5.7-8.2-8.9
	c-0.6-0.8-4.4-5.3-8.8-9.8s-9.4-8.8-12.3-9c-0.7-0.1-1.5,0-2.2,0.3c-0.3,0.1-0.6,0.2-0.8,0.4c-1.1,0.8-1.9,2-2.2,3.4
	c-0.2,0.9-0.3,1.9-0.3,2.9c-0.8-0.3-1.6-0.4-2.4-0.5c-1-0.1-2.1,0.2-3,0.7c-1.5,1.2-2.4,2.9-2.4,4.8c-0.1,2.6,0.6,5.2,2,7.4
	c-1.3,0.3-2.4,1.2-2.9,2.5c-0.9,2.2-0.9,6.5,3.2,14.4c8.7,15.8,19.4,30.3,31.9,43.3c12.5,12.9,26.4,24.3,41.4,34.1l12.3-31l12.3-31
	c-1.1-0.8-2.2-1.6-3.3-2.4S239.7,753.2,238.7,752.3z"/>
<path class="st5" d="M246,835.2h-0.2c-0.1,0-0.1,0-0.2,0c-0.3-0.1-0.6-0.3-0.7-0.6c-0.2-0.3-0.2-0.7-0.1-1l10.5-32.3l10.5-32.3
	c0.1-0.3,0.3-0.6,0.6-0.7c0.3-0.2,0.7-0.2,1-0.1c0.3,0.1,0.6,0.3,0.7,0.6c0.2,0.3,0.2,0.7,0.1,1L257.6,802l-10.5,32.3
	c-0.1,0.3-0.2,0.5-0.5,0.6C246.5,835.1,246.2,835.2,246,835.2z"/>
<path class="st6" d="M185.8,751.1c-0.1,0-0.3,0-0.4-0.1c-0.1,0-0.3-0.1-0.4-0.2c-5-3.6-13-12.7-20-21s-12.8-15.9-13.2-16.5
	c-0.4-0.6-0.3-1.3,0.2-1.8s1.3-0.3,1.8,0.2l0,0c0.1,0.2,5.9,7.7,12.8,16s15.1,17.5,19.9,21c0.3,0.2,0.4,0.5,0.5,0.8
	c0.1,0.3,0,0.7-0.2,0.9c-0.1,0.2-0.3,0.3-0.4,0.4C186.2,751,186,751.1,185.8,751.1z"/>
<path class="st6" d="M178.3,761.9c-0.2,0-0.3,0-0.4-0.1c-0.2-0.1-0.3-0.1-0.4-0.3c-2.4-2.3-4.9-4.7-7.2-7.1s-4.7-4.9-7-7.4
	c-3-3.4-6-6.8-8.9-10.4c-2.9-3.5-5.6-7.2-8.3-10.8c-0.2-0.3-0.3-0.6-0.2-0.9c0.1-0.3,0.2-0.6,0.5-0.8c0.3-0.2,0.6-0.3,0.9-0.2
	c0.3,0.1,0.6,0.2,0.8,0.5c2.6,3.6,5.4,7.2,8.2,10.7s5.8,7,8.8,10.3c2.2,2.5,4.5,4.9,6.9,7.3c2.4,2.4,4.8,4.8,7.2,7.1
	c0.5,0.5,0.5,1.3,0.1,1.8c-0.1,0.1-0.3,0.2-0.4,0.3C178.6,761.9,178.4,761.9,178.3,761.9z"/>
<path class="st5" d="M706.8,792.7c-0.2,0-0.3,0-0.5-0.1c-0.2-0.1-0.3-0.2-0.4-0.3l-23.6-27.1L658.7,738c-0.2-0.3-0.3-0.6-0.3-0.9
	c0-0.7,0.6-1.2,1.3-1.2c0.3,0,0.6,0.2,0.9,0.4l23.6,27.1l23.6,27.1c0.2,0.3,0.3,0.6,0.3,0.9c0,0.3-0.2,0.6-0.4,0.8
	c-0.1,0.1-0.2,0.2-0.4,0.2C707.1,792.7,706.9,792.7,706.8,792.7z"/>
<path class="st3" d="M525.8,741.2c0,24.3-19.7,44-44,44c-24.3,0-44-19.7-44-44c0-24.3,19.7-44,44-44c11.7,0,22.9,4.7,31.1,12.9
	C521.2,718.3,525.9,729.5,525.8,741.2z"/>
<path class="st5" d="M467.7,726.5c0,1.5-1.2,2.7-2.7,2.8s-2.7-1.2-2.8-2.7s1.2-2.7,2.7-2.8c0.7,0,1.4,0.3,2,0.8
	C467.4,725.1,467.7,725.8,467.7,726.5z"/>
<path class="st5" d="M495.4,726.5c0,1.5-1.2,2.7-2.7,2.7c-1.5,0-2.7-1.2-2.7-2.7c0-1.5,1.2-2.7,2.7-2.7c0.7,0,1.4,0.3,1.9,0.8
	C495.2,725.1,495.4,725.8,495.4,726.5z"/>
<path class="st6" d="M479.8,752.7c-1.4,0-2.8-0.3-4.1-0.8c-1.3-0.5-2.6-1.3-3.6-2.2c-2.4-2.2-3.8-5.2-3.9-8.4c0-0.3,0.1-0.7,0.3-0.9
	c0.2-0.2,0.5-0.4,0.9-0.4c0.3,0,0.7,0.1,0.9,0.3c0.2,0.2,0.4,0.5,0.4,0.9c0,1.3,0.3,2.5,0.9,3.7c0.5,1.1,1.3,2.2,2.2,3
	c0.9,0.8,1.9,1.4,3.1,1.9c1.1,0.4,2.3,0.6,3.5,0.5c2.3-0.2,4.4-1.2,5.9-2.8c1.6-1.7,2.5-3.9,2.6-6.2c0-0.3,0.2-0.6,0.4-0.9
	c0.2-0.2,0.6-0.3,0.9-0.3c0.7,0,1.2,0.6,1.2,1.3c-0.1,2.9-1.3,5.7-3.3,7.9c-2,2.1-4.7,3.4-7.6,3.6h-0.3L479.8,752.7z"/>
<path class="st5" d="M466.8,714.3c3.2-1.2,6.3-2.9,9-5c1.9-1.5,3.6-3.1,5.2-4.9c1.4,1.9,3.1,3.7,4.9,5.3c2.9,2.5,6.3,4.4,10,5.6
	c3.8,1.2,7.7,1.6,11.7,1.2c3.1-0.3,6.1-1.1,8.9-2.3c-4-5.2-9.2-9.3-15-12.3c-12.6-6.2-27.4-6.1-39.9,0.4
	c-6.1,3.2-11.3,7.7-15.3,13.3c2.9,0.7,5.9,1,8.9,1C459.1,716.5,463.1,715.7,466.8,714.3z"/>
<polygon class="st4" points="482.2,488 425.4,495.2 368.6,502.4 351.8,370.4 335.1,238.4 391.9,231.2 448.7,224 465.4,356 "/>
<polygon class="st4" points="563.6,462.3 522.9,475.1 482.2,488 465.4,356 448.7,224 489.4,216.8 530.2,209.5 546.9,335.9 "/>
<polygon class="st2" points="472.7,152.2 418.6,159.4 364.5,166.5 349.8,202.5 335.1,238.4 391.9,231.2 448.7,224 460.7,188.1 "/>
<polygon class="st7" points="472.7,152.2 501.4,180.9 530.2,209.5 489.4,216.8 448.7,224 460.7,188.1 "/>
<path class="st5" d="M400.6,213.1c-11.9,0-21.5-9.6-21.5-21.5s9.6-21.5,21.5-21.5c11.9,0,21.5,9.6,21.5,21.5
	c0,5.7-2.3,11.2-6.3,15.2C411.7,210.9,406.3,213.2,400.6,213.1z M400.6,172.8c-10.5,0-19,8.5-19,19s8.5,19,19,19s19-8.5,19-19
	c0-5-2-9.9-5.6-13.5C410.4,174.7,405.6,172.7,400.6,172.8z"/>
<path class="st7" d="M473.1,152.6l-54.2,6.9l-54.2,6.9l-0.9-7.4l-0.9-7.4c-0.6-5,2.9-9.6,8-10.3c0,0,0,0,0,0l45-5.7l45-5.7
	c5-0.6,9.6,2.9,10.3,8c0,0,0,0,0,0l1,7.4L473.1,152.6z"/>
<path class="st5" d="M353.2,264.5c-0.3,0-0.6-0.1-0.8-0.3c-0.5-0.5-0.6-1.2-0.1-1.8c0.2-0.2,0.5-0.4,0.8-0.4l27-3.2l27-3.2
	c0.7-0.1,1.3,0.4,1.4,1.1c0,0.3-0.1,0.7-0.3,0.9c-0.2,0.3-0.5,0.4-0.8,0.5l-27,3.2l-27,3.2L353.2,264.5L353.2,264.5z"/>
<path class="st5" d="M355.5,279.9c-0.3,0-0.6-0.1-0.8-0.3c-0.2-0.2-0.4-0.5-0.4-0.8c0-0.3,0.1-0.7,0.3-0.9c0.2-0.3,0.5-0.4,0.8-0.5
	l17.7-2.1l17.7-2.1c0.7-0.1,1.3,0.4,1.4,1.1c0,0,0,0,0,0c0,0.3-0.1,0.7-0.3,0.9c-0.2,0.3-0.5,0.4-0.8,0.5l-17.7,2.1l-17.7,2.1
	L355.5,279.9L355.5,279.9z"/>
<path class="st5" d="M493.9,417.5c-0.3,0-0.6-0.1-0.8-0.3c-0.2-0.2-0.4-0.4-0.4-0.7c-0.1-0.7,0.3-1.3,1-1.5c0,0,0,0,0,0l23.2-5
	l23.2-5c0.7-0.1,1.3,0.3,1.5,1c0.1,0.3,0,0.7-0.2,0.9c-0.2,0.3-0.5,0.5-0.8,0.5l-23.2,5l-23.2,5h-0.1L493.9,417.5z"/>
<path class="st5" d="M496.3,432.7c-0.3,0-0.6-0.1-0.8-0.3c-0.2-0.2-0.4-0.4-0.4-0.7c-0.1-0.3,0-0.7,0.2-0.9c0.2-0.3,0.5-0.5,0.8-0.5
	l23.2-5l23.2-5c0.7-0.1,1.3,0.3,1.5,1c0,0,0,0,0,0c0.1,0.3,0,0.7-0.2,0.9c-0.2,0.3-0.5,0.5-0.8,0.5l-23.2,5l-23.2,5h-0.1
	L496.3,432.7z"/>
<path class="st5" d="M506.1,446.8c-0.3,0-0.6-0.1-0.8-0.3c-0.2-0.2-0.4-0.4-0.4-0.7c-0.1-0.3,0-0.7,0.2-0.9c0.2-0.3,0.5-0.5,0.8-0.5
	l15.6-3.3l15.6-3.4c0.3-0.1,0.7,0,0.9,0.2c0.3,0.2,0.5,0.5,0.5,0.8c0.1,0.3,0,0.7-0.2,0.9c-0.2,0.3-0.5,0.5-0.8,0.5l-15.6,3.3
	l-15.6,3.4h-0.1L506.1,446.8z"/>
<path class="st7" d="M436.9,285.7c1.7,2.9,0.6,7.1-2.5,11.5s-8.3,8.9-14.7,12.6s-13,5.9-18.3,6.4s-9.5-0.6-11.2-3.6
	s-0.6-7.1,2.5-11.4s8.3-8.9,14.7-12.6s13-5.9,18.3-6.4S435.2,282.8,436.9,285.7z"/>
<path class="st8" d="M534.4,388.8l-20.5,3.1l-20.5,3.1c-1.6,0.3-3.3-0.2-4.7-1.1c-1.3-1-2.2-2.5-2.5-4.1L475.3,319l-10.9-70.9
	c-0.5-3.4,1.8-6.6,5.2-7.1l20.5-3.1l20.5-3.1c3.4-0.5,6.6,1.8,7.1,5.2l10.9,70.9l10.8,70.9C540.2,385.1,537.8,388.3,534.4,388.8
	C534.4,388.8,534.4,388.8,534.4,388.8L534.4,388.8z"/>
<path class="st2" d="M628.8,336.2c-1.2,10.9-5.2,20.4-10.7,27s-12.5,10.3-19.6,9.5s-13.1-5.9-17-13.6s-5.7-17.8-4.4-28.7
	s5.2-20.4,10.7-27s12.4-10.3,19.6-9.5s13.1,5.9,17,13.6S630,325.3,628.8,336.2z"/>
<path class="st2" d="M673.6,435.7c-4.8,9.9-11.7,17.5-19,21.9s-15.1,5.6-21.6,2.5s-10.4-9.9-11.5-18.4s0.5-18.7,5.3-28.5
	s11.7-17.5,19-21.9s15.1-5.6,21.6-2.5s10.4,9.9,11.5,18.4S678.4,425.9,673.6,435.7z"/>
<path class="st9" d="M313,348.1c-0.3-1.1-0.7-2.2-1.1-3.1s-0.7-1.7-0.9-2.2c-3.6-8.5-8.8-16.1-15.4-22.5c-4.4-4.3-9.3-8-14.6-11.1
	c-5.6-3.2-11.5-5.6-17.8-7.3c-4.6-1.2-9.2-2-13.9-2.3c0.6-6.3,1.1-12.6,1.7-18.9c0.6-6.3,1.1-12.6,1.7-18.9l-11.1-0.4l-11.1-0.4
	l0.8,13.9l0.8,13.9L218.8,263l-13.2-26.1l-10.8,6.6l-10.8,6.6l5.4,8.3l5.4,8.3l-6.3,5.9l-6.3,5.9l14.6,17l14.6,17
	c-4.3,4.4-8.1,9.3-11.2,14.5c-5,8.4-8.4,17.7-9.8,27.3c-0.6,4.2-0.8,8.5-0.7,12.7c0.1,3.6,0.5,7.1,1.1,10.6c0.2,1.1,0.4,2.3,0.7,3.5
	s0.6,2.3,0.9,3.4c4.6,15.2,15.5,27,29.5,33.7c30.9,14.2,67.4,3.1,85.3-25.8C315,379.2,317.6,363.4,313,348.1z"/>
<path class="st0" d="M220.2,307.7c-0.2,0-0.5-0.1-0.7-0.2c-0.2-0.1-0.4-0.3-0.6-0.5l-12.7-19.8l-12.7-19.8c-0.5-0.7-0.3-1.6,0.4-2.1
	c0,0,0,0,0,0c0.7-0.5,1.6-0.3,2.1,0.4c0,0,0,0,0,0l12.7,19.8l12.7,19.8c0.2,0.3,0.3,0.7,0.2,1.1c-0.1,0.4-0.3,0.7-0.7,1
	C220.8,307.6,220.5,307.7,220.2,307.7z"/>
<path class="st5" d="M269.4,422.8h-0.2h-0.2c-10.9-3-20.7-9-28.3-17.4c-7.6-8.4-13.2-19.3-16.8-32.5c-2.3-8.7-3.6-17.5-4-26.5
	c-0.2-3.9-0.2-7.8,0-11.7c0-0.3,0.2-0.6,0.4-0.9c0.3-0.2,0.6-0.3,0.9-0.3c0.7,0.1,1.2,0.7,1.1,1.3c-0.2,3.8-0.2,7.7,0,11.5
	c0.4,8.7,1.7,17.4,3.9,25.9c3.5,12.9,8.8,23.4,16.1,31.4c7.3,8.1,16.7,13.9,27.2,16.7c0.3,0.1,0.6,0.3,0.8,0.6
	c0.2,0.3,0.2,0.6,0.1,1c-0.1,0.3-0.2,0.5-0.5,0.7C269.9,422.7,269.7,422.8,269.4,422.8z"/>
<path class="st5" d="M290.5,412.2h-0.2c-0.3,0-0.6-0.2-0.8-0.5c-0.2-0.3-0.3-0.6-0.2-0.9c2-12.4,0.9-25.1-3.1-37
	c-3.1-9-7.8-17.3-13.9-24.6c-4.6-5.6-9.9-10.6-15.8-14.9c-2.4-1.8-5-3.5-7.6-5c-0.6-0.3-0.8-1.1-0.5-1.7c0.2-0.3,0.4-0.5,0.7-0.6
	c0.3-0.1,0.7-0.1,1,0.1c2.8,1.5,5.5,3.3,8,5.2c5.9,4.4,11.3,9.6,16.1,15.2c6.3,7.5,11.1,16.1,14.3,25.4c4.2,12.3,5.3,25.4,3.2,38.2
	c0,0.3-0.2,0.6-0.4,0.8C291,412.1,290.7,412.2,290.5,412.2z"/>
<path class="st9" d="M175.6,417.9c0.1,2.6-0.6,5.2-1.9,7.5c-1.2,1.9-2.8,3.1-4.6,3.1s-3.4-1.2-4.6-3.1c-2.6-4.7-2.6-10.3,0-15
	c1.2-1.9,2.8-3.1,4.6-3.1s3.4,1.2,4.6,3.1C175,412.6,175.7,415.2,175.6,417.9z"/>
<path class="st9" d="M455.6,609.1l-41.4,40.3l-41.4,40.3c-3.9,3.8-10,4.2-14.4,1l-96.1-69.8L166,551c-5-3.7-6.1-10.7-2.5-15.7
	c0.8-1.1,1.8-2.1,3-2.8l44.2-28.8L255,475c3.7-2.4,8.4-2.4,12.1-0.1l93.3,58.3l93.3,58.3c5.3,3.3,6.9,10.2,3.6,15.5
	C456.8,607.8,456.3,608.5,455.6,609.1L455.6,609.1z"/>
<path class="st9" d="M596,185.4c0.7,2.3,0.8,4.8,0.1,7.1c-0.5,2.8-3.2,4.7-6,4.1c-1.1-0.2-2.1-0.8-2.8-1.6
	c-3.6-3.3-5.1-8.4-3.8-13.2c0.5-2.8,3.2-4.7,6-4.1c1.1,0.2,2.1,0.8,2.8,1.6C594.1,181,595.4,183.1,596,185.4z"/>
<path class="st9" d="M576.8,216.3c1.2,2.7,1.7,5.6,1.3,8.6c-0.4,2.5-1.6,4.5-3.5,5.3s-4.1,0.4-6.2-1.1c-4.7-3.6-7.3-9.4-6.7-15.4
	c0.4-2.5,1.6-4.5,3.5-5.3s4.1-0.3,6.2,1.1C573.9,211.3,575.7,213.6,576.8,216.3z"/>
<path class="st9" d="M606.7,250.3c-1,3-2.8,5.7-5.2,7.8c-2.1,1.7-4.3,2.5-6.2,1.8s-3.2-2.7-3.7-5.3c-0.8-6.4,1.5-12.7,6.2-17.1
	c2.1-1.7,4.3-2.4,6.2-1.8s3.2,2.7,3.7,5.3C608.2,244.1,607.8,247.3,606.7,250.3z"/>
<path class="st9" d="M190.6,466c-1.7,1.1-3.9,1.3-5.8,0.5c-5-2-8.4-6.6-9.1-11.9c-0.6-2.9,1.2-5.8,4.1-6.4c1.2-0.3,2.5-0.1,3.6,0.5
	c5,2,8.4,6.6,9.1,11.9C192.9,462.6,192.1,464.7,190.6,466z"/>
<path class="st9" d="M145.4,411.5c1.9,1.8,3.2,4.1,3.8,6.7c1,2.8-0.5,5.9-3.4,6.9c-1.2,0.4-2.4,0.4-3.6,0
	c-5.1-1.3-9.1-5.3-10.5-10.5c-1-2.8,0.5-5.9,3.4-6.9c1.2-0.4,2.4-0.4,3.6,0C141.2,408.3,143.5,409.6,145.4,411.5z"/>
<path class="st2" d="M329.9,639.7c-0.8-2.2-1.2-4.6-1.1-6.9c0.1-2.4,0.7-4.7,1.7-6.8c1.8-3.8,3.9-7.5,6.4-10.9
	c2.4-3.4,5.3-6.5,8.5-9.1c3.2-2.6,7.1-4.2,11.2-4.5c4.2-0.2,8.2,1.6,10.8,4.9c2,2.4,3.4,5.3,4.2,8.3c0.8,3,1.3,6.2,1.4,9.3
	c0.1,2.7,0.1,5.4-0.1,8.1c-0.2,2.7-0.5,5.4-1,8.1c-0.6,3.2-1.9,6.2-4,8.7c-2.1,2.5-4.8,4.3-7.8,5.4c-3.2,1.1-6.5,1.5-9.8,1.3
	c-3.3-0.2-6.5-1.2-9.5-2.7c-2.8-1.5-5.2-3.6-7.1-6.1C332.1,644.6,330.8,642.2,329.9,639.7z"/>
<path class="st2" d="M269.6,598.2c-0.8-2.2-1.2-4.6-1.1-6.9c0.1-2.4,0.7-4.7,1.7-6.8c1.8-3.8,3.9-7.5,6.4-10.9
	c2.4-3.4,5.3-6.5,8.5-9.1c3.2-2.6,7.1-4.2,11.2-4.4c4.2-0.2,8.2,1.6,10.8,4.9c2,2.4,3.4,5.3,4.2,8.3c0.8,3,1.2,6.2,1.4,9.3
	c0.1,2.7,0.1,5.4-0.1,8.1c-0.2,2.7-0.5,5.4-1,8.1c-0.5,3.2-1.9,6.2-4,8.7c-2.1,2.5-4.8,4.3-7.8,5.4c-3.2,1.1-6.5,1.5-9.8,1.3
	c-3.3-0.2-6.5-1.2-9.5-2.7c-2.8-1.5-5.2-3.6-7.1-6.1C271.7,603.1,270.5,600.7,269.6,598.2z"/>
<path class="st2" d="M213.3,556.7c-0.8-2.2-1.2-4.6-1.1-6.9c0.1-2.4,0.7-4.7,1.7-6.8c1.8-3.8,3.9-7.5,6.3-11
	c2.4-3.4,5.3-6.5,8.6-9.1c3.2-2.6,7.1-4.2,11.2-4.5c4.2-0.2,8.2,1.6,10.8,4.9c2,2.4,3.4,5.3,4.2,8.3c0.8,3,1.2,6.2,1.4,9.3
	c0.1,2.7,0.1,5.4-0.1,8.1c-0.2,2.7-0.5,5.4-1,8.1c-0.5,3.2-1.9,6.2-4,8.7c-2.1,2.5-4.8,4.3-7.8,5.4c-3.2,1.1-6.5,1.5-9.8,1.3
	c-3.3-0.2-6.5-1.2-9.5-2.7c-2.8-1.5-5.2-3.6-7.1-6.1C215.5,561.5,214.2,559.2,213.3,556.7z"/>
<path class="st2" d="M371.1,588.1c-0.8-2.2-1.2-4.6-1.1-6.9c0.1-2.4,0.7-4.7,1.7-6.8c1.8-3.8,3.9-7.5,6.4-10.9
	c2.4-3.4,5.3-6.5,8.5-9.1c3.2-2.6,7.1-4.2,11.2-4.5c4.2-0.2,8.2,1.6,10.8,4.9c2,2.4,3.4,5.3,4.2,8.3c0.8,3,1.2,6.2,1.4,9.3
	c0.1,2.7,0.1,5.4-0.1,8.1c-0.2,2.7-0.5,5.4-1,8.1c-0.5,3.2-1.9,6.2-4,8.7c-2,2.5-4.8,4.3-7.8,5.4c-3.2,1.1-6.5,1.5-9.8,1.3
	c-3.3-0.2-6.5-1.2-9.5-2.7c-2.8-1.5-5.2-3.6-7.1-6.1C373.3,592.9,372,590.6,371.1,588.1z"/>
<path class="st2" d="M312.8,546.5c-1.6-4.5-1.4-9.4,0.7-13.7c1.8-3.8,3.9-7.5,6.4-10.9c2.4-3.4,5.3-6.5,8.5-9.1
	c3.2-2.6,7.1-4.2,11.2-4.5c4.2-0.1,8.2,1.6,10.8,4.9c2,2.4,3.4,5.3,4.2,8.3c0.8,3,1.2,6.2,1.4,9.3c0.1,2.7,0.1,5.4-0.1,8.1
	c-0.2,2.7-0.5,5.4-1,8.1c-0.6,3.2-1.9,6.2-4,8.7c-2,2.5-4.8,4.3-7.8,5.4c-3.2,1.1-6.5,1.5-9.8,1.3c-3.3-0.2-6.5-1.2-9.5-2.7
	c-2.8-1.5-5.2-3.6-7.1-6.1C315,551.4,313.7,549,312.8,546.5z"/>
<path class="st2" d="M254.5,505c-1.6-4.5-1.4-9.4,0.7-13.7c1.8-3.8,3.9-7.5,6.3-10.9c2.4-3.4,5.3-6.5,8.5-9.1
	c3.2-2.6,7.1-4.2,11.2-4.5c4.2-0.1,8.2,1.7,10.8,4.9c2,2.4,3.4,5.3,4.2,8.3c0.8,3,1.2,6.2,1.4,9.3c0.1,2.7,0.1,5.4-0.1,8.1
	c-0.2,2.7-0.5,5.4-1,8.1c-0.6,3.2-1.9,6.2-4,8.7c-2.1,2.5-4.8,4.3-7.8,5.4c-3.2,1.1-6.5,1.5-9.8,1.3c-3.3-0.2-6.5-1.2-9.5-2.7
	c-2.8-1.5-5.2-3.6-7.1-6.1C256.7,509.8,255.4,507.5,254.5,505z"/>
<path class="st8" d="M650.2,215.2l-18.6-31.5L613,152.2l6.6-3.6l6.6-3.6l8.2,14.4l8.2,14.4L631,136.7l-11.6-37.2l12.9-2.7l12.9-2.7
	l6.6,29.4l6.6,29.4l4.8-21.2l4.8-21.3l11.3,4.1l11.3,4.1c-3.9,9.9-7.2,20.1-9.7,30.5c-4.3,17.5-7.4,39.6-2.9,57.6l-13.9,4.3
	L650.2,215.2z"/>
<path class="st2" d="M650.2,215.2l33,104.6l33,104.6c1.4,5.3,3.6,10.4,6.7,15c4.8,6.8,12.4,12.2,23.8,6.6c0,0,4.3-2.1,6-8.3
	s0.9-16.5-9.3-32.9c-6.6-14.5-13.3-30.1-19.8-46.5s-12.9-33.9-19-52.3c-5.8-17.8-11-35-15.3-51.6s-8.2-32.5-11.4-47.7l-13.9,4.3
	L650.2,215.2z"/>
<path class="st8" d="M818.8,532c0.3,0.3,0.6,0.6,1,0.9c0.3,0.3,0.7,0.6,1.1,0.9c1.9,1.5,4,2.8,6.3,3.7c3.5,1.6,7.5,1.8,11.2,0.7
	c3.7-1.2,6.8-3.6,8.9-6.8c2.1-3.2,3.3-7,3.3-10.9c0-3.5-1-6.8-2.8-9.8c-1.9-3-4.4-5.4-7.5-7.1c2.4,0.9,5,1.4,7.6,1.5
	c3.4,0.1,6.7-0.6,9.7-2.2c4.1-2.2,7.3-5.7,9.1-9.9c1.9-4.4,2.4-9.4,1.4-14.1c-0.7-2.3-1.7-4.4-2.9-6.4c-2.2-3.7-5.5-6.5-9.5-8.1
	c-4.8-1.7-10-1.6-14.7,0.3c-5.2,2.1-9.6,5.8-12.5,10.6c0.1-4.8-1.4-9.6-4.4-13.4c-2.7-3.6-6.7-6.2-11.2-7.1c-3.5-0.7-7.1-0.3-10.4,1
	c-3.4,1.3-6.4,3.6-8.5,6.6c-2.7,3.8-3.9,8.4-3.4,13.1l-0.4-0.8l-0.4-0.8c-4.6-9.2-15.9-13-25.1-8.3l0,0c-9.2,4.6-13,15.9-8.3,25.1
	c0,0,0,0,0,0l4.2,8.4l4.2,8.4l-12,6l-12,6l6,12.1l6,12.1l12-6l12-6l4.3,8.4l4.2,8.4c4.6,9.2,15.9,13,25.1,8.3c0,0,0,0,0,0l0,0
	C819.4,552.1,823.2,541.2,818.8,532z"/>
<path class="st1" d="M545.2,650.4c-3.7,1.3-7.8,1.2-11.5-0.5c-7.7-3.4-11.6-12-9.1-20c1.2-3.8,3.7-7,7.2-8.9l83.1-54.6l83.1-54.6
	c9.1-6.1,20.5-8,31.1-5c10.9,3,20,10.4,25.2,20.3l0,0c5.4,10,6.4,21.7,2.7,32.4c-3.5,10.5-11.5,18.9-21.7,22.9l-95.1,33.9
	L545.2,650.4z"/>
<path class="st5" d="M715.6,590.4c-0.2,0-0.5-0.1-0.7-0.2c-0.2-0.1-0.4-0.3-0.5-0.5l-7.9-16.7l-7.9-16.7c-0.3-0.6,0-1.4,0.6-1.7
	c0,0,0,0,0,0c0.3-0.1,0.7-0.1,1,0c0.3,0.1,0.6,0.3,0.7,0.6l7.9,16.7l7.9,16.7c0.3,0.6,0,1.4-0.6,1.7c0,0,0,0,0,0l-0.3,0.1
	L715.6,590.4z"/>
<path class="st5" d="M671.8,604.9c-0.2,0-0.5-0.1-0.7-0.2c-0.2-0.1-0.4-0.3-0.5-0.5l-6.9-14.5l-6.9-14.5c-0.1-0.3-0.1-0.7,0-1
	c0.1-0.3,0.3-0.6,0.6-0.7c0.6-0.3,1.4,0,1.7,0.6c0,0,0,0,0,0l6.9,14.5L673,603c0.3,0.6,0,1.4-0.6,1.7c0,0,0,0,0,0l-0.3,0.1
	L671.8,604.9z"/>
<path class="st5" d="M630,621.4c-0.2,0-0.5-0.1-0.7-0.2c-0.2-0.1-0.4-0.3-0.5-0.6l-6.4-15.5l-6.4-15.5c-0.1-0.3-0.1-0.7,0-1
	c0.1-0.3,0.4-0.5,0.7-0.7c0.3-0.1,0.7-0.1,1,0c0.3,0.1,0.6,0.4,0.7,0.7l6.4,15.5l6.4,15.5c0.1,0.3,0.1,0.7,0,1
	c-0.1,0.3-0.4,0.5-0.7,0.7c-0.1,0-0.2,0.1-0.2,0.1C630.2,621.4,630.1,621.4,630,621.4z"/>
<path class="st0" d="M793.9,484.9c-0.3,0-0.6-0.1-0.8-0.2c-0.2-0.2-0.4-0.4-0.6-0.7l-1.7-3.9l-1.7-3.9c-0.2-0.4-0.2-0.8,0-1.1
	c0.1-0.4,0.4-0.7,0.8-0.8c0.4-0.2,0.8-0.2,1.2,0c0.4,0.1,0.7,0.4,0.8,0.8l1.7,3.9l1.7,3.9c0.1,0.4,0.1,0.8,0,1.1
	c-0.1,0.4-0.4,0.7-0.8,0.8c-0.1,0-0.2,0.1-0.3,0.1L793.9,484.9z"/>
<path class="st0" d="M840.1,505.2h-0.2h-0.2l-4.2-1.4l-4.2-1.4c-0.4-0.1-0.7-0.4-0.9-0.7c-0.2-0.4-0.2-0.8-0.1-1.1
	c0.2-0.8,1.1-1.2,1.8-1c0,0,0,0,0,0l4.2,1.4l4.2,1.4c0.8,0.2,1.2,1.1,1,1.8c0,0,0,0,0,0c-0.1,0.3-0.3,0.6-0.5,0.8
	C840.8,505.1,840.5,505.2,840.1,505.2z"/>
<path class="st0" d="M818.8,533.5c-0.3,0-0.5-0.1-0.8-0.2c-0.2-0.1-0.4-0.3-0.6-0.6l-2.2-4l-2.2-4c-0.2-0.3-0.2-0.8-0.1-1.1
	c0.1-0.4,0.4-0.7,0.7-0.9c0.7-0.4,1.6-0.1,2,0.6l2.2,4l2.2,4c0.4,0.7,0.1,1.6-0.6,2c-0.1,0.1-0.2,0.1-0.4,0.1
	C819,533.4,818.9,533.5,818.8,533.5z"/>
<polygon class="st0" points="776.8,531.6 772.7,523.5 768.7,515.5 763.8,528 758.8,540.6 767.8,536.1 "/>
<path class="st0" d="M648.5,188.8c-0.3,0-0.6-0.1-0.8-0.2c-0.2-0.2-0.4-0.4-0.6-0.6l-3-6.7l-3-6.7c-0.3-0.8,0-1.7,0.8-2
	c0.4-0.1,0.8-0.1,1.2,0c0.4,0.1,0.7,0.4,0.8,0.8l3,6.7l3,6.7c0.3,0.8,0,1.7-0.8,2c0,0,0,0,0,0c-0.1,0-0.2,0.1-0.3,0.1
	C648.8,188.8,648.7,188.8,648.5,188.8z"/>
<path class="st0" d="M658.3,161.1c-0.4,0-0.8-0.2-1.1-0.4c-0.3-0.3-0.4-0.7-0.4-1.1v-6.8c0-0.4,0.2-0.8,0.4-1.1
	c0.6-0.6,1.5-0.6,2.1,0c0.3,0.3,0.4,0.7,0.4,1.1v6.8c0,0.4-0.2,0.8-0.4,1.1C659.1,161,658.7,161.1,658.3,161.1z"/>
<path class="st2" d="M407.2,353.5c1.6-1,2.9-2.5,3.9-4.1c0.7-1.3,0.9-2.8,0.5-4.2c-0.3-0.8-0.8-1.5-1.4-2c-0.4-0.3-0.8-0.6-1.2-0.8
	c-1.9-0.8-4-0.9-5.9-0.1c-2.5,0.9-4.7,2.3-6.6,4.1c-2.6,0-5.5,0-8.3,0.1s-5.7,0.1-8.3,0.1c-2-1.8-4.5-3-7.1-3.5
	c-2.1-0.3-3.9,0.2-4.9,1.3s-1.4,3.4-0.7,5.9c0.9,3,2.7,5.6,5.3,7.5l3,15.7l3,15.7c0.2,1,0.7,1.9,1.5,2.5c0.8,0.6,1.8,1,2.8,1h9.6
	l2.9,37.6l2.9,37.6c0.1,1.6,1.5,2.9,3.1,2.9h15.9c0.8,0,1.6-0.3,2.2-0.9c0.6-0.6,0.9-1.4,1-2.2l0.6-19.7l0.6-19.7l21.1-0.9l21.1-0.9
	l4.1,20l4.1,20c0.2,1.2,1.3,2,2.5,2h2.7h2.7l-7.4-58.3l-7.4-58.3l-28.9,0.9L407.2,353.5z"/>
<path class="st7" d="M413.6,191.7c0,11.2-9,20.2-20.2,20.2c-11.2,0-20.2-9-20.2-20.2c0-11.2,9-20.2,20.2-20.2
	c5.4,0,10.5,2.1,14.3,5.9C411.5,181.2,413.6,186.3,413.6,191.7z"/>
<path class="st5" d="M407.4,472c-0.7,0-1.2-0.6-1.2-1.2v-61.9c0-0.7,0.6-1.2,1.2-1.2s1.2,0.6,1.2,1.2v61.9
	C408.6,471.4,408.1,472,407.4,472z"/>
<path class="st5" d="M384.9,387c0,0.7-0.6,1.3-1.3,1.3c-0.7,0-1.3-0.6-1.3-1.3c0-0.7,0.6-1.3,1.3-1.3c0.3,0,0.7,0.1,0.9,0.4
	C384.8,386.3,384.9,386.7,384.9,387z"/>
<path class="st5" d="M390.3,387c0,0.3-0.1,0.7-0.4,0.9c-0.2,0.2-0.6,0.4-0.9,0.4c-0.3,0-0.7-0.1-0.9-0.4c-0.5-0.5-0.5-1.3,0-1.8
	c0.2-0.2,0.6-0.4,0.9-0.4c0.3,0,0.7,0.1,0.9,0.4C390.1,386.3,390.3,386.7,390.3,387z"/>
<path class="st5" d="M392.2,393.9c-0.2,0-0.3,0-0.4-0.1c-0.1-0.1-0.3-0.1-0.4-0.2c-0.5-0.5-0.5-1.3-0.1-1.8l4.3-4.7l4.3-4.7
	c0.2-0.2,0.5-0.4,0.9-0.4c0.3,0,0.7,0.1,0.9,0.3c0.2,0.2,0.4,0.5,0.4,0.9c0,0.3-0.1,0.7-0.3,0.9l-4.3,4.7l-4.3,4.7
	c-0.1,0.1-0.3,0.2-0.4,0.3C392.5,393.8,392.4,393.9,392.2,393.9z"/>
<path class="st1" d="M396.9,371.1c1,0.6,2,1.1,3.1,1.5c1.8,0.6,3.8,0.8,5.7,0.3c2.9-0.8,5.4-3.1,7.2-6.5c2-4.1,3-8.6,2.9-13.1
	l-4.3,0.1l-4.3,0.1c1.6-1,2.9-2.5,3.9-4.1c0.7-1.3,0.9-2.8,0.5-4.2c-0.3-0.8-0.8-1.5-1.4-2c-0.4-0.3-0.8-0.6-1.2-0.8
	c-1.9-0.8-4-0.9-5.9-0.1c-2.5,0.9-4.7,2.3-6.6,4.1h-3.7l-3.9,0c-0.7,5-0.3,10.1,1.1,15C391.4,365.8,393.7,369.1,396.9,371.1z"/>
<path class="st1" d="M431.7,382.4c3.9,0.5,7.7-2.1,10.7-5c2-2,3.8-4.2,5.4-6.6c1.8,1.5,3.9,2.7,6.1,3.5c4.5,1.8,9.7,1.2,13.7-1.6
	l-1.3-10.5l-1.3-10.5l-23.4,0.7l-23.4,0.7c-0.5,8.4,1.1,15.5,3.7,20.6S428,382,431.7,382.4z"/>
<path class="st1" d="M437.7,408.8c-2.5-5.2-6.9-9.2-12.2-11.4c-4.7-1.9-9.5-1.8-13,0.1c-3.9,2.2-6,6.1-6.7,10.4
	c-0.7,4.3-0.3,8.6,1.2,12.6c1.3,3.3,3.3,6.4,5.7,9.1c2.4,2.7,5.2,4.9,8.4,6.6l0.1-4l0.1-4l17.4-0.7l17.4-0.7c0.1-3-0.3-7.8-2.8-11.7
	S446.2,408.2,437.7,408.8z"/>
<path class="st1" d="M381.1,346.6h-1.4c-2-1.8-4.5-3-7.1-3.5c-2.1-0.3-3.9,0.2-4.9,1.3s-1.4,3.4-0.7,5.9c0.9,3,2.7,5.6,5.3,7.5
	l1.6,8.3l1.6,8.2c4.4-2.7,6.2-7.8,6.7-13.2C382.5,356.2,382.1,351.3,381.1,346.6z"/>
<path class="st5" d="M482.1,488.5c-0.3,0-0.6-0.1-0.8-0.3c-0.2-0.2-0.4-0.5-0.4-0.8l-16.7-131.6l-16.7-131.6c0-0.3,0.1-0.7,0.2-0.9
	c0.2-0.3,0.5-0.4,0.8-0.5c0.7-0.1,1.3,0.4,1.4,1.1c0,0,0,0,0,0l16.7,131.6l16.7,131.6c0,0.3-0.1,0.7-0.3,0.9
	c-0.2,0.3-0.5,0.4-0.8,0.5L482.1,488.5L482.1,488.5z"/>
<path class="st0" d="M234.6,300.7c-0.7,0-1.3-0.5-1.4-1.1l-1.3-5l-1.3-5c-0.1-0.4,0-0.8,0.2-1.1c0.2-0.3,0.5-0.6,0.9-0.7
	c0.4-0.1,0.8,0,1.1,0.2c0.3,0.2,0.6,0.5,0.7,0.9l1.3,5l1.3,5c0.2,0.8-0.2,1.6-1,1.8c0,0,0,0,0,0h-0.2L234.6,300.7z"/>
<path class="st9" d="M632.4,431.3c0,1.8-1.4,3.2-3.2,3.2c-1.8,0-3.2-1.4-3.2-3.2s1.4-3.2,3.2-3.2c0.9,0,1.7,0.3,2.3,0.9
	C632.1,429.6,632.4,430.4,632.4,431.3z"/>
<path class="st9" d="M639.6,445.5c0,2.7-2.2,4.8-4.8,4.8c-2.7,0-4.8-2.2-4.8-4.8s2.2-4.8,4.8-4.8c1.3,0,2.5,0.5,3.4,1.4
	C639.1,442.9,639.6,444.2,639.6,445.5z"/>
<path class="st9" d="M590.8,330.7c0,1.8-1.4,3.2-3.2,3.2c-1.8,0-3.2-1.4-3.2-3.2s1.4-3.2,3.2-3.2c0.9,0,1.7,0.3,2.3,0.9
	C590.5,329,590.8,329.9,590.8,330.7z"/>
<path class="st9" d="M598,344.9c0,2.7-2.2,4.8-4.8,4.8c-2.7,0-4.8-2.2-4.8-4.8s2.2-4.8,4.8-4.8c1.3,0,2.5,0.5,3.4,1.4
	C597.5,342.4,598,343.6,598,344.9z"/>
</svg>
