<?xml version="1.0" encoding="utf-8"?>
<!-- Generator: Adobe Illustrator 28.0.0, SVG Export Plug-In . SVG Version: 6.00 Build 0)  -->
<svg version="1.1" id="Layer_1" xmlns="http://www.w3.org/2000/svg" xmlns:xlink="http://www.w3.org/1999/xlink" x="0px" y="0px"
	 viewBox="0 0 64 64" style="enable-background:new 0 0 64 64;" xml:space="preserve">
<style type="text/css">
	.st0{fill:url(#SVGID_1_);}
	.st1{fill:url(#SVGID_00000052086852193143020270000008910575149206032290_);}
	.st2{fill:#BAB653;}
	.st3{fill:url(#SVGID_00000018217858561653515170000005344465533948394426_);}
	.st4{fill:url(#SVGID_00000138542107792047875700000015057033543544527269_);}
	.st5{fill:#FFFFFF;}
	.st6{fill:url(#SVGID_00000159448610589163178280000010938609918439724677_);}
	.st7{fill:#8288A1;}
	.st8{fill:#F6B756;}
</style>
<g id="Green_Idea">
	
		<linearGradient id="SVGID_1_" gradientUnits="userSpaceOnUse" x1="21" y1="3" x2="21" y2="19" gradientTransform="matrix(1 0 0 -1 0 66)">
		<stop  offset="0" style="stop-color:#BAB653"/>
		<stop  offset="1" style="stop-color:#D4E6B6"/>
	</linearGradient>
	<path class="st0" d="M32,61v2h-8c-7.7,0-14-6.3-14-14v-2h8C25.7,47,32,53.3,32,61z"/>
	
		<linearGradient id="SVGID_00000038410176583472320960000008804945048518260671_" gradientUnits="userSpaceOnUse" x1="42.9985" y1="3" x2="42.9985" y2="19" gradientTransform="matrix(1 0 0 -1 0 66)">
		<stop  offset="0" style="stop-color:#BAB653"/>
		<stop  offset="1" style="stop-color:#D4E6B6"/>
	</linearGradient>
	<path style="fill:url(#SVGID_00000038410176583472320960000008804945048518260671_);" d="M54,47v2c0,7.7-6.3,14-14,14h-8
		c0-2.5-0.1-4.4,1-7.2c2.1-5.3,7.3-8.8,13-8.8H54z"/>
	<path class="st2" d="M32,63h-8c-7.7,0-14-6.3-14-14c0-2.1-0.1-2,0-2c0.5,7.3,6.6,13,14,13h8C32,60.7,32,61.3,32,63z"/>
	<path class="st2" d="M54,49c0,7.7-6.3,14-14,14h-8c0-1.9,0-2.4,0-3h8c7.4,0,13.5-5.7,14-13C54.1,47,54,46.9,54,49z"/>
	<path class="st2" d="M33,63h-2.2c-2.6-3.9-7.2-9-11.8-9c-0.6,0-1-0.4-1-1s0.4-1,1-1c5.1,0,9.6,4.7,12,7.8C31.3,60.2,33,62.4,33,63z
		"/>
	<path class="st2" d="M46,53c0,2.5-3.4-1.5-10.6,7c-0.8,1-1.6,2-2.2,3H31c0-0.4,0.3-0.7,1-1.8c3.1-4.3,7.7-9.2,13-9.2
		C45.6,52,46,52.4,46,53z"/>
	
		<linearGradient id="SVGID_00000118398617763741908430000011501732071049533361_" gradientUnits="userSpaceOnUse" x1="32" y1="3" x2="32" y2="21" gradientTransform="matrix(1 0 0 -1 0 66)">
		<stop  offset="0" style="stop-color:#C1D375"/>
		<stop  offset="3.152481e-02" style="stop-color:#BAB653"/>
		<stop  offset="1" style="stop-color:#BAB653"/>
	</linearGradient>
	<path style="fill:url(#SVGID_00000118398617763741908430000011501732071049533361_);" d="M33,46v17h-2V46c0-0.6,0.4-1,1-1
		S33,45.4,33,46z"/>
	
		<linearGradient id="SVGID_00000066497509250284408040000001905038386197341824_" gradientUnits="userSpaceOnUse" x1="32.0012" y1="27.45" x2="32.0012" y2="56.0192" gradientTransform="matrix(1 0 0 -1 0 66)">
		<stop  offset="0" style="stop-color:#FBCC88"/>
		<stop  offset="1" style="stop-color:#FFE5C3"/>
	</linearGradient>
	<path style="fill:url(#SVGID_00000066497509250284408040000001905038386197341824_);" d="M40.8,32.6c-1.7,1.5-2.6,3.7-2.6,6H25.8
		c0-2.3-1-4.4-2.6-5.9c-8.5-7.8-3.2-22,8.1-22.6C43.5,9.4,49.7,24.4,40.8,32.6z"/>
	<polygon class="st5" points="37,25 33.4,23.6 33.4,16 27,25 30.6,26.4 30.6,34 	"/>
	
		<linearGradient id="SVGID_00000101785701267520571580000002659827022872888192_" gradientUnits="userSpaceOnUse" x1="32" y1="20" x2="32" y2="27.45" gradientTransform="matrix(1 0 0 -1 0 66)">
		<stop  offset="0" style="stop-color:#949AAF"/>
		<stop  offset="1" style="stop-color:#C6CCDA"/>
	</linearGradient>
	<path style="fill:url(#SVGID_00000101785701267520571580000002659827022872888192_);" d="M25.8,38.5h12.4l0,0v5
		c0,1.4-1.1,2.5-2.5,2.5h-7.4c-1.4,0-2.5-1.1-2.5-2.5L25.8,38.5L25.8,38.5z"/>
	<path class="st7" d="M38.2,41.5v2c0,1.4-1.1,2.5-2.5,2.5c0,0,0,0,0,0h-7.4c-1.4,0-2.5-1.1-2.5-2.5c0,0,0,0,0,0v-2
		c0,1.4,1.1,2.5,2.5,2.5c0,0,0,0,0,0h7.4C37.1,44,38.2,42.9,38.2,41.5C38.2,41.5,38.2,41.5,38.2,41.5z"/>
	<path class="st8" d="M53,23h-4c-0.6,0-1-0.4-1-1s0.4-1,1-1h4c0.6,0,1,0.4,1,1S53.6,23,53,23z"/>
	<path class="st8" d="M15,23h-4c-0.6,0-1-0.4-1-1s0.4-1,1-1h4c0.6,0,1,0.4,1,1S15.6,23,15,23z"/>
	<path class="st8" d="M46.8,37.8c-0.5,0-0.5,0-3.5-3.1c-0.4-0.4-0.4-1,0-1.4s1-0.4,1.4,0l2.8,2.8c0.4,0.4,0.4,1,0,1.4
		C47.4,37.7,47.1,37.9,46.8,37.8z"/>
	<path class="st8" d="M20,11c-0.5,0-0.5-0.1-3.5-3.1c-0.4-0.4-0.4-1,0-1.4s1-0.4,1.4,0l2.8,2.8c0.4,0.4,0.4,1,0,1.4
		C20.5,10.9,20.3,11,20,11z"/>
	<path class="st8" d="M44,11c-0.6,0-1-0.4-1-1c0-0.3,0.1-0.5,0.3-0.7l2.8-2.8c0.4-0.4,1-0.4,1.4,0c0.4,0.4,0.4,1,0,1.4l0,0
		C44.5,10.9,44.6,11,44,11z"/>
	<path class="st8" d="M17.1,37.8c-0.6,0-1-0.4-1-1c0-0.3,0.1-0.5,0.3-0.7l2.8-2.8c0.4-0.4,1-0.4,1.4,0c0.4,0.4,0.4,1,0,1.4
		C17.6,37.8,17.7,37.8,17.1,37.8z"/>
	<path class="st8" d="M31,6V2c0-0.6,0.4-1,1-1s1,0.4,1,1v4c0,0.6-0.4,1-1,1S31,6.6,31,6z"/>
	<path class="st8" d="M38.6,36c-0.3,0.8-0.4,1.7-0.4,2.5H25.8c0-0.9-0.1-1.7-0.4-2.5H38.6z"/>
</g>
</svg>
