<?xml version="1.0" encoding="utf-8"?>
<!-- Generator: Adobe Illustrator 28.0.0, SVG Export Plug-In . SVG Version: 6.00 Build 0)  -->
<svg version="1.1" id="Layer_1" xmlns="http://www.w3.org/2000/svg" xmlns:xlink="http://www.w3.org/1999/xlink" x="0px" y="0px"
	 viewBox="0 0 64 64" style="enable-background:new 0 0 64 64;" xml:space="preserve">
<style type="text/css">
	.st0{fill:url(#SVGID_1_);}
	.st1{fill:url(#SVGID_00000161627924979935013790000012504119394629172141_);}
	.st2{fill:url(#SVGID_00000002356464246153303710000005971302719618751148_);}
	.st3{fill:#CBA07A;}
	.st4{fill:url(#SVGID_00000017497739468935002100000012104014277450025115_);}
	.st5{fill:#A8A14C;}
	.st6{fill:url(#SVGID_00000114075133525757819640000012886624916791984317_);}
	.st7{fill:#ADA64E;}
	.st8{fill:url(#SVGID_00000142148874053575294240000017901024292287707291_);}
	.st9{fill:url(#SVGID_00000013166315330062656170000011088891150496148132_);}
	.st10{fill:#A88680;}
	.st11{fill:url(#SVGID_00000022540848677760993720000013494891654895620246_);}
	.st12{fill:#AAA34D;}
	.st13{fill:url(#SVGID_00000103949818020756511870000007989801097743779767_);}
	.st14{fill:url(#SVGID_00000073718847772227473240000014495168133591924376_);}
	.st15{fill:url(#SVGID_00000115516401872266421590000003548897825296710047_);}
	.st16{fill:url(#SVGID_00000163045814455720149280000007215344497213842841_);}
</style>
<g id="Forest">
	
		<linearGradient id="SVGID_1_" gradientUnits="userSpaceOnUse" x1="13" y1="1069" x2="13" y2="1056.02" gradientTransform="matrix(1 0 0 1 0 -1014)">
		<stop  offset="0" style="stop-color:#D1A788"/>
		<stop  offset="1" style="stop-color:#F2D3B8"/>
	</linearGradient>
	<polyline class="st0" points="15,42 15,55 11,55 11,42 	"/>
	
		<linearGradient id="SVGID_00000107553770433521624000000012210550859798010023_" gradientUnits="userSpaceOnUse" x1="32" y1="1069" x2="32" y2="1056" gradientTransform="matrix(1 0 0 1 0 -1014)">
		<stop  offset="0" style="stop-color:#D1A788"/>
		<stop  offset="1" style="stop-color:#F2D3B8"/>
	</linearGradient>
	<rect x="30" y="42" style="fill:url(#SVGID_00000107553770433521624000000012210550859798010023_);" width="4" height="13"/>
	
		<linearGradient id="SVGID_00000057132617943329009990000015562712468479657378_" gradientUnits="userSpaceOnUse" x1="51" y1="1069" x2="51" y2="1056.02" gradientTransform="matrix(1 0 0 1 0 -1014)">
		<stop  offset="0" style="stop-color:#D1A788"/>
		<stop  offset="1" style="stop-color:#F2D3B8"/>
	</linearGradient>
	<rect x="49" y="42" style="fill:url(#SVGID_00000057132617943329009990000015562712468479657378_);" width="4" height="13"/>
	<polygon class="st3" points="53,42 53,44.2 51,45.2 49,44.2 49,42 	"/>
	<polygon class="st3" points="15,42 15,44.2 13,45.2 11,44.2 11,42 	"/>
	
		<linearGradient id="SVGID_00000051357960882636947330000002307269348079743380_" gradientUnits="userSpaceOnUse" x1="51.85" y1="1057" x2="51.85" y2="1046" gradientTransform="matrix(1 0 0 1 0 -1014)">
		<stop  offset="0" style="stop-color:#BAB653"/>
		<stop  offset="1" style="stop-color:#B3C3B0"/>
	</linearGradient>
	<path style="fill:url(#SVGID_00000051357960882636947330000002307269348079743380_);" d="M63,40.2h-4.2l-1.4,2.1l-3.5-0.7L51,43
		l-2.8-1.4l-3.5,0.7l-1.4-2.1h-2.6l2.1-3.5c0.6-0.7,1.2-1.4,1.9-2.2c1.5-1.9,1.3-1.6,1.3-2.5h10l0.1,0.8C58,35.6,60.3,38.1,63,40.2z
		"/>
	<path class="st5" d="M57.3,34.5l-0.7,1l-3.3-0.7L51,36.1l-2.4-1.2l-3.3,0.7l-0.7-1c1.5-1.9,1.3-1.6,1.3-2.5h10l0.1,0.8
		C56.5,33.4,56.9,34,57.3,34.5z"/>
	
		<linearGradient id="SVGID_00000157269946829589393530000007824278012248008378_" gradientUnits="userSpaceOnUse" x1="51" y1="1047.8199" x2="51" y2="1038" gradientTransform="matrix(1 0 0 1 0 -1014)">
		<stop  offset="0" style="stop-color:#BAB653"/>
		<stop  offset="1" style="stop-color:#B3C3B0"/>
	</linearGradient>
	<path style="fill:url(#SVGID_00000157269946829589393530000007824278012248008378_);" d="M60,31.6h-3.2l-1.1,1.6l-2.6-0.5L51,33.8
		l-2.1-1.1l-2.6,0.5l-1.1-1.6H42c2.3-2,4.3-4.4,5.9-7L48,24h6C54.3,25.9,58.3,30.4,60,31.6z"/>
	<path class="st7" d="M55.3,26.5l-0.2,0.4l-2.4-0.5L51,27.2l-1.7-0.8l-2.4,0.5l-0.2-0.4c1.3-1.9,1.2-1.9,1.3-2.5h6
		C54.1,24.6,54,24.6,55.3,26.5z"/>
	
		<linearGradient id="SVGID_00000071533259194171258470000008580061502551929223_" gradientUnits="userSpaceOnUse" x1="-3658.6899" y1="1039" x2="-3658.6899" y2="1029" gradientTransform="matrix(-1 0 0 1 -3607.6899 -1014)">
		<stop  offset="0" style="stop-color:#BAB653"/>
		<stop  offset="1" style="stop-color:#B3C3B0"/>
	</linearGradient>
	<path style="fill:url(#SVGID_00000071533259194171258470000008580061502551929223_);" d="M45,23.6h2.1l0.7,1l1.8-0.4L51,25l1.4-0.7
		l1.8,0.4l0.7-1H57c-2.8-2.3-4.9-5.3-6-8.7C49.8,18.4,47.8,21.4,45,23.6z"/>
	
		<linearGradient id="SVGID_00000063633354767577148120000008738385822721586333_" gradientUnits="userSpaceOnUse" x1="12.1" y1="1057" x2="12.1" y2="1046" gradientTransform="matrix(1 0 0 1 0 -1014)">
		<stop  offset="0" style="stop-color:#BAB653"/>
		<stop  offset="1" style="stop-color:#B3C3B0"/>
	</linearGradient>
	<path style="fill:url(#SVGID_00000063633354767577148120000008738385822721586333_);" d="M18.1,32.8L18,32H8l-0.1,0.8
		C6,35.6,3.7,38.1,1,40.2h4.2l1.4,2.1l3.5-0.7L13,43l2.8-1.4l3.5,0.7l1.4-2.1h2.5C19.1,33.2,22.2,38.6,18.1,32.8z"/>
	<path class="st7" d="M19.4,34.5l-0.7,1l-3.3-0.7L13,36.1l-2.4-1.2l-3.3,0.7l-0.7-1c1.6-2,1.3-1.7,1.4-2.6h10l0.1,0.8
		C18.5,33.4,18.9,34,19.4,34.5z"/>
	<path class="st10" d="M62,55H2c-0.6,0-1-0.4-1-1s0.4-1,1-1h60c0.6,0,1,0.4,1,1S62.6,55,62,55z"/>
	<polygon class="st3" points="34,42 34,44.2 32,45.2 30,44.2 30,42 	"/>
	
		<linearGradient id="SVGID_00000136369957506639561250000004878173297050313907_" gradientUnits="userSpaceOnUse" x1="32" y1="1057" x2="32" y2="1044" gradientTransform="matrix(1 0 0 1 0 -1014)">
		<stop  offset="0" style="stop-color:#BAB653"/>
		<stop  offset="1" style="stop-color:#B3C3B0"/>
	</linearGradient>
	<path style="fill:url(#SVGID_00000136369957506639561250000004878173297050313907_);" d="M46,39.7h-4.9l-1.7,2.5l-4.1-0.8L32,43
		l-3.3-1.7l-4.1,0.8L23,39.6h-5c3.1-2.5,5.7-5.4,7.9-8.7l0.1-1h12l0.1,1C40.3,34.3,42.9,37.2,46,39.7z"/>
	<path class="st12" d="M39.3,32.7l-0.6,0.9l-3.9-0.8L32,34.2l-2.9-1.5l-3.9,0.8l-0.6-0.9c0.4-0.5,0.8-1.1,1.2-1.7l0.1-1h12l0.1,1
		C38.5,31.6,38.9,32.2,39.3,32.7z"/>
	
		<linearGradient id="SVGID_00000005973863413886902820000003191149411302615722_" gradientUnits="userSpaceOnUse" x1="32" y1="1046" x2="32" y2="1034" gradientTransform="matrix(1 0 0 1 0 -1014)">
		<stop  offset="0" style="stop-color:#BAB653"/>
		<stop  offset="1" style="stop-color:#B3C3B0"/>
	</linearGradient>
	<path style="fill:url(#SVGID_00000005973863413886902820000003191149411302615722_);" d="M43,29.4h-3.9l-1.3,2l-3.2-0.6L32,32
		l-2.6-1.3l-3.2,0.6l-1.3-2H21c3.8-2.8,7-8.2,8-9.4h6C36.2,21.4,39.1,26.5,43,29.4z"/>
	<path class="st7" d="M36.9,22.7l-0.2,0.4L34,22.5l-2,1l-2-1L27.3,23l-0.2-0.4c0.6-0.9,1.2-1.8,1.9-2.7h6
		C35.7,20.8,36.4,21.7,36.9,22.7z"/>
	
		<linearGradient id="SVGID_00000111905580544871930040000015509288090791554702_" gradientUnits="userSpaceOnUse" x1="32" y1="1035.24" x2="32" y2="1023" gradientTransform="matrix(1 0 0 1 0 -1014)">
		<stop  offset="0" style="stop-color:#BAB653"/>
		<stop  offset="1" style="stop-color:#B3C3B0"/>
	</linearGradient>
	<path style="fill:url(#SVGID_00000111905580544871930040000015509288090791554702_);" d="M39.1,19.5h-2.5l-0.8,1.3l-2.1-0.4
		L32,21.2l-1.7-0.8l-2.1,0.4l-0.8-1.3h-2.5c3.3-2.8,5.8-6.4,7.1-10.5C33.3,13.1,35.8,16.8,39.1,19.5z"/>
	
		<linearGradient id="SVGID_00000105404215181529915050000007719734804391609232_" gradientUnits="userSpaceOnUse" x1="13" y1="1047.8199" x2="13" y2="1038" gradientTransform="matrix(1 0 0 1 0 -1014)">
		<stop  offset="0" style="stop-color:#BAB653"/>
		<stop  offset="1" style="stop-color:#B3C3B0"/>
	</linearGradient>
	<path style="fill:url(#SVGID_00000105404215181529915050000007719734804391609232_);" d="M16.1,24.6L16,24h-6l-0.1,0.6
		c-1.5,2.7-3.5,5-5.9,7h3.2l1.1,1.6l2.6-0.5l2.1,1.1l2.1-1.1l2.6,0.5l1.1-1.6H22C19.6,29.7,17.7,27.3,16.1,24.6z"/>
	<path class="st7" d="M17.3,26.5l-0.2,0.4l-2.4-0.5L13,27.2l-1.7-0.8l-2.4,0.5l-0.2-0.4C10,24.6,9.9,24.6,10,24h6
		C16.1,24.6,16,24.6,17.3,26.5z"/>
	
		<linearGradient id="SVGID_00000096746211885711347620000001108566360207307655_" gradientUnits="userSpaceOnUse" x1="13" y1="1039" x2="13" y2="1029" gradientTransform="matrix(1 0 0 1 0 -1014)">
		<stop  offset="0" style="stop-color:#BAB653"/>
		<stop  offset="1" style="stop-color:#B3C3B0"/>
	</linearGradient>
	<path style="fill:url(#SVGID_00000096746211885711347620000001108566360207307655_);" d="M19,23.6h-2.1l-0.7,1l-1.8-0.4L13,25
		l-1.4-0.7l-1.8,0.4l-0.7-1H7c2.8-2.3,4.9-5.3,6-8.7C14.2,18.4,16.2,21.4,19,23.6z"/>
</g>
</svg>
