<?xml version="1.0" encoding="utf-8"?>
<!-- Generator: Adobe Illustrator 28.0.0, SVG Export Plug-In . SVG Version: 6.00 Build 0)  -->
<svg version="1.1" id="Layer_1" xmlns="http://www.w3.org/2000/svg" xmlns:xlink="http://www.w3.org/1999/xlink" x="0px" y="0px"
	 viewBox="0 0 64 64" style="enable-background:new 0 0 64 64;" xml:space="preserve">
<style type="text/css">
	.st0{fill:url(#SVGID_1_);}
	.st1{fill:url(#SVGID_00000168084143078645240920000013631219321529936062_);}
	.st2{fill:url(#SVGID_00000080918115591042039610000008563931621372884388_);}
	.st3{fill:url(#SVGID_00000048463917517168714750000008305335111552930691_);}
	.st4{fill:#CF4055;}
	.st5{fill:#FCD2C3;}
	.st6{fill:url(#SVGID_00000047762136833028836740000000854005477690320281_);}
	.st7{fill:url(#SVGID_00000075863737278111976210000002722071584696868009_);}
	.st8{fill:#8A6762;}
	.st9{fill:url(#SVGID_00000034050655349999812630000007903168874853865635_);}
	.st10{fill:#7ECE67;}
</style>
<g id="biodegradability">
	
		<linearGradient id="SVGID_1_" gradientUnits="userSpaceOnUse" x1="3.72" y1="49.5152" x2="63" y2="49.5152" gradientTransform="matrix(1 0 0 -1 0 66)">
		<stop  offset="0" style="stop-color:#BAB653"/>
		<stop  offset="1" style="stop-color:#C1D375"/>
	</linearGradient>
	<path class="st0" d="M63,32h-6c0-22-26.9-33.5-42.7-17.7l-2.8,2.8l2.8,2.9L3.7,20.7l0.7-10.6l2.8,2.8l2.8-2.8
		C29.7-9.5,63,4.6,63,32z"/>
	
		<linearGradient id="SVGID_00000138546847179413949440000007598030212577919874_" gradientUnits="userSpaceOnUse" x1="60.28" y1="18.4817" x2="1" y2="18.4817" gradientTransform="matrix(1 0 0 -1 0 66)">
		<stop  offset="0" style="stop-color:#BAB653"/>
		<stop  offset="1" style="stop-color:#C1D375"/>
	</linearGradient>
	<path style="fill:url(#SVGID_00000138546847179413949440000007598030212577919874_);" d="M60.3,43.3l-0.7,10.6l-2.8-2.8l-2.8,2.8
		C34.3,73.5,1,59.4,1,32h6c0,22,26.8,33.5,42.7,17.7l2.8-2.8L49.7,44L60.3,43.3z"/>
	
		<linearGradient id="SVGID_00000039126500836109211390000006161174243482848129_" gradientUnits="userSpaceOnUse" x1="32" y1="16" x2="32" y2="43.32" gradientTransform="matrix(1 0 0 -1 0 66)">
		<stop  offset="0" style="stop-color:#F2C4B0"/>
		<stop  offset="0.71" style="stop-color:#FFE3D7"/>
	</linearGradient>
	<path style="fill:url(#SVGID_00000039126500836109211390000006161174243482848129_);" d="M44,45c0,0-3,5-7,5c-3,0-3-1-5-1s-2,1-5,1
		c-4,0-7-5-7-5c3.1-2,4.9-5.4,5-9c0-3.9-2.9-7.4-6-9c5-6,13-4,13-4s8-2,13,4c-3,1.5-6,5-6,9C39.1,39.6,40.9,43,44,45z"/>
	
		<linearGradient id="SVGID_00000044179170227219728700000018064022091957493639_" gradientUnits="userSpaceOnUse" x1="32" y1="16" x2="32" y2="23" gradientTransform="matrix(1 0 0 -1 0 66)">
		<stop  offset="0" style="stop-color:#DA5466"/>
		<stop  offset="1" style="stop-color:#F4929C"/>
	</linearGradient>
	<path style="fill:url(#SVGID_00000044179170227219728700000018064022091957493639_);" d="M44,45c0,0-3,5-7,5c-3,0-3-1-5-1s-2,1-5,1
		c-4,0-7-5-7-5c4,1,8-2,8-2c1.3,2.7,6.7,2.7,8,0C36,43,40,46,44,45z"/>
	<path class="st4" d="M43.7,45.5C42.8,46.8,40.2,50,37,50c-3,0-3-1-5-1s-2,1-5,1c-3.2,0-5.8-3.2-6.7-4.5C25.7,50.1,29.5,47,32,47
		S38.3,50.1,43.7,45.5z"/>
	<path class="st5" d="M45,27c-0.8,0.5-1.6,1-2.3,1.6c-2.8,0-4.9,2.4-6.7,4.2c-2.2-2.3-2.6-2.8-4-2.8s-1.7,0.5-4,2.8
		c-1.8-1.9-3.9-4.2-6.7-4.2C20.6,28,19.8,27.5,19,27c5-6,13-4,13-4S40,21,45,27z"/>
	
		<linearGradient id="SVGID_00000064352830657213437120000013294506023078755485_" gradientUnits="userSpaceOnUse" x1="38.5" y1="36" x2="38.5" y2="43.32" gradientTransform="matrix(1 0 0 -1 0 66)">
		<stop  offset="0" style="stop-color:#DA5466"/>
		<stop  offset="1" style="stop-color:#F4929C"/>
	</linearGradient>
	<path style="fill:url(#SVGID_00000064352830657213437120000013294506023078755485_);" d="M45,27c-3-1-6,0-9,3c-1-1.2-2.4-2-4-2v-5
		C32,23,40,21,45,27z"/>
	
		<linearGradient id="SVGID_00000094616349231922314040000018078226553602878595_" gradientUnits="userSpaceOnUse" x1="25.5" y1="36" x2="25.5" y2="43.32" gradientTransform="matrix(1 0 0 -1 0 66)">
		<stop  offset="0" style="stop-color:#DA5466"/>
		<stop  offset="1" style="stop-color:#F4929C"/>
	</linearGradient>
	<path style="fill:url(#SVGID_00000094616349231922314040000018078226553602878595_);" d="M32,23v5c-1.6,0-3,0.8-4,2c-3-3-6-4-9-3
		C24,21,32,23,32,23z"/>
	<path class="st8" d="M29,36v-1c0-0.6,0.4-1,1-1s1,0.4,1,1v1c0,0.6-0.4,1-1,1S29,36.6,29,36z"/>
	<path class="st8" d="M33,36v-1c0-0.6,0.4-1,1-1s1,0.4,1,1v1c0,0.6-0.4,1-1,1S33,36.6,33,36z"/>
	<path class="st8" d="M31,23v-3c0-4.1-4-5-4.2-5c-0.6-0.1-0.9-0.6-0.8-1.2c0.1-0.6,0.6-0.9,1.2-0.8c3.4,0.6,5.8,3.6,5.8,7v3
		c0,0.6-0.4,1-1,1S31,23.6,31,23z"/>
	
		<linearGradient id="SVGID_00000168106525567224916530000000360955838633923993_" gradientUnits="userSpaceOnUse" x1="38" y1="44" x2="38" y2="51" gradientTransform="matrix(1 0 0 -1 0 66)">
		<stop  offset="0" style="stop-color:#8CDD79"/>
		<stop  offset="1" style="stop-color:#D4E6B6"/>
	</linearGradient>
	<path style="fill:url(#SVGID_00000168106525567224916530000000360955838633923993_);" d="M36,22h-3c0-3.9,3.1-7,7-7h3
		C43,18.9,39.9,22,36,22z"/>
	<path class="st10" d="M43,15c0,3.9-3.1,7-7,7h-3c0-0.7,0.1-1.4,0.3-2c3,0,5.3,0.3,7.7-2c0.8-0.8,1.4-1.8,1.8-3H43z"/>
</g>
</svg>
